<?xml version="1.0" standalone="no"?>
<!DOCTYPE svg PUBLIC "-//W3C//DTD SVG 1.1//EN" "http://www.w3.org/Graphics/SVG/1.1/DTD/svg11.dtd" >
<svg>
<metadata>
Created by FontForge 20120731 at Thu Aug 24 20:56:51 2017
 By www-data
Copyright 1990-2001 Bitstream Inc. All rights reserved.
</metadata>
<defs>
<font id="BauerBodoniBT-Italic" horiz-adv-x="1024" >
  <font-face 
    font-family="BauerBodni BT"
    font-weight="400"
    font-style="italic"
    font-stretch="normal"
    units-per-em="2048"
    panose-1="2 7 6 3 8 7 5 9 3 3"
    ascent="1556"
    descent="-492"
    x-height="840"
    cap-height="1356"
    bbox="-461 -512 2046 1931"
    underline-thickness="115"
    underline-position="-189"
    slope="-15.5"
    unicode-range="U+0020-F002"
  />
<missing-glyph horiz-adv-x="1229" 
d="M102 -362v1806h1024v-1806h-1024zM217 -248h795v1577h-795v-1577z" />
    <glyph glyph-name=".notdef" horiz-adv-x="1229" 
d="M102 -362v1806h1024v-1806h-1024zM217 -248h795v1577h-795v-1577z" />
    <glyph glyph-name=".null" horiz-adv-x="0" 
 />
    <glyph glyph-name="nonmarkingreturn" horiz-adv-x="494" 
 />
    <glyph glyph-name="space" unicode=" " horiz-adv-x="494" 
 />
    <glyph glyph-name="exclam" unicode="!" horiz-adv-x="674" 
d="M254 324l-31 8q75 255 107 415.5t32 272.5q0 17 -1 42.5t-4 66.5q65 40 113 101t87 154q0 -7 -1 -23q-3 -68 -3 -97q0 -49 11.5 -83.5t35.5 -60.5q-98 -124 -184.5 -324t-161.5 -472zM43 61q0 39 27 66t65 27t64 -27t26 -66q0 -38 -25.5 -64t-64.5 -26q-38 0 -65 26.5
t-27 63.5z" />
    <glyph glyph-name="quotedbl" unicode="&#x22;" horiz-adv-x="678" 
d="M518 864h-31l-65 457q0 2 -1 6q-3 22 -3 33q0 49 22.5 75.5t63.5 26.5q40 0 62 -26t22 -74q0 -14 -0.5 -23t-1.5 -18zM190 864h-32l-64 457q-2 17 -3 26t-1 15q0 48 22 74t62 26q41 0 63.5 -26t22.5 -74q0 -9 -3 -34q-1 -5 -1 -7z" />
    <glyph glyph-name="numbersign" unicode="#" horiz-adv-x="1575" 
d="M700 868l-100 -286h289l102 286h-291zM778 1456h133l-168 -471h287l168 471h131l-166 -471h307l-40 -117h-310l-100 -286h332l-43 -115h-330l-166 -469h-133l166 469h-287l-166 -469h-131l166 469h-324l43 115h322l100 286h-348l43 117h348z" />
    <glyph glyph-name="dollar" unicode="$" horiz-adv-x="985" 
d="M485 870q47 -23 75.5 -36t43.5 -19l152 522q-24 9 -51 14t-54 5q-4 0 -13 -1t-13 -1zM457 889l131 463q-125 -15 -201 -86t-76 -170q0 -65 37.5 -118t108.5 -89zM408 6q156 12 244.5 103t88.5 239q0 79 -42 135.5t-128 94.5zM246 37q30 -12 62.5 -18.5t66.5 -6.5l168 584
q-20 10 -60 30.5t-59 30.5zM150 -301l-33 8l90 316q-47 21 -117.5 68.5t-99.5 47.5q-19 0 -38.5 -19.5t-47.5 -68.5l-31 10q6 15 20 47q103 236 162 416l29 -6q-20 -58 -29.5 -111t-9.5 -100q0 -82 41.5 -142.5t130.5 -109.5l178 621q-81 57 -121.5 134t-40.5 175
q0 167 100 277.5t265 123.5l59 207l33 -10l-57 -194h16q22 0 49 -3.5t68 -11.5l61 217l33 -8l-63 -221q23 -12 62 -34q96 -52 116 -52q21 0 38.5 16t31.5 47l26 -6l-127 -397l-26 8q7 32 10.5 61t3.5 54q0 95 -37 161t-111 103l-151 -528q131 -63 189.5 -143.5t58.5 -198.5
q0 -204 -136.5 -340t-345.5 -138l-80 -274l-30 12l75 262q-32 3 -63.5 11t-62.5 20z" />
    <glyph glyph-name="percent" unicode="%" horiz-adv-x="1421" 
d="M1159 713q-49 0 -95 -56t-85 -163q-39 -106 -60.5 -209.5t-21.5 -175.5q0 -50 20 -77.5t56 -27.5q43 0 81 38.5t76 121.5q48 103 78.5 230.5t30.5 213.5q0 51 -21 78t-59 27zM1167 741q91 0 139 -64t48 -183q0 -81 -23.5 -161t-66.5 -149q-60 -94 -137.5 -147t-155.5 -53
q-89 0 -138 64t-49 181q0 78 24 157.5t69 152.5q59 96 135.5 149t154.5 53zM446 1331q-48 0 -94.5 -56.5t-85.5 -164.5q-38 -106 -60 -208.5t-22 -174.5q0 -50 20 -77t56 -27q44 0 82 38t76 119q47 103 77.5 231.5t30.5 215.5q0 50 -20.5 77t-59.5 27zM451 1354
q90 0 138 -64t48 -184q0 -80 -23 -159t-67 -148q-60 -96 -137.5 -149.5t-155.5 -53.5q-89 0 -137.5 64.5t-48.5 181.5q0 77 23.5 156.5t68.5 152.5q59 96 135.5 149.5t155.5 53.5zM317 -25h-67l854 1385h65z" />
    <glyph glyph-name="ampersand" unicode="&#x26;" horiz-adv-x="1366" 
d="M410 733q-25 77 -34 126.5t-9 94.5q0 129 87 225.5t201 96.5q91 0 146 -52.5t55 -140.5q0 -95 -77.5 -177t-211.5 -128q40 -104 88.5 -203.5t106.5 -197.5q102 125 174 176t141 51q58 0 96.5 -34.5t38.5 -86.5q0 -46 -29.5 -77t-74.5 -31q-43 0 -73.5 30t-30.5 72
q0 7 3 22t3 23q0 13 -3 19t-10 6q-31 0 -88 -49.5t-133 -143.5q68 -132 134.5 -201t125.5 -69q44 0 81.5 34.5t74.5 110.5l14 -6q-32 -116 -102 -183t-158 -67q-75 0 -143 56t-141 180q-108 -124 -195.5 -180t-171.5 -56q-124 0 -212.5 96.5t-88.5 231.5t101 240.5
t315 191.5zM647 229q-59 103 -115 220t-112 253q-140 -57 -203 -122t-63 -152q0 -58 24.5 -122.5t71.5 -129.5q37 -50 80 -75t90 -25q52 0 107 37t120 116zM559 799q134 50 203 121t69 157q0 77 -41.5 121.5t-113.5 44.5q-75 0 -122.5 -57t-47.5 -148q0 -55 13.5 -116
t39.5 -123z" />
    <glyph glyph-name="quotesingle" unicode="'" horiz-adv-x="348" 
d="M190 864h-32l-66 457q-1 8 -1.5 16t-0.5 23q0 50 21.5 76t62.5 26t63.5 -26t22.5 -74q0 -9 -3 -34q-1 -5 -1 -7z" />
    <glyph glyph-name="parenleft" unicode="(" horiz-adv-x="664" 
d="M836 1362q-287 -192 -439.5 -515t-152.5 -736q0 -144 34.5 -275t106.5 -262l-12 -14q-117 156 -182.5 356t-65.5 397q0 321 176 592.5t518 478.5z" />
    <glyph glyph-name="parenright" unicode=")" horiz-adv-x="664" 
d="M-262 -418q285 191 437.5 514t152.5 738q0 143 -34.5 274t-107.5 262l13 14q116 -156 181.5 -356t65.5 -397q0 -321 -175.5 -592.5t-518.5 -478.5z" />
    <glyph glyph-name="asterisk" unicode="*" 
d="M573 979q-14 161 -91 290q-11 18 -11 21q0 6 4 9.5t12 3.5h9l45 -7l12 56q4 19 8.5 25.5t13.5 6.5q11 0 16 -5.5t11 -26.5l14 -54l41 11q1 0 3.5 1t3.5 1q6 0 11 -5.5t5 -13.5q0 -2 -9 -20q-67 -129 -69 -291q136 69 246 171q25 23 31 24q5 -1 7 -3.5t3 -9.5l6 -53l59 6
h7q9 0 13.5 -4t4.5 -12q0 -9 -1 -12t-4 -5l-54 -41l16 -36q2 -5 6 -12.5t4 -8.5q0 -5 -3.5 -8.5t-8.5 -3.5q-2 0 -9 2q-42 12 -87 12q-108 0 -152.5 -7.5t-77.5 -25.5q83 -86 174.5 -145.5t91.5 -63.5q0 -7 -15 -13l-1 -1l-33 -12l25 -53q2 -5 4 -11.5t2 -9.5q0 -10 -5 -16
t-13 -6q-3 0 -5.5 0.5t-7.5 3.5l-63 41l-35 -35q-3 -3 -5.5 -4.5t-4.5 -1.5q-11 0 -21 49q-1 5 -2 8q-16 86 -42 147.5t-64 104.5q-52 -103 -75.5 -210.5t-25.5 -107.5q-1 1 -2 1.5t-4 3.5l-37 36l-49 -45q-6 -6 -12 -9t-12 -3q-9 1 -13.5 6t-5.5 15q0 1 1 5t3 10l19 58
l-44 17q-7 3 -10 6.5t-4 9.5q0 1 92 65.5t158 161.5q-25 8 -54 11.5t-64 3.5q-63 0 -127 -7.5t-66 -7.5q-16 1 -24 5t-9 12q0 2 2 4l31 39l-64 39q-8 5 -11 9.5t-3 10.5t7.5 11t19.5 6q3 0 10 -1t10 -1l49 -5v52q1 12 6 18t13 6q4 0 23 -19q111 -110 257 -163z" />
    <glyph glyph-name="plus" unicode="+" horiz-adv-x="1706" 
d="M795 1221h118v-551h539v-117h-539v-553h-118v553h-541v117h541v551z" />
    <glyph glyph-name="comma" unicode="," horiz-adv-x="494" 
d="M-45 -354l-12 28q127 52 206.5 126.5t79.5 136.5q0 36 -59 39q-26 2 -38 3q-54 10 -83 37t-29 68q0 44 31.5 74t77.5 30q68 0 113 -50.5t45 -129.5q0 -112 -87.5 -208t-244.5 -154z" />
    <glyph glyph-name="hyphen" unicode="-" horiz-adv-x="786" 
d="M72 344l37 131h448l-39 -131h-446z" />
    <glyph glyph-name="period" unicode="." horiz-adv-x="494" 
d="M43 76q0 38 26.5 64t65.5 26t64.5 -26t25.5 -64q0 -39 -25.5 -64.5t-64.5 -25.5q-38 0 -65 26.5t-27 63.5z" />
    <glyph glyph-name="slash" unicode="/" horiz-adv-x="569" 
d="M608 1384h56l-805 -1574h-54z" />
    <glyph glyph-name="zero" unicode="0" horiz-adv-x="985" 
d="M670 1337q-81 0 -154 -73.5t-143 -227.5q-36 -78 -71 -183t-64 -224q-32 -126 -49 -240t-17 -192q0 -94 36.5 -144.5t104.5 -50.5q81 0 153.5 72.5t141.5 224.5q35 77 70.5 183.5t66.5 232.5q32 126 49 237.5t17 188.5q0 94 -37 145t-104 51zM647 1360q143 0 219 -116.5
t76 -336.5q0 -145 -36.5 -289t-106.5 -274q-95 -175 -218 -273t-247 -98q-142 0 -218.5 117.5t-76.5 335.5q0 148 36.5 293t106.5 272q94 173 218 271t247 98z" />
    <glyph glyph-name="one" unicode="1" horiz-adv-x="985" 
d="M55 0l9 33q11 -1 23.5 -1.5t35.5 -0.5q78 0 111 25.5t63 125.5l305 1041q-81 -56 -181 -108t-233 -107l-10 26q120 49 271.5 134t394.5 241l-381 -1286q-4 -14 -6 -24.5t-2 -18.5q0 -43 125 -46q34 -1 53 -1l-6 -33h-572z" />
    <glyph glyph-name="two" unicode="2" horiz-adv-x="985" 
d="M-47 0q21 78 64.5 147t115.5 138q38 36 151.5 116.5t170.5 122.5q139 104 219 250t80 295q0 118 -71 190t-185 72q-110 0 -194.5 -65t-84.5 -144q0 -24 9 -42.5t38 -45.5q8 -7 23 -22q63 -61 63 -99q0 -31 -22 -52t-56 -21q-44 0 -76 57t-32 141q0 144 104 234t273 90
q175 0 285 -90.5t110 -231.5q0 -134 -76 -242t-272 -241q-51 -34 -153 -95q-273 -165 -369 -298h544q77 0 107 21t72 85l22 -10q-40 -70 -73.5 -134.5t-61.5 -125.5h-725z" />
    <glyph glyph-name="three" unicode="3" horiz-adv-x="985" 
d="M254 735l8 27q26 -1 58.5 -2.5t37.5 -1.5q197 0 293.5 94.5t96.5 288.5q0 90 -49.5 140t-137.5 50t-160.5 -44.5t-72.5 -92.5q0 -12 9.5 -19.5t37.5 -15.5q36 -9 52.5 -27.5t16.5 -48.5q0 -35 -27 -60.5t-65 -25.5q-42 0 -69 30.5t-27 78.5q0 107 94.5 180.5t241.5 73.5
q145 0 234 -77.5t89 -201.5q0 -135 -105.5 -223t-303.5 -117q151 -27 233 -107.5t82 -199.5q0 -191 -146 -325t-356 -134q-132 0 -219.5 67t-87.5 167q0 74 43.5 125t106.5 51q45 0 72.5 -25.5t27.5 -66.5q0 -44 -29 -71t-77 -27q-4 0 -17.5 1t-23.5 1q-28 0 -40 -9t-12 -30
q0 -55 73 -104.5t165 -49.5q71 0 128.5 31.5t102.5 95.5q41 58 70 165.5t29 207.5q0 130 -75.5 180.5t-283.5 50.5h-18z" />
    <glyph glyph-name="four" unicode="4" horiz-adv-x="985" 
d="M221 0l12 39h166l103 369h-543l872 987l21 -17l-758 -866h436l125 451l199 114l-156 -565h230l-31 -104h-229l-101 -369h160l-12 -39h-494z" />
    <glyph glyph-name="five" unicode="5" horiz-adv-x="985" 
d="M178 608l-18 6l215 742q141 -49 201.5 -63.5t103.5 -14.5q71 0 130.5 23.5t110.5 72.5q-9 -118 -98 -187t-233 -69q-49 0 -107.5 10.5t-126.5 30.5l-118 -401q53 58 122 87t152 29q143 0 231 -87t88 -228q0 -115 -55 -224t-160 -200q-89 -77 -185 -118.5t-185 -41.5
q-121 0 -201 63t-80 155q0 60 33 101.5t80 41.5q40 0 68 -27.5t28 -66.5q0 -24 -11.5 -47t-33.5 -41q-8 -7 -24 -19q-37 -27 -37 -53q0 -31 49 -52.5t127 -21.5q81 0 146 39t110 115q64 112 102.5 234.5t38.5 211.5q0 95 -54 153t-141 58q-84 0 -153.5 -54t-114.5 -157z" />
    <glyph glyph-name="six" unicode="6" horiz-adv-x="985" 
d="M547 795q-152 0 -255.5 -153t-103.5 -388q0 -125 52.5 -186.5t158.5 -61.5q65 0 115 33.5t82 97.5q58 116 90.5 237.5t32.5 223.5q0 92 -46 144.5t-126 52.5zM924 1360v-27q-259 -6 -410.5 -156.5t-232.5 -486.5q50 66 128 101.5t171 35.5q137 0 227 -94.5t90 -240.5
q0 -87 -33.5 -173t-95.5 -159q-72 -84 -171.5 -134.5t-190.5 -50.5q-164 0 -265.5 127t-101.5 334q0 178 65 344.5t187 298.5q132 143 287 212t346 69z" />
    <glyph glyph-name="seven" unicode="7" horiz-adv-x="985" 
d="M180 1026l-26 10q37 81 69 169.5t62 193.5l24 -4l-8 -39q65 -33 154 -49.5t207 -16.5q143 0 246 24t179 75l15 -23q-308 -388 -496 -701t-188 -421q0 -25 9 -38.5t40 -27.5q57 -25 72.5 -46.5t15.5 -55.5q0 -44 -24.5 -72.5t-63.5 -28.5q-52 0 -85.5 41t-33.5 105
q0 148 145 416t425 637q-83 -31 -175 -46.5t-196 -15.5q-111 0 -186 8t-128 25z" />
    <glyph glyph-name="eight" unicode="8" horiz-adv-x="985" 
d="M596 768q150 83 221.5 167t71.5 177q0 100 -65 160.5t-173 60.5q-112 0 -190 -68.5t-78 -164.5q0 -54 54 -138t159 -194zM412 676q-166 -78 -257.5 -184t-91.5 -220t85.5 -190t213.5 -76q129 0 217.5 74t88.5 182q0 85 -60 182.5t-196 231.5zM387 702q-61 74 -92 141.5
t-31 127.5q0 161 115.5 276t279.5 115q116 0 188.5 -66t72.5 -172q0 -107 -75 -200t-231 -176q97 -101 143 -196t46 -196q0 -158 -124 -268.5t-306 -110.5q-153 0 -246.5 83t-93.5 214q0 118 89.5 226t264.5 202z" />
    <glyph glyph-name="nine" unicode="9" horiz-adv-x="985" 
d="M424 541q152 0 255 152.5t103 387.5q0 126 -52 187t-159 61q-64 0 -113 -33t-81 -98q-59 -117 -92 -238.5t-33 -222.5q0 -91 46 -143.5t126 -52.5zM47 -25v27q259 6 410.5 156.5t232.5 486.5q-50 -66 -128 -101.5t-171 -35.5q-137 0 -227 94.5t-90 241.5q0 87 33.5 173
t95.5 159q72 83 171.5 133.5t190.5 50.5q164 0 265.5 -126t101.5 -333q0 -178 -65.5 -345.5t-186.5 -299.5q-132 -143 -287.5 -212t-345.5 -69z" />
    <glyph glyph-name="colon" unicode=":" horiz-adv-x="674" 
d="M256 748q0 38 26 65t64 27q39 0 65.5 -27t26.5 -65q0 -39 -26.5 -65t-65.5 -26q-38 0 -64 26.5t-26 64.5zM72 76q0 38 25.5 64t64.5 26t65.5 -26t26.5 -64t-26.5 -64t-65.5 -26q-38 0 -64 26t-26 64z" />
    <glyph glyph-name="semicolon" unicode=";" horiz-adv-x="674" 
d="M-12 -354l-11 28q128 52 206.5 126.5t78.5 136.5q0 36 -57 39q-26 2 -40 4q-52 9 -81 36t-29 68q0 44 31 74t78 30q68 0 113 -50.5t45 -129.5q0 -112 -88.5 -208t-245.5 -154zM256 748q0 38 26 65t64 27q39 0 65.5 -27t26.5 -65q0 -39 -26.5 -65t-65.5 -26
q-38 0 -64 26.5t-26 64.5z" />
    <glyph glyph-name="less" unicode="&#x3c;" horiz-adv-x="1706" 
d="M1442 1145v-127l-1000 -408l1000 -405v-129l-1178 483v103z" />
    <glyph glyph-name="equal" unicode="=" horiz-adv-x="1706" 
d="M254 477h1198v-117h-1198v117zM254 860h1198v-117h-1198v117z" />
    <glyph glyph-name="greater" unicode="&#x3e;" horiz-adv-x="1706" 
d="M264 1145l1178 -483v-103l-1178 -483v129l1000 405l-1000 408v127z" />
    <glyph glyph-name="question" unicode="?" horiz-adv-x="920" 
d="M82 61q0 39 26 66t64 27t64 -27t26 -66q0 -38 -26 -64t-64 -26t-64 26.5t-26 63.5zM281 373l-31 10l82 248q19 60 38.5 104t39.5 70q38 50 115 77q13 4 20 7q154 59 227.5 126.5t73.5 149.5q0 80 -66 134.5t-166 54.5q-83 0 -144.5 -36.5t-61.5 -82.5q0 -27 33 -40
q14 -5 22 -9q24 -13 34.5 -30.5t10.5 -43.5q0 -34 -20.5 -55t-55.5 -21q-43 0 -68.5 30.5t-25.5 82.5q0 100 77 167.5t191 67.5q136 0 214.5 -80.5t78.5 -218.5q0 -113 -75 -205t-224 -161q-17 -8 -56 -23q-111 -44 -161 -92q-36 -34 -61 -107q-3 -9 -4 -13z" />
    <glyph glyph-name="at" unicode="@" horiz-adv-x="2019" 
d="M1190 336q-62 -106 -139 -158.5t-170 -52.5q-125 0 -201 92t-76 244q0 108 49 216t138 193q65 64 144 100t155 36q87 0 143 -49.5t78 -145.5l53 180h143l-170 -610q0 -2 -1 -5q-17 -59 -17 -104q0 -47 25.5 -74.5t68.5 -27.5q34 0 79 17.5t85 48.5q122 90 187 231t65 315
q0 140 -50 252t-153 203q-90 79 -216 122.5t-267 43.5q-187 0 -341.5 -58.5t-275.5 -175.5q-130 -126 -197 -293.5t-67 -369.5q0 -175 57 -304.5t181 -234.5q114 -97 261 -146.5t320 -49.5q163 0 317.5 52t295.5 154l30 -36q-148 -110 -313 -166t-342 -56q-187 0 -342 46.5
t-274 138.5q-151 113 -229.5 274.5t-78.5 358.5q0 204 86 381t250 313q131 110 291 165.5t344 55.5q347 0 553.5 -187t206.5 -499q0 -157 -58 -297t-163 -236q-57 -52 -123.5 -80t-134.5 -28q-97 0 -149 52.5t-58 158.5zM1098 965q-54 0 -99 -31t-92 -100
q-72 -108 -114.5 -234t-42.5 -225q0 -93 40.5 -147t108.5 -54q66 0 126 44.5t116 133.5q57 94 91 202.5t34 197.5q0 93 -47.5 153t-120.5 60z" />
    <glyph glyph-name="A" unicode="A" horiz-adv-x="971" 
d="M215 516h350v561zM-240 0v29q63 0 101.5 23.5t93.5 111.5l764 1220h31v-1355h124v-29h-471v29h162v458h-366l-219 -344q-17 -26 -23 -41.5t-6 -27.5q0 -22 27.5 -32t103.5 -14v-28h-322z" />
    <glyph glyph-name="B" unicode="B" horiz-adv-x="1214" 
d="M385 684l-182 -655h205q115 0 182.5 21t120.5 71q57 56 95 153.5t38 192.5q0 108 -66 162.5t-196 54.5h-197zM563 1327l-170 -614h142q137 0 204 24.5t115 85.5q48 62 76 150t28 176q0 97 -65 139.5t-217 42.5q-32 0 -101 -3q-8 -1 -12 -1zM-147 0l6 29h153l361 1298
h-154l8 29h564q167 0 266.5 -74.5t99.5 -198.5q0 -139 -119 -245t-317 -140q154 -13 238.5 -87.5t84.5 -196.5q0 -174 -164 -294t-407 -120h-620z" />
    <glyph glyph-name="C" unicode="C" horiz-adv-x="1270" 
d="M1104 332q-101 -180 -238 -269.5t-309 -89.5q-216 0 -359 162.5t-143 411.5q0 169 64 319.5t190 280.5q115 118 241.5 178.5t256.5 60.5q60 0 111 -10.5t94 -32.5q25 -12 77.5 -46.5t79.5 -34.5q31 0 44.5 12.5t23.5 50.5h31l-99 -467h-30q10 45 15 79.5t5 63.5
q0 156 -94 253.5t-242 97.5q-127 0 -222 -77t-183 -251q-80 -156 -124 -328.5t-44 -326.5q0 -165 91 -263t245 -98q138 0 269 91.5t216 248.5z" />
    <glyph glyph-name="D" unicode="D" horiz-adv-x="1337" 
d="M209 29h221q166 0 284.5 68.5t194.5 209.5q80 146 128 331.5t48 348.5q0 178 -88 259t-280 81h-154zM-147 0l6 29h153l361 1298h-154l8 29h514q143 0 235 -34t161 -110q69 -77 105 -177t36 -216q0 -155 -58.5 -303t-168.5 -270q-118 -129 -254.5 -187.5t-323.5 -58.5
h-620z" />
    <glyph glyph-name="E" unicode="E" horiz-adv-x="1165" 
d="M-145 0l8 29h153l361 1298h-154l8 29h951l-68 -369h-31q1 2 1 6q3 42 3 64q0 133 -62 201.5t-183 68.5h-275l-161 -575h116q115 0 156.5 38t75.5 168h30l-139 -509h-29q18 70 26.5 111t8.5 58q0 49 -36 77t-99 28h-121l-188 -694h330q160 0 274.5 104t151.5 283h28
l-84 -416h-1052z" />
    <glyph glyph-name="F" unicode="F" horiz-adv-x="1075" 
d="M-145 0l8 29h153l361 1298h-154l8 29h930l-47 -369h-31q1 2 1 6q3 42 3 64q0 133 -62 201.5t-183 68.5h-275l-161 -575h116q115 0 156.5 38t75.5 168h30l-139 -509h-29q18 70 26.5 111t8.5 58q0 49 -36 77t-99 28h-121l-188 -694h166l-8 -29h-510z" />
    <glyph glyph-name="G" unicode="G" horiz-adv-x="1309" 
d="M1126 465l-67 -250q-7 -26 -62.5 -79t-126.5 -91q-65 -36 -141 -55t-154 -19q-214 0 -365 164t-151 395q0 155 59 301.5t171 272.5q121 135 263.5 207.5t285.5 72.5q81 0 147 -20.5t134 -67.5q16 -11 46 -35q60 -49 95 -49q17 0 31 14.5t26 45.5l26 -4l-131 -475l-26 8
q7 38 10.5 79.5t3.5 92.5q0 181 -91 282t-255 101q-137 0 -231 -72t-185 -250q-97 -192 -152 -373t-55 -301q0 -175 89.5 -265.5t261.5 -90.5q108 0 178.5 56t101.5 167l64 238h-142l9 29h481v-29h-148z" />
    <glyph glyph-name="H" unicode="H" horiz-adv-x="1460" 
d="M-147 0l6 29h153l361 1298h-154l8 29h512l-8 -29h-168l-168 -606h692l168 606h-170l9 29h512l-9 -29h-149l-361 -1298h150l-6 -29h-512l6 29h170l184 663h-690l-184 -663h166l-6 -29h-512z" />
    <glyph glyph-name="I" unicode="I" horiz-adv-x="578" 
d="M-147 0l6 29h153l361 1298h-154l8 29h512l-8 -29h-168l-358 -1298h166l-6 -29h-512z" />
    <glyph glyph-name="J" unicode="J" horiz-adv-x="750" 
d="M436 330q-65 -236 -179 -353.5t-280 -117.5q-80 0 -130 49.5t-50 130.5q0 67 38.5 111.5t96.5 44.5q50 0 82.5 -33.5t32.5 -83.5q0 -49 -30 -80t-76 -31q-13 0 -30 2t-20 2q-8 0 -14 -6t-6 -14q0 -22 37 -38.5t90 -16.5q68 0 109 44.5t79 180.5l336 1206h-153l8 29h512
l-8 -29h-168z" />
    <glyph glyph-name="K" unicode="K" horiz-adv-x="1151" 
d="M-147 0l6 29h153l361 1298h-154l8 29h512l-8 -29h-166l-178 -641l684 565q16 13 22.5 20.5t6.5 14.5q0 19 -33 30t-92 11h-27l8 29h416l-9 -29q-80 -2 -162.5 -40t-176.5 -116l-498 -411l473 -731h113l-8 -29h-498l8 29h160l-395 626l-174 -626h166l-6 -29h-512z" />
    <glyph glyph-name="L" unicode="L" horiz-adv-x="1165" 
d="M-166 0l6 29h154l360 1298h-153l8 29h512l-8 -29h-166l-361 -1298h297q196 0 342 126t207 349h31l-154 -504h-1075z" />
    <glyph glyph-name="M" unicode="M" horiz-adv-x="1485" 
d="M-178 0l9 29q86 1 122.5 28.5t66.5 135.5l318 1134h-178l6 29h369l57 -1077l721 1077h332l-9 -29h-151l-361 -1298h166v-29h-524l8 29h160l344 1220l-827 -1249h-29l-62 1274l-313 -1114q-4 -15 -6 -29t-2 -27q0 -39 33 -56.5t112 -19.5l-10 -28h-352z" />
    <glyph glyph-name="N" unicode="N" horiz-adv-x="1251" 
d="M-178 0v29q92 0 130 27t68 137l318 1134h-176l8 29h365l405 -1120l272 966q1 2 2 6q7 31 7 47q0 38 -30.5 54.5t-112.5 21.5l5 25h349l-9 -23q-82 -6 -117 -28.5t-61 -112.5l-330 -1176l-79 -32l-476 1290l-313 -1114q-4 -15 -6 -29t-2 -27q0 -38 30.5 -55t104.5 -21v-28
h-352z" />
    <glyph glyph-name="O" unicode="O" horiz-adv-x="1346" 
d="M795 1360q-104 0 -189.5 -56.5t-144.5 -164.5q-46 -80 -84.5 -181t-71.5 -225q-32 -119 -48.5 -220.5t-16.5 -180.5q0 -162 81 -249t232 -87q104 0 188 55.5t146 165.5q43 75 81.5 176.5t73.5 229.5q33 118 49.5 219.5t16.5 179.5q0 163 -81 250.5t-232 87.5zM549 -29
q-219 0 -356.5 154t-137.5 401q0 145 53 290.5t150 266.5q118 149 254.5 225t284.5 76q218 0 355.5 -153.5t137.5 -399.5q0 -147 -52 -291.5t-151 -267.5q-117 -148 -254 -224.5t-284 -76.5z" />
    <glyph glyph-name="P" unicode="P" horiz-adv-x="1090" 
d="M-156 0l9 29h153l359 1298h-152l6 29h492q192 0 297.5 -82t105.5 -232q0 -72 -32 -143t-89 -125q-77 -75 -174 -106t-293 -31h-159l-170 -608h168l-9 -29h-512zM557 1327l-182 -661h147q112 0 167.5 24t103.5 84q51 64 81.5 159.5t30.5 192.5q0 110 -62.5 156.5
t-211.5 46.5q-31 0 -46 -0.5t-28 -1.5z" />
    <glyph glyph-name="Q" unicode="Q" horiz-adv-x="1346" 
d="M438 -16q-181 47 -281 188.5t-100 351.5q0 150 52 294t149 265q118 148 255 224.5t284 76.5q218 0 355.5 -153.5t137.5 -399.5q0 -143 -49.5 -284.5t-142.5 -263.5q-97 -126 -210.5 -201t-250.5 -102q-24 -71 -35.5 -126t-11.5 -94q0 -82 56 -114.5t206 -32.5h39v-29h-11
q-58 -4 -85 -4q-181 0 -287.5 59.5t-106.5 157.5q0 18 7 53.5t30 133.5zM795 1360q-104 0 -189.5 -56.5t-144.5 -164.5q-46 -80 -84.5 -181t-71.5 -225q-32 -119 -48.5 -220.5t-16.5 -180.5q0 -162 81 -249t232 -87q104 0 188 55.5t146 165.5q43 75 81.5 176.5t73.5 229.5
q33 118 49.5 219.5t16.5 179.5q0 163 -81 250.5t-232 87.5z" />
    <glyph glyph-name="R" unicode="R" horiz-adv-x="1067" 
d="M-193 0l9 29h151l361 1298h-152l6 29h557q142 0 228 -74.5t86 -196.5q0 -141 -119 -246t-316 -134q107 -28 160 -91.5t53 -162.5q0 -78 -30.5 -196t-30.5 -159q0 -31 14.5 -48t40.5 -17q28 0 61 23.5t64 66.5l27 -19q-48 -61 -90.5 -86.5t-93.5 -25.5q-87 0 -137 53
t-50 145q0 76 30 207t30 183q0 58 -38 87t-114 29h-170l-184 -665h168l-9 -29h-512zM520 1327l-168 -604h166q88 0 154.5 36.5t109.5 106.5q38 62 63 149.5t25 153.5q0 86 -59.5 124t-194.5 38q-28 0 -84 -3q-8 -1 -12 -1z" />
    <glyph glyph-name="S" unicode="S" horiz-adv-x="1006" 
d="M98 483q-9 -40 -13.5 -76t-4.5 -69q0 -146 95.5 -239t242.5 -93q138 0 235 98.5t97 239.5q0 153 -244 273l-21 10q-147 73 -204.5 149.5t-57.5 192.5q0 174 111.5 294.5t271.5 120.5q61 0 110.5 -11t90.5 -34q11 -6 29 -17q59 -36 82 -36q19 0 31.5 11t31.5 49l29 -7
l-113 -401l-27 8q9 39 13 69.5t4 55.5q0 130 -74 206.5t-199 76.5q-129 0 -216 -81t-87 -200q0 -130 274 -259q41 -19 62 -30q119 -57 174.5 -137t55.5 -194q0 -200 -137 -341t-332 -141q-106 0 -226 57.5t-137 57.5q-27 0 -47.5 -23t-32.5 -67l-28 8l133 483z" />
    <glyph glyph-name="T" unicode="T" horiz-adv-x="1331" 
d="M221 0l8 29h154l358 1298h-151q-149 0 -257 -105t-171 -313h-29l123 447h1171l-122 -447h-35q17 66 25 116t8 89q0 111 -63.5 162t-203.5 51h-102l-361 -1298h168l-8 -29h-512z" />
    <glyph glyph-name="U" unicode="U" horiz-adv-x="1262" 
d="M305 1327h-151l6 29h512l-6 -29h-168l-250 -899q-16 -56 -23.5 -103t-7.5 -89q0 -106 77 -168t208 -62q209 0 326 91.5t176 301.5l223 807q6 20 9 34t3 22q0 38 -24.5 51.5t-104.5 13.5h-39l10 29h373l-8 -29q-89 0 -124.5 -22.5t-59.5 -110.5l-207 -745
q-74 -271 -200 -374.5t-368 -103.5q-201 0 -326.5 88t-125.5 226q0 29 7.5 73.5t23.5 102.5z" />
    <glyph glyph-name="V" unicode="V" horiz-adv-x="930" 
d="M104 -14l211 1341h-141l8 29h490l-8 -29h-164l-156 -991l608 864q22 30 31.5 51.5t9.5 38.5q0 19 -22 29t-64 10q-5 0 -16.5 -1t-18.5 -1l9 29h274l-9 -29q-69 -2 -116 -70l-12 -18l-889 -1253h-25z" />
    <glyph glyph-name="W" unicode="W" horiz-adv-x="1489" 
d="M111 -14l208 1341h-143l8 29h490l-8 -29h-164l-154 -989l473 668l49 321h-129l9 29h477l-8 -29h-166l-154 -989l608 862q22 30 31.5 51.5t9.5 38.5q0 19 -22.5 29t-65.5 10q-5 0 -15.5 -1t-17.5 -1l9 29h272l-9 -29q-69 -2 -121 -76q-5 -7 -7 -10l-881 -1255h-28l149 958
l-672 -958h-28z" />
    <glyph glyph-name="X" unicode="X" horiz-adv-x="1042" 
d="M479 625l-356 -467q-18 -23 -25.5 -40t-7.5 -32q0 -27 25 -40.5t83 -16.5l1 -29h-359v29q145 2 253 143l10 13l368 479l-186 663h-179v29h512v-29h-141l131 -483l260 336q25 31 37.5 54t12.5 40q0 26 -28 40.5t-79 14.5q-5 0 -15.5 -1t-17.5 -1v29h340v-29
q-50 -1 -85.5 -19.5t-74.5 -68.5l-337 -434l217 -776h153v-29h-512v29h166z" />
    <glyph glyph-name="Y" unicode="Y" horiz-adv-x="883" 
d="M-47 0l8 29h156l151 542l-61 756h-135v29h481v-29h-164l60 -713l428 592q21 31 32 51t11 29q0 23 -19.5 33t-66.5 10q-7 0 -23.5 -1t-26.5 -1l9 29h288l-6 -29q-73 0 -125 -72q-5 -8 -8 -12l-493 -686l-136 -528h168l-6 -29h-522z" />
    <glyph glyph-name="Z" unicode="Z" horiz-adv-x="1133" 
d="M-121 0l1055 1327h-295q-199 0 -306.5 -77.5t-193.5 -276.5h-28l104 383h967l-1047 -1327h381q187 0 294 84.5t194 300.5h28l-114 -414h-1039z" />
    <glyph glyph-name="bracketleft" unicode="[" horiz-adv-x="664" 
d="M344 -436h-444l497 1792h443l-9 -31h-305l-479 -1731h305z" />
    <glyph glyph-name="backslash" unicode="\" horiz-adv-x="569" 
d="M352 -190h-47l-84 1574h47z" />
    <glyph glyph-name="bracketright" unicode="]" horiz-adv-x="664" 
d="M199 1356h444l-498 -1792h-442l8 30h305l480 1731h-306z" />
    <glyph glyph-name="asciicircum" unicode="^" horiz-adv-x="2048" 
d="M934 1462h178l520 -565h-92l-518 436l-520 -436h-90z" />
    <glyph glyph-name="underscore" unicode="_" 
d="M0 -365h1024v-118h-1024v118z" />
    <glyph glyph-name="grave" unicode="`" 
d="M727 952h-68l-243 203q-32 26 -44 45t-12 41q0 28 20.5 49t47.5 21q21 0 44 -15.5t42 -42.5z" />
    <glyph glyph-name="a" unicode="a" horiz-adv-x="963" 
d="M622 546q6 21 8.5 40.5t2.5 36.5q0 79 -44 130.5t-112 51.5q-77 0 -140.5 -49.5t-115.5 -149.5q-46 -88 -74 -197.5t-28 -199.5q0 -95 37 -147t106 -52q90 0 169 74t114 195zM676 182q-11 -36 -17 -63.5t-6 -40.5q0 -24 13 -41t30 -17q31 0 80 48t103 131l24 -17
q-78 -118 -135.5 -162.5t-126.5 -44.5q-55 0 -89.5 33.5t-49.5 102.5q-60 -66 -122 -98.5t-128 -32.5q-125 0 -203 91t-78 240q0 91 26 173.5t75 148.5q70 96 169.5 151.5t200.5 55.5q91 0 145.5 -44t67.5 -128l45 147h156z" />
    <glyph glyph-name="b" unicode="b" horiz-adv-x="924" 
d="M532 805q-79 0 -151 -61.5t-141 -188.5q-51 -94 -80 -194.5t-29 -178.5q0 -76 50 -124t126 -48q65 0 128.5 47t103.5 125q65 129 103 256.5t38 206.5q0 81 -36.5 120.5t-111.5 39.5zM270 1327h-123l9 29h49q70 0 131.5 12.5t118.5 38.5l-217 -784q72 109 149.5 160
t169.5 51q117 0 189.5 -80.5t72.5 -210.5q0 -107 -37 -199.5t-114 -179.5q-80 -89 -171.5 -133.5t-193.5 -44.5q-139 0 -227 75t-88 191q0 27 3.5 54.5t10.5 56.5z" />
    <glyph glyph-name="c" unicode="c" horiz-adv-x="735" 
d="M625 287q-63 -148 -156 -229t-199 -81q-115 0 -195.5 91t-80.5 223q0 104 41 205t119 186q73 79 151.5 118.5t165.5 39.5q90 0 143.5 -39t53.5 -103q0 -41 -28 -67.5t-71 -26.5q-36 0 -63 27t-27 63q0 59 40 96q5 5 5 7q0 6 -14 10t-39 4q-56 0 -103 -35.5t-83 -105.5
q-24 -45 -44.5 -100t-37.5 -121q-24 -92 -36.5 -165.5t-12.5 -119.5q0 -71 32 -108.5t93 -37.5q92 0 172 72t145 213z" />
    <glyph glyph-name="d" unicode="d" horiz-adv-x="963" 
d="M860 1327h-121l9 29h49q69 0 130.5 13t116.5 40l-362 -1229q-11 -36 -17 -63.5t-6 -40.5q0 -24 13 -41t30 -17q31 0 80 48.5t103 132.5l24 -19q-76 -116 -134.5 -161.5t-127.5 -45.5q-55 0 -89.5 34t-49.5 104q-60 -69 -122 -102.5t-128 -33.5q-125 0 -203 92.5
t-78 243.5q0 91 26 173.5t75 148.5q72 98 171 153.5t200 55.5q90 0 144.5 -44t68.5 -128zM629 551q5 21 7.5 39.5t2.5 34.5q0 80 -44 132t-112 52q-76 0 -139.5 -49.5t-116.5 -149.5q-46 -88 -74 -197.5t-28 -199.5q0 -95 37.5 -147t105.5 -52q90 0 169.5 74t113.5 195z" />
    <glyph glyph-name="e" unicode="e" horiz-adv-x="711" 
d="M172 440q-23 -94 -34 -158t-11 -106q0 -76 40 -120t109 -44q76 0 147.5 54.5t133.5 158.5l25 -14q-66 -114 -148.5 -172.5t-177.5 -58.5q-119 0 -196.5 94t-77.5 239q0 86 40 178.5t113 176.5q72 82 153.5 127t157.5 45q88 0 139.5 -48t51.5 -128q0 -102 -91 -175
t-218 -73q-33 0 -72.5 6t-83.5 18zM178 471q33 -11 65 -16.5t60 -5.5q89 0 148 74t59 188q0 48 -22 74t-64 26q-73 0 -137 -88t-109 -252z" />
    <glyph glyph-name="f" unicode="f" horiz-adv-x="502" 
d="M186 786h-178l8 29h181q78 279 207 434.5t280 155.5q69 0 109.5 -32.5t40.5 -86.5q0 -39 -26.5 -66.5t-64.5 -27.5q-43 0 -71.5 26t-28.5 64q0 18 13.5 42t13.5 30q0 5 -10.5 11.5t-22.5 6.5q-67 0 -138 -138.5t-147 -418.5h199l-8 -29h-197q-157 -703 -299 -998.5
t-315 -295.5q-65 0 -106.5 34.5t-41.5 88.5q0 42 25.5 71t60.5 29q41 0 67.5 -26.5t26.5 -67.5q0 -19 -12 -40t-12 -23q0 -9 9.5 -17t21.5 -8q56 0 111 93.5t91 256.5q17 74 51 231q92 428 162 672z" />
    <glyph glyph-name="g" unicode="g" horiz-adv-x="895" 
d="M492 -31h-347q-74 -23 -119.5 -84t-45.5 -137q0 -103 78 -164t208 -61q67 0 134.5 26t129.5 76q59 48 94 109t35 114q0 62 -40.5 91.5t-126.5 29.5zM98 -27q-51 12 -79.5 47.5t-28.5 85.5q0 69 52 119.5t144 69.5q-57 53 -83.5 103t-26.5 106q0 124 112 230t248 106
q79 0 134.5 -30.5t93.5 -94.5q35 63 74.5 94t84.5 31q49 0 74 -22t25 -64q0 -37 -21.5 -61.5t-52.5 -24.5q-34 0 -56 20.5t-22 50.5q0 2 1 12.5t1 18.5q0 3 -4.5 5.5t-11.5 2.5q-16 0 -33.5 -20.5t-44.5 -71.5q8 -30 12 -55.5t4 -48.5q0 -132 -99.5 -229t-234.5 -97
q-25 0 -58.5 5.5t-79.5 16.5q-71 -5 -118 -38t-47 -74q0 -29 25.5 -43t75.5 -14l329 4h7q111 0 168 -48.5t57 -144.5q0 -173 -145.5 -302.5t-350.5 -129.5q-156 0 -247 65t-91 173q0 86 55.5 150t157.5 97zM442 815q-41 0 -76.5 -19.5t-54.5 -52.5q-16 -29 -25.5 -49
t-13.5 -35q-35 -117 -50 -176.5t-15 -79.5q0 -60 35.5 -90t105.5 -30q48 0 81 24.5t56 79.5q38 87 62 183t24 139q0 47 -35.5 76.5t-93.5 29.5z" />
    <glyph glyph-name="h" unicode="h" horiz-adv-x="1014" 
d="M700 182q-11 -35 -16.5 -60t-5.5 -40q0 -26 12.5 -44t30.5 -18q31 0 80 48t102 131l25 -19q-76 -116 -132.5 -160.5t-123.5 -44.5q-63 0 -98 38t-35 106q0 22 4.5 47.5t13.5 54.5l135 432q9 29 14 51t5 35q0 31 -18 47.5t-52 16.5q-39 0 -91.5 -24.5t-109.5 -69.5
q-80 -64 -136 -144.5t-85 -175.5l-119 -389h-157l407 1327h-121l9 29h49q69 0 130 12.5t118 38.5l-254 -821q99 127 197.5 190.5t195.5 63.5q80 0 127 -42.5t47 -115.5q0 -20 -5.5 -46.5t-19.5 -72.5z" />
    <glyph glyph-name="i" unicode="i" horiz-adv-x="508" 
d="M199 786h-123l8 29h80q71 0 118.5 6t90.5 19l-195 -645q-11 -34 -16.5 -62t-5.5 -45q0 -27 13.5 -41t39.5 -14q35 0 79 33.5t128 128.5l20 -17q-86 -105 -155 -151.5t-138 -46.5q-63 0 -100 36t-37 99q0 23 6.5 54.5t26.5 94.5zM352 1272q0 51 31 89t72 38q31 0 53 -26.5
t22 -65.5q0 -52 -30 -87.5t-72 -35.5q-32 0 -54 25t-22 63z" />
    <glyph glyph-name="j" unicode="j" horiz-adv-x="446" 
d="M186 786h-123l9 29h78q71 0 119.5 6t90.5 19l-202 -680q-98 -329 -214.5 -491.5t-254.5 -162.5q-64 0 -103 33.5t-39 87.5q0 45 24.5 72t66.5 27q37 0 60 -24t23 -62q0 -27 -12 -49t-12 -25q0 -9 6.5 -14t17.5 -5q44 0 83 53.5t71 155.5zM340 1272q0 51 31 89t71 38
q32 0 54 -26.5t22 -65.5q0 -52 -30 -87.5t-72 -35.5q-32 0 -54 25t-22 63z" />
    <glyph glyph-name="k" unicode="k" horiz-adv-x="915" 
d="M94 0h-157l430 1327h-121l8 29h49q69 0 130 12.5t118 38.5l-295 -875h14q78 0 131 33.5t93 106.5q9 18 28 52q85 163 166 163q52 0 85.5 -28.5t33.5 -72.5q0 -35 -25 -59.5t-61 -24.5q-29 0 -47 16t-27 50q-6 24 -12.5 32.5t-16.5 8.5q-27 0 -70 -87q-15 -29 -24 -46
q-48 -90 -85.5 -122.5t-92.5 -39.5q103 -15 149.5 -64.5t57.5 -158.5l14 -137q9 -71 19.5 -88t34.5 -17q36 0 77 57.5t72 155.5l27 -6q-33 -132 -98 -203t-152 -71q-44 0 -72.5 18.5t-46.5 58.5q-21 49 -26 192q-2 61 -5 95q-6 90 -38.5 124t-108.5 36z" />
    <glyph glyph-name="l" unicode="l" horiz-adv-x="537" 
d="M395 1327h-121l9 29h49q69 0 130 12.5t118 38.5l-402 -1227q-10 -32 -16 -56.5t-6 -35.5q0 -21 14.5 -36t36.5 -15q37 0 92 43t119 123l26 -19q-79 -103 -147.5 -150.5t-136.5 -47.5q-71 0 -108.5 34t-37.5 99q0 22 5.5 48.5t17.5 61.5z" />
    <glyph glyph-name="m" unicode="m" horiz-adv-x="1417" 
d="M98 0h-159l243 786h-121l9 29h77q72 0 120.5 6t90.5 19l-82 -260q105 135 190 197.5t163 62.5q68 0 107.5 -40t39.5 -110q0 -28 -3.5 -55.5t-10.5 -54.5q104 135 189 197.5t163 62.5q69 0 108.5 -40t39.5 -110q0 -33 -6.5 -69t-18.5 -76l-131 -428q-4 -12 -6 -24t-2 -21
q0 -20 13 -33.5t32 -13.5q32 0 79 45t101 129l23 -17q-76 -117 -132.5 -162t-123.5 -45q-63 0 -96 35t-33 101q0 32 7.5 70.5t28.5 107.5l103 334q12 40 19 70t7 42q0 23 -11 38t-28 15q-41 0 -86 -23t-96 -71q-79 -74 -127 -148t-73 -161l-115 -385h-162l186 623
q12 37 18.5 67t6.5 45q0 24 -10.5 38.5t-26.5 14.5q-94 0 -213 -120t-170 -283z" />
    <glyph glyph-name="n" unicode="n" horiz-adv-x="1014" 
d="M700 182l-1 -5q-23 -75 -23 -95q0 -26 12.5 -44t30.5 -18q31 0 81 48t103 131l25 -19q-75 -114 -133 -159.5t-125 -45.5q-63 0 -97 38t-34 106q0 22 4.5 47t13.5 55l127 398l6 18q21 68 21 102q0 31 -18 47.5t-52 16.5q-39 0 -91.5 -24.5t-109.5 -69.5
q-80 -64 -136 -144.5t-85 -175.5l-119 -389h-157l239 786h-121l9 29h77q72 0 120.5 6t90.5 19l-77 -254q99 127 197.5 190.5t195.5 63.5q80 0 127 -42.5t47 -115.5q0 -21 -6 -50t-19 -69z" />
    <glyph glyph-name="o" unicode="o" horiz-adv-x="891" 
d="M295 -25q-142 0 -228.5 94t-86.5 248q0 89 33 177t93 161q82 98 167.5 141.5t193.5 43.5q134 0 215.5 -92.5t81.5 -245.5q0 -93 -32.5 -180.5t-94.5 -161.5q-77 -93 -162 -139t-180 -46zM457 815q-69 0 -121 -46.5t-100 -152.5q-53 -110 -84 -229.5t-31 -198.5
q0 -90 43 -138t125 -48q66 0 119 47t102 150q51 107 82 227.5t31 206.5q0 92 -41 137t-125 45z" />
    <glyph glyph-name="p" unicode="p" horiz-adv-x="977" 
d="M221 274q-5 -18 -7.5 -37.5t-2.5 -37.5q0 -81 43.5 -133t112.5 -52q76 0 139.5 49.5t116.5 149.5q46 88 74 197.5t28 199.5q0 96 -37.5 147.5t-105.5 51.5q-89 0 -170 -74t-115 -192zM190 786h-120l8 29h78q71 0 118.5 6t90.5 19l-46 -162q62 81 130.5 122.5t142.5 41.5
q125 0 202.5 -92.5t77.5 -241.5q0 -91 -25.5 -173.5t-74.5 -148.5q-70 -95 -169.5 -149.5t-201.5 -54.5q-89 0 -142.5 43t-72.5 129l-176 -619h117l-6 -29h-387l8 29h113z" />
    <glyph glyph-name="q" unicode="q" horiz-adv-x="963" 
d="M508 115q-61 -67 -123 -100t-127 -33q-125 0 -203 92t-78 241q0 91 26 173.5t75 148.5q70 96 170 151.5t201 55.5q90 0 144.5 -44t68.5 -128l32 114h158l-348 -1251h112l-8 -29h-385l6 29h117zM629 551q5 21 7.5 39.5t2.5 34.5q0 80 -44 132t-112 52q-76 0 -139.5 -49.5
t-116.5 -149.5q-46 -88 -74 -197.5t-28 -199.5q0 -95 37.5 -147t105.5 -52q90 0 169.5 74t113.5 195z" />
    <glyph glyph-name="r" unicode="r" horiz-adv-x="664" 
d="M285 623q74 110 143 162.5t141 52.5q48 0 74.5 -25.5t26.5 -71.5q0 -43 -27.5 -71.5t-69.5 -28.5q-34 0 -59 24t-25 56q0 11 7.5 29.5t7.5 25.5q0 2 -4 2q-57 0 -142 -103t-127 -239l-133 -436h-159l243 786h-121l9 29h77q72 0 120.5 6t90.5 19z" />
    <glyph glyph-name="s" unicode="s" horiz-adv-x="743" 
d="M391 176q0 77 -115 172q-13 11 -19 16q-79 66 -103.5 109.5t-24.5 97.5q0 111 85 190t208 79q102 0 168.5 -43t66.5 -107q0 -41 -27 -68.5t-69 -27.5t-70 26t-28 64q0 48 60 83q9 6 9 7q0 13 -28.5 25t-67.5 12q-81 0 -132.5 -45t-51.5 -115q0 -68 137 -171
q22 -17 33 -25q80 -62 104.5 -106.5t24.5 -106.5q0 -108 -103.5 -186.5t-248.5 -78.5q-115 0 -193 59t-78 142q0 50 32.5 85.5t76.5 35.5q45 0 73.5 -25.5t28.5 -64.5q0 -25 -17.5 -48t-47.5 -38q-15 -7 -40.5 -13.5t-25.5 -13.5q0 -20 57 -52t121 -32q89 0 147 47t58 117z
" />
    <glyph glyph-name="t" unicode="t" horiz-adv-x="578" 
d="M371 815h207l-9 -29h-204l-185 -606q-12 -37 -17 -59t-5 -33q0 -21 14.5 -36t36.5 -15q43 0 107.5 56.5t152.5 170.5l27 -20q-110 -145 -184.5 -201.5t-149.5 -56.5q-71 0 -108.5 33.5t-37.5 97.5q0 24 5.5 52t15.5 60l170 557h-125l8 29h131l72 246q48 3 91 15t81 34z
" />
    <glyph glyph-name="u" unicode="u" horiz-adv-x="948" 
d="M168 786h-121l8 29h78q72 0 120 6t91 19l-201 -656q-8 -27 -13 -51t-5 -37q0 -29 18.5 -47t49.5 -18q27 0 59.5 16.5t77.5 52.5q89 73 139.5 144.5t81.5 167.5l129 403h156l-199 -629q-12 -38 -18.5 -65.5t-6.5 -40.5q0 -21 13 -37t30 -16q32 0 80 46t103 130l22 -17
q-62 -102 -126.5 -153t-129.5 -51q-63 0 -98 37t-35 104q0 20 4.5 45.5t13.5 56.5q-89 -119 -181 -181t-179 -62q-69 0 -110.5 39t-41.5 104q0 18 7 53t18 72z" />
    <glyph glyph-name="v" unicode="v" horiz-adv-x="782" 
d="M182 786h-121l9 29h77q72 0 120.5 6t90.5 19l-200 -656q-9 -27 -14 -51.5t-5 -38.5q0 -30 19 -48.5t49 -18.5q40 0 100.5 41t124.5 112q84 96 140.5 212.5t56.5 180.5q0 40 -48 69q-11 6 -16 9q-31 21 -46 43.5t-15 48.5q0 40 25 68.5t61 28.5q52 0 80 -37t28 -105
q0 -103 -48.5 -227t-135.5 -240q-92 -123 -188.5 -189.5t-182.5 -66.5q-67 0 -109 41t-42 107q0 19 6.5 54.5t17.5 72.5z" />
    <glyph glyph-name="w" unicode="w" horiz-adv-x="1280" 
d="M166 786h-121l6 29h80q71 0 118.5 6t90.5 19l-203 -656q-8 -27 -13 -51.5t-5 -38.5q0 -30 18.5 -48.5t48.5 -18.5q27 0 59.5 16t78.5 53q84 70 147.5 158t85.5 162l117 399h155l-186 -631q-9 -28 -13.5 -52.5t-4.5 -37.5q0 -30 18.5 -48.5t48.5 -18.5q41 0 102 41
t124 112q84 96 140 212.5t56 180.5q0 40 -48 69l-15 9q-31 20 -45.5 42.5t-14.5 49.5q0 41 24.5 69t59.5 28q52 0 80.5 -37t28.5 -105q0 -103 -49 -227t-136 -240q-91 -122 -187.5 -189t-180.5 -67q-72 0 -113 39.5t-41 108.5q0 15 6 47.5t17 73.5q-100 -133 -194.5 -201
t-180.5 -68q-71 0 -112.5 39.5t-41.5 108.5q0 19 7 54.5t18 72.5z" />
    <glyph glyph-name="x" unicode="x" horiz-adv-x="1034" 
d="M63 600l-22 21q86 115 163 167t161 52q88 0 136.5 -46.5t63.5 -146.5q59 103 113.5 148t120.5 45q64 0 102.5 -35t38.5 -94q0 -40 -25.5 -67.5t-62.5 -27.5q-34 0 -55 21t-21 55q0 44 39 87q8 9 8 12q0 5 -10 8.5t-25 3.5q-43 0 -79 -27.5t-82 -97.5q-27 -41 -49 -92
t-46 -129q-22 -76 -34.5 -142.5t-12.5 -109.5q0 -66 28 -108t69 -42q47 0 109.5 46t148.5 145l24 -21q-88 -117 -190 -183.5t-191 -66.5q-76 0 -115.5 58.5t-39.5 169.5v22q-64 -121 -134.5 -184.5t-142.5 -63.5q-54 0 -90.5 40t-36.5 100q0 52 27 86.5t67 34.5q32 0 54 -24
t22 -58q0 -59 -59 -103q-12 -9 -12 -12q0 -8 13 -16.5t27 -8.5q49 0 101.5 41.5t97.5 116.5q26 42 48.5 95t43.5 122q24 81 38 154t14 117q0 58 -26 95.5t-65 37.5q-51 0 -112 -47t-140 -148z" />
    <glyph glyph-name="y" unicode="y" horiz-adv-x="924" 
d="M201 637q-7 61 -21.5 87t-42.5 26q-23 0 -61 -47.5t-82 -133.5l-31 13q62 131 125.5 193.5t134.5 62.5q58 0 91 -36t40 -108l56 -506l221 424q59 114 114.5 171t104.5 57q44 0 72 -26.5t28 -68.5q0 -41 -24 -67.5t-62 -26.5q-36 0 -58 19.5t-22 50.5q0 11 6.5 27.5
t6.5 21.5q0 2 -1.5 4t-2.5 2q-17 0 -59 -57t-89 -146l-223 -421q-209 -400 -332 -530t-260 -130q-58 0 -95.5 33t-37.5 84q0 48 28 80t70 32q39 0 61.5 -23.5t22.5 -66.5q0 -39 -36 -77q-7 -7 -7 -9q0 -5 9.5 -7.5t31.5 -2.5q88 0 191.5 109.5t210.5 314.5z" />
    <glyph glyph-name="z" unicode="z" horiz-adv-x="883" 
d="M125 653l-35 -90h-33l101 246q158 -23 266.5 -34t177.5 -11q29 0 58.5 4.5t59.5 13.5q-2 11 -3.5 20t-1.5 17q0 11 8 19t20 8q13 0 22 -9.5t9 -21.5q0 -5 -5 -13t-15 -18l-649 -630q53 9 96 13.5t80 4.5q97 0 211 -38t131 -38q21 0 35 12.5t14 30.5q0 12 -35 47.5
t-35 71.5q0 26 18 45t44 19q30 0 49.5 -26.5t19.5 -68.5q0 -107 -84.5 -170t-230.5 -63q-75 0 -192.5 34.5t-155.5 34.5q-14 0 -30.5 -5.5t-33.5 -16.5q1 -4 1.5 -8.5t0.5 -14.5q0 -15 -7.5 -23.5t-20.5 -8.5q-15 0 -25 9t-10 23q0 20 30 49q5 6 9 9l616 602
q-65 -22 -137.5 -32.5t-155.5 -10.5q-47 0 -92 4.5t-90 13.5z" />
    <glyph glyph-name="braceleft" unicode="{" 
d="M846 1516v-51q-142 -2 -194 -55.5t-52 -209.5v-143q0 -226 -61 -308.5t-226 -113.5q165 -31 226 -113.5t61 -308.5v-143q0 -156 51.5 -208.5t194.5 -54.5v-51h-10q-217 0 -298 73.5t-81 272.5v213q0 158 -59 218t-222 73v60q165 15 223 74t58 216v213q0 200 81 273.5
t298 73.5h10z" />
    <glyph glyph-name="bar" unicode="|" 
d="M449 1565h126v-2048h-126v2048z" />
    <glyph glyph-name="braceright" unicode="}" 
d="M178 1516h10q216 0 297.5 -74t81.5 -273v-213q0 -157 58 -216t223 -74v-60q-163 -13 -222 -73t-59 -218v-213q0 -198 -81.5 -272t-297.5 -74h-10v51q143 2 194.5 54.5t51.5 208.5v143q0 226 61 308.5t226 113.5q-165 31 -226 113.5t-61 308.5v143q0 156 -52 209.5
t-194 55.5v51z" />
    <glyph glyph-name="asciitilde" unicode="~" horiz-adv-x="1706" 
d="M1530 758v-131q-101 -72 -197.5 -108t-189.5 -36q-43 0 -90.5 9t-100.5 26q-30 10 -87 31q-202 72 -302 72q-83 0 -173.5 -37.5t-211.5 -122.5v133q105 73 202 109t185 36q56 0 116.5 -12.5t174.5 -52.5q12 -4 35 -13q164 -59 254 -59q85 0 176 36.5t209 119.5z" />
    <glyph glyph-name="Adieresis" unicode="&#xc4;" horiz-adv-x="971" 
d="M215 516h350v561zM-240 0v29q63 0 101.5 23.5t93.5 111.5l764 1220h31v-1355h124v-29h-471v29h162v458h-366l-219 -344q-17 -26 -23 -41.5t-6 -27.5q0 -22 27.5 -32t103.5 -14v-28h-322zM495 1645q0 38 30 68t69 30q40 0 69 -29t29 -69q0 -44 -28 -72.5t-70 -28.5
q-41 0 -70 30t-29 71zM870 1645q0 38 30 68t68 30q40 0 69.5 -29t29.5 -69q0 -44 -28 -72.5t-71 -28.5q-40 0 -69 30t-29 71z" />
    <glyph glyph-name="Aring" unicode="&#xc5;" horiz-adv-x="971" 
d="M215 516h350v561zM598 1690q0 -70 48 -118t118 -48q69 0 118.5 48.5t49.5 117.5q0 70 -48.5 119t-119.5 49q-70 0 -118 -48.5t-48 -119.5zM522 1692q0 101 70 170t172 69q101 0 170.5 -69t69.5 -170q0 -102 -69.5 -172t-170.5 -70t-171.5 70t-70.5 172zM-240 0v29
q63 0 101.5 23.5t93.5 111.5l764 1220h31v-1355h124v-29h-471v29h162v458h-366l-219 -344q-17 -26 -23 -41.5t-6 -27.5q0 -22 27.5 -32t103.5 -14v-28h-322z" />
    <glyph glyph-name="Ccedilla" unicode="&#xc7;" horiz-adv-x="1270" 
d="M1104 332q-101 -180 -238 -269.5t-309 -89.5q-216 0 -359 162.5t-143 411.5q0 169 64 319.5t190 280.5q115 118 241.5 178.5t256.5 60.5q60 0 111 -10.5t94 -32.5q25 -12 77.5 -46.5t79.5 -34.5q31 0 44.5 12.5t23.5 50.5h31l-99 -467h-30q10 45 15 79.5t5 63.5
q0 156 -94 253.5t-242 97.5q-127 0 -222 -77t-183 -251q-80 -156 -124 -328.5t-44 -326.5q0 -165 91 -263t245 -98q138 0 269 91.5t216 248.5zM277 -369l20 43q68 -27 128 -43t89 -16q52 0 79.5 28.5t27.5 82.5q0 49 -26.5 73.5t-78.5 24.5q-12 0 -27 -1.5t-32 -4.5l57 182
h33l-36 -135q19 3 37.5 4.5t33.5 1.5q94 0 146 -40t52 -112q0 -68 -62.5 -109.5t-166.5 -41.5q-55 0 -124 16t-150 47z" />
    <glyph glyph-name="Eacute" unicode="&#xc9;" horiz-adv-x="1165" 
d="M-145 0l8 29h153l361 1298h-154l8 29h951l-68 -369h-31q1 2 1 6q3 42 3 64q0 133 -62 201.5t-183 68.5h-275l-161 -575h116q115 0 156.5 38t75.5 168h30l-139 -509h-29q18 70 26.5 111t8.5 58q0 49 -36 77t-99 28h-121l-188 -694h330q160 0 274.5 104t151.5 283h28
l-84 -416h-1052zM688 1495h-71l299 314q18 20 39.5 31.5t40.5 11.5q27 0 48 -21t21 -49q0 -22 -16 -41.5t-53 -44.5z" />
    <glyph glyph-name="Ntilde" unicode="&#xd1;" horiz-adv-x="1251" 
d="M-178 0v29q92 0 130 27t68 137l318 1134h-176l8 29h365l405 -1120l272 966q1 2 2 6q7 31 7 47q0 38 -30.5 54.5t-112.5 21.5l5 25h349l-9 -23q-82 -6 -117 -28.5t-61 -112.5l-330 -1176l-79 -32l-476 1290l-313 -1114q-4 -15 -6 -29t-2 -27q0 -38 30.5 -55t104.5 -21v-28
h-352zM1153 1766q-19 -99 -63 -147t-117 -48q-18 0 -33 2t-29 6l-131 37q-24 6 -40 8t-29 2q-39 0 -62 -18.5t-31 -54.5h-49q16 93 58.5 138.5t113.5 45.5q22 0 40.5 -2.5t35.5 -7.5l129 -37q21 -5 33.5 -6.5t23.5 -1.5q41 0 65.5 20t35.5 64h49z" />
    <glyph glyph-name="Odieresis" unicode="&#xd6;" horiz-adv-x="1346" 
d="M795 1360q-104 0 -189.5 -56.5t-144.5 -164.5q-46 -80 -84.5 -181t-71.5 -225q-32 -119 -48.5 -220.5t-16.5 -180.5q0 -162 81 -249t232 -87q104 0 188 55.5t146 165.5q43 75 81.5 176.5t73.5 229.5q33 118 49.5 219.5t16.5 179.5q0 163 -81 250.5t-232 87.5zM549 -29
q-219 0 -356.5 154t-137.5 401q0 145 53 290.5t150 266.5q118 149 254.5 225t284.5 76q218 0 355.5 -153.5t137.5 -399.5q0 -147 -52 -291.5t-151 -267.5q-117 -148 -254 -224.5t-284 -76.5zM608 1645q0 38 30 68t69 30q40 0 69 -29t29 -69q0 -44 -28 -72.5t-70 -28.5
q-41 0 -70 30t-29 71zM983 1645q0 38 30 68t68 30q40 0 69.5 -29t29.5 -69q0 -44 -28 -72.5t-71 -28.5q-40 0 -69 30t-29 71z" />
    <glyph glyph-name="Udieresis" unicode="&#xdc;" horiz-adv-x="1262" 
d="M305 1327h-151l6 29h512l-6 -29h-168l-250 -899q-16 -56 -23.5 -103t-7.5 -89q0 -106 77 -168t208 -62q209 0 326 91.5t176 301.5l223 807q6 20 9 34t3 22q0 38 -24.5 51.5t-104.5 13.5h-39l10 29h373l-8 -29q-89 0 -124.5 -22.5t-59.5 -110.5l-207 -745
q-74 -271 -200 -374.5t-368 -103.5q-201 0 -326.5 88t-125.5 226q0 29 7.5 73.5t23.5 102.5zM624 1645q0 38 30 68t69 30q40 0 69 -29t29 -69q0 -44 -28 -72.5t-70 -28.5q-41 0 -70 30t-29 71zM999 1645q0 38 30 68t68 30q40 0 69.5 -29t29.5 -69q0 -44 -28 -72.5t-71 -28.5
q-40 0 -69 30t-29 71z" />
    <glyph glyph-name="aacute" unicode="&#xe1;" horiz-adv-x="963" 
d="M622 546q6 21 8.5 40.5t2.5 36.5q0 79 -44 130.5t-112 51.5q-77 0 -140.5 -49.5t-115.5 -149.5q-46 -88 -74 -197.5t-28 -199.5q0 -95 37 -147t106 -52q90 0 169 74t114 195zM676 182q-11 -36 -17 -63.5t-6 -40.5q0 -24 13 -41t30 -17q31 0 80 48t103 131l24 -17
q-78 -118 -135.5 -162.5t-126.5 -44.5q-55 0 -89.5 33.5t-49.5 102.5q-60 -66 -122 -98.5t-128 -32.5q-125 0 -203 91t-78 240q0 91 26 173.5t75 148.5q70 96 169.5 151.5t200.5 55.5q91 0 145.5 -44t67.5 -128l45 147h156zM454 950h-71l299 314q18 20 39.5 31.5t40.5 11.5
q27 0 48 -21t21 -49q0 -22 -16 -41.5t-53 -44.5z" />
    <glyph glyph-name="agrave" unicode="&#xe0;" horiz-adv-x="963" 
d="M622 546q6 21 8.5 40.5t2.5 36.5q0 79 -44 130.5t-112 51.5q-77 0 -140.5 -49.5t-115.5 -149.5q-46 -88 -74 -197.5t-28 -199.5q0 -95 37 -147t106 -52q90 0 169 74t114 195zM676 182q-11 -36 -17 -63.5t-6 -40.5q0 -24 13 -41t30 -17q31 0 80 48t103 131l24 -17
q-78 -118 -135.5 -162.5t-126.5 -44.5q-55 0 -89.5 33.5t-49.5 102.5q-60 -66 -122 -98.5t-128 -32.5q-125 0 -203 91t-78 240q0 91 26 173.5t75 148.5q70 96 169.5 151.5t200.5 55.5q91 0 145.5 -44t67.5 -128l45 147h156zM696 952h-68l-243 203q-32 26 -44 45t-12 41
q0 28 20.5 49t47.5 21q21 0 44 -15.5t42 -42.5z" />
    <glyph glyph-name="acircumflex" unicode="&#xe2;" horiz-adv-x="963" 
d="M622 546q6 21 8.5 40.5t2.5 36.5q0 79 -44 130.5t-112 51.5q-77 0 -140.5 -49.5t-115.5 -149.5q-46 -88 -74 -197.5t-28 -199.5q0 -95 37 -147t106 -52q90 0 169 74t114 195zM676 182q-11 -36 -17 -63.5t-6 -40.5q0 -24 13 -41t30 -17q31 0 80 48t103 131l24 -17
q-78 -118 -135.5 -162.5t-126.5 -44.5q-55 0 -89.5 33.5t-49.5 102.5q-60 -66 -122 -98.5t-128 -32.5q-125 0 -203 91t-78 240q0 91 26 173.5t75 148.5q70 96 169.5 151.5t200.5 55.5q91 0 145.5 -44t67.5 -128l45 147h156zM813 950h-56l-176 207l-276 -207h-68l310 348h104
z" />
    <glyph glyph-name="adieresis" unicode="&#xe4;" horiz-adv-x="963" 
d="M622 546q6 21 8.5 40.5t2.5 36.5q0 79 -44 130.5t-112 51.5q-77 0 -140.5 -49.5t-115.5 -149.5q-46 -88 -74 -197.5t-28 -199.5q0 -95 37 -147t106 -52q90 0 169 74t114 195zM676 182q-11 -36 -17 -63.5t-6 -40.5q0 -24 13 -41t30 -17q31 0 80 48t103 131l24 -17
q-78 -118 -135.5 -162.5t-126.5 -44.5q-55 0 -89.5 33.5t-49.5 102.5q-60 -66 -122 -98.5t-128 -32.5q-125 0 -203 91t-78 240q0 91 26 173.5t75 148.5q70 96 169.5 151.5t200.5 55.5q91 0 145.5 -44t67.5 -128l45 147h156zM280 1100q0 38 30 68t69 30q40 0 69 -29t29 -69
q0 -44 -28 -72.5t-70 -28.5q-41 0 -70 30t-29 71zM655 1100q0 38 30 68t68 30q40 0 69.5 -29t29.5 -69q0 -44 -28 -72.5t-71 -28.5q-40 0 -69 30t-29 71z" />
    <glyph glyph-name="atilde" unicode="&#xe3;" horiz-adv-x="963" 
d="M622 546q6 21 8.5 40.5t2.5 36.5q0 79 -44 130.5t-112 51.5q-77 0 -140.5 -49.5t-115.5 -149.5q-46 -88 -74 -197.5t-28 -199.5q0 -95 37 -147t106 -52q90 0 169 74t114 195zM676 182q-11 -36 -17 -63.5t-6 -40.5q0 -24 13 -41t30 -17q31 0 80 48t103 131l24 -17
q-78 -118 -135.5 -162.5t-126.5 -44.5q-55 0 -89.5 33.5t-49.5 102.5q-60 -66 -122 -98.5t-128 -32.5q-125 0 -203 91t-78 240q0 91 26 173.5t75 148.5q70 96 169.5 151.5t200.5 55.5q91 0 145.5 -44t67.5 -128l45 147h156zM862 1221q-19 -99 -63 -147t-117 -48q-18 0 -33 2
t-29 6l-131 37q-24 6 -40 8t-29 2q-39 0 -62 -18.5t-31 -54.5h-49q16 93 58.5 138.5t113.5 45.5q22 0 40.5 -2.5t35.5 -7.5l129 -37q21 -5 33.5 -6.5t23.5 -1.5q41 0 65.5 20t35.5 64h49z" />
    <glyph glyph-name="aring" unicode="&#xe5;" horiz-adv-x="963" 
d="M383 1145q0 -70 49 -118t119 -48q69 0 117.5 48.5t48.5 117.5q0 70 -48.5 119t-117.5 49q-71 0 -119.5 -49t-48.5 -119zM307 1147q0 101 70 170t172 69q101 0 170 -69t69 -170q0 -102 -69 -172t-170 -70q-102 0 -172 70.5t-70 171.5zM622 546q6 21 8.5 40.5t2.5 36.5
q0 79 -44 130.5t-112 51.5q-77 0 -140.5 -49.5t-115.5 -149.5q-46 -88 -74 -197.5t-28 -199.5q0 -95 37 -147t106 -52q90 0 169 74t114 195zM676 182q-11 -36 -17 -63.5t-6 -40.5q0 -24 13 -41t30 -17q31 0 80 48t103 131l24 -17q-78 -118 -135.5 -162.5t-126.5 -44.5
q-55 0 -89.5 33.5t-49.5 102.5q-60 -66 -122 -98.5t-128 -32.5q-125 0 -203 91t-78 240q0 91 26 173.5t75 148.5q70 96 169.5 151.5t200.5 55.5q91 0 145.5 -44t67.5 -128l45 147h156z" />
    <glyph glyph-name="ccedilla" unicode="&#xe7;" horiz-adv-x="735" 
d="M625 287q-63 -148 -156 -229t-199 -81q-115 0 -195.5 91t-80.5 223q0 104 41 205t119 186q73 79 151.5 118.5t165.5 39.5q90 0 143.5 -39t53.5 -103q0 -41 -28 -67.5t-71 -26.5q-36 0 -63 27t-27 63q0 59 40 96q5 5 5 7q0 6 -14 10t-39 4q-56 0 -103 -35.5t-83 -105.5
q-24 -45 -44.5 -100t-37.5 -121q-24 -92 -36.5 -165.5t-12.5 -119.5q0 -71 32 -108.5t93 -37.5q92 0 172 72t145 213zM7 -369l20 43q68 -27 128 -43t89 -16q52 0 79.5 28.5t27.5 82.5q0 49 -26.5 73.5t-78.5 24.5q-12 0 -27 -1.5t-32 -4.5l57 182h33l-36 -135q19 3 37.5 4.5
t33.5 1.5q94 0 146 -40t52 -112q0 -68 -62.5 -109.5t-166.5 -41.5q-55 0 -124 16t-150 47z" />
    <glyph glyph-name="eacute" unicode="&#xe9;" horiz-adv-x="711" 
d="M172 440q-23 -94 -34 -158t-11 -106q0 -76 40 -120t109 -44q76 0 147.5 54.5t133.5 158.5l25 -14q-66 -114 -148.5 -172.5t-177.5 -58.5q-119 0 -196.5 94t-77.5 239q0 86 40 178.5t113 176.5q72 82 153.5 127t157.5 45q88 0 139.5 -48t51.5 -128q0 -102 -91 -175
t-218 -73q-33 0 -72.5 6t-83.5 18zM178 471q33 -11 65 -16.5t60 -5.5q89 0 148 74t59 188q0 48 -22 74t-64 26q-73 0 -137 -88t-109 -252zM370 950h-71l299 314q18 20 39.5 31.5t40.5 11.5q27 0 48 -21t21 -49q0 -22 -16 -41.5t-53 -44.5z" />
    <glyph glyph-name="egrave" unicode="&#xe8;" horiz-adv-x="711" 
d="M172 440q-23 -94 -34 -158t-11 -106q0 -76 40 -120t109 -44q76 0 147.5 54.5t133.5 158.5l25 -14q-66 -114 -148.5 -172.5t-177.5 -58.5q-119 0 -196.5 94t-77.5 239q0 86 40 178.5t113 176.5q72 82 153.5 127t157.5 45q88 0 139.5 -48t51.5 -128q0 -102 -91 -175
t-218 -73q-33 0 -72.5 6t-83.5 18zM178 471q33 -11 65 -16.5t60 -5.5q89 0 148 74t59 188q0 48 -22 74t-64 26q-73 0 -137 -88t-109 -252zM612 952h-68l-243 203q-32 26 -44 45t-12 41q0 28 20.5 49t47.5 21q21 0 44 -15.5t42 -42.5z" />
    <glyph glyph-name="ecircumflex" unicode="&#xea;" horiz-adv-x="711" 
d="M172 440q-23 -94 -34 -158t-11 -106q0 -76 40 -120t109 -44q76 0 147.5 54.5t133.5 158.5l25 -14q-66 -114 -148.5 -172.5t-177.5 -58.5q-119 0 -196.5 94t-77.5 239q0 86 40 178.5t113 176.5q72 82 153.5 127t157.5 45q88 0 139.5 -48t51.5 -128q0 -102 -91 -175
t-218 -73q-33 0 -72.5 6t-83.5 18zM178 471q33 -11 65 -16.5t60 -5.5q89 0 148 74t59 188q0 48 -22 74t-64 26q-73 0 -137 -88t-109 -252zM729 950h-56l-176 207l-276 -207h-68l310 348h104z" />
    <glyph glyph-name="edieresis" unicode="&#xeb;" horiz-adv-x="711" 
d="M172 440q-23 -94 -34 -158t-11 -106q0 -76 40 -120t109 -44q76 0 147.5 54.5t133.5 158.5l25 -14q-66 -114 -148.5 -172.5t-177.5 -58.5q-119 0 -196.5 94t-77.5 239q0 86 40 178.5t113 176.5q72 82 153.5 127t157.5 45q88 0 139.5 -48t51.5 -128q0 -102 -91 -175
t-218 -73q-33 0 -72.5 6t-83.5 18zM178 471q33 -11 65 -16.5t60 -5.5q89 0 148 74t59 188q0 48 -22 74t-64 26q-73 0 -137 -88t-109 -252zM196 1100q0 38 30 68t69 30q40 0 69 -29t29 -69q0 -44 -28 -72.5t-70 -28.5q-41 0 -70 30t-29 71zM571 1100q0 38 30 68t68 30
q40 0 69.5 -29t29.5 -69q0 -44 -28 -72.5t-71 -28.5q-40 0 -69 30t-29 71z" />
    <glyph glyph-name="iacute" unicode="&#xed;" horiz-adv-x="508" 
d="M199 786h-123l8 29h80q71 0 118.5 6t90.5 19l-195 -645q-11 -34 -16.5 -62t-5.5 -45q0 -27 13.5 -41t39.5 -14q35 0 79 33.5t128 128.5l20 -17q-86 -105 -155 -151.5t-138 -46.5q-63 0 -100 36t-37 99q0 23 6.5 54.5t26.5 94.5zM227 950h-71l299 314q18 20 39.5 31.5
t40.5 11.5q27 0 48 -21t21 -49q0 -22 -16 -41.5t-53 -44.5z" />
    <glyph glyph-name="igrave" unicode="&#xec;" horiz-adv-x="508" 
d="M199 786h-123l8 29h80q71 0 118.5 6t90.5 19l-195 -645q-11 -34 -16.5 -62t-5.5 -45q0 -27 13.5 -41t39.5 -14q35 0 79 33.5t128 128.5l20 -17q-86 -105 -155 -151.5t-138 -46.5q-63 0 -100 36t-37 99q0 23 6.5 54.5t26.5 94.5zM469 952h-68l-243 203q-32 26 -44 45
t-12 41q0 28 20.5 49t47.5 21q21 0 44 -15.5t42 -42.5z" />
    <glyph glyph-name="icircumflex" unicode="&#xee;" horiz-adv-x="508" 
d="M199 786h-123l8 29h80q71 0 118.5 6t90.5 19l-195 -645q-11 -34 -16.5 -62t-5.5 -45q0 -27 13.5 -41t39.5 -14q35 0 79 33.5t128 128.5l20 -17q-86 -105 -155 -151.5t-138 -46.5q-63 0 -100 36t-37 99q0 23 6.5 54.5t26.5 94.5zM586 950h-56l-176 207l-276 -207h-68
l310 348h104z" />
    <glyph glyph-name="idieresis" unicode="&#xef;" horiz-adv-x="508" 
d="M199 786h-123l8 29h80q71 0 118.5 6t90.5 19l-195 -645q-11 -34 -16.5 -62t-5.5 -45q0 -27 13.5 -41t39.5 -14q35 0 79 33.5t128 128.5l20 -17q-86 -105 -155 -151.5t-138 -46.5q-63 0 -100 36t-37 99q0 23 6.5 54.5t26.5 94.5zM53 1100q0 38 30 68t69 30q40 0 69 -29
t29 -69q0 -44 -28 -72.5t-70 -28.5q-41 0 -70 30t-29 71zM428 1100q0 38 30 68t68 30q40 0 69.5 -29t29.5 -69q0 -44 -28 -72.5t-71 -28.5q-40 0 -69 30t-29 71z" />
    <glyph glyph-name="ntilde" unicode="&#xf1;" horiz-adv-x="1014" 
d="M700 182l-1 -5q-23 -75 -23 -95q0 -26 12.5 -44t30.5 -18q31 0 81 48t103 131l25 -19q-75 -114 -133 -159.5t-125 -45.5q-63 0 -97 38t-34 106q0 22 4.5 47t13.5 55l127 398l6 18q21 68 21 102q0 31 -18 47.5t-52 16.5q-39 0 -91.5 -24.5t-109.5 -69.5
q-80 -64 -136 -144.5t-85 -175.5l-119 -389h-157l239 786h-121l9 29h77q72 0 120.5 6t90.5 19l-77 -254q99 127 197.5 190.5t195.5 63.5q80 0 127 -42.5t47 -115.5q0 -21 -6 -50t-19 -69zM889 1221q-19 -99 -63 -147t-117 -48q-18 0 -33 2t-29 6l-131 37q-24 6 -40 8t-29 2
q-39 0 -62 -18.5t-31 -54.5h-49q16 93 58.5 138.5t113.5 45.5q22 0 40.5 -2.5t35.5 -7.5l129 -37q21 -5 33.5 -6.5t23.5 -1.5q41 0 65.5 20t35.5 64h49z" />
    <glyph glyph-name="oacute" unicode="&#xf3;" horiz-adv-x="891" 
d="M295 -25q-142 0 -228.5 94t-86.5 248q0 89 33 177t93 161q82 98 167.5 141.5t193.5 43.5q134 0 215.5 -92.5t81.5 -245.5q0 -93 -32.5 -180.5t-94.5 -161.5q-77 -93 -162 -139t-180 -46zM457 815q-69 0 -121 -46.5t-100 -152.5q-53 -110 -84 -229.5t-31 -198.5
q0 -90 43 -138t125 -48q66 0 119 47t102 150q51 107 82 227.5t31 206.5q0 92 -41 137t-125 45zM419 950h-71l299 314q18 20 39.5 31.5t40.5 11.5q27 0 48 -21t21 -49q0 -22 -16 -41.5t-53 -44.5z" />
    <glyph glyph-name="ograve" unicode="&#xf2;" horiz-adv-x="891" 
d="M295 -25q-142 0 -228.5 94t-86.5 248q0 89 33 177t93 161q82 98 167.5 141.5t193.5 43.5q134 0 215.5 -92.5t81.5 -245.5q0 -93 -32.5 -180.5t-94.5 -161.5q-77 -93 -162 -139t-180 -46zM457 815q-69 0 -121 -46.5t-100 -152.5q-53 -110 -84 -229.5t-31 -198.5
q0 -90 43 -138t125 -48q66 0 119 47t102 150q51 107 82 227.5t31 206.5q0 92 -41 137t-125 45zM661 952h-68l-243 203q-32 26 -44 45t-12 41q0 28 20.5 49t47.5 21q21 0 44 -15.5t42 -42.5z" />
    <glyph glyph-name="ocircumflex" unicode="&#xf4;" horiz-adv-x="891" 
d="M295 -25q-142 0 -228.5 94t-86.5 248q0 89 33 177t93 161q82 98 167.5 141.5t193.5 43.5q134 0 215.5 -92.5t81.5 -245.5q0 -93 -32.5 -180.5t-94.5 -161.5q-77 -93 -162 -139t-180 -46zM457 815q-69 0 -121 -46.5t-100 -152.5q-53 -110 -84 -229.5t-31 -198.5
q0 -90 43 -138t125 -48q66 0 119 47t102 150q51 107 82 227.5t31 206.5q0 92 -41 137t-125 45zM778 950h-56l-176 207l-276 -207h-68l310 348h104z" />
    <glyph glyph-name="odieresis" unicode="&#xf6;" horiz-adv-x="891" 
d="M295 -25q-142 0 -228.5 94t-86.5 248q0 89 33 177t93 161q82 98 167.5 141.5t193.5 43.5q134 0 215.5 -92.5t81.5 -245.5q0 -93 -32.5 -180.5t-94.5 -161.5q-77 -93 -162 -139t-180 -46zM457 815q-69 0 -121 -46.5t-100 -152.5q-53 -110 -84 -229.5t-31 -198.5
q0 -90 43 -138t125 -48q66 0 119 47t102 150q51 107 82 227.5t31 206.5q0 92 -41 137t-125 45zM245 1100q0 38 30 68t69 30q40 0 69 -29t29 -69q0 -44 -28 -72.5t-70 -28.5q-41 0 -70 30t-29 71zM620 1100q0 38 30 68t68 30q40 0 69.5 -29t29.5 -69q0 -44 -28 -72.5
t-71 -28.5q-40 0 -69 30t-29 71z" />
    <glyph glyph-name="otilde" unicode="&#xf5;" horiz-adv-x="891" 
d="M295 -25q-142 0 -228.5 94t-86.5 248q0 89 33 177t93 161q82 98 167.5 141.5t193.5 43.5q134 0 215.5 -92.5t81.5 -245.5q0 -93 -32.5 -180.5t-94.5 -161.5q-77 -93 -162 -139t-180 -46zM457 815q-69 0 -121 -46.5t-100 -152.5q-53 -110 -84 -229.5t-31 -198.5
q0 -90 43 -138t125 -48q66 0 119 47t102 150q51 107 82 227.5t31 206.5q0 92 -41 137t-125 45zM827 1221q-19 -99 -63 -147t-117 -48q-18 0 -33 2t-29 6l-131 37q-24 6 -40 8t-29 2q-39 0 -62 -18.5t-31 -54.5h-49q16 93 58.5 138.5t113.5 45.5q22 0 40.5 -2.5t35.5 -7.5
l129 -37q21 -5 33.5 -6.5t23.5 -1.5q41 0 65.5 20t35.5 64h49z" />
    <glyph glyph-name="uacute" unicode="&#xfa;" horiz-adv-x="948" 
d="M168 786h-121l8 29h78q72 0 120 6t91 19l-201 -656q-8 -27 -13 -51t-5 -37q0 -29 18.5 -47t49.5 -18q27 0 59.5 16.5t77.5 52.5q89 73 139.5 144.5t81.5 167.5l129 403h156l-199 -629q-12 -38 -18.5 -65.5t-6.5 -40.5q0 -21 13 -37t30 -16q32 0 80 46t103 130l22 -17
q-62 -102 -126.5 -153t-129.5 -51q-63 0 -98 37t-35 104q0 20 4.5 45.5t13.5 56.5q-89 -119 -181 -181t-179 -62q-69 0 -110.5 39t-41.5 104q0 18 7 53t18 72zM458 950h-71l299 314q18 20 39.5 31.5t40.5 11.5q27 0 48 -21t21 -49q0 -22 -16 -41.5t-53 -44.5z" />
    <glyph glyph-name="ugrave" unicode="&#xf9;" horiz-adv-x="948" 
d="M168 786h-121l8 29h78q72 0 120 6t91 19l-201 -656q-8 -27 -13 -51t-5 -37q0 -29 18.5 -47t49.5 -18q27 0 59.5 16.5t77.5 52.5q89 73 139.5 144.5t81.5 167.5l129 403h156l-199 -629q-12 -38 -18.5 -65.5t-6.5 -40.5q0 -21 13 -37t30 -16q32 0 80 46t103 130l22 -17
q-62 -102 -126.5 -153t-129.5 -51q-63 0 -98 37t-35 104q0 20 4.5 45.5t13.5 56.5q-89 -119 -181 -181t-179 -62q-69 0 -110.5 39t-41.5 104q0 18 7 53t18 72zM700 952h-68l-243 203q-32 26 -44 45t-12 41q0 28 20.5 49t47.5 21q21 0 44 -15.5t42 -42.5z" />
    <glyph glyph-name="ucircumflex" unicode="&#xfb;" horiz-adv-x="948" 
d="M168 786h-121l8 29h78q72 0 120 6t91 19l-201 -656q-8 -27 -13 -51t-5 -37q0 -29 18.5 -47t49.5 -18q27 0 59.5 16.5t77.5 52.5q89 73 139.5 144.5t81.5 167.5l129 403h156l-199 -629q-12 -38 -18.5 -65.5t-6.5 -40.5q0 -21 13 -37t30 -16q32 0 80 46t103 130l22 -17
q-62 -102 -126.5 -153t-129.5 -51q-63 0 -98 37t-35 104q0 20 4.5 45.5t13.5 56.5q-89 -119 -181 -181t-179 -62q-69 0 -110.5 39t-41.5 104q0 18 7 53t18 72zM817 950h-56l-176 207l-276 -207h-68l310 348h104z" />
    <glyph glyph-name="udieresis" unicode="&#xfc;" horiz-adv-x="948" 
d="M168 786h-121l8 29h78q72 0 120 6t91 19l-201 -656q-8 -27 -13 -51t-5 -37q0 -29 18.5 -47t49.5 -18q27 0 59.5 16.5t77.5 52.5q89 73 139.5 144.5t81.5 167.5l129 403h156l-199 -629q-12 -38 -18.5 -65.5t-6.5 -40.5q0 -21 13 -37t30 -16q32 0 80 46t103 130l22 -17
q-62 -102 -126.5 -153t-129.5 -51q-63 0 -98 37t-35 104q0 20 4.5 45.5t13.5 56.5q-89 -119 -181 -181t-179 -62q-69 0 -110.5 39t-41.5 104q0 18 7 53t18 72zM284 1100q0 38 30 68t69 30q40 0 69 -29t29 -69q0 -44 -28 -72.5t-70 -28.5q-41 0 -70 30t-29 71zM659 1100
q0 38 30 68t68 30q40 0 69.5 -29t29.5 -69q0 -44 -28 -72.5t-71 -28.5q-40 0 -69 30t-29 71z" />
    <glyph glyph-name="dagger" unicode="&#x2020;" 
d="M506 680h-12q-107 0 -210 -40t-110 -40q-11 0 -13.5 1.5t-2.5 6.5q0 10 6 24.5t16 31.5l-82 10q-28 3 -37.5 8t-9.5 16q0 12 10.5 19t36.5 12l88 21l-8 32q0 3 -1 5.5t-1 3.5q0 6 3 10t7 4q11 0 117.5 -45t210.5 -47q28 102 41.5 184t13.5 147q0 90 -27 175q-5 16 -5 20
q0 6 5.5 10t12.5 4q3 0 5 -0.5t3 -1.5l49 -37q30 77 61 124.5t50 47.5q8 0 12 -13.5t4 -39.5q0 -25 -3 -56.5t-9 -66.5l41 27q8 5 11.5 6.5t6.5 1.5q8 0 12.5 -4.5t4.5 -11.5q0 -4 -20 -32q-147 -203 -234 -484q149 3 310 72q41 18 50 18q5 0 9 -4t4 -8v-5l-19 -49l76 -16
q18 -3 27 -10t10 -19q0 -9 -19 -18t-53 -15l-59 -10l10 -32q1 -4 1.5 -7t0.5 -8q0 -8 -5 -11t-18 -3q-2 0 -18 8q-140 69 -317 84q-73 -301 -112.5 -530t-39.5 -349q0 -15 3 -39t3 -32q0 -14 -5.5 -21.5t-14.5 -7.5q-3 0 -7.5 2.5t-9.5 7.5l-24 27l-76 -139q-12 -23 -23 -34
t-22 -11q-8 0 -14.5 12.5t-6.5 30.5v12l19 137l-35 -25q-1 0 -2 -1q-15 -9 -22 -9t-13 5.5t-6 11.5q0 5 26 52q214 391 349 900z" />
    <glyph glyph-name="degree" unicode="&#xb0;" horiz-adv-x="674" 
d="M338 1372q-84 0 -143.5 -58.5t-59.5 -142.5t59.5 -143t143.5 -59t142.5 59t58.5 143t-58.5 142.5t-142.5 58.5zM338 1454q117 0 200 -83t83 -200q0 -116 -83.5 -199t-201.5 -83t-199.5 82t-81.5 200q0 119 82.5 201t200.5 82z" />
    <glyph glyph-name="cent" unicode="&#xa2;" horiz-adv-x="985" 
d="M295 31l229 778q-62 -11 -111.5 -61.5t-88.5 -143.5q-48 -109 -76.5 -230.5t-28.5 -203.5q0 -55 18.5 -89.5t57.5 -49.5zM281 -10q-106 29 -167 110.5t-61 194.5q0 102 43 201t125 184q76 77 154 116.5t157 41.5l48 155h34l-47 -155h6q83 0 137 -39t54 -94
q0 -44 -24.5 -71.5t-63.5 -27.5q-44 0 -69 23.5t-25 62.5q0 61 40 97q5 5 5 6q0 6 -18 10t-50 4l-231 -784q6 -2 11.5 -2h16.5q93 0 175.5 72t148.5 210l29 -16q-68 -151 -163.5 -228t-215.5 -77h-15l-51 -172l-35 6z" />
    <glyph glyph-name="sterling" unicode="&#xa3;" horiz-adv-x="985" 
d="M260 203q-56 50 -103 73t-91 23q-77 0 -129 -43.5t-52 -105.5q0 -53 38 -88t95 -35q71 0 130.5 43t111.5 133zM305 145q-76 -87 -145.5 -128.5t-139.5 -41.5q-74 0 -120.5 43.5t-46.5 112.5q0 88 69.5 144.5t181.5 56.5q47 0 100.5 -12.5t118.5 -38.5q14 28 20.5 61
t6.5 72q0 50 -11.5 124.5t-33.5 170.5h-223l8 32h211q-6 37 -9 69.5t-3 59.5q0 207 137 349.5t336 142.5q121 0 196.5 -60.5t75.5 -156.5q0 -67 -32.5 -110.5t-81.5 -43.5q-37 0 -60.5 20t-23.5 50q0 21 13.5 43t35.5 35q9 5 28 13q56 23 56 58q0 45 -52 79t-124 34
q-136 0 -224 -131.5t-88 -335.5q0 -32 1.5 -61t4.5 -53l287 -1l-10 -32h-274q1 -12 1.5 -24.5t0.5 -37.5q0 -108 -29 -205t-88 -188q122 -68 201 -99.5t129 -31.5q66 0 112.5 36t77.5 111l25 -2q-36 -134 -119.5 -213.5t-188.5 -79.5q-70 0 -146.5 42.5t-160.5 127.5z" />
    <glyph glyph-name="section" unicode="&#xa7;" 
d="M356 842q-99 -46 -149.5 -100.5t-50.5 -114.5q0 -105 216 -255q26 -18 40 -28q20 -14 59 -41q119 -82 162 -131q99 57 145.5 114.5t46.5 123.5q0 101 -302 313q-106 74 -167 119zM332 862q-28 34 -42 74.5t-14 89.5q0 147 119.5 252.5t288.5 105.5q125 0 205 -61.5
t80 -155.5q0 -48 -28.5 -76t-78.5 -28q-45 0 -71.5 24.5t-26.5 65.5q0 35 17 56t53 30q6 2 16 4q37 8 37 27q0 26 -60 56t-135 30q-139 0 -224 -64.5t-85 -169.5q0 -95 207 -236q44 -30 67 -46q169 -116 217 -178t48 -136q0 -101 -72.5 -204t-198.5 -179q22 -37 32.5 -78
t10.5 -92q0 -180 -128.5 -299.5t-319.5 -119.5q-149 0 -249.5 74.5t-100.5 181.5q0 65 36 104t97 39q44 0 70 -24.5t26 -65.5t-25.5 -64.5t-68.5 -23.5q-9 0 -26.5 2t-27.5 2q-15 0 -24.5 -7.5t-9.5 -21.5q0 -55 94 -111.5t211 -56.5q140 0 241 82t101 195q0 139 -239 309
q-26 19 -39 28l-3 2q-254 181 -254 310q0 101 75 197.5t202 156.5z" />
    <glyph glyph-name="bullet" unicode="&#x2022;" horiz-adv-x="1208" 
d="M307 762q0 123 87 209t210 86q122 0 208.5 -86.5t86.5 -208.5t-87.5 -209.5t-209.5 -87.5q-123 0 -209 87t-86 210z" />
    <glyph glyph-name="paragraph" unicode="&#xb6;" 
d="M948 1479v-78h-125v-1401h-94v1401h-182v-1401h-96v782q-173 8 -274 102.5t-101 245.5q0 157 107.5 253t285.5 96h479z" />
    <glyph glyph-name="germandbls" unicode="&#xdf;" horiz-adv-x="991" 
d="M684 1376q-81 0 -136.5 -37.5t-103.5 -126.5q-61 -117 -150 -478q-37 -149 -58 -230q-154 -577 -275.5 -794.5t-273.5 -217.5q-65 0 -106.5 34.5t-41.5 88.5q0 42 25.5 71t60.5 29q41 0 67.5 -26.5t26.5 -67.5q0 -19 -11 -40t-11 -23q0 -9 8.5 -17t20.5 -8q30 0 71 41
t70 104q39 88 125 489q31 146 49 228q85 380 144.5 542.5t138.5 266.5q71 95 167 149t193 54q119 0 196.5 -69.5t77.5 -176.5q0 -67 -41.5 -128.5t-121.5 -112.5q-20 -13 -56 -35q-194 -122 -194 -203q0 -58 141 -158q36 -25 55 -39q60 -42 86.5 -87t26.5 -103
q0 -132 -99 -226t-239 -94q-105 0 -176.5 61t-71.5 150q0 52 29 85.5t74 33.5q38 0 64 -24.5t26 -61.5q0 -43 -47 -82.5t-47 -56.5q0 -30 39 -51t98 -21q95 0 164 55t69 130q0 87 -163 202l-15 11q-87 60 -114 95.5t-27 76.5q0 58 39 117t118 118q15 11 42 31
q260 194 260 348q0 83 -53 133.5t-140 50.5z" />
    <glyph glyph-name="registered" unicode="&#xae;" horiz-adv-x="1683" 
d="M729 719q16 -1 32 -1.5t34 -0.5q112 0 173.5 45.5t61.5 128.5q0 73 -53 117.5t-143 44.5q-52 0 -78.5 -18.5t-26.5 -53.5v-262zM469 1092h393q147 0 232.5 -54.5t85.5 -146.5q0 -76 -69.5 -124t-217.5 -75q93 -29 142 -77.5t71 -133.5q6 -22 11 -63q13 -88 59 -88
q32 0 49.5 34t17.5 99h43v-12q0 -88 -40.5 -133.5t-119.5 -45.5q-46 0 -78.5 17t-48.5 49q-18 40 -21 113.5t-9 95.5q-20 68 -70.5 100.5t-136.5 32.5h-33v-248q0 -54 26.5 -75.5t98.5 -25.5v-40h-385v40q72 3 99.5 24.5t27.5 76.5v516q0 55 -26 76t-101 25v43zM844 1303
q-122 0 -236 -48t-202 -137t-134.5 -202.5t-46.5 -237.5q0 -127 46.5 -239t136.5 -201q88 -89 198.5 -135t235.5 -46q126 0 236.5 46t197.5 135q88 90 135 203t47 237t-47.5 241.5t-132.5 200.5q-86 87 -200.5 135t-233.5 48zM844 1382q138 0 268.5 -54t228.5 -152
q97 -97 150 -228t53 -272q0 -137 -55.5 -267.5t-157.5 -232.5q-99 -99 -224.5 -150t-270.5 -51q-137 0 -263 52.5t-227 152.5t-154 227t-53 271q0 140 53 268.5t152 229.5q98 99 228 152.5t272 53.5z" />
    <glyph glyph-name="copyright" unicode="&#xa9;" horiz-adv-x="1683" 
d="M1120 1096h35l2 -314h-41q-34 137 -104 206t-176 69q-123 0 -185.5 -94.5t-62.5 -278.5q0 -189 67 -285t199 -96q86 0 156 43t127 131l34 -24q-58 -105 -143 -157t-199 -52q-167 0 -285 123t-118 297q0 186 116 312t285 126q74 0 148 -34t82 -34q27 0 42 14.5t21 47.5z
M844 1303q-123 0 -237.5 -48.5t-200.5 -136.5q-88 -89 -134.5 -202.5t-46.5 -237.5q0 -125 47 -238.5t136 -201.5q88 -89 198.5 -135t235.5 -46q126 0 236.5 46t197.5 135q88 90 135 203t47 237t-47.5 240.5t-132.5 201.5q-86 87 -200.5 135t-233.5 48zM844 1382
q137 0 266.5 -53.5t226.5 -150.5q98 -97 152.5 -228.5t54.5 -271.5t-53 -268t-154 -230q-98 -100 -225 -152.5t-270 -52.5t-269 52.5t-227 152.5t-154 227t-53 271q0 140 53 268.5t152 229.5q98 99 228 152.5t272 53.5z" />
    <glyph glyph-name="trademark" unicode="&#x2122;" horiz-adv-x="1683" 
d="M788 1438h183l141 -400l148 400h174v-25l-30 -2q-22 -2 -34 -15.5t-12 -37.5v-373q0 -24 12 -37.5t34 -15.5l30 -2v-27h-236v27l31 2q21 2 33 16t12 37v395l-178 -479h-15l-174 479v-395q0 -23 12.5 -37t34.5 -16l31 -2v-27h-197v27l34 2q21 2 32.5 16t11.5 37v371
q0 23 -12.5 37t-34.5 16l-31 2v27zM256 1438h440l11 -178h-25q-8 79 -40.5 115t-96.5 36h-21v-426q0 -23 12 -37t33 -16l31 -2v-27h-248v27l31 2q21 1 33 15.5t12 37.5v426h-20q-64 0 -97 -36t-41 -115h-26z" />
    <glyph glyph-name="acute" unicode="&#xb4;" 
d="M485 950h-71l299 314q18 20 39.5 31.5t40.5 11.5q27 0 48 -21t21 -49q0 -22 -16 -41.5t-53 -44.5z" />
    <glyph glyph-name="dieresis" unicode="&#xa8;" 
d="M311 1100q0 38 30 68t69 30q40 0 69 -29t29 -69q0 -44 -28 -72.5t-70 -28.5q-41 0 -70 30t-29 71zM686 1100q0 38 30 68t68 30q40 0 69.5 -29t29.5 -69q0 -44 -28 -72.5t-71 -28.5q-40 0 -69 30t-29 71z" />
    <glyph glyph-name="notequal" unicode="&#x2260;" horiz-adv-x="1706" 
d="M1210 1180l88 -70l-196 -250h350v-115h-424l-211 -270h635v-115h-709l-251 -319l-89 70l197 249h-346v115h420l211 270h-631v115h704z" />
    <glyph glyph-name="AE" unicode="&#xc6;" horiz-adv-x="1626" 
d="M324 0l8 29h153l127 463h-444l-272 -349q-23 -29 -33 -47.5t-10 -29.5q0 -19 24.5 -28t73.5 -9h26l-8 -29h-299l8 28q45 2 86 26.5t76 70.5l934 1202h-82l8 29h951l-70 -369h-29q1 2 1 6q3 42 3 64q0 133 -62 201.5t-183 68.5h-275l-162 -575h117q115 0 156.5 38
t75.5 168h30l-139 -509h-29q18 66 26.5 109.5t8.5 59.5q0 49 -36 77t-99 28h-121l-188 -694h330q160 0 274.5 104t151.5 283h28l-84 -416h-1052zM621 520l233 807h-35l-629 -807h431z" />
    <glyph glyph-name="Oslash" unicode="&#xd8;" horiz-adv-x="1346" 
d="M242 78q-94 90 -140.5 201t-46.5 243q0 148 53 294t150 267q118 149 259 226t294 77q90 0 163.5 -27.5t133.5 -84.5l98 133l29 -21l-96 -139q75 -73 113 -178t38 -238q0 -148 -52 -292t-151 -269q-114 -143 -253.5 -221t-280.5 -78q-85 0 -154 20.5t-123 61.5l-90 -123
l-28 23zM285 133l784 1081q-37 74 -100.5 111t-151.5 37q-119 0 -209.5 -61.5t-158.5 -188.5q-94 -171 -148.5 -380t-54.5 -394q0 -69 9 -117.5t30 -87.5zM1083 1174l-776 -1078q34 -48 98 -73t152 -25q127 0 220.5 83.5t174.5 270.5q34 79 62.5 171.5t50.5 193.5
q21 98 32 171.5t11 121.5q0 34 -6 75t-19 89z" />
    <glyph glyph-name="infinity" unicode="&#x221e;" horiz-adv-x="1706" 
d="M905 559q51 -95 119 -141.5t156 -46.5q102 0 168.5 71t66.5 181q0 108 -61 179.5t-152 71.5q-85 0 -153.5 -72.5t-143.5 -242.5zM803 666q-51 95 -119 142.5t-154 47.5q-105 0 -171 -71t-66 -183q0 -108 61 -179t152 -71q85 0 152 69t145 245zM866 494
q-71 -138 -148 -201.5t-173 -63.5q-134 0 -226 109t-92 272q0 172 82.5 277.5t214.5 105.5q97 0 172 -63t144 -203q67 138 146 204t175 66q134 0 226 -108.5t92 -272.5q0 -171 -82 -277t-213 -106q-96 0 -169 60t-149 201z" />
    <glyph glyph-name="plusminus" unicode="&#xb1;" horiz-adv-x="1706" 
d="M254 158h1198v-117h-1198v117zM795 1180h118v-344h539v-117h-539v-344h-118v344h-541v117h541v344z" />
    <glyph glyph-name="lessequal" unicode="&#x2264;" horiz-adv-x="1706" 
d="M262 150h1182v-117h-1182v117zM1444 1192v-125l-977 -324l977 -323v-125l-1182 399v101z" />
    <glyph glyph-name="greaterequal" unicode="&#x2265;" horiz-adv-x="1706" 
d="M262 150h1182v-117h-1182v117zM262 1192l1182 -397v-101l-1182 -399v125l979 323l-979 324v125z" />
    <glyph glyph-name="yen" unicode="&#xa5;" horiz-adv-x="985" 
d="M37 0l6 29h156l149 536l-6 49h-309l12 48h295l-16 167h-232l12 48h218l-35 434h-133v26h446v-26h-160l58 -697l422 576q20 27 31.5 48.5t11.5 31.5q0 23 -20.5 33t-70.5 10q-5 0 -19.5 -1t-23.5 -1l9 26h284l-6 -26q-73 0 -124 -72q-4 -6 -7 -10l-250 -352h242l-14 -48
h-261l-120 -167h333l-12 -48h-354l-49 -65l-135 -520h165l-6 -29h-487z" />
    <glyph glyph-name="mu" unicode="&#xb5;" horiz-adv-x="1120" 
d="M164 193q-27 -136 -52 -339q-34 -272 -112 -272q-37 0 -58.5 23.5t-21.5 64.5q0 40 64.5 273.5t105.5 427.5l109 514h147l-104 -492q-6 -30 -9.5 -58.5t-3.5 -53.5q0 -83 42 -129t118 -46q98 0 163.5 68.5t94.5 200.5l111 510h149l-114 -531q-13 -59 -17 -87.5t-4 -49.5
q0 -48 26 -78t66 -30q35 0 65.5 18t51.5 51t41 93.5t39 60.5q12 0 19 -10t7 -27q0 -25 -11 -66.5t-29 -83.5q-38 -82 -95 -122.5t-135 -40.5q-68 0 -108.5 51t-40.5 139v23q-46 -110 -116 -164t-165 -54q-96 0 -152.5 54.5t-70.5 161.5z" />
    <glyph glyph-name="partialdiff" unicode="&#x2202;" horiz-adv-x="1044" 
d="M754 604q13 81 19.5 161.5t6.5 158.5q0 140 -39.5 216.5t-111.5 76.5q-53 0 -117 -63.5t-109 -63.5q-29 0 -51 21.5t-22 51.5q0 59 68 105.5t163 46.5q171 0 273 -152.5t102 -412.5q0 -335 -139 -555t-344 -220q-147 0 -241.5 106.5t-94.5 272.5q0 189 108.5 316
t266.5 127q99 0 162.5 -47t99.5 -146zM709 483q0 117 -45 180.5t-127 63.5q-113 0 -184.5 -127.5t-71.5 -333.5q0 -117 44 -178t128 -61q111 0 183.5 128t72.5 328z" />
    <glyph glyph-name="summation" unicode="&#x2211;" horiz-adv-x="1434" 
d="M12 1473h1135l98 -340h-74l-67 219q-8 27 -32 39t-73 12h-741l864 -850v-37l-858 -756h893q60 0 77.5 13t29.5 51l71 229h74l-135 -446h-1260v28l959 838l-961 950v50z" />
    <glyph glyph-name="product" unicode="&#x220f;" horiz-adv-x="1595" 
d="M57 1473h1479v-70h-186v-1727h186v-69h-555v69h197v1727h-762v-1727h196v-69h-555v69h187v1727h-187v70z" />
    <glyph glyph-name="pi" unicode="&#x3c0;" horiz-adv-x="1354" 
d="M1329 885l-35 -162h-329q-34 -179 -54 -452q-23 -314 -120 -314q-38 0 -58 24.5t-20 69.5q0 58 77 280.5t117 391.5h-375q-33 -177 -53 -448q-25 -318 -123 -318q-37 0 -57 25t-20 71q0 56 77.5 277t118.5 393h-133q-136 0 -180 -43.5t-72 -171.5h-59q37 207 117.5 292
t238.5 85h942z" />
    <glyph glyph-name="integral" unicode="&#x222b;" horiz-adv-x="1020" 
d="M301 -268q103 0 116 664q3 141 5 216q12 503 102 719.5t281 216.5q76 0 122 -39t46 -104q0 -48 -31 -77.5t-82 -29.5q-53 0 -85 35t-32 92q0 8 -6 15.5t-14 7.5q-105 0 -119 -634q-3 -157 -6 -245q-10 -308 -31.5 -461t-62.5 -247q-49 -114 -123 -173t-168 -59
q-73 0 -119.5 38t-46.5 97q0 53 31.5 84t83.5 31q47 0 79.5 -29t32.5 -67q0 -24 7.5 -37.5t19.5 -13.5z" />
    <glyph glyph-name="ordfeminine" unicode="&#xaa;" horiz-adv-x="723" 
d="M467 1151q5 19 6.5 30.5t1.5 22.5q0 56 -33 91.5t-84 35.5q-58 0 -105 -34t-87 -105q-34 -61 -55 -138t-21 -141q0 -66 27.5 -101.5t79.5 -35.5q68 0 127.5 51t85.5 136zM508 895q-10 -32 -14.5 -48.5t-4.5 -23.5q0 -17 10 -29t23 -12q23 0 59 33t78 92l19 -12
q-57 -81 -100.5 -112t-96.5 -31q-41 0 -67 23.5t-37 70.5q-45 -47 -91.5 -69.5t-97.5 -22.5q-94 0 -152.5 63.5t-58.5 167.5q0 64 19.5 121.5t56.5 103.5q54 68 128.5 107t150.5 39q68 0 108.5 -31t51.5 -90l34 104h117z" />
    <glyph glyph-name="ordmasculine" unicode="&#xba;" horiz-adv-x="668" 
d="M221 752q-107 0 -172 65.5t-65 173.5q0 62 25 123.5t71 112.5q62 68 126 98.5t144 30.5q101 0 162 -64.5t61 -171.5q0 -65 -24.5 -126.5t-71.5 -112.5q-57 -65 -120.5 -97t-135.5 -32zM342 1339q-50 0 -89 -32t-77 -107q-39 -78 -62.5 -162t-23.5 -139q0 -63 32.5 -96
t94.5 -33q50 0 90 33t76 104q38 75 61 159.5t23 143.5q0 66 -30.5 97.5t-94.5 31.5z" />
    <glyph glyph-name="Omega" unicode="&#x3a9;" horiz-adv-x="1567" 
d="M1100 188v-26h313l66 203h61l-108 -365h-500q134 233 202 451t68 413q0 271 -107.5 416t-308.5 145t-309 -145t-108 -416q0 -195 68 -411t204 -453h-500l-110 365h61l68 -203h311v26q-165 203 -234 361.5t-69 327.5q0 272 174.5 446t443.5 174t443 -174.5t174 -445.5
q0 -169 -69 -327.5t-234 -361.5z" />
    <glyph glyph-name="ae" unicode="&#xe6;" horiz-adv-x="1229" 
d="M654 463q42 -7 76.5 -10.5t62.5 -3.5q106 0 161.5 67.5t55.5 198.5q0 49 -23.5 72.5t-71.5 23.5q-78 0 -147 -91t-114 -257zM492 109q-57 -68 -125.5 -100t-157.5 -32q-109 0 -184.5 68.5t-75.5 165.5q0 127 114 201.5t312 74.5q28 0 104 -5q20 -2 31 -3q12 45 18.5 85.5
t6.5 74.5q0 90 -41.5 133t-126.5 43q-63 0 -107.5 -23.5t-44.5 -54.5q0 -4 22.5 -37t22.5 -63q0 -35 -21 -56.5t-57 -21.5q-39 0 -64.5 24.5t-25.5 63.5q0 81 79.5 137t197.5 56q100 0 169 -40.5t107 -121.5q61 79 134.5 120.5t152.5 41.5q89 0 146 -51.5t57 -131.5
q0 -101 -83.5 -172t-205.5 -71q-31 0 -82 5t-119 15q-24 -109 -32.5 -160.5t-8.5 -85.5q0 -83 40.5 -130.5t111.5 -47.5q86 0 166.5 58t136.5 161l26 -16q-65 -116 -153.5 -176t-196.5 -60q-87 0 -150 34t-93 98zM503 455q-24 3 -45.5 4.5t-39.5 1.5q-152 0 -236 -82.5
t-84 -231.5q0 -63 38 -102t97 -39q88 0 150.5 102.5t119.5 346.5z" />
    <glyph glyph-name="oslash" unicode="&#xf8;" horiz-adv-x="891" 
d="M23 -39l63 88q-54 55 -80 122t-26 153t30.5 168.5t91.5 158.5q78 97 165.5 144t189.5 47q47 0 91 -13t87 -41l65 89l31 -17l-67 -90q50 -58 75 -124.5t25 -143.5q0 -88 -31.5 -173t-91.5 -159q-78 -97 -164.5 -145t-181.5 -48q-55 0 -99 11.5t-81 36.5l-62 -82zM127 102
l471 641q-17 37 -52 54.5t-89 17.5q-69 0 -122.5 -47.5t-101.5 -151.5q-52 -113 -83 -230t-31 -193q0 -22 2 -45t6 -46zM150 72q20 -34 56 -52t83 -18q68 0 122.5 50.5t102.5 158.5q52 113 80.5 223.5t28.5 196.5q0 17 -2 35t-7 40z" />
    <glyph glyph-name="questiondown" unicode="&#xbf;" horiz-adv-x="920" 
d="M852 1290q0 -38 -27 -65t-65 -27t-64 26.5t-26 65.5t25.5 64.5t64.5 25.5q38 0 65 -26.5t27 -63.5zM653 979l29 -8l-80 -248q-20 -62 -39.5 -106.5t-38.5 -69.5q-38 -50 -115 -77q-14 -5 -20 -7q-154 -59 -228.5 -127t-74.5 -150q0 -79 67 -133.5t166 -54.5
q84 0 145.5 36.5t61.5 82.5q0 26 -33 40q-14 5 -22 9q-24 13 -35.5 31.5t-11.5 44.5q0 33 21 53t57 20q43 0 68.5 -29.5t25.5 -80.5q0 -101 -78 -169.5t-192 -68.5q-136 0 -214.5 80.5t-78.5 218.5q0 114 75 206t224 161q16 8 53 22q113 46 164 95q38 36 65 112q2 6 2 8z
" />
    <glyph glyph-name="exclamdown" unicode="&#xa1;" horiz-adv-x="674" 
d="M641 1294q0 -38 -26 -65t-64 -27t-65 27t-27 65t26.5 64t65.5 26q38 0 64 -26t26 -64zM432 1032l29 -8q-73 -247 -105 -410t-32 -278q0 -33 1 -57.5t3 -51.5q-66 -40 -114 -101.5t-87 -154.5q0 8 1 23q3 69 3 98q0 49 -11.5 83.5t-35.5 60.5q99 125 186.5 326t161.5 470z
" />
    <glyph glyph-name="logicalnot" unicode="&#xac;" horiz-adv-x="1706" 
d="M254 858h1198v-502h-115v385h-1083v117z" />
    <glyph glyph-name="radical" unicode="&#x221a;" horiz-adv-x="1288" 
d="M1106 1647h182v-82h-119l-594 -1606h-53l-323 893l-119 -43l-23 68l262 92l265 -729z" />
    <glyph glyph-name="florin" unicode="&#x192;" horiz-adv-x="985" 
d="M213 705l10 34h166q93 300 223.5 460.5t280.5 160.5q63 0 100 -29t37 -78q0 -44 -23 -69t-65 -25q-36 0 -61 22.5t-25 55.5q0 16 8 38.5t8 29.5q0 13 -5.5 20.5t-14.5 7.5q-73 0 -151 -154.5t-148 -439.5h195l-11 -34h-190q-170 -674 -299.5 -924t-290.5 -250
q-57 0 -93 30.5t-36 78.5q0 38 24.5 63t61.5 25q36 0 57 -23.5t21 -62.5q0 -12 -12.5 -30.5t-12.5 -27.5q0 -10 5 -16t14 -6q53 0 108 68.5t84 176.5q17 63 78.5 361.5t120.5 536.5h-164z" />
    <glyph glyph-name="approxequal" unicode="&#x2248;" horiz-adv-x="1706" 
d="M1530 584v-131q-107 -75 -202 -110.5t-187 -35.5q-98 0 -288 69.5t-290 69.5q-82 0 -169.5 -35.5t-215.5 -123.5v131q108 74 203.5 110.5t183.5 36.5q111 0 301.5 -69.5t276.5 -69.5q85 0 173.5 35.5t213.5 122.5zM1530 934v-131q-104 -73 -200 -108.5t-187 -35.5
q-100 0 -290 69t-290 69q-83 0 -171.5 -36t-213.5 -122v131q106 73 202 109t185 36q111 0 300.5 -68.5t277.5 -68.5q87 0 175 35t212 121z" />
    <glyph glyph-name="Delta" unicode="&#x2206;" horiz-adv-x="1208" 
d="M555 1212l-389 -1042h768zM596 1497h29l555 -1497h-1151z" />
    <glyph glyph-name="guillemotleft" unicode="&#xab;" horiz-adv-x="909" 
d="M389 412q89 68 174 139t168 147h31q-40 -66 -102.5 -137t-155.5 -155l20 -39q94 -181 123 -263h-31q-42 66 -99.5 143.5t-127.5 164.5zM45 412q95 72 181 144t163 142h29q-40 -66 -102.5 -137t-155.5 -155l20 -39q94 -181 123 -263h-31q-42 66 -99.5 143.5t-127.5 164.5z
" />
    <glyph glyph-name="guillemotright" unicode="&#xbb;" horiz-adv-x="909" 
d="M709 391q-95 -72 -181.5 -144t-162.5 -143h-29q40 67 102.5 138t155.5 155l-20 39q-95 181 -123 262h30q43 -65 100.5 -143t127.5 -164zM367 391q-89 -68 -174.5 -139.5t-167.5 -147.5h-31q40 67 102.5 138t155.5 155l-20 39q-95 181 -123 262h30q43 -65 100.5 -143
t127.5 -164z" />
    <glyph glyph-name="ellipsis" unicode="&#x2026;" horiz-adv-x="2048" 
d="M137 76q0 38 26.5 64t65.5 26t64.5 -26t25.5 -64q0 -39 -25.5 -64.5t-64.5 -25.5q-38 0 -65 26.5t-27 63.5zM819 76q0 38 26.5 64t65.5 26t64.5 -26t25.5 -64q0 -39 -25.5 -64.5t-64.5 -25.5q-38 0 -65 26.5t-27 63.5zM1503 76q0 38 26.5 64t65.5 26t64.5 -26t25.5 -64
q0 -39 -25.5 -64.5t-64.5 -25.5q-38 0 -65 26.5t-27 63.5z" />
    <glyph glyph-name="nonbreakingspace" unicode="&#xa0;" horiz-adv-x="985" 
 />
    <glyph glyph-name="Agrave" unicode="&#xc0;" horiz-adv-x="971" 
d="M215 516h350v561zM-240 0v29q63 0 101.5 23.5t93.5 111.5l764 1220h31v-1355h124v-29h-471v29h162v458h-366l-219 -344q-17 -26 -23 -41.5t-6 -27.5q0 -22 27.5 -32t103.5 -14v-28h-322zM911 1497h-68l-243 203q-32 26 -44 45t-12 41q0 28 20.5 49t47.5 21q21 0 44 -15.5
t42 -42.5z" />
    <glyph glyph-name="Atilde" unicode="&#xc3;" horiz-adv-x="971" 
d="M215 516h350v561zM-240 0v29q63 0 101.5 23.5t93.5 111.5l764 1220h31v-1355h124v-29h-471v29h162v458h-366l-219 -344q-17 -26 -23 -41.5t-6 -27.5q0 -22 27.5 -32t103.5 -14v-28h-322zM1077 1766q-19 -99 -63 -147t-117 -48q-18 0 -33 2t-29 6l-131 37q-24 6 -40 8
t-29 2q-39 0 -62 -18.5t-31 -54.5h-49q16 93 58.5 138.5t113.5 45.5q22 0 40.5 -2.5t35.5 -7.5l129 -37q21 -5 33.5 -6.5t23.5 -1.5q41 0 65.5 20t35.5 64h49z" />
    <glyph glyph-name="Otilde" unicode="&#xd5;" horiz-adv-x="1346" 
d="M795 1360q-104 0 -189.5 -56.5t-144.5 -164.5q-46 -80 -84.5 -181t-71.5 -225q-32 -119 -48.5 -220.5t-16.5 -180.5q0 -162 81 -249t232 -87q104 0 188 55.5t146 165.5q43 75 81.5 176.5t73.5 229.5q33 118 49.5 219.5t16.5 179.5q0 163 -81 250.5t-232 87.5zM549 -29
q-219 0 -356.5 154t-137.5 401q0 145 53 290.5t150 266.5q118 149 254.5 225t284.5 76q218 0 355.5 -153.5t137.5 -399.5q0 -147 -52 -291.5t-151 -267.5q-117 -148 -254 -224.5t-284 -76.5zM1190 1766q-19 -99 -63 -147t-117 -48q-18 0 -33 2t-29 6l-131 37q-24 6 -40 8
t-29 2q-39 0 -62 -18.5t-31 -54.5h-49q16 93 58.5 138.5t113.5 45.5q22 0 40.5 -2.5t35.5 -7.5l129 -37q21 -5 33.5 -6.5t23.5 -1.5q41 0 65.5 20t35.5 64h49z" />
    <glyph glyph-name="OE" unicode="&#x152;" horiz-adv-x="1896" 
d="M825 229l262 928q8 28 12.5 53.5t4.5 44.5q0 45 -42 64.5t-140 19.5q-174 0 -284.5 -61.5t-199.5 -206.5q-87 -144 -142.5 -344.5t-55.5 -372.5q0 -168 85 -248.5t263 -80.5q117 0 158 34t79 170zM905 0q-86 0 -192 -3t-125 -3q-258 0 -399.5 134.5t-141.5 379.5
q0 159 62 317.5t176 288.5q117 134 257 194t337 60q77 0 206.5 -6t180.5 -6h669l-67 -369h-31q0 2 1 6q3 42 3 64q0 133 -62 201.5t-184 68.5h-272l-164 -575h117q114 0 156 38.5t75 167.5h31l-137 -509h-29q16 61 24.5 105.5t8.5 63.5q0 49 -36 77t-99 28h-119l-190 -694
h329q160 0 275 104t151 283h29l-84 -416h-756z" />
    <glyph glyph-name="oe" unicode="&#x153;" horiz-adv-x="1208" 
d="M702 475q37 -14 67.5 -21.5t55.5 -7.5q89 0 148 75.5t59 189.5q0 48 -22 74t-64 26q-73 0 -136 -87t-108 -249zM547 125q-54 -71 -127.5 -109.5t-155.5 -38.5q-127 0 -207 95t-80 247q0 91 31.5 179t89.5 164q67 86 152.5 132t179.5 46q85 0 146.5 -40t97.5 -116
q65 74 142 115t151 41q87 0 138.5 -48t51.5 -128q0 -102 -91 -175t-218 -73q-32 0 -70.5 6t-83.5 18q-23 -94 -34 -158t-11 -106q0 -77 39.5 -120.5t108.5 -43.5q75 0 148 55t134 158l25 -14q-65 -114 -148 -172.5t-178 -58.5q-73 0 -131.5 36.5t-99.5 108.5zM430 811
q-67 0 -114.5 -45t-90.5 -150q-54 -131 -84 -251t-30 -199q0 -74 41 -118t110 -44q68 0 117 50t94 169q47 124 72.5 241t25.5 198q0 74 -35.5 111.5t-105.5 37.5z" />
    <glyph glyph-name="endash" unicode="&#x2013;" 
d="M950 467l-32 -115h-992l31 115h993z" />
    <glyph glyph-name="emdash" unicode="&#x2014;" horiz-adv-x="2048" 
d="M-90 352l31 115h2048l-31 -115h-2048z" />
    <glyph glyph-name="quotedblleft" unicode="&#x201c;" horiz-adv-x="872" 
d="M915 1384l13 -28q-128 -52 -207.5 -126.5t-79.5 -135.5q0 -37 59 -40q25 -1 39 -3q54 -10 82.5 -37t28.5 -68q0 -44 -31 -74t-78 -30q-68 0 -112.5 50.5t-44.5 129.5q0 112 87.5 208t243.5 154zM537 1384l12 -28q-128 -52 -207.5 -126.5t-79.5 -135.5q0 -37 59 -40
q25 -1 39 -3q52 -9 80.5 -36.5t28.5 -68.5q0 -44 -30 -74t-77 -30q-68 0 -112.5 50.5t-44.5 129.5q0 112 87.5 208t244.5 154z" />
    <glyph glyph-name="quotedblright" unicode="&#x201d;" horiz-adv-x="872" 
d="M557 844l-10 28q127 52 205.5 125.5t78.5 135.5q0 37 -59 41q-24 2 -37 4q-53 9 -81.5 35.5t-28.5 66.5q0 44 31 74t77 30q69 0 113.5 -49.5t44.5 -128.5q0 -112 -88.5 -208t-245.5 -154zM178 844l-10 28q127 52 206 125.5t79 135.5q0 37 -60 41q-24 2 -37 4
q-53 9 -81.5 35.5t-28.5 66.5q0 44 31 74t77 30q69 0 113.5 -49.5t44.5 -128.5q0 -112 -88.5 -208t-245.5 -154z" />
    <glyph glyph-name="quoteleft" unicode="&#x2018;" horiz-adv-x="494" 
d="M537 1384l12 -28q-128 -52 -207.5 -126.5t-79.5 -135.5q0 -37 59 -40q25 -1 39 -3q52 -9 80.5 -36.5t28.5 -68.5q0 -44 -30 -74t-77 -30q-68 0 -112.5 50.5t-44.5 129.5q0 112 87.5 208t244.5 154z" />
    <glyph glyph-name="quoteright" unicode="&#x2019;" horiz-adv-x="494" 
d="M178 844l-10 28q127 52 206 125.5t79 135.5q0 37 -60 41q-24 2 -37 4q-53 9 -81.5 35.5t-28.5 66.5q0 44 31 74t77 30q69 0 113.5 -49.5t44.5 -128.5q0 -112 -88.5 -208t-245.5 -154z" />
    <glyph glyph-name="divide" unicode="&#xf7;" horiz-adv-x="1706" 
d="M854 365q47 0 81 -34t34 -81t-33.5 -81t-81.5 -34t-81.5 33.5t-33.5 81.5t34 81.5t81 33.5zM254 670h1198v-117h-1198v117zM854 1085q48 0 81.5 -33.5t33.5 -80.5q0 -48 -33.5 -81.5t-81.5 -33.5q-49 0 -82 33.5t-33 81.5q0 47 34 80.5t81 33.5z" />
    <glyph glyph-name="lozenge" unicode="&#x25ca;" horiz-adv-x="1012" 
d="M506 1409l-385 -817l385 -825l385 825zM506 1653l500 -1061l-500 -1069l-500 1069z" />
    <glyph glyph-name="ydieresis" unicode="&#xff;" horiz-adv-x="924" 
d="M201 637q-7 61 -21.5 87t-42.5 26q-23 0 -61 -47.5t-82 -133.5l-31 13q62 131 125.5 193.5t134.5 62.5q58 0 91 -36t40 -108l56 -506l221 424q59 114 114.5 171t104.5 57q44 0 72 -26.5t28 -68.5q0 -41 -24 -67.5t-62 -26.5q-36 0 -58 19.5t-22 50.5q0 11 6.5 27.5
t6.5 21.5q0 2 -1.5 4t-2.5 2q-17 0 -59 -57t-89 -146l-223 -421q-209 -400 -332 -530t-260 -130q-58 0 -95.5 33t-37.5 84q0 48 28 80t70 32q39 0 61.5 -23.5t22.5 -66.5q0 -39 -36 -77q-7 -7 -7 -9q0 -5 9.5 -7.5t31.5 -2.5q88 0 191.5 109.5t210.5 314.5zM262 1100
q0 38 30 68t69 30q40 0 69 -29t29 -69q0 -44 -28 -72.5t-70 -28.5q-41 0 -70 30t-29 71zM637 1100q0 38 30 68t68 30q40 0 69.5 -29t29.5 -69q0 -44 -28 -72.5t-71 -28.5q-40 0 -69 30t-29 71z" />
    <glyph glyph-name="Ydieresis" unicode="&#x178;" horiz-adv-x="883" 
d="M-47 0l8 29h156l151 542l-61 756h-135v29h481v-29h-164l60 -713l428 592q21 31 32 51t11 29q0 23 -19.5 33t-66.5 10q-7 0 -23.5 -1t-26.5 -1l9 29h288l-6 -29q-73 0 -125 -72q-5 -8 -8 -12l-493 -686l-136 -528h168l-6 -29h-522zM399 1645q0 38 30 68t69 30q40 0 69 -29
t29 -69q0 -44 -28 -72.5t-70 -28.5q-41 0 -70 30t-29 71zM774 1645q0 38 30 68t68 30q40 0 69.5 -29t29.5 -69q0 -44 -28 -72.5t-71 -28.5q-40 0 -69 30t-29 71z" />
    <glyph glyph-name="fraction" unicode="&#x2215;" horiz-adv-x="342" 
d="M-281 -25h-61l963 1385h61z" />
    <glyph glyph-name="currency" unicode="&#xa4;" horiz-adv-x="985" 
d="M895 326q-79 -171 -189.5 -261t-242.5 -90q-176 0 -282.5 143.5t-106.5 385.5v31h-119l20 47h101q4 44 12 87t18 83h-116l20 47h109q81 251 240 405t331 154q107 0 196 -61.5t99 -61.5q21 0 33 15t18 48h29l-74 -456h-30q8 41 12 75.5t4 63.5q0 154 -76 250t-194 96
q-127 0 -222.5 -125.5t-177.5 -402.5h385l-20 -47h-377q-11 -38 -20.5 -79.5t-18.5 -90.5h340l-21 -47h-327q-8 -50 -12.5 -95t-4.5 -88q0 -150 69 -245t175 -95q115 0 217.5 86.5t171.5 243.5z" />
    <glyph glyph-name="guilsinglleft" unicode="&#x2039;" horiz-adv-x="569" 
d="M45 412q95 72 181 144t163 142h29q-40 -66 -102.5 -137t-155.5 -155l20 -39q94 -181 123 -263h-31q-42 66 -99.5 143.5t-127.5 164.5z" />
    <glyph glyph-name="guilsinglright" unicode="&#x203a;" horiz-adv-x="569" 
d="M371 391q-89 -68 -174 -139.5t-168 -147.5h-31q40 67 102.5 138t155.5 155l-3 5q-106 206 -138 296h28q43 -65 100.5 -143t127.5 -164z" />
    <glyph glyph-name="fi" unicode="&#xf001;" horiz-adv-x="981" 
d="M356 815h281q72 0 120 6t91 19l-209 -670q-12 -40 -17.5 -61.5t-5.5 -30.5q0 -22 15 -36.5t37 -14.5q36 0 89 42t120 124l26 -19q-79 -104 -147.5 -151.5t-137.5 -47.5q-70 0 -107.5 34.5t-37.5 99.5q0 22 5 46.5t18 63.5l176 567h-324q-162 -710 -303 -1002t-313 -292
q-65 0 -106.5 34.5t-41.5 88.5q0 42 25.5 71t60.5 29q41 0 67.5 -26.5t26.5 -67.5q0 -19 -12 -40t-12 -23q0 -9 9.5 -17t21.5 -8q56 0 111 93.5t91 256.5q17 74 51 231q92 428 162 672h-178l8 29h181q75 292 214 441t337 149q96 0 157.5 -45.5t61.5 -114.5q0 -44 -28 -71
t-73 -27q-38 0 -63 23.5t-25 58.5q0 46 41 69.5t41 26.5q0 25 -28.5 40t-77.5 15q-149 0 -237 -121.5t-161 -443.5z" />
    <glyph glyph-name="fl" unicode="&#xf002;" horiz-adv-x="995" 
d="M1024 1399l-381 -1229q-14 -45 -18 -63.5t-4 -28.5q0 -22 14.5 -36.5t36.5 -14.5q36 0 90.5 42.5t120.5 123.5l26 -19q-78 -102 -146.5 -149.5t-137.5 -47.5q-72 0 -110 34t-38 98q0 19 4.5 41t18.5 69l282 920q-25 20 -35 35.5t-10 33.5q0 44 47 76.5t47 40.5
q0 23 -32 39t-82 16q-118 0 -195 -114t-166 -451h209l-12 -29h-205q-162 -710 -303 -1002t-313 -292q-65 0 -106.5 34.5t-41.5 88.5q0 42 25.5 71t60.5 29q41 0 67.5 -26.5t26.5 -67.5q0 -19 -12 -40t-12 -23q0 -9 9.5 -17t21.5 -8q56 0 111 93.5t91 256.5q17 74 51 231
q92 428 162 672h-178l8 29h181q69 283 205 437.5t313 154.5q55 0 118 -17.5t70 -17.5q27 0 103 22q11 3 18 5z" />
    <glyph glyph-name="daggerdbl" unicode="&#x2021;" 
d="M360 479q52 37 92 117t72 211h-14q-149 0 -299 -68q-32 -14 -39 -14q-11 0 -17.5 3.5t-7.5 10.5q1 2 1.5 4t3.5 7l20 34l-51 21q-5 2 -11 4q-42 17 -42 27q0 7 12 15t37 15l67 21l-4 31v8q0 7 2 10.5t6 3.5q3 0 114.5 -47t229.5 -53q15 47 22 96.5t7 107.5
q0 66 -15.5 136.5t-15.5 76.5q1 5 4 7.5t9 3.5q2 0 4.5 -1l7.5 -3l51 -31l37 67q31 56 43.5 70t24.5 14q11 0 16.5 -9.5t5.5 -31.5q0 -10 -3 -34q0 -6 -1 -11l-10 -67l50 21q1 0 3.5 0.5t7.5 0.5q7 0 11 -2.5t4 -7.5t-86.5 -130.5t-141.5 -272.5q110 0 234 42t145 42
q5 0 8.5 -5t3.5 -12q0 -3 -2 -10l-2 -4l-18 -33l47 -14q28 -10 40.5 -18t12.5 -17q0 -14 -46 -24q-13 -3 -20 -5l-52 -14l6 -41v-4q0 -5 -4 -9.5t-9 -4.5q-2 0 -120 47.5t-233 50.5q-28 -89 -42 -153t-14 -99q0 -19 5 -42.5t15 -51.5q-52 -39 -91 -118.5t-71 -209.5h15
q149 0 297 66q32 14 39 14q11 0 17.5 -4t6.5 -10q0 -2 -0.5 -3.5t-3.5 -7.5l-20 -34l85 -35q10 -5 15.5 -9.5t5.5 -7.5q0 -7 -12 -15t-37 -15l-70 -21l7 -31v-6q-1 -8 -3.5 -12t-7.5 -4q-2 0 -113.5 48t-230.5 54q-13 -43 -19.5 -93t-6.5 -113q0 -66 15 -136.5t15 -76.5
q0 -4 -2.5 -6.5t-5.5 -2.5q-16 0 -33 9t-34 26l-37 -69q-29 -52 -43 -68t-27 -16q-10 0 -15 8.5t-5 27.5q0 12 2 35q1 9 2 15l8 67q-16 -10 -30.5 -15t-27.5 -5q-8 0 -13 2.5t-5 7.5t87 130.5t142 272.5q-110 0 -234.5 -43t-145.5 -43q-5 0 -8 4t-3 11q0 1 1 5t4 12l16 32
l-45 16q-29 10 -42 17.5t-14 15.5q0 14 53 27q9 2 15 4l53 12l-6 41v4q0 6 4 11t8 5q3 0 119.5 -47.5t233.5 -49.5q27 88 41 150.5t14 98.5q0 21 -5 44.5t-16 51.5z" />
    <glyph glyph-name="periodcentered" unicode="&#xb7;" horiz-adv-x="494" 
d="M152 655q0 39 26.5 66t65.5 27q38 0 64 -27t26 -66q0 -38 -26 -64t-64 -26t-65 26.5t-27 63.5z" />
    <glyph glyph-name="quotesinglbase" unicode="&#x201a;" horiz-adv-x="494" 
d="M-45 -354l-12 28q127 52 206.5 126.5t79.5 136.5q0 36 -59 39q-26 2 -38 3q-54 10 -83 37t-29 68q0 44 31.5 74t77.5 30q68 0 113 -50.5t45 -129.5q0 -112 -87.5 -208t-244.5 -154z" />
    <glyph glyph-name="quotedblbase" unicode="&#x201e;" horiz-adv-x="872" 
d="M334 -354l-10 28q127 52 205.5 126.5t78.5 136.5q0 36 -57 39q-26 2 -38 3q-54 10 -83 37t-29 68q0 44 31 74t78 30q68 0 113 -50.5t45 -129.5q0 -112 -88.5 -208t-245.5 -154zM-45 -354l-12 28q127 52 206.5 126.5t79.5 136.5q0 36 -59 39q-26 2 -38 3q-54 10 -83 37
t-29 68q0 44 31.5 74t77.5 30q68 0 113 -50.5t45 -129.5q0 -112 -87.5 -208t-244.5 -154z" />
    <glyph glyph-name="perthousand" unicode="&#x2030;" horiz-adv-x="2114" 
d="M1849 713q-49 0 -95 -56t-85 -163q-38 -106 -60 -209.5t-22 -175.5q0 -50 20 -77.5t56 -27.5q43 0 81.5 38.5t76.5 121.5q47 103 77.5 230.5t30.5 213.5q0 51 -20.5 78t-59.5 27zM1860 741q90 0 138 -64t48 -183q0 -81 -23.5 -161t-66.5 -149q-59 -94 -137 -147t-156 -53
q-89 0 -137.5 64t-48.5 181q0 78 23.5 157.5t68.5 152.5q59 96 135.5 149t155.5 53zM1159 713q-49 0 -95 -56t-85 -163q-39 -106 -60.5 -209.5t-21.5 -175.5q0 -50 20 -77.5t56 -27.5q43 0 81 38.5t76 121.5q48 103 78.5 230.5t30.5 213.5q0 51 -21 78t-59 27zM1167 741
q91 0 139 -64t48 -183q0 -81 -23.5 -161t-66.5 -149q-60 -94 -137.5 -147t-155.5 -53q-89 0 -138 64t-49 181q0 78 24 157.5t69 152.5q59 96 135.5 149t154.5 53zM446 1331q-48 0 -94.5 -56.5t-85.5 -164.5q-38 -106 -60 -208.5t-22 -174.5q0 -50 20 -77t56 -27q44 0 82 38
t76 119q47 103 77.5 231.5t30.5 215.5q0 50 -20.5 77t-59.5 27zM451 1354q90 0 138 -64t48 -184q0 -80 -23 -159t-67 -148q-60 -96 -137.5 -149.5t-155.5 -53.5q-89 0 -137.5 64.5t-48.5 181.5q0 77 23.5 156.5t68.5 152.5q59 96 135.5 149.5t155.5 53.5zM317 -25h-67
l854 1385h65z" />
    <glyph glyph-name="Acircumflex" unicode="&#xc2;" horiz-adv-x="971" 
d="M215 516h350v561zM-240 0v29q63 0 101.5 23.5t93.5 111.5l764 1220h31v-1355h124v-29h-471v29h162v458h-366l-219 -344q-17 -26 -23 -41.5t-6 -27.5q0 -22 27.5 -32t103.5 -14v-28h-322zM1028 1495h-56l-176 207l-276 -207h-68l310 348h104z" />
    <glyph glyph-name="Ecircumflex" unicode="&#xca;" horiz-adv-x="1165" 
d="M-145 0l8 29h153l361 1298h-154l8 29h951l-68 -369h-31q1 2 1 6q3 42 3 64q0 133 -62 201.5t-183 68.5h-275l-161 -575h116q115 0 156.5 38t75.5 168h30l-139 -509h-29q18 70 26.5 111t8.5 58q0 49 -36 77t-99 28h-121l-188 -694h330q160 0 274.5 104t151.5 283h28
l-84 -416h-1052zM1047 1495h-56l-176 207l-276 -207h-68l310 348h104z" />
    <glyph glyph-name="Aacute" unicode="&#xc1;" horiz-adv-x="971" 
d="M215 516h350v561zM-240 0v29q63 0 101.5 23.5t93.5 111.5l764 1220h31v-1355h124v-29h-471v29h162v458h-366l-219 -344q-17 -26 -23 -41.5t-6 -27.5q0 -22 27.5 -32t103.5 -14v-28h-322zM669 1495h-71l299 314q18 20 39.5 31.5t40.5 11.5q27 0 48 -21t21 -49
q0 -22 -16 -41.5t-53 -44.5z" />
    <glyph glyph-name="Edieresis" unicode="&#xcb;" horiz-adv-x="1165" 
d="M-145 0l8 29h153l361 1298h-154l8 29h951l-68 -369h-31q1 2 1 6q3 42 3 64q0 133 -62 201.5t-183 68.5h-275l-161 -575h116q115 0 156.5 38t75.5 168h30l-139 -509h-29q18 70 26.5 111t8.5 58q0 49 -36 77t-99 28h-121l-188 -694h330q160 0 274.5 104t151.5 283h28
l-84 -416h-1052zM514 1645q0 38 30 68t69 30q40 0 69 -29t29 -69q0 -44 -28 -72.5t-70 -28.5q-41 0 -70 30t-29 71zM889 1645q0 38 30 68t68 30q40 0 69.5 -29t29.5 -69q0 -44 -28 -72.5t-71 -28.5q-40 0 -69 30t-29 71z" />
    <glyph glyph-name="Egrave" unicode="&#xc8;" horiz-adv-x="1165" 
d="M-145 0l8 29h153l361 1298h-154l8 29h951l-68 -369h-31q1 2 1 6q3 42 3 64q0 133 -62 201.5t-183 68.5h-275l-161 -575h116q115 0 156.5 38t75.5 168h30l-139 -509h-29q18 70 26.5 111t8.5 58q0 49 -36 77t-99 28h-121l-188 -694h330q160 0 274.5 104t151.5 283h28
l-84 -416h-1052zM930 1497h-68l-243 203q-32 26 -44 45t-12 41q0 28 20.5 49t47.5 21q21 0 44 -15.5t42 -42.5z" />
    <glyph glyph-name="Iacute" unicode="&#xcd;" horiz-adv-x="578" 
d="M-147 0l6 29h153l361 1298h-154l8 29h512l-8 -29h-168l-358 -1298h166l-6 -29h-512zM422 1495h-71l299 314q18 20 39.5 31.5t40.5 11.5q27 0 48 -21t21 -49q0 -22 -16 -41.5t-53 -44.5z" />
    <glyph glyph-name="Icircumflex" unicode="&#xce;" horiz-adv-x="578" 
d="M-147 0l6 29h153l361 1298h-154l8 29h512l-8 -29h-168l-358 -1298h166l-6 -29h-512zM781 1495h-56l-176 207l-276 -207h-68l310 348h104z" />
    <glyph glyph-name="Idieresis" unicode="&#xcf;" horiz-adv-x="578" 
d="M-147 0l6 29h153l361 1298h-154l8 29h512l-8 -29h-168l-358 -1298h166l-6 -29h-512zM248 1645q0 38 30 68t69 30q40 0 69 -29t29 -69q0 -44 -28 -72.5t-70 -28.5q-41 0 -70 30t-29 71zM623 1645q0 38 30 68t68 30q40 0 69.5 -29t29.5 -69q0 -44 -28 -72.5t-71 -28.5
q-40 0 -69 30t-29 71z" />
    <glyph glyph-name="Igrave" unicode="&#xcc;" horiz-adv-x="578" 
d="M-147 0l6 29h153l361 1298h-154l8 29h512l-8 -29h-168l-358 -1298h166l-6 -29h-512zM664 1497h-68l-243 203q-32 26 -44 45t-12 41q0 28 20.5 49t47.5 21q21 0 44 -15.5t42 -42.5z" />
    <glyph glyph-name="Oacute" unicode="&#xd3;" horiz-adv-x="1346" 
d="M795 1360q-104 0 -189.5 -56.5t-144.5 -164.5q-46 -80 -84.5 -181t-71.5 -225q-32 -119 -48.5 -220.5t-16.5 -180.5q0 -162 81 -249t232 -87q104 0 188 55.5t146 165.5q43 75 81.5 176.5t73.5 229.5q33 118 49.5 219.5t16.5 179.5q0 163 -81 250.5t-232 87.5zM549 -29
q-219 0 -356.5 154t-137.5 401q0 145 53 290.5t150 266.5q118 149 254.5 225t284.5 76q218 0 355.5 -153.5t137.5 -399.5q0 -147 -52 -291.5t-151 -267.5q-117 -148 -254 -224.5t-284 -76.5zM782 1495h-71l299 314q18 20 39.5 31.5t40.5 11.5q27 0 48 -21t21 -49
q0 -22 -16 -41.5t-53 -44.5z" />
    <glyph glyph-name="Ocircumflex" unicode="&#xd4;" horiz-adv-x="1346" 
d="M795 1360q-104 0 -189.5 -56.5t-144.5 -164.5q-46 -80 -84.5 -181t-71.5 -225q-32 -119 -48.5 -220.5t-16.5 -180.5q0 -162 81 -249t232 -87q104 0 188 55.5t146 165.5q43 75 81.5 176.5t73.5 229.5q33 118 49.5 219.5t16.5 179.5q0 163 -81 250.5t-232 87.5zM549 -29
q-219 0 -356.5 154t-137.5 401q0 145 53 290.5t150 266.5q118 149 254.5 225t284.5 76q218 0 355.5 -153.5t137.5 -399.5q0 -147 -52 -291.5t-151 -267.5q-117 -148 -254 -224.5t-284 -76.5zM1141 1495h-56l-176 207l-276 -207h-68l310 348h104z" />
    <glyph glyph-name="apple" unicode="&#xf000;" horiz-adv-x="1618" 
d="M836 1216q-1 6 -1.5 14t-0.5 23q0 124 95 229.5t236 131.5q1 -10 1.5 -23t0.5 -39q0 -131 -103.5 -234.5t-203.5 -103.5h-8q-3 0 -7.5 1t-8.5 1zM1505 403q-114 -247 -205 -342.5t-204 -95.5q-50 0 -131.5 33t-122.5 33q-45 0 -131 -33t-127 -33q-64 0 -128.5 44
t-129.5 132q-102 140 -157.5 295.5t-55.5 300.5q0 219 125 356.5t323 137.5q68 0 155 -34t124 -34q34 0 121.5 35t152.5 35q110 0 198 -40t161 -124q-102 -65 -151.5 -145.5t-49.5 -182.5q0 -113 60 -200t173 -138z" />
    <glyph glyph-name="Ograve" unicode="&#xd2;" horiz-adv-x="1346" 
d="M795 1360q-104 0 -189.5 -56.5t-144.5 -164.5q-46 -80 -84.5 -181t-71.5 -225q-32 -119 -48.5 -220.5t-16.5 -180.5q0 -162 81 -249t232 -87q104 0 188 55.5t146 165.5q43 75 81.5 176.5t73.5 229.5q33 118 49.5 219.5t16.5 179.5q0 163 -81 250.5t-232 87.5zM549 -29
q-219 0 -356.5 154t-137.5 401q0 145 53 290.5t150 266.5q118 149 254.5 225t284.5 76q218 0 355.5 -153.5t137.5 -399.5q0 -147 -52 -291.5t-151 -267.5q-117 -148 -254 -224.5t-284 -76.5zM1024 1497h-68l-243 203q-32 26 -44 45t-12 41q0 28 20.5 49t47.5 21
q21 0 44 -15.5t42 -42.5z" />
    <glyph glyph-name="Uacute" unicode="&#xda;" horiz-adv-x="1262" 
d="M305 1327h-151l6 29h512l-6 -29h-168l-250 -899q-16 -56 -23.5 -103t-7.5 -89q0 -106 77 -168t208 -62q209 0 326 91.5t176 301.5l223 807q6 20 9 34t3 22q0 38 -24.5 51.5t-104.5 13.5h-39l10 29h373l-8 -29q-89 0 -124.5 -22.5t-59.5 -110.5l-207 -745
q-74 -271 -200 -374.5t-368 -103.5q-201 0 -326.5 88t-125.5 226q0 29 7.5 73.5t23.5 102.5zM798 1495h-71l299 314q18 20 39.5 31.5t40.5 11.5q27 0 48 -21t21 -49q0 -22 -16 -41.5t-53 -44.5z" />
    <glyph glyph-name="Ucircumflex" unicode="&#xdb;" horiz-adv-x="1262" 
d="M305 1327h-151l6 29h512l-6 -29h-168l-250 -899q-16 -56 -23.5 -103t-7.5 -89q0 -106 77 -168t208 -62q209 0 326 91.5t176 301.5l223 807q6 20 9 34t3 22q0 38 -24.5 51.5t-104.5 13.5h-39l10 29h373l-8 -29q-89 0 -124.5 -22.5t-59.5 -110.5l-207 -745
q-74 -271 -200 -374.5t-368 -103.5q-201 0 -326.5 88t-125.5 226q0 29 7.5 73.5t23.5 102.5zM1157 1495h-56l-176 207l-276 -207h-68l310 348h104z" />
    <glyph glyph-name="Ugrave" unicode="&#xd9;" horiz-adv-x="1262" 
d="M305 1327h-151l6 29h512l-6 -29h-168l-250 -899q-16 -56 -23.5 -103t-7.5 -89q0 -106 77 -168t208 -62q209 0 326 91.5t176 301.5l223 807q6 20 9 34t3 22q0 38 -24.5 51.5t-104.5 13.5h-39l10 29h373l-8 -29q-89 0 -124.5 -22.5t-59.5 -110.5l-207 -745
q-74 -271 -200 -374.5t-368 -103.5q-201 0 -326.5 88t-125.5 226q0 29 7.5 73.5t23.5 102.5zM1040 1497h-68l-243 203q-32 26 -44 45t-12 41q0 28 20.5 49t47.5 21q21 0 44 -15.5t42 -42.5z" />
    <glyph glyph-name="dotlessi" unicode="&#x131;" horiz-adv-x="508" 
d="M199 786h-123l8 29h80q71 0 118.5 6t90.5 19l-195 -645q-11 -34 -16.5 -62t-5.5 -45q0 -27 13.5 -41t39.5 -14q35 0 79 33.5t128 128.5l20 -17q-86 -105 -155 -151.5t-138 -46.5q-63 0 -100 36t-37 99q0 23 6.5 54.5t26.5 94.5z" />
    <glyph glyph-name="circumflex" unicode="&#x2c6;" 
d="M844 950h-56l-176 207l-276 -207h-68l310 348h104z" />
    <glyph glyph-name="tilde" unicode="&#x2dc;" 
d="M893 1221q-19 -99 -63 -147t-117 -48q-18 0 -33 2t-29 6l-131 37q-24 6 -40 8t-29 2q-39 0 -62 -18.5t-31 -54.5h-49q16 93 58.5 138.5t113.5 45.5q22 0 40.5 -2.5t35.5 -7.5l129 -37q21 -5 33.5 -6.5t23.5 -1.5q41 0 65.5 20t35.5 64h49z" />
    <glyph glyph-name="macron" unicode="&#xaf;" 
d="M326 1036l26 125h516l-26 -125h-516z" />
    <glyph glyph-name="breve" unicode="&#x2d8;" 
d="M338 1262h55q8 -73 50.5 -109.5t119.5 -36.5q95 0 167 35t136 111h60q-81 -141 -172.5 -209t-198.5 -68q-109 0 -163 68.5t-54 208.5z" />
    <glyph glyph-name="dotaccent" unicode="&#x2d9;" 
d="M496 1100q0 40 31 72t71 32q43 0 75 -31t32 -73q0 -44 -31 -74.5t-76 -30.5q-40 0 -71 32t-31 73z" />
    <glyph glyph-name="ring" unicode="&#x2da;" 
d="M459 1171q0 -65 45 -110t110 -45t109.5 45.5t44.5 109.5q0 66 -44.5 111t-109.5 45q-66 0 -110.5 -44.5t-44.5 -111.5zM373 1171q0 102 69 172t170 70q102 0 172 -70t70 -172q0 -101 -70 -170t-172 -69q-101 0 -170 69t-69 170z" />
    <glyph glyph-name="cedilla" unicode="&#xb8;" 
d="M113 -369l20 43q68 -27 128 -43t89 -16q52 0 79.5 28.5t27.5 82.5q0 49 -26.5 73.5t-78.5 24.5q-12 0 -27 -1.5t-32 -4.5l57 182h33l-36 -135q19 3 37.5 4.5t33.5 1.5q94 0 146 -40t52 -112q0 -68 -62.5 -109.5t-166.5 -41.5q-55 0 -124 16t-150 47z" />
    <glyph glyph-name="hungarumlaut" unicode="&#x2dd;" 
d="M641 950l190 301q17 27 38.5 42.5t41.5 15.5q25 0 45.5 -20.5t20.5 -45.5q0 -16 -11 -33t-40 -47l-221 -213h-64zM393 950l154 295q21 39 36.5 51.5t37.5 12.5q25 0 46 -19t21 -41q0 -19 -10 -39.5t-33 -46.5l-190 -213h-62z" />
    <glyph glyph-name="ogonek" unicode="&#x2db;" 
d="M492 0q-92 -63 -137.5 -123t-45.5 -117q0 -48 28 -78t73 -30q41 0 71 16.5t49 48.5l29 -16q-38 -66 -92.5 -100.5t-120.5 -34.5q-70 0 -114 37t-44 94q0 78 63 153t191 150h50z" />
    <glyph glyph-name="caron" unicode="&#x2c7;" 
d="M352 1298h56l176 -206l276 206h68l-310 -348h-104z" />
    <glyph glyph-name="Lslash" unicode="&#x141;" horiz-adv-x="1165" 
d="M-166 0l6 29h156l160 592l-217 -127l20 69l219 129l178 635h-155l8 29h512l-8 -29h-166l-150 -545l346 201l-20 -76l-348 -198l-187 -680h291q200 0 346 125t207 350h31l-154 -504h-1075z" />
    <glyph glyph-name="lslash" unicode="&#x142;" horiz-adv-x="537" 
d="M164 621l-232 -136l19 76l235 133l209 633h-121l9 29h49q69 0 130 12.5t118 38.5l-203 -616l235 137l-24 -78l-236 -135l-174 -535q-10 -32 -16 -56.5t-6 -35.5q0 -21 14.5 -36t36.5 -15q36 0 90.5 42.5t120.5 123.5l26 -19q-79 -103 -147.5 -150.5t-136.5 -47.5
q-71 0 -108.5 34t-37.5 99q0 23 5.5 50t17.5 60z" />
    <glyph glyph-name="Scaron" unicode="&#x160;" horiz-adv-x="1006" 
d="M98 483q-9 -40 -13.5 -76t-4.5 -69q0 -146 95.5 -239t242.5 -93q138 0 235 98.5t97 239.5q0 153 -244 273l-21 10q-147 73 -204.5 149.5t-57.5 192.5q0 174 111.5 294.5t271.5 120.5q61 0 110.5 -11t90.5 -34q11 -6 29 -17q59 -36 82 -36q19 0 31.5 11t31.5 49l29 -7
l-113 -401l-27 8q9 39 13 69.5t4 55.5q0 130 -74 206.5t-199 76.5q-129 0 -216 -81t-87 -200q0 -130 274 -259q41 -19 62 -30q119 -57 174.5 -137t55.5 -194q0 -200 -137 -341t-332 -141q-106 0 -226 57.5t-137 57.5q-27 0 -47.5 -23t-32.5 -67l-28 8l133 483zM502 1843h56
l176 -206l276 206h68l-310 -348h-104z" />
    <glyph glyph-name="scaron" unicode="&#x161;" horiz-adv-x="743" 
d="M391 176q0 77 -115 172q-13 11 -19 16q-79 66 -103.5 109.5t-24.5 97.5q0 111 85 190t208 79q102 0 168.5 -43t66.5 -107q0 -41 -27 -68.5t-69 -27.5t-70 26t-28 64q0 48 60 83q9 6 9 7q0 13 -28.5 25t-67.5 12q-81 0 -132.5 -45t-51.5 -115q0 -68 137 -171
q22 -17 33 -25q80 -62 104.5 -106.5t24.5 -106.5q0 -108 -103.5 -186.5t-248.5 -78.5q-115 0 -193 59t-78 142q0 50 32.5 85.5t76.5 35.5q45 0 73.5 -25.5t28.5 -64.5q0 -25 -17.5 -48t-47.5 -38q-15 -7 -40.5 -13.5t-25.5 -13.5q0 -20 57 -52t121 -32q89 0 147 47t58 117z
M213 1298h56l176 -206l276 206h68l-310 -348h-104z" />
    <glyph glyph-name="Zcaron" unicode="&#x17d;" horiz-adv-x="1133" 
d="M-121 0l1055 1327h-295q-199 0 -306.5 -77.5t-193.5 -276.5h-28l104 383h967l-1047 -1327h381q187 0 294 84.5t194 300.5h28l-114 -414h-1039zM565 1843h56l176 -206l276 206h68l-310 -348h-104z" />
    <glyph glyph-name="zcaron" unicode="&#x17e;" horiz-adv-x="883" 
d="M125 653l-35 -90h-33l101 246q158 -23 266.5 -34t177.5 -11q29 0 58.5 4.5t59.5 13.5q-2 11 -3.5 20t-1.5 17q0 11 8 19t20 8q13 0 22 -9.5t9 -21.5q0 -5 -5 -13t-15 -18l-649 -630q53 9 96 13.5t80 4.5q97 0 211 -38t131 -38q21 0 35 12.5t14 30.5q0 12 -35 47.5
t-35 71.5q0 26 18 45t44 19q30 0 49.5 -26.5t19.5 -68.5q0 -107 -84.5 -170t-230.5 -63q-75 0 -192.5 34.5t-155.5 34.5q-14 0 -30.5 -5.5t-33.5 -16.5q1 -4 1.5 -8.5t0.5 -14.5q0 -15 -7.5 -23.5t-20.5 -8.5q-15 0 -25 9t-10 23q0 20 30 49q5 6 9 9l616 602
q-65 -22 -137.5 -32.5t-155.5 -10.5q-47 0 -92 4.5t-90 13.5zM282 1298h56l176 -206l276 206h68l-310 -348h-104z" />
    <glyph glyph-name="brokenbar" unicode="&#xa6;" 
d="M449 408h126v-758h-126v758zM449 1432h126v-758h-126v758z" />
    <glyph glyph-name="Eth" unicode="&#xd0;" horiz-adv-x="1337" 
d="M205 29h225q166 0 284.5 68.5t194.5 209.5q80 146 128 331.5t48 348.5q0 178 -88 259t-280 81h-152l-164 -594h344l-14 -53h-344zM-147 0l6 29h151l180 651h-192l14 53h193l166 594h-152l8 29h514q143 0 235 -34t161 -110q69 -77 105 -177t36 -216q0 -155 -58.5 -303
t-168.5 -270q-118 -129 -254.5 -187.5t-323.5 -58.5h-620z" />
    <glyph glyph-name="eth" unicode="&#xf0;" horiz-adv-x="891" 
d="M879 1251l14 -55l-256 -70q68 -127 101.5 -251t33.5 -250q0 -285 -136.5 -467.5t-340.5 -182.5q-143 0 -229 93.5t-86 246.5q0 112 50.5 219t143.5 191q65 59 132 87t143 28q52 0 92.5 -14t74.5 -43q-3 75 -20.5 153.5t-50.5 163.5l-289 -76l-14 49l280 76
q-33 67 -70.5 123.5t-80.5 105.5l35 31q62 -54 113 -113t91 -125zM457 815q-68 0 -118.5 -45t-102.5 -154q-52 -105 -83.5 -226.5t-31.5 -201.5q0 -90 43 -138t125 -48q66 0 119 47t102 150q51 107 82 227.5t31 206.5q0 92 -41 137t-125 45z" />
    <glyph glyph-name="Yacute" unicode="&#xdd;" horiz-adv-x="883" 
d="M-47 0l8 29h156l151 542l-61 756h-135v29h481v-29h-164l60 -713l428 592q21 31 32 51t11 29q0 23 -19.5 33t-66.5 10q-7 0 -23.5 -1t-26.5 -1l9 29h288l-6 -29q-73 0 -125 -72q-5 -8 -8 -12l-493 -686l-136 -528h168l-6 -29h-522zM573 1495h-71l299 314q18 20 39.5 31.5
t40.5 11.5q27 0 48 -21t21 -49q0 -22 -16 -41.5t-53 -44.5z" />
    <glyph glyph-name="yacute" unicode="&#xfd;" horiz-adv-x="924" 
d="M201 637q-7 61 -21.5 87t-42.5 26q-23 0 -61 -47.5t-82 -133.5l-31 13q62 131 125.5 193.5t134.5 62.5q58 0 91 -36t40 -108l56 -506l221 424q59 114 114.5 171t104.5 57q44 0 72 -26.5t28 -68.5q0 -41 -24 -67.5t-62 -26.5q-36 0 -58 19.5t-22 50.5q0 11 6.5 27.5
t6.5 21.5q0 2 -1.5 4t-2.5 2q-17 0 -59 -57t-89 -146l-223 -421q-209 -400 -332 -530t-260 -130q-58 0 -95.5 33t-37.5 84q0 48 28 80t70 32q39 0 61.5 -23.5t22.5 -66.5q0 -39 -36 -77q-7 -7 -7 -9q0 -5 9.5 -7.5t31.5 -2.5q88 0 191.5 109.5t210.5 314.5zM436 950h-71
l299 314q18 20 39.5 31.5t40.5 11.5q27 0 48 -21t21 -49q0 -22 -16 -41.5t-53 -44.5z" />
    <glyph glyph-name="Thorn" unicode="&#xde;" horiz-adv-x="1090" 
d="M733 1356l-8 -29h-168l-80 -276h148q192 0 296.5 -82t104.5 -232q0 -70 -31.5 -141t-87.5 -125q-79 -76 -177.5 -107.5t-289.5 -31.5h-161l-82 -303h168l-9 -29h-512l9 29h153l359 1298h-152l6 29h514zM469 1024l-182 -664h147q112 0 168.5 24.5t104.5 84.5
q50 65 81 161.5t31 192.5q0 109 -63 156t-213 47q-27 0 -43.5 -0.5t-30.5 -1.5z" />
    <glyph glyph-name="thorn" unicode="&#xfe;" horiz-adv-x="977" 
d="M297 543l-76 -269q-5 -21 -7.5 -39.5t-2.5 -35.5q0 -81 43.5 -133t112.5 -52q76 0 139.5 49.5t116.5 149.5q46 88 74 197.5t28 199.5q0 95 -38 147t-105 52q-90 0 -170.5 -73.5t-114.5 -192.5zM336 1327h-121l8 29h49q76 0 135 12.5t107 38.5l-195 -729
q62 81 130.5 122.5t142.5 41.5q125 0 202.5 -92.5t77.5 -241.5q0 -91 -25.5 -173.5t-74.5 -148.5q-70 -95 -169.5 -149.5t-201.5 -54.5q-99 0 -158 55.5t-59 148.5l-174 -651h117l-6 -29h-387l8 29h113z" />
    <glyph glyph-name="minus" unicode="&#x2212;" horiz-adv-x="1706" 
d="M254 670h1198v-119h-1198v119z" />
    <glyph glyph-name="multiply" unicode="&#xd7;" horiz-adv-x="1706" 
d="M381 1169l477 -477l475 477l82 -82l-475 -477l475 -475l-82 -82l-475 475l-477 -475l-80 82l475 475l-475 477z" />
    <glyph glyph-name="onesuperior" unicode="&#xb9;" horiz-adv-x="651" 
d="M37 532l6 21q7 -1 15.5 -1.5t23.5 -0.5q52 0 73.5 15.5t41.5 74.5l200 625q-52 -33 -118 -64t-154 -65l-6 16q81 30 183.5 82.5t254.5 142.5l-252 -772q-2 -6 -3 -12t-1 -14q0 -25 77 -26q25 -1 40 -1l-4 -21h-377z" />
    <glyph glyph-name="twosuperior" unicode="&#xb2;" horiz-adv-x="649" 
d="M-31 532q15 48 43.5 89t75.5 81q26 24 117 83q61 39 96 63q92 62 144.5 149t52.5 177q0 71 -47 114t-123 43q-72 0 -127.5 -39t-55.5 -86q0 -14 6 -25t25 -28q6 -6 18 -16q39 -35 39 -56q0 -18 -15 -31.5t-38 -13.5q-28 0 -49.5 34.5t-21.5 84.5q0 87 68.5 141t180.5 54
q115 0 187.5 -54.5t72.5 -138.5q0 -81 -49.5 -145.5t-179.5 -145.5q-32 -19 -98 -55q-182 -100 -246 -180h358q50 0 70.5 12.5t48.5 50.5l15 -6q-33 -53 -53.5 -88.5t-37.5 -67.5h-477z" />
    <glyph glyph-name="threesuperior" unicode="&#xb3;" horiz-adv-x="649" 
d="M168 973l4 16q22 0 43.5 -1t22.5 -1q128 0 192 57t64 173q0 54 -32.5 84t-90.5 30q-59 0 -106.5 -26.5t-47.5 -55.5q0 -8 6 -12t24 -8q24 -6 35 -17.5t11 -29.5q0 -20 -18 -36t-42 -16q-27 0 -45 18.5t-18 47.5q0 65 62 108.5t159 43.5q95 0 154 -46.5t59 -119.5
q0 -81 -69.5 -134t-200.5 -71q99 -17 154 -65t55 -119q0 -114 -97 -194.5t-235 -80.5q-88 0 -145.5 39.5t-57.5 99.5q0 45 29 76t69 31q30 0 48 -15.5t18 -39.5q0 -27 -19 -43.5t-51 -16.5q-2 0 -10.5 1t-15.5 1q-19 0 -27 -5.5t-8 -18.5q0 -33 48.5 -62.5t109.5 -29.5
q45 0 83 18.5t70 56.5q26 35 45 99.5t19 126.5q0 77 -49.5 107t-186.5 30h-12z" />
    <glyph glyph-name="onequarter" unicode="&#xbc;" horiz-adv-x="1583" 
d="M1102 0l8 23h104l64 204h-342l551 553l12 -8l-477 -485h274l80 252l125 65l-98 -317h143l-18 -60h-146l-61 -204h100l-8 -23h-311zM340 -25h-61l962 1385h62zM35 588l4 18q8 -1 16 -1.5t23 -0.5q47 0 68 14.5t40 71.5l193 582q-50 -30 -111.5 -58.5t-148.5 -60.5l-6 14
q78 29 176.5 78.5t240.5 130.5l-239 -719q-2 -6 -3 -11t-1 -13q0 -25 79 -26q20 -1 31 -1l-2 -18h-360z" />
    <glyph glyph-name="onehalf" unicode="&#xbd;" horiz-adv-x="1583" 
d="M934 0q13 44 40 82.5t73 77.5q24 21 97 66.5t105 66.5q88 60 138.5 141.5t50.5 163.5q0 66 -45 106.5t-117 40.5q-69 0 -122.5 -36t-53.5 -80q0 -14 6 -24.5t24 -24.5q5 -5 16 -14q38 -34 38 -54q0 -17 -14 -29t-35 -12q-29 0 -48.5 31.5t-19.5 79.5q0 80 65.5 130
t172.5 50q110 0 179.5 -50.5t69.5 -129.5q0 -74 -48.5 -134.5t-172.5 -136.5q-30 -17 -91 -50q-175 -92 -236 -169h342q49 0 67.5 12t44.5 48l15 -7q-23 -34 -43.5 -70t-40.5 -75h-457zM340 -25h-61l962 1385h62zM35 588l4 18q8 -1 16 -1.5t23 -0.5q47 0 68 14.5t40 71.5
l193 582q-50 -30 -111.5 -58.5t-148.5 -60.5l-6 14q78 29 176.5 78.5t240.5 130.5l-239 -719q-2 -6 -3 -11t-1 -13q0 -25 79 -26q20 -1 31 -1l-2 -18h-360z" />
    <glyph glyph-name="threequarters" unicode="&#xbe;" horiz-adv-x="1583" 
d="M1102 0l8 23h104l64 204h-342l551 553l12 -8l-477 -485h274l80 252l125 65l-98 -317h143l-18 -60h-146l-61 -204h100l-8 -23h-311zM340 -25h-61l962 1385h62zM160 999l6 15q22 0 50 -2h9q125 0 185.5 53t60.5 162q0 50 -30.5 78t-86.5 28q-55 0 -101 -25.5t-46 -52.5
q0 -6 6 -10t23 -8q23 -5 34 -15.5t11 -27.5q0 -19 -18 -33t-42 -14q-27 0 -43 16t-16 43q0 61 59 102.5t152 41.5q91 0 148 -43.5t57 -112.5q0 -76 -67 -125.5t-192 -64.5q95 -16 147 -61t52 -112q0 -108 -92 -183t-225 -75q-83 0 -138 38t-55 94q0 41 27.5 69.5t66.5 28.5
q28 0 46 -14.5t18 -36.5q0 -25 -18.5 -40.5t-49.5 -15.5q-2 0 -10.5 1t-15.5 1q-17 0 -24 -5t-7 -17q0 -31 46 -58.5t103 -27.5q45 0 81.5 18t64.5 54q25 32 43 92t18 116q0 73 -47 101t-178 28h-12z" />
    <glyph glyph-name="franc" unicode="&#x20a3;" horiz-adv-x="1739" 
d="M-145 0l8 29h153l361 1298h-154l8 29h930l-47 -369h-31q1 2 1 6q3 42 3 64q0 133 -62 201.5t-183 68.5h-275l-161 -575h116q115 0 156.5 38t75.5 168h30l-139 -509h-29q18 70 26.5 111t8.5 58q0 49 -36 77t-99 28h-121l-188 -694h166l-8 -29h-510zM1360 623
q74 110 143 162.5t141 52.5q48 0 74.5 -25.5t26.5 -71.5q0 -43 -27.5 -71.5t-69.5 -28.5q-34 0 -59 24t-25 56q0 11 7.5 29.5t7.5 25.5q0 2 -4 2q-57 0 -142 -103t-127 -239l-133 -436h-159l243 786h-121l9 29h77q72 0 120.5 6t90.5 19z" />
    <glyph glyph-name="Gbreve" unicode="&#x11e;" horiz-adv-x="1309" 
d="M1126 465l-67 -250q-7 -26 -62.5 -79t-126.5 -91q-65 -36 -141 -55t-154 -19q-214 0 -365 164t-151 395q0 155 59 301.5t171 272.5q121 135 263.5 207.5t285.5 72.5q81 0 147 -20.5t134 -67.5q16 -11 46 -35q60 -49 95 -49q17 0 31 14.5t26 45.5l26 -4l-131 -475l-26 8
q7 38 10.5 79.5t3.5 92.5q0 181 -91 282t-255 101q-137 0 -231 -72t-185 -250q-97 -192 -152 -373t-55 -301q0 -175 89.5 -265.5t261.5 -90.5q108 0 178.5 56t101.5 167l64 238h-142l9 29h481v-29h-148zM639 1807h55q8 -73 50.5 -109.5t119.5 -36.5q95 0 167 35t136 111h60
q-81 -141 -172.5 -209t-198.5 -68q-109 0 -163 68.5t-54 208.5z" />
    <glyph glyph-name="gbreve" unicode="&#x11f;" horiz-adv-x="895" 
d="M492 -31h-347q-74 -23 -119.5 -84t-45.5 -137q0 -103 78 -164t208 -61q67 0 134.5 26t129.5 76q59 48 94 109t35 114q0 62 -40.5 91.5t-126.5 29.5zM98 -27q-51 12 -79.5 47.5t-28.5 85.5q0 69 52 119.5t144 69.5q-57 53 -83.5 103t-26.5 106q0 124 112 230t248 106
q79 0 134.5 -30.5t93.5 -94.5q35 63 74.5 94t84.5 31q49 0 74 -22t25 -64q0 -37 -21.5 -61.5t-52.5 -24.5q-34 0 -56 20.5t-22 50.5q0 2 1 12.5t1 18.5q0 3 -4.5 5.5t-11.5 2.5q-16 0 -33.5 -20.5t-44.5 -71.5q8 -30 12 -55.5t4 -48.5q0 -132 -99.5 -229t-234.5 -97
q-25 0 -58.5 5.5t-79.5 16.5q-71 -5 -118 -38t-47 -74q0 -29 25.5 -43t75.5 -14l329 4h7q111 0 168 -48.5t57 -144.5q0 -173 -145.5 -302.5t-350.5 -129.5q-156 0 -247 65t-91 173q0 86 55.5 150t157.5 97zM442 815q-41 0 -76.5 -19.5t-54.5 -52.5q-16 -29 -25.5 -49
t-13.5 -35q-35 -117 -50 -176.5t-15 -79.5q0 -60 35.5 -90t105.5 -30q48 0 81 24.5t56 79.5q38 87 62 183t24 139q0 47 -35.5 76.5t-93.5 29.5zM275 1262h55q8 -73 50.5 -109.5t119.5 -36.5q95 0 167 35t136 111h60q-81 -141 -172.5 -209t-198.5 -68q-109 0 -163 68.5
t-54 208.5z" />
    <glyph glyph-name="Idotaccent" unicode="&#x130;" horiz-adv-x="578" 
d="M-147 0l6 29h153l361 1298h-154l8 29h512l-8 -29h-168l-358 -1298h166l-6 -29h-512zM433 1645q0 40 31 72t71 32q43 0 75 -31t32 -73q0 -44 -31 -74.5t-76 -30.5q-40 0 -71 32t-31 73z" />
    <glyph glyph-name="Scedilla" unicode="&#x15e;" horiz-adv-x="1006" 
d="M98 483q-9 -40 -13.5 -76t-4.5 -69q0 -146 95.5 -239t242.5 -93q138 0 235 98.5t97 239.5q0 153 -244 273l-21 10q-147 73 -204.5 149.5t-57.5 192.5q0 174 111.5 294.5t271.5 120.5q61 0 110.5 -11t90.5 -34q11 -6 29 -17q59 -36 82 -36q19 0 31.5 11t31.5 49l29 -7
l-113 -401l-27 8q9 39 13 69.5t4 55.5q0 130 -74 206.5t-199 76.5q-129 0 -216 -81t-87 -200q0 -130 274 -259q41 -19 62 -30q119 -57 174.5 -137t55.5 -194q0 -200 -137 -341t-332 -141q-106 0 -226 57.5t-137 57.5q-27 0 -47.5 -23t-32.5 -67l-28 8l133 483zM45 -369
l20 43q68 -27 128 -43t89 -16q52 0 79.5 28.5t27.5 82.5q0 49 -26.5 73.5t-78.5 24.5q-12 0 -27 -1.5t-32 -4.5l57 182h33l-36 -135q19 3 37.5 4.5t33.5 1.5q94 0 146 -40t52 -112q0 -68 -62.5 -109.5t-166.5 -41.5q-55 0 -124 16t-150 47z" />
    <glyph glyph-name="scedilla" unicode="&#x15f;" horiz-adv-x="743" 
d="M391 176q0 77 -115 172q-13 11 -19 16q-79 66 -103.5 109.5t-24.5 97.5q0 111 85 190t208 79q102 0 168.5 -43t66.5 -107q0 -41 -27 -68.5t-69 -27.5t-70 26t-28 64q0 48 60 83q9 6 9 7q0 13 -28.5 25t-67.5 12q-81 0 -132.5 -45t-51.5 -115q0 -68 137 -171
q22 -17 33 -25q80 -62 104.5 -106.5t24.5 -106.5q0 -108 -103.5 -186.5t-248.5 -78.5q-115 0 -193 59t-78 142q0 50 32.5 85.5t76.5 35.5q45 0 73.5 -25.5t28.5 -64.5q0 -25 -17.5 -48t-47.5 -38q-15 -7 -40.5 -13.5t-25.5 -13.5q0 -20 57 -52t121 -32q89 0 147 47t58 117z
M-26 -369l20 43q68 -27 128 -43t89 -16q52 0 79.5 28.5t27.5 82.5q0 49 -26.5 73.5t-78.5 24.5q-12 0 -27 -1.5t-32 -4.5l57 182h33l-36 -135q19 3 37.5 4.5t33.5 1.5q94 0 146 -40t52 -112q0 -68 -62.5 -109.5t-166.5 -41.5q-55 0 -124 16t-150 47z" />
    <glyph glyph-name="Cacute" unicode="&#x106;" horiz-adv-x="1270" 
d="M1104 332q-101 -180 -238 -269.5t-309 -89.5q-216 0 -359 162.5t-143 411.5q0 169 64 319.5t190 280.5q115 118 241.5 178.5t256.5 60.5q60 0 111 -10.5t94 -32.5q25 -12 77.5 -46.5t79.5 -34.5q31 0 44.5 12.5t23.5 50.5h31l-99 -467h-30q10 45 15 79.5t5 63.5
q0 156 -94 253.5t-242 97.5q-127 0 -222 -77t-183 -251q-80 -156 -124 -328.5t-44 -326.5q0 -165 91 -263t245 -98q138 0 269 91.5t216 248.5zM804 1495h-71l299 314q18 20 39.5 31.5t40.5 11.5q27 0 48 -21t21 -49q0 -22 -16 -41.5t-53 -44.5z" />
    <glyph glyph-name="cacute" unicode="&#x107;" horiz-adv-x="735" 
d="M625 287q-63 -148 -156 -229t-199 -81q-115 0 -195.5 91t-80.5 223q0 104 41 205t119 186q73 79 151.5 118.5t165.5 39.5q90 0 143.5 -39t53.5 -103q0 -41 -28 -67.5t-71 -26.5q-36 0 -63 27t-27 63q0 59 40 96q5 5 5 7q0 6 -14 10t-39 4q-56 0 -103 -35.5t-83 -105.5
q-24 -45 -44.5 -100t-37.5 -121q-24 -92 -36.5 -165.5t-12.5 -119.5q0 -71 32 -108.5t93 -37.5q92 0 172 72t145 213zM387 950h-71l299 314q18 20 39.5 31.5t40.5 11.5q27 0 48 -21t21 -49q0 -22 -16 -41.5t-53 -44.5z" />
    <glyph glyph-name="Ccaron" unicode="&#x10c;" horiz-adv-x="1270" 
d="M1104 332q-101 -180 -238 -269.5t-309 -89.5q-216 0 -359 162.5t-143 411.5q0 169 64 319.5t190 280.5q115 118 241.5 178.5t256.5 60.5q60 0 111 -10.5t94 -32.5q25 -12 77.5 -46.5t79.5 -34.5q31 0 44.5 12.5t23.5 50.5h31l-99 -467h-30q10 45 15 79.5t5 63.5
q0 156 -94 253.5t-242 97.5q-127 0 -222 -77t-183 -251q-80 -156 -124 -328.5t-44 -326.5q0 -165 91 -263t245 -98q138 0 269 91.5t216 248.5zM671 1843h56l176 -206l276 206h68l-310 -348h-104z" />
    <glyph glyph-name="ccaron" unicode="&#x10d;" horiz-adv-x="735" 
d="M625 287q-63 -148 -156 -229t-199 -81q-115 0 -195.5 91t-80.5 223q0 104 41 205t119 186q73 79 151.5 118.5t165.5 39.5q90 0 143.5 -39t53.5 -103q0 -41 -28 -67.5t-71 -26.5q-36 0 -63 27t-27 63q0 59 40 96q5 5 5 7q0 6 -14 10t-39 4q-56 0 -103 -35.5t-83 -105.5
q-24 -45 -44.5 -100t-37.5 -121q-24 -92 -36.5 -165.5t-12.5 -119.5q0 -71 32 -108.5t93 -37.5q92 0 172 72t145 213zM254 1298h56l176 -206l276 206h68l-310 -348h-104z" />
    <glyph glyph-name="dcroat" unicode="&#x111;" horiz-adv-x="963" 
d="M858 1327h-119l9 29h49q68 0 128 13t119 40l-92 -309h168l-14 -51h-168l-256 -869q-11 -35 -17 -62.5t-6 -41.5q0 -24 13 -41t30 -17q31 0 80 48.5t103 132.5l24 -19q-80 -121 -136.5 -164t-125.5 -43q-56 0 -89.5 33.5t-49.5 104.5q-63 -69 -124 -102.5t-126 -33.5
q-124 0 -202.5 93t-78.5 243q0 218 143 374.5t329 156.5q89 0 143.5 -43.5t73.5 -128.5l110 379h-309l14 51h310zM629 551q5 21 7.5 39.5t2.5 34.5q0 80 -44 132t-112 52q-82 0 -151 -59t-121 -175q-40 -88 -63 -185.5t-23 -176.5q0 -94 37.5 -146.5t105.5 -52.5
q89 0 168.5 74t114.5 195z" />
    <glyph glyph-name="sfthyphen" unicode="&#xad;" horiz-adv-x="786" 
d="M72 344l37 131h448l-39 -131h-446z" />
    <glyph glyph-name="periodcentered" unicode="&#x2219;" horiz-adv-x="494" 
d="M152 655q0 39 26.5 66t65.5 27q38 0 64 -27t26 -66q0 -38 -26 -64t-64 -26t-65 26.5t-27 63.5z" />
    <glyph glyph-name="Euro" horiz-adv-x="985" 
d="M895 326q-79 -171 -189.5 -261t-242.5 -90q-176 0 -282.5 143.5t-106.5 385.5v31h-119l20 47h101q4 44 12 87t18 83h-116l20 47h109q81 251 240 405t331 154q107 0 196 -61.5t99 -61.5q21 0 33 15t18 48h29l-74 -456h-30q8 41 12 75.5t4 63.5q0 154 -76 250t-194 96
q-127 0 -222.5 -125.5t-177.5 -402.5h385l-20 -47h-377q-11 -38 -20.5 -79.5t-18.5 -90.5h340l-21 -47h-327q-8 -50 -12.5 -95t-4.5 -88q0 -150 69 -245t175 -95q115 0 217.5 86.5t171.5 243.5z" />
    <glyph glyph-name="Euro" unicode="&#x20ac;" horiz-adv-x="985" 
d="M895 326q-79 -171 -189.5 -261t-242.5 -90q-176 0 -282.5 143.5t-106.5 385.5v31h-119l20 47h101q4 44 12 87t18 83h-116l20 47h109q81 251 240 405t331 154q107 0 196 -61.5t99 -61.5q21 0 33 15t18 48h29l-74 -456h-30q8 41 12 75.5t4 63.5q0 154 -76 250t-194 96
q-127 0 -222.5 -125.5t-177.5 -402.5h385l-20 -47h-377q-11 -38 -20.5 -79.5t-18.5 -90.5h340l-21 -47h-327q-8 -50 -12.5 -95t-4.5 -88q0 -150 69 -245t175 -95q115 0 217.5 86.5t171.5 243.5z" />
    </font>
</defs>
</svg>
