<?xml version="1.0" standalone="no"?>
<!DOCTYPE svg PUBLIC "-//W3C//DTD SVG 1.1//EN" "http://www.w3.org/Graphics/SVG/1.1/DTD/svg11.dtd" >
<svg xmlns="http://www.w3.org/2000/svg" xmlns:xlink="http://www.w3.org/1999/xlink" version="1.1">
<metadata>
Created by FontForge 20161003 at Thu Sep  7 02:59:25 2017
 By www-data
Copyright (c) 1990 Adobe Systems Incorporated.  All Rights Reserved.Helvetica is a trademark of Linotype AG and/or its subsidiaries.
</metadata>
<defs>
<font id="HelveticaLT23UltraLightExtendedOblique" horiz-adv-x="648" >
  <font-face 
    font-family="HelveticaLT23UltraLightExtendedOblique"
    font-weight="400"
    font-style="oblique"
    font-stretch="normal"
    units-per-em="1000"
    panose-1="0 0 4 0 0 0 0 0 0 0"
    ascent="800"
    descent="-200"
    x-height="512"
    cap-height="714"
    bbox="-170 -220 1311 937"
    underline-thickness="50"
    underline-position="-175"
    slope="-11"
    unicode-range="U+0001-E00A"
  />
<missing-glyph horiz-adv-x="500" 
d="M63 0v784h375v-784h-375zM125 63h250v659h-250v-659z" />
    <glyph glyph-name=".notdef" horiz-adv-x="500" 
d="M63 0v784h375v-784h-375zM125 63h250v659h-250v-659z" />
    <glyph glyph-name=".null" horiz-adv-x="0" 
 />
    <glyph glyph-name="nonmarkingreturn" horiz-adv-x="233" 
 />
    <glyph glyph-name="breve" horiz-adv-x="130" 
d="M63 704h20q2 -91 112 -91q111 0 152 91h20q-44 -111 -176 -111t-128 111z" />
    <glyph glyph-name="caron" horiz-adv-x="130" 
d="M173 589l-133 139h30l123 -125l177 125h30l-193 -139h-34z" />
    <glyph glyph-name="dotlessi" horiz-adv-x="130" 
d="M55 0l109 512h20l-109 -512h-20z" />
    <glyph glyph-name="dotaccent" horiz-adv-x="130" 
d="M201 595h-20l24 109h20z" />
    <glyph glyph-name="hungarumlaut" horiz-adv-x="130" 
d="M25 589l194 139h32l-198 -139h-28zM225 589l194 139h32l-198 -139h-28z" />
    <glyph glyph-name="ring" horiz-adv-x="130" 
d="M228 765q34 0 55.5 -21.5t21.5 -54.5q0 -45 -36.5 -80.5t-81.5 -35.5q-35 0 -56.5 21.5t-21.5 54.5q0 45 36.5 80.5t82.5 35.5zM129 653q0 -26 17.5 -43t44.5 -17q36 0 65 28t29 64q0 26 -17 43t-45 17q-36 0 -65 -28t-29 -64z" />
    <glyph glyph-name="ogonek" horiz-adv-x="130" 
d="M218 -150l-4 -20q-53 -20 -109 -20q-89 0 -89 68q0 9 2 20q16 76 140 102h25q-146 -54 -146 -117q0 -53 72 -53q43 0 109 20z" />
    <glyph glyph-name="space" unicode=" " horiz-adv-x="324" 
 />
    <glyph glyph-name="exclam" unicode="!" horiz-adv-x="222" 
d="M140 182l113 532h20l-113 -532h-20zM101 0l20 96h20l-20 -96h-20z" />
    <glyph glyph-name="quotedbl" unicode="&#x22;" horiz-adv-x="296" 
d="M183 498l46 216h20l-46 -216h-20zM305 498l46 216h20l-46 -216h-20z" />
    <glyph glyph-name="numbersign" unicode="#" 
d="M167 0l83 237h-124l5 20h127l66 190h-124l4 20h127l84 237h20l-84 -237h176l84 237h20l-84 -237h124l-4 -20h-127l-66 -190h124l-5 -20h-127l-83 -237h-20l83 237h-176l-83 -237h-20zM344 447l-66 -190h176l66 190h-176z" />
    <glyph glyph-name="dollar" unicode="$" 
d="M420 349l-73 -345q118 1 199 45q100 56 100 164q0 86 -135 116zM405 373l70 327h-9q-249 0 -284 -162q-3 -17 -3 -31q0 -82 131 -112zM303 -110l20 95q-257 3 -257 181q0 29 7 66h20q-6 -33 -6 -61q0 -162 240 -166l74 348l-88 19q-72 16 -108 40q-46 33 -46 91
q0 17 4 37q38 180 304 180h12l17 80h20l-17 -81q218 -9 218 -163q0 -19 -3 -49h-20q2 23 2 42q0 66 -38 101q-48 44 -163 49l-71 -330l110 -25q133 -30 133 -126q0 -17 -4 -36q-17 -79 -78 -129q-84 -68 -242 -69l-20 -94h-20z" />
    <glyph glyph-name="percent" unicode="%" horiz-adv-x="889" 
d="M530 173q21 98 86 148q54 41 124 41q58 0 94 -29q42 -35 42 -103q0 -26 -6 -57q-21 -98 -86 -148q-54 -41 -124 -41q-58 0 -94 29q-43 35 -43 103q0 26 7 57zM550 173q-6 -28 -6 -52q0 -117 120 -117q69 0 119 44t67 125q6 28 6 52q0 117 -120 117q-69 0 -119 -44
t-67 -125zM169 531q21 98 86 148q54 41 124 41q58 0 94 -29q42 -35 42 -103q0 -26 -6 -57q-21 -98 -86 -148q-54 -41 -124 -41q-58 0 -94 29q-43 35 -43 103q0 26 7 57zM189 531q-6 -28 -6 -52q0 -117 120 -117q69 0 119 44t67 125q6 28 6 52q0 117 -120 117q-69 0 -119 -44
t-67 -125zM192 -22l635 748h20l-635 -748h-20z" />
    <glyph glyph-name="ampersand" unicode="&#x26;" horiz-adv-x="704" 
d="M396 397l218 -263q54 57 79 140h20q-24 -86 -87 -154l99 -120h-29l-86 104q-130 -120 -297 -120q-99 0 -161 43t-62 119q0 19 5 40q26 125 174 183l93 36q-75 91 -75 149q0 75 58 120q53 40 131 40q136 0 136 -101q0 -14 -3 -30q-12 -57 -57 -97q-47 -43 -156 -89z
M589 584q3 13 3 24q0 86 -121 86q-68 0 -114 -34q-50 -38 -50 -104q0 -45 77 -144q100 40 147 79t58 93zM599 118l-225 272l-91 -35q-144 -56 -168 -169q-4 -18 -4 -34q0 -65 51 -105q56 -43 157 -43q154 0 280 114z" />
    <glyph glyph-name="quotesingle" unicode="'" horiz-adv-x="168" 
d="M180 498l46 216h20l-46 -216h-20z" />
    <glyph glyph-name="parenleft" unicode="(" horiz-adv-x="260" 
d="M193 -190h-26q-61 128 -61 289q0 83 17 163q53 249 236 452h26q-190 -208 -242 -452q-17 -78 -17 -157q0 -159 67 -295z" />
    <glyph glyph-name="parenright" unicode=")" horiz-adv-x="260" 
d="M13 -190h-26q190 208 242 452q16 78 16 157q0 159 -66 295h26q61 -128 61 -289q0 -83 -17 -163q-53 -249 -236 -452z" />
    <glyph glyph-name="asterisk" unicode="*" horiz-adv-x="370" 
d="M295 566l32 148h20l-32 -148l151 46l2 -19l-151 -46l62 -120l-19 -12l-61 120l-113 -120l-13 12l112 120l-131 46l10 19z" />
    <glyph glyph-name="plus" unicode="+" horiz-adv-x="600" 
d="M290 0l52 243h-243l4 20h243l52 243h20l-52 -243h243l-4 -20h-243l-52 -243h-20z" />
    <glyph glyph-name="comma" unicode="," horiz-adv-x="168" 
d="M73 -6l21 102h20l-20 -95q-19 -92 -74 -121l6 26q32 18 47 88z" />
    <glyph glyph-name="hyphenminus" unicode="-" horiz-adv-x="600" 
d="M605 243h-506l4 20h506z" />
    <glyph glyph-name="period" unicode="." horiz-adv-x="168" 
d="M74 0l20 96h20l-20 -96h-20z" />
    <glyph glyph-name="slash" unicode="/" horiz-adv-x="407" 
d="M-18 -16l575 746h20l-575 -746h-20z" />
    <glyph glyph-name="zero" unicode="0" 
d="M100 352q34 163 122 258q100 110 255 110q235 0 235 -242q0 -58 -14 -126q-35 -163 -122 -258q-101 -110 -255 -110q-236 0 -236 242q0 58 15 126zM120 352q-14 -66 -14 -121q0 -227 219 -227q142 0 236 101q83 90 117 247q14 66 14 121q0 227 -219 227q-143 0 -236 -100
q-84 -91 -117 -248z" />
    <glyph glyph-name="one" unicode="1" horiz-adv-x="426" 
d="M262 0l144 678q-108 -97 -255 -127l4 20q145 34 251 133h26l-150 -704h-20z" />
    <glyph glyph-name="two" unicode="2" 
d="M586 0h-524q17 75 71 124q45 43 160 102l179 92q158 82 183 198q5 25 5 47q0 137 -192 137q-222 0 -271 -230h-20q21 100 65 154q77 96 238 96q110 0 161 -53q39 -40 39 -104q0 -21 -4 -41q-29 -135 -195 -220l-196 -101q-95 -49 -137 -87t-62 -94h504z" />
    <glyph glyph-name="three" unicode="3" 
d="M376 386h42q113 0 179 42q62 39 77 107q4 21 4 40q0 125 -190 125q-129 0 -198 -54q-65 -50 -95 -163h-20q30 117 98 173q78 64 219 64q207 0 207 -141q0 -86 -60 -141q-55 -52 -145 -61v-2q147 -17 147 -138q0 -23 -5 -50q-17 -77 -81 -131q-87 -72 -235 -72
q-229 0 -229 172q0 28 7 60q2 7 6 22h20q-13 -34 -13 -79q0 -155 215 -155q133 0 212 63q63 49 78 120q5 24 5 45q0 134 -205 134h-44z" />
    <glyph glyph-name="four" unicode="4" 
d="M440 0l40 186h-396l5 27l495 491h26l-106 -498h144l-4 -20h-144l-40 -186h-20zM582 678l-474 -472h376l100 472h-2z" />
    <glyph glyph-name="five" unicode="5" 
d="M309 704h401l-5 -20h-383l-135 -299l1 -2q40 40 105.5 66.5t131.5 26.5q92 0 150 -37q73 -47 73 -146q0 -32 -8 -70q-22 -104 -103 -169q-87 -70 -216 -70q-94 0 -153 38q-72 46 -72 140q0 29 7 63h20q-7 -31 -7 -58q0 -95 78 -136q52 -27 131 -27q119 0 199 62
q76 59 96 157q8 34 8 64q0 169 -207 169q-75 0 -147 -35q-64 -31 -99 -76h-26z" />
    <glyph glyph-name="six" unicode="6" 
d="M694 532h-20q6 85 -51 129q-50 39 -136 39q-143 0 -226 -90q-78 -84 -116 -264q-4 -20 -12 -59h2q41 91 126 140q77 43 171 43q104 0 162 -50.5t58 -135.5q0 -27 -7 -57q-23 -108 -109 -175.5t-207 -67.5q-224 0 -224 208q0 63 20 154q40 192 128 283t239 91
q88 0 143 -40q60 -44 60 -127q0 -10 -1 -21zM625 227q6 28 6 53q0 79 -54.5 124.5t-148.5 45.5q-113 0 -192.5 -62.5t-100.5 -160.5q-6 -32 -6 -59q0 -79 52.5 -121.5t151.5 -42.5q109 0 190 60.5t102 162.5z" />
    <glyph glyph-name="seven" unicode="7" horiz-adv-x="593" 
d="M190 684l5 20h498l-6 -26q-392 -290 -492 -678h-20q104 395 493 684h-478z" />
    <glyph glyph-name="eight" unicode="8" 
d="M82 186q38 182 243 202l1 2q-135 10 -135 123q0 15 4 31q37 176 282 176q212 0 212 -135q0 -19 -4 -41q-12 -55 -55 -96q-55 -52 -142 -58l-1 -2q165 -17 165 -147q0 -25 -6 -55q-43 -202 -325 -202q-245 0 -245 156q0 22 6 46zM215 547q-3 -17 -3 -32q0 -116 197 -116
q225 0 256 148q4 18 4 34q0 119 -196 119q-225 0 -258 -153zM102 186q-5 -23 -5 -42q0 -140 228 -140q262 0 301 182q5 27 5 49q0 144 -226 144q-262 0 -303 -193z" />
    <glyph glyph-name="nine" unicode="9" 
d="M104 172h20q-7 -85 51 -129q50 -39 136 -39q143 0 226 90q78 84 116 264q3 15 6.5 33t5.5 26h-2q-41 -91 -126 -139q-77 -44 -171 -44q-104 0 -162 50.5t-58 135.5q0 27 6 57q23 108 109.5 175.5t207.5 67.5q224 0 224 -208q0 -63 -20 -154q-41 -192 -129 -283t-238 -91
q-89 0 -143 40q-60 44 -60 127q0 10 1 21zM172 477q-5 -28 -5 -53q0 -79 54.5 -124.5t148.5 -45.5q113 0 194 64q78 61 98 159q7 32 7 59q0 79 -53 121.5t-151 42.5q-110 0 -189 -60q-82 -61 -104 -163z" />
    <glyph glyph-name="colon" unicode=":" horiz-adv-x="168" 
d="M158 394l20 96h20l-20 -96h-20zM74 0l20 96h20l-20 -96h-20z" />
    <glyph glyph-name="semicolon" unicode=";" horiz-adv-x="168" 
d="M73 -6l21 102h20l-20 -95q-19 -92 -74 -121l6 26q32 18 47 88zM158 394l20 96h20l-20 -96h-20z" />
    <glyph glyph-name="less" unicode="&#x3c;" horiz-adv-x="600" 
d="M98 238l6 30l559 248l-6 -26l-536 -237l435 -237l-5 -26z" />
    <glyph glyph-name="equal" unicode="=" horiz-adv-x="600" 
d="M625 340h-506l5 20h506zM584 146h-506l4 20h506z" />
    <glyph glyph-name="greater" unicode="&#x3e;" horiz-adv-x="600" 
d="M45 -10l5 26l537 237l-436 237l6 26l453 -248l-6 -30z" />
    <glyph glyph-name="question" unicode="?" horiz-adv-x="611" 
d="M329 183l6 28q14 65 30 87q18 26 82 62l79 45q60 34 87 68q24 31 34 79q5 20 5 38q0 120 -200 120q-141 0 -209 -66q-48 -47 -73 -151h-20q26 109 75 160q75 77 231 77q216 0 216 -135q0 -20 -4 -42q-13 -57 -41 -91.5t-86 -68.5l-99 -57q-45 -27 -59.5 -46t-24.5 -65
l-9 -42h-20zM290 0l20 96h20l-20 -96h-20z" />
    <glyph glyph-name="at" unicode="@" horiz-adv-x="800" 
d="M273 274q-3 -15 -3 -30q0 -41 26.5 -66.5t71.5 -25.5q81 0 170 126q74 104 89 175q4 16 4 30q0 77 -83 77q-92 0 -174 -90q-77 -85 -101 -196zM652 493l34 67h20l-161 -323q-14 -28 -18 -50q-8 -35 32 -35q78 0 162 86q81 83 102 179q7 34 7 65q0 107 -80 170
q-73 58 -180 58q-146 0 -271.5 -103.5t-156.5 -249.5q-8 -37 -8 -74q0 -121 80 -200t206 -79q189 0 331 164h23q-64 -85 -162 -134.5t-196 -49.5q-134 0 -218.5 83.5t-84.5 211.5q0 38 9 78q33 155 165.5 264t286.5 109q121 0 198.5 -68.5t77.5 -177.5q0 -31 -7 -64
q-23 -110 -113 -199t-176 -89q-48 0 -48 44q0 23 21 60h-2q-77 -104 -170 -104q-49 0 -77 31t-28 78q0 16 3 33q25 117 106 207q90 99 193 99q43 0 70.5 -23.5t27.5 -63.5h2z" />
    <glyph glyph-name="A" unicode="A" 
d="M-17 0l480 714h26l176 -714h-26l-57 236h-416l-157 -236h-26zM472 694l-293 -438h398z" />
    <glyph glyph-name="B" unicode="B" horiz-adv-x="685" 
d="M55 0l152 714h388q74 0 116.5 -34t42.5 -97q0 -22 -5 -46q-13 -64 -71.5 -113.5t-120.5 -48.5l-1 -2q65 -3 104 -33q44 -35 44 -99q0 -22 -6 -47q-16 -76 -77 -128q-77 -66 -204 -66h-362zM223 694l-67 -312h350q87 0 151 49q59 44 72 106q5 22 5 41q0 116 -147 116h-364
zM152 362l-73 -342h342q119 0 190 61q53 46 67 113q5 23 5 43q0 125 -189 125h-342z" />
    <glyph glyph-name="C" unicode="C" horiz-adv-x="796" 
d="M794 271h20q-44 -136 -171 -215q-115 -72 -248 -72q-135 0 -217 73q-85 76 -85 207q0 44 11 93q36 172 167 275q124 98 282 98q132 0 208 -54q82 -58 86 -170h-20q-3 90 -67 143q-73 61 -211 61q-147 0 -264 -91q-126 -97 -161 -262q-10 -46 -10 -89q0 -125 82 -196
q78 -68 203 -68q139 0 253 81q110 77 142 186z" />
    <glyph glyph-name="D" unicode="D" horiz-adv-x="741" 
d="M223 694l-144 -674h328q144 0 238 104q81 88 112 233q12 58 12 110q0 103 -49 161q-56 66 -169 66h-328zM55 0l152 714h348q116 0 177 -65q58 -63 58 -176q0 -54 -13 -116q-35 -164 -130 -258q-100 -99 -244 -99h-348z" />
    <glyph glyph-name="E" unicode="E" horiz-adv-x="630" 
d="M55 0l152 714h556l-4 -20h-536l-67 -312h513l-4 -20h-513l-73 -342h542l-4 -20h-562z" />
    <glyph glyph-name="F" unicode="F" horiz-adv-x="556" 
d="M55 0l152 714h501l-4 -20h-481l-67 -312h452l-4 -20h-452l-77 -362h-20z" />
    <glyph glyph-name="G" unicode="G" horiz-adv-x="815" 
d="M491 315l4 20h336l-71 -335h-20l41 191h-2q-59 -105 -167 -159q-98 -48 -217 -48q-135 0 -217 73q-85 76 -85 207q0 44 11 93q36 172 167 275q124 98 282 98q299 0 293 -240h-20q-5 105 -59 157q-67 63 -218 63q-147 0 -264 -91q-126 -97 -161 -262q-10 -46 -10 -88
q0 -126 83 -197q79 -68 207 -68q144 0 251 75q119 83 152 236h-316z" />
    <glyph glyph-name="H" unicode="H" horiz-adv-x="722" 
d="M55 0l152 714h20l-71 -332h572l71 332h20l-152 -714h-20l77 362h-572l-77 -362h-20z" />
    <glyph glyph-name="I" unicode="I" horiz-adv-x="130" 
d="M55 0l152 714h20l-152 -714h-20z" />
    <glyph glyph-name="J" unicode="J" horiz-adv-x="519" 
d="M596 714h20l-114 -536q-17 -77 -75 -129q-72 -65 -188 -65q-179 0 -179 158q0 36 9 80h20q-9 -42 -9 -75q0 -143 161 -143q112 0 177 61q50 46 64 113z" />
    <glyph glyph-name="K" unicode="K" horiz-adv-x="685" 
d="M55 0l152 714h20l-93 -435l660 435h35l-454 -298l333 -416h-31l-322 402l-226 -149l-54 -253h-20z" />
    <glyph glyph-name="L" unicode="L" horiz-adv-x="537" 
d="M55 0l152 714h20l-148 -694h481l-4 -20h-501z" />
    <glyph glyph-name="M" unicode="M" horiz-adv-x="926" 
d="M55 0l152 714h33l227 -694h2l521 694h33l-152 -714h-20l146 688h-2l-519 -688h-26l-227 688h-2l-146 -688h-20z" />
    <glyph glyph-name="N" unicode="N" horiz-adv-x="722" 
d="M55 0l152 714h26l418 -688h2l146 688h20l-152 -714h-26l-418 688h-2l-146 -688h-20z" />
    <glyph glyph-name="O" unicode="O" horiz-adv-x="796" 
d="M104 357q36 172 167 275q124 98 282 98q135 0 216 -73q85 -76 85 -207q0 -44 -10 -93q-37 -172 -167 -275q-124 -98 -282 -98q-135 0 -217 73q-85 76 -85 207q0 44 11 93zM124 357q-10 -46 -10 -89q0 -125 82 -196q78 -68 203 -68q147 0 264 91q126 97 161 262
q10 46 10 89q0 125 -83 196q-77 68 -202 68q-147 0 -264 -91q-126 -97 -161 -262z" />
    <glyph glyph-name="P" unicode="P" 
d="M55 0l152 714h382q163 0 163 -134q0 -119 -75 -187t-199 -68h-334l-69 -325h-20zM223 694l-75 -349h339q99 0 160 46t78 128q7 30 7 55q0 120 -141 120h-368z" />
    <glyph glyph-name="Q" unicode="Q" horiz-adv-x="796" 
d="M750 -43l-121 92q-107 -65 -234 -65q-135 0 -217 73q-85 76 -85 207q0 44 11 93q36 172 167 275q124 98 282 98q135 0 216 -73q85 -76 85 -207q0 -44 -10 -93q-41 -190 -193 -294l115 -88zM613 62l-115 88l16 18l121 -93q150 97 189 282q10 46 10 89q0 125 -83 196
q-77 68 -202 68q-147 0 -264 -91q-126 -97 -161 -262q-10 -46 -10 -89q0 -125 82 -196q78 -68 203 -68q113 0 214 58z" />
    <glyph glyph-name="R" unicode="R" horiz-adv-x="685" 
d="M55 0l152 714h393q163 0 163 -128q0 -30 -8 -67q-13 -61 -61 -108q-59 -57 -145 -62l-1 -2q131 -1 131 -103q0 -21 -5 -47q-27 -128 -27 -182q0 -10 1 -15h-20q-2 5 -2 16q0 52 24 162q8 38 8 63q0 51 -38 72q-41 23 -144 23h-330l-71 -336h-20zM223 694l-72 -338h340
q101 0 169 50q61 45 75 113q8 34 8 62q0 63 -41 90q-35 23 -108 23h-371z" />
    <glyph glyph-name="S" unicode="S" horiz-adv-x="667" 
d="M725 514h-20q3 21 3 40q0 156 -230 156q-249 0 -284 -165q-4 -19 -4 -34q0 -81 126 -110l229 -52q133 -30 133 -126q0 -18 -5 -38q-42 -201 -326 -201q-271 0 -271 183q0 30 7 68h20q-7 -33 -7 -61q0 -170 259 -170q118 0 201 47q101 57 101 166q0 86 -127 114l-215 48
q-145 32 -145 127q0 19 4 41q39 183 303 183q252 0 252 -168q0 -22 -4 -48z" />
    <glyph glyph-name="T" unicode="T" horiz-adv-x="574" 
d="M277 0l148 694h-298l4 20h616l-4 -20h-298l-148 -694h-20z" />
    <glyph glyph-name="U" unicode="U" horiz-adv-x="722" 
d="M105 261l97 453h20l-97 -455q-9 -41 -9 -75q0 -180 246 -180q291 0 345 255l97 455h20l-97 -453q-58 -277 -369 -277q-262 0 -262 196q0 37 9 81z" />
    <glyph glyph-name="V" unicode="V" horiz-adv-x="630" 
d="M302 0l-166 714h26l159 -688l451 688h26l-470 -714h-26z" />
    <glyph glyph-name="W" unicode="W" horiz-adv-x="982" 
d="M219 0l-86 714h20l84 -688h2l389 688h30l97 -688h2l376 688h20l-390 -714h-26l-97 694h-2l-393 -694h-26z" />
    <glyph glyph-name="X" unicode="X" horiz-adv-x="612" 
d="M-18 0l387 365l-224 349h26l215 -336l359 336h26l-372 -349l231 -365h-26l-223 352l-373 -352h-26z" />
    <glyph glyph-name="Y" unicode="Y" horiz-adv-x="630" 
d="M305 0l64 301l-249 413h29l235 -391l401 391h29l-425 -413l-64 -301h-20z" />
    <glyph glyph-name="Z" unicode="Z" horiz-adv-x="574" 
d="M-19 0l6 29l717 665h-541l4 20h567l-5 -24l-724 -670h592l-4 -20h-612z" />
    <glyph glyph-name="bracketleft" unicode="[" horiz-adv-x="260" 
d="M30 -190l192 904h136l-4 -20h-116l-184 -864h116l-4 -20h-136z" />
    <glyph glyph-name="backslash" unicode="\" horiz-adv-x="407" 
d="M399 -16l-259 746h20l259 -746h-20z" />
    <glyph glyph-name="bracketright" unicode="]" horiz-adv-x="260" 
d="M134 -170l184 864h-116l4 20h136l-192 -904h-136l4 20h116z" />
    <glyph glyph-name="asciicircum" unicode="^" horiz-adv-x="600" 
d="M114 251l326 453h20l132 -453h-20l-127 433l-311 -433h-20z" />
    <glyph glyph-name="underscore" unicode="_" horiz-adv-x="500" 
d="M-27 -125l11 50h500l-11 -50h-500z" />
    <glyph glyph-name="grave" unicode="`" horiz-adv-x="130" 
d="M227 589l-138 139h32l134 -139h-28z" />
    <glyph glyph-name="a" unicode="a" horiz-adv-x="564" 
d="M592 27l-5 -20q-18 -7 -48 -7q-45 0 -45 35q0 7 2 16l13 61h-2q-90 -128 -283 -128q-174 0 -174 119q0 17 4 36q29 138 197 144l170 6q82 3 107 16.5t35 60.5l6 28q3 13 3 25q0 89 -191 89q-109 0 -161.5 -34t-76.5 -117h-20q25 97 96 137q60 34 166 34q207 0 207 -103
q0 -14 -3 -30l-71 -332q-2 -13 -2 -21q0 -22 27 -22q23 0 49 7zM529 205l20 95h-2q-21 -26 -141 -31l-157 -6q-150 -6 -176 -125q-3 -15 -3 -29q0 -52 45 -79q41 -26 114 -26q125 0 207 60q74 54 93 141z" />
    <glyph glyph-name="b" unicode="b" horiz-adv-x="612" 
d="M129 256q-7 -35 -7 -68q0 -82 46 -130q52 -54 154 -54q123 0 205 77q73 68 95 175q8 35 8 68q0 82 -46 130q-53 54 -155 54q-123 0 -205 -77q-72 -68 -95 -175zM55 0l152 714h20l-73 -341h2q90 155 277 155q110 0 166 -58q51 -52 51 -142q0 -34 -8 -72
q-24 -117 -104 -190q-89 -82 -220 -82q-186 0 -212 154h-2l-29 -138h-20z" />
    <glyph glyph-name="c" unicode="c" 
d="M617 174h20q-87 -190 -310 -190q-110 0 -172 58q-60 55 -60 149q0 31 7 65q26 119 119 195.5t221 76.5q112 0 171.5 -46.5t57.5 -129.5h-20q-3 156 -213 156q-124 0 -212 -75q-81 -70 -104 -177q-6 -31 -6 -60q0 -85 53 -136q57 -56 162 -56q205 0 286 170z" />
    <glyph glyph-name="d" unicode="d" horiz-adv-x="612" 
d="M98 256q-7 -35 -7 -68q0 -82 46 -130q52 -54 155 -54q123 0 204 77q73 68 95 175q8 35 8 68q0 82 -46 130q-52 54 -154 54q-123 0 -205 -77q-73 -68 -96 -175zM537 0l29 138h-2q-90 -154 -276 -154q-110 0 -166 58q-52 52 -52 142q0 34 8 72q25 117 105 190q89 82 220 82
q188 0 211 -155h2l73 341h20l-152 -714h-20z" />
    <glyph glyph-name="e" unicode="e" horiz-adv-x="593" 
d="M633 256h-535q-6 -31 -6 -60q0 -85 53 -136q57 -56 162 -56q197 0 282 174h20q-33 -75 -93 -124q-86 -70 -213 -70q-110 0 -172 58q-60 55 -60 149q0 31 7 65q26 119 119 195.5t221 76.5q99 0 161 -54.5t62 -150.5q0 -32 -8 -67zM103 276h515q3 19 3 38q0 84 -51 137
q-56 57 -156 57q-118 0 -204 -69q-79 -63 -107 -163z" />
    <glyph glyph-name="f" unicode="f" horiz-adv-x="278" 
d="M123 0l105 492h-122l4 20h122l21 101q13 62 57 87q35 20 99 20q14 0 60 -2l-5 -20q-18 2 -56 2q-69 0 -99 -24q-27 -20 -38 -74l-19 -90h149l-4 -20h-149l-105 -492h-20z" />
    <glyph glyph-name="g" unicode="g" horiz-adv-x="630" 
d="M106 269q-7 -35 -7 -65q0 -85 55 -129.5t154 -44.5q120 0 200 63t104 176q8 36 8 67q0 84 -55 128t-155 44q-118 0 -198.5 -62t-105.5 -177zM636 382l28 130h20l-106 -496q-50 -236 -313 -236q-99 0 -152 25q-73 35 -73 123q0 11 1 24h20q-4 -72 31 -106q47 -46 174 -46
q246 0 293 217l29 137h-2q-95 -144 -282 -144q-107 0 -166.5 49.5t-59.5 141.5q0 32 8 68q26 122 114 190.5t214 68.5q199 0 220 -146h2z" />
    <glyph glyph-name="h" unicode="h" horiz-adv-x="593" 
d="M55 0l152 714h20l-68 -317h2q86 131 259 131q194 0 194 -142q0 -29 -8 -64l-68 -322h-20l68 322q8 33 8 59q0 127 -178 127q-139 0 -215 -86q-48 -54 -65 -135l-61 -287h-20z" />
    <glyph glyph-name="i" unicode="i" horiz-adv-x="130" 
d="M55 0l109 512h20l-109 -512h-20zM184 605l23 109h20l-23 -109h-20z" />
    <glyph glyph-name="j" unicode="j" horiz-adv-x="130" 
d="M39 -74l125 586h20l-128 -603q-24 -111 -146 -111q-11 0 -31 1.5t-29 1.5l4 20q29 -3 66 -3q56 0 83 26q24 24 36 82zM184 605l23 109h20l-23 -109h-20z" />
    <glyph glyph-name="k" unicode="k" horiz-adv-x="537" 
d="M55 0l152 714h20l-107 -500l472 298h35l-310 -196l221 -316h-26l-213 305l-184 -117l-40 -188h-20z" />
    <glyph glyph-name="l" unicode="l" horiz-adv-x="130" 
d="M55 0l152 714h20l-152 -714h-20z" />
    <glyph glyph-name="m" unicode="m" horiz-adv-x="944" 
d="M55 0l109 512h20l-21 -98h2q75 114 232 114q68 0 110 -28q46 -31 51 -92h2q76 120 211 120q194 0 194 -142q0 -29 -8 -64l-68 -322h-20l68 322q8 33 8 59q0 127 -178 127q-75 0 -134 -45q-63 -48 -81 -133l-70 -330h-20l70 330q6 29 6 54q0 124 -145 124q-99 0 -165 -50
t-86 -142l-67 -316h-20z" />
    <glyph glyph-name="n" unicode="n" horiz-adv-x="593" 
d="M55 0l109 512h20l-25 -115h2q86 131 259 131q194 0 194 -142q0 -29 -8 -64l-68 -322h-20l68 322q8 33 8 59q0 127 -178 127q-139 0 -215 -86q-48 -54 -65 -135l-61 -287h-20z" />
    <glyph glyph-name="o" unicode="o" horiz-adv-x="612" 
d="M78 256q26 119 119 195.5t221 76.5q110 0 171 -56.5t61 -150.5q0 -31 -8 -65q-25 -119 -117 -194q-94 -78 -222 -78q-110 0 -172 58q-60 55 -60 149q0 31 7 65zM98 256q-6 -31 -6 -60q0 -85 53 -136q57 -56 162 -56q123 0 211 75q82 70 104 177q7 31 7 60q0 85 -53 136
q-57 56 -162 56q-124 0 -212 -75q-81 -70 -104 -177z" />
    <glyph glyph-name="p" unicode="p" horiz-adv-x="612" 
d="M129 256q-7 -35 -7 -68q0 -82 46 -130q52 -54 154 -54q123 0 205 77q73 68 95 175q8 35 8 68q0 82 -46 130q-53 54 -155 54q-123 0 -205 -77q-72 -68 -95 -175zM12 -202l152 714h20l-30 -138h2q91 154 277 154q110 0 166 -58q51 -52 51 -142q0 -34 -8 -72
q-24 -117 -104 -190q-89 -82 -220 -82q-188 0 -211 155h-2l-73 -341h-20z" />
    <glyph glyph-name="q" unicode="q" horiz-adv-x="612" 
d="M98 256q-7 -35 -7 -68q0 -82 46 -130q52 -54 155 -54q123 0 204 77q73 68 95 175q8 35 8 68q0 82 -46 130q-52 54 -154 54q-123 0 -205 -77q-73 -68 -96 -175zM494 -202l73 341h-2q-90 -155 -277 -155q-110 0 -166 58q-52 52 -52 142q0 34 8 72q25 117 105 190
q89 82 220 82q186 0 211 -154h2l30 138h20l-152 -714h-20z" />
    <glyph glyph-name="r" unicode="r" horiz-adv-x="315" 
d="M55 0l109 512h20l-30 -138h2q38 74 107 116q64 38 137 38q13 0 43 -3l-5 -20q-22 3 -43 3q-92 0 -164 -64q-76 -70 -102 -191l-54 -253h-20z" />
    <glyph glyph-name="s" unicode="s" horiz-adv-x="500" 
d="M45 160h20q-2 -20 -2 -36q0 -61 39 -88q45 -32 158 -32q210 0 237 126q3 18 3 32q0 38 -29.5 56t-97.5 27l-151 19q-114 14 -114 95q0 15 4 32q29 137 252 137q94 0 137 -26q47 -28 47 -94q0 -21 -4 -46h-20q4 22 4 40q0 60 -44 84q-40 22 -130 22q-197 0 -222 -117
q-3 -15 -3 -27q0 -67 101 -80l151 -19q75 -9 107.5 -31.5t32.5 -66.5q0 -16 -5 -38q-30 -145 -260 -145q-124 0 -174 39q-40 31 -40 96q0 17 3 41z" />
    <glyph glyph-name="t" unicode="t" horiz-adv-x="296" 
d="M143 96l85 396h-122l4 20h122l37 176h20l-37 -176h149l-4 -20h-149l-85 -397q-4 -20 -4 -33q0 -27 17.5 -37.5t60.5 -10.5q12 0 73 5l-4 -20q-45 -5 -73 -5q-95 0 -95 62q0 16 5 40z" />
    <glyph glyph-name="u" unicode="u" horiz-adv-x="593" 
d="M647 512l-109 -512h-20l24 115l-2 -2q-84 -129 -258 -129q-194 0 -194 142q0 29 7 64l69 322h20l-69 -322q-7 -33 -7 -59q0 -127 178 -127q137 0 214 86q49 55 65 130l62 292h20z" />
    <glyph glyph-name="v" unicode="v" horiz-adv-x="538" 
d="M259 0l-150 512h23l141 -492l351 492h23l-368 -512h-20z" />
    <glyph glyph-name="w" unicode="w" horiz-adv-x="852" 
d="M195 0l-99 512h26l92 -492l305 492h32l95 -492l302 492h26l-317 -512h-30l-96 492l-306 -492h-30z" />
    <glyph glyph-name="x" unicode="x" horiz-adv-x="520" 
d="M-9 0l310 267l-180 245h30l169 -230l267 230h30l-286 -245l198 -267h-29l-187 251l-293 -251h-29z" />
    <glyph glyph-name="y" unicode="y" horiz-adv-x="500" 
d="M250 1l-154 511h26l145 -487l329 487h26l-395 -580q-45 -65 -77.5 -85t-89.5 -20h-40l4 20h46q44 0 71.5 16t58.5 64z" />
    <glyph glyph-name="z" unicode="z" horiz-adv-x="481" 
d="M9 27l531 465h-405l4 20h431l-5 -24l-538 -468h455l-4 -20h-475z" />
    <glyph glyph-name="braceleft" unicode="{" horiz-adv-x="260" 
d="M196 -190h-54q-65 0 -65 61q0 21 7 54l36 167q10 51 10 85q0 73 -46 75l4 20q70 3 104 160l35 167q13 58 33 83q26 32 74 32h54l-4 -20h-54q-39 0 -55.5 -23t-31.5 -90l-33 -156q-28 -133 -104 -163q44 -21 44 -88q0 -32 -9 -75l-33 -156q-10 -47 -10 -69q0 -44 48 -44
h54z" />
    <glyph glyph-name="bar" unicode="|" horiz-adv-x="222" 
d="M98 -16l158 746h20l-158 -746h-20z" />
    <glyph glyph-name="braceright" unicode="}" horiz-adv-x="260" 
d="M176 714h54q64 0 64 -61q0 -21 -7 -54l-35 -167q-11 -51 -11 -85q0 -73 47 -75l-4 -20q-71 -2 -104 -160l-36 -167q-12 -58 -33 -83q-25 -32 -73 -32h-54l4 20h54q38 0 55 23t31 90l33 156q28 133 105 163q-45 21 -45 88q0 32 9 75l33 156q11 47 11 69q0 44 -48 44h-54z
" />
    <glyph glyph-name="asciitilde" unicode="~" horiz-adv-x="600" 
d="M137 205v0l-11 14q66 79 138 79q52 0 107 -34t92 -34q19 0 47 18q34 20 60 53l12 -15q-30 -36 -67 -57q-33 -19 -56 -19q-43 0 -97 34t-102 34q-34 0 -60.5 -16t-62.5 -57z" />
    <glyph glyph-name="uni20AC" 
d="M771 664q-75 54 -178 54q-134 0 -241 -80q-103 -77 -152 -205h-80l-16 -20h89q-15 -44 -24 -95h-73l-16 -20h87q-3 -24 -3 -44q0 -128 71.5 -198.5t199.5 -70.5q112 0 216 68l6 25q-59 -38 -103 -55q-51 -19 -115 -19q-120 0 -185.5 68t-65.5 188q0 5 0.5 14.5t1.5 23.5
h365l16 20h-378q4 23 9.5 46.5t13.5 48.5h404l16 20h-413q43 117 142 192q98 73 223 73q99 0 170 -50z" />
    <glyph glyph-name="uni20AC" unicode="&#x20ac;" 
d="M771 664q-75 54 -178 54q-134 0 -241 -80q-103 -77 -152 -205h-80l-16 -20h89q-15 -44 -24 -95h-73l-16 -20h87q-3 -24 -3 -44q0 -128 71.5 -198.5t199.5 -70.5q112 0 216 68l6 25q-59 -38 -103 -55q-51 -19 -115 -19q-120 0 -185.5 68t-65.5 188q0 5 0.5 14.5t1.5 23.5
h365l16 20h-378q4 23 9.5 46.5t13.5 48.5h404l16 20h-413q43 117 142 192q98 73 223 73q99 0 170 -50z" />
    <glyph glyph-name="nonbreakingspace" unicode="&#xa0;" horiz-adv-x="324" 
 />
    <glyph glyph-name="exclamdown" unicode="&#xa1;" horiz-adv-x="222" 
d="M61 -186l114 532h20l-114 -532h-20zM193 432l20 96h20l-20 -96h-20z" />
    <glyph glyph-name="cent" unicode="&#xa2;" 
d="M317 5l107 502q-118 -4 -202 -79q-78 -69 -100 -172q-6 -31 -6 -59q0 -83 49 -133q54 -55 152 -59zM291 -118l22 103q-104 4 -161 60t-57 146q0 31 7 65q25 116 113.5 191.5t212.5 79.5l22 103h20l-22 -102q109 -1 167 -47.5t56 -128.5h-20q-3 153 -207 156l-107 -504
q200 3 280 170h20q-87 -187 -304 -190l-22 -102h-20z" />
    <glyph glyph-name="sterling" unicode="&#xa3;" 
d="M227 328h-91l4 20h81q-13 38 -25 75q-14 44 -14 79q0 21 5 42q17 83 92.5 129.5t185.5 46.5q229 0 229 -161q0 -33 -9 -73l-3 -14h-20q11 49 11 84q0 72 -46 106q-50 38 -166 38q-93 0 -159 -35q-79 -42 -96 -123q-4 -18 -4 -37q0 -33 15 -78q23 -75 24 -79h240l-4 -20
h-230q12 -57 1 -105q-18 -89 -176 -216h2q61 31 83.5 38t58.5 7q38 0 109.5 -24t109.5 -24q74 0 172 90l11 -16q-109 -94 -187 -94q-38 0 -110 24t-109 24q-65 0 -154 -48l-11 16q162 132 182 224q10 51 -2 104z" />
    <glyph glyph-name="currency" unicode="&#xa4;" 
d="M115 130l65 54q-36 49 -36 115q0 26 6 53q20 97 102 168l-43 54l18 15l43 -54q85 66 182 66q99 0 154 -66l65 54l12 -15l-65 -54q35 -50 35 -116q0 -126 -107 -220l43 -54l-19 -15l-42 54q-83 -66 -182 -66q-97 0 -154 66l-66 -54zM170 352q-5 -24 -5 -47
q0 -79 52 -130.5t133 -51.5q95 0 176.5 67.5t101.5 161.5q5 24 5 47q0 79 -52 130.5t-134 51.5q-94 0 -175.5 -67t-101.5 -162z" />
    <glyph glyph-name="yen" unicode="&#xa5;" 
d="M314 0l40 186h-224l4 20h224l20 95l-5 9h-217l4 20h201l-214 374h29l213 -374h11l372 374h29l-374 -374h201l-4 -20h-217l-9 -9l-20 -95h224l-4 -20h-224l-40 -186h-20z" />
    <glyph glyph-name="brokenbar" unicode="&#xa6;" horiz-adv-x="222" 
d="M98 -16l57 270h20l-57 -270h-20zM199 460l57 270h20l-57 -270h-20z" />
    <glyph glyph-name="section" unicode="&#xa7;" 
d="M118 37h20q-8 -36 -8 -60q0 -52 35 -78q41 -29 137 -29q81 0 135 28q69 36 69 109q0 52 -63 86l-250 134q-70 38 -70 97q0 12 3 25q26 120 172 145v2q-55 27 -55 76q0 13 3 27q28 131 218 131q102 0 145 -33q36 -28 36 -84q0 -25 -7 -62h-20q7 33 7 56q0 52 -35 76
q-39 27 -131 27q-169 0 -193 -111q-2 -13 -2 -23q0 -25 21.5 -45t82.5 -54l206 -113q76 -42 76 -95q0 -69 -52.5 -117t-122.5 -51v-3q52 -32 52 -85q0 -84 -75 -127q-61 -36 -152 -36q-101 0 -145.5 30t-44.5 94q0 27 8 63zM529 366l-214 114q-51 -4 -99 -34
q-57 -36 -68 -90q-4 -17 -4 -28q0 -31 26.5 -55t100.5 -64l176 -94q79 3 127 40q42 32 53 84q3 13 3 24q0 29 -22.5 51t-78.5 52z" />
    <glyph glyph-name="dieresis" unicode="&#xa8;" horiz-adv-x="130" 
d="M304 595h-20l24 109h20zM98 595h-20l24 109h20z" />
    <glyph glyph-name="copyright" unicode="&#xa9;" horiz-adv-x="800" 
d="M638 281h20q-26 -73 -85 -116.5t-137 -43.5q-86 0 -134 47.5t-48 127.5q0 29 7 62q23 108 96 171t177 63q77 0 120 -40.5t37 -113.5h-20q3 66 -34.5 100t-105.5 34q-97 0 -163 -57.5t-87 -155.5q-6 -31 -6 -59q0 -72 43 -115.5t122 -43.5q144 0 198 140zM103 357
q33 155 165.5 264t286.5 109q133 0 217.5 -83.5t84.5 -211.5q0 -38 -8 -78q-33 -154 -165.5 -263.5t-286.5 -109.5q-134 0 -218.5 83.5t-84.5 211.5q0 38 9 78zM123 357q-8 -37 -8 -74q0 -121 80 -200t206 -79q146 0 271.5 103.5t156.5 249.5q8 37 8 74q0 121 -80 200
t-206 79q-146 0 -271.5 -103.5t-156.5 -249.5z" />
    <glyph glyph-name="ordfeminine" unicode="&#xaa;" horiz-adv-x="372" 
d="M454 636l-40 -191q-3 -14 -3 -19q0 -10 18 -10q13 0 32 4l-3 -14q-17 -4 -33 -4q-29 0 -29 21q0 5 1 12l7 33h-2q-54 -78 -175 -78q-120 0 -120 78q0 11 2 23q17 80 125 84l97 4q64 3 84 12q17 8 23 33l2 13q2 8 2 14q0 57 -125 57q-68 0 -103 -21t-49 -71h-14
q16 60 60 85q37 21 103 21q77 0 110 -15t33 -49q0 -10 -3 -22zM416 523l13 60h-2q-10 -14 -99 -18l-94 -4q-47 -2 -77 -22q-37 -25 -37 -69q0 -31 30 -49q27 -17 74 -17q86 0 142 44q41 32 50 75z" />
    <glyph glyph-name="guillemotleft" unicode="&#xab;" horiz-adv-x="389" 
d="M130 275l148 138l-6 -25l-129 -122l78 -122l-6 -25l-88 138zM241 275l148 138l-6 -25l-129 -122l78 -122l-6 -25l-88 138z" />
    <glyph glyph-name="logicalnot" unicode="&#xac;" horiz-adv-x="600" 
d="M556 108l49 232h-486l5 20h506l-54 -252h-20z" />
    <glyph glyph-name="uni00AD" unicode="&#xad;" horiz-adv-x="600" 
d="M605 243h-506l4 20h506z" />
    <glyph glyph-name="registered" unicode="&#xae;" horiz-adv-x="800" 
d="M293 136l94 442h175q113 0 113 -88q0 -16 -4 -34q-21 -99 -137 -116l89 -204h-26l-89 204h-152l-43 -204h-20zM403 558l-42 -198h149q121 0 141 97q3 15 3 29q0 72 -91 72h-160zM103 357q33 155 165.5 264t286.5 109q133 0 217.5 -83.5t84.5 -211.5q0 -38 -8 -78
q-33 -154 -165.5 -263.5t-286.5 -109.5q-134 0 -218.5 83.5t-84.5 211.5q0 38 9 78zM123 357q-8 -37 -8 -74q0 -121 80 -200t206 -79q146 0 271.5 103.5t156.5 249.5q8 37 8 74q0 121 -80 200t-206 79q-146 0 -271.5 -103.5t-156.5 -249.5z" />
    <glyph glyph-name="macron" unicode="&#xaf;" horiz-adv-x="130" 
d="M389 639h-376l4 20h376z" />
    <glyph glyph-name="degree" unicode="&#xb0;" horiz-adv-x="400" 
d="M353 720q51 0 83.5 -32t32.5 -81q0 -67 -54.5 -120t-122.5 -53q-51 0 -83.5 32t-32.5 81q0 67 54.5 120t122.5 53zM197 551q0 -42 28 -69.5t72 -27.5q58 0 104.5 45.5t46.5 103.5q0 42 -27.5 69.5t-71.5 27.5q-59 0 -105.5 -45.5t-46.5 -103.5z" />
    <glyph glyph-name="plusminus" unicode="&#xb1;" horiz-adv-x="600" 
d="M355 306l43 200h20l-43 -200h243l-4 -20h-243l-43 -200h-20l43 200h-243l4 20h243zM47 0l4 20h506l-4 -20h-506z" />
    <glyph glyph-name="twosuperior" unicode="&#xb2;" horiz-adv-x="421" 
d="M170 572h-14q14 61 41 92q50 58 155 58q131 0 131 -96t-126 -156l-132 -63q-100 -47 -122 -107h327l-3 -14h-341q11 47 45 77q29 26 103 62l137 66q81 39 95 106q3 14 3 27q0 84 -127 84q-144 0 -172 -136z" />
    <glyph glyph-name="threesuperior" unicode="&#xb3;" horiz-adv-x="421" 
d="M286 520h27q146 0 164 88q3 12 3 22q0 78 -126 78q-83 0 -125.5 -31.5t-61.5 -98.5h-14q37 144 204 144q138 0 138 -87q0 -53 -40 -86q-36 -30 -92 -35v-2q97 -10 97 -85q0 -13 -3 -29q-11 -48 -54 -81q-56 -43 -152 -43q-151 0 -151 107q0 16 4 35l3 13h14l-2 -9
q-4 -19 -4 -35q0 -97 140 -97q87 0 139 39q40 30 49 72q3 13 3 25q0 82 -134 82h-29z" />
    <glyph glyph-name="acute" unicode="&#xb4;" horiz-adv-x="130" 
d="M125 589l194 139h32l-198 -139h-28z" />
    <glyph glyph-name="mu" unicode="&#xb5;" horiz-adv-x="593" 
d="M647 512l-109 -512h-20l24 115l-2 -2q-84 -129 -258 -129q-89 0 -139 31q-41 25 -49 66l1 4h-2l-61 -287h-20l152 714h20l-69 -322q-7 -33 -7 -59q0 -127 178 -127q137 0 214 86q49 55 65 130l62 292h20z" />
    <glyph glyph-name="paragraph" unicode="&#xb6;" horiz-adv-x="600" 
d="M245 -134l97 458q-71 0 -116.5 44.5t-45.5 111.5q0 19 4 38q20 95 88 145.5t169 50.5h199l-180 -848h-20l176 828h-175l-176 -828h-20zM346 344l75 350q-81 0 -140 -46t-77 -130q-4 -17 -4 -34q0 -59 41.5 -99.5t104.5 -40.5z" />
    <glyph glyph-name="periodcentered" unicode="&#xb7;" horiz-adv-x="168" 
d="M115 332q3 16 17.5 28t30.5 12q17 0 26 -12t6 -28q-4 -16 -18 -28t-31 -12q-16 0 -25.5 11.5t-5.5 28.5z" />
    <glyph glyph-name="periodcentered" unicode="&#x2219;" horiz-adv-x="168" 
d="M115 332q3 16 17.5 28t30.5 12q17 0 26 -12t6 -28q-4 -16 -18 -28t-31 -12q-16 0 -25.5 11.5t-5.5 28.5z" />
    <glyph glyph-name="cedilla" unicode="&#xb8;" horiz-adv-x="278" 
d="M48 -76l84 75h26l-69 -59l2 -2q34 8 52 8q70 0 70 -48q0 -6 -1 -13q-16 -75 -120 -75q-63 0 -112 21l12 19q44 -20 104 -20q84 0 95 54q9 42 -53 42q-48 0 -76 -14z" />
    <glyph glyph-name="onesuperior" unicode="&#xb9;" horiz-adv-x="388" 
d="M265 286l87 410q-68 -58 -165 -79l3 14q97 21 159 79h20l-90 -424h-14z" />
    <glyph glyph-name="ordmasculine" unicode="&#xba;" horiz-adv-x="398" 
d="M134 556q16 73 75.5 119.5t142.5 46.5q72 0 112 -35.5t40 -93.5q0 -18 -4 -37q-15 -73 -75 -119.5t-143 -46.5q-72 0 -112 35.5t-40 93.5q0 18 4 37zM144 522q0 -52 36.5 -85t104.5 -33q82 0 143.5 52.5t61.5 133.5q0 52 -36 85t-105 33q-82 0 -142 -51q-63 -54 -63 -135
z" />
    <glyph glyph-name="guillemotright" unicode="&#xbb;" horiz-adv-x="389" 
d="M287 413l88 -138l-3 -18l-148 -138l6 25l130 122l-79 122zM176 413l88 -138l-3 -18l-148 -138l6 25l130 122l-79 122z" />
    <glyph glyph-name="onequarter" unicode="&#xbc;" horiz-adv-x="972" 
d="M808 0l24 112h-258l3 17l315 295h20l-63 -298h94l-3 -14h-94l-24 -112h-14zM895 410l-304 -284h244zM265 286l87 410q-68 -58 -165 -79l3 14q97 21 159 79h20l-90 -424h-14zM174 -24l638 752h20l-638 -752h-20z" />
    <glyph glyph-name="onehalf" unicode="&#xbd;" horiz-adv-x="972" 
d="M265 286l87 410q-68 -58 -165 -79l3 14q97 21 159 79h20l-90 -424h-14zM916 0h-341q11 47 45 77q29 26 104 62l137 66q80 39 94 106q3 14 3 27q0 84 -126 84q-144 0 -173 -136h-14q14 61 41 92q50 58 156 58q131 0 131 -96t-127 -156l-132 -63q-100 -47 -122 -107h327z
M174 -24l638 752h20l-638 -752h-20z" />
    <glyph glyph-name="threequarters" unicode="&#xbe;" horiz-adv-x="972" 
d="M808 0l24 112h-258l3 17l315 295h20l-63 -298h94l-3 -14h-94l-24 -112h-14zM895 410l-304 -284h244zM326 520h27q146 0 164 88q3 12 3 22q0 78 -126 78q-83 0 -125.5 -31.5t-61.5 -98.5h-14q37 144 204 144q138 0 138 -87q0 -53 -40 -86q-36 -30 -92 -35v-2
q97 -10 97 -85q0 -13 -3 -29q-11 -48 -54 -81q-56 -43 -152 -43q-151 0 -151 107q0 16 4 35l3 13h14l-2 -9q-4 -19 -4 -35q0 -97 140 -97q87 0 139 39q40 30 49 72q3 13 3 25q0 82 -134 82h-29zM260 -24l638 752h20l-638 -752h-20z" />
    <glyph glyph-name="questiondown" unicode="&#xbf;" horiz-adv-x="611" 
d="M365 303l9 42h20l-6 -28q-13 -65 -29 -87q-19 -26 -82 -62l-80 -45q-60 -34 -85.5 -66.5t-35.5 -80.5q-4 -20 -4 -38q0 -120 199 -120q141 0 209 66q49 47 73 151h20q-26 -109 -75 -160q-75 -77 -231 -77q-216 0 -216 135q0 20 5 42q12 57 41 93q27 33 86 67l98 57
q46 27 60.5 46t23.5 65zM393 432l20 96h20l-20 -96h-20z" />
    <glyph glyph-name="Agrave" unicode="&#xc0;" 
d="M-17 0l480 714h26l176 -714h-26l-57 236h-416l-157 -236h-26zM472 694l-293 -438h398zM524 766l-138 139h32l134 -139h-28z" />
    <glyph glyph-name="Aacute" unicode="&#xc1;" 
d="M-17 0l480 714h26l176 -714h-26l-57 236h-416l-157 -236h-26zM472 694l-293 -438h398zM422 766l194 139h32l-198 -139h-28z" />
    <glyph glyph-name="Acircumflex" unicode="&#xc2;" 
d="M-17 0l480 714h26l176 -714h-26l-57 236h-416l-157 -236h-26zM472 694l-293 -438h398zM306 766l195 139h32l135 -139h-32l-122 125l-176 -125h-32z" />
    <glyph glyph-name="Atilde" unicode="&#xc3;" 
d="M-17 0l480 714h26l176 -714h-26l-57 236h-416l-157 -236h-26zM472 694l-293 -438h398zM350 800v0h-20q30 81 108 81q21 0 40 -11l67 -39q19 -11 37 -11q50 0 74 61h20q-28 -81 -100 -81q-21 0 -42 12l-66 38q-19 11 -38 11q-56 0 -80 -61z" />
    <glyph glyph-name="Adieresis" unicode="&#xc4;" 
d="M-17 0l480 714h26l176 -714h-26l-57 236h-416l-157 -236h-26zM472 694l-293 -438h398zM601 772h-20l24 109h20zM395 772h-20l24 109h20z" />
    <glyph glyph-name="Aring" unicode="&#xc5;" 
d="M-17 0l480 714h26l176 -714h-26l-57 236h-416l-157 -236h-26zM472 694l-293 -438h398zM524 937q34 0 55.5 -21.5t21.5 -54.5q0 -45 -36.5 -80.5t-81.5 -35.5q-35 0 -56.5 21.5t-21.5 54.5q0 45 36.5 80.5t82.5 35.5zM425 825q0 -26 17.5 -43t44.5 -17q36 0 65 28t29 64
q0 26 -17 43t-45 17q-36 0 -65 -28t-29 -64z" />
    <glyph glyph-name="AE" unicode="&#xc6;" horiz-adv-x="1037" 
d="M-25 0l620 714h586l-4 -20h-492l-67 -312h453l-4 -20h-453l-73 -342h492l-4 -20h-512l59 278h-335l-240 -278h-26zM601 694l-343 -396h322l85 396h-64z" />
    <glyph glyph-name="Ccedilla" unicode="&#xc7;" horiz-adv-x="796" 
d="M794 271h20q-44 -134 -169 -214q-113 -71 -245 -73l-52 -44l2 -2q34 8 52 8q70 0 70 -48q0 -6 -1 -13q-16 -75 -120 -75q-63 0 -112 21l12 19q44 -20 104 -20q84 0 95 54q9 42 -53 42q-48 0 -76 -14l-14 12l68 61q-127 5 -203 78q-79 75 -79 201q0 44 11 93
q36 172 167 275q124 98 282 98q132 0 208 -54q82 -58 86 -170h-20q-3 90 -67 143q-73 61 -211 61q-147 0 -264 -91q-126 -97 -161 -262q-10 -46 -10 -89q0 -125 82 -196q78 -68 203 -68q139 0 253 81q110 77 142 186z" />
    <glyph glyph-name="Egrave" unicode="&#xc8;" horiz-adv-x="630" 
d="M55 0l152 714h556l-4 -20h-536l-67 -312h513l-4 -20h-513l-73 -342h542l-4 -20h-562zM515 766l-138 139h32l134 -139h-28z" />
    <glyph glyph-name="Eacute" unicode="&#xc9;" horiz-adv-x="630" 
d="M55 0l152 714h556l-4 -20h-536l-67 -312h513l-4 -20h-513l-73 -342h542l-4 -20h-562zM413 766l194 139h32l-198 -139h-28z" />
    <glyph glyph-name="Ecircumflex" unicode="&#xca;" horiz-adv-x="630" 
d="M55 0l152 714h556l-4 -20h-536l-67 -312h513l-4 -20h-513l-73 -342h542l-4 -20h-562zM297 766l195 139h32l135 -139h-32l-122 125l-176 -125h-32z" />
    <glyph glyph-name="Edieresis" unicode="&#xcb;" horiz-adv-x="630" 
d="M55 0l152 714h556l-4 -20h-536l-67 -312h513l-4 -20h-513l-73 -342h542l-4 -20h-562zM592 772h-20l24 109h20zM386 772h-20l24 109h20z" />
    <glyph glyph-name="Igrave" unicode="&#xcc;" horiz-adv-x="130" 
d="M55 0l152 714h20l-152 -714h-20zM265 766l-138 139h32l134 -139h-28z" />
    <glyph glyph-name="Iacute" unicode="&#xcd;" horiz-adv-x="130" 
d="M55 0l152 714h20l-152 -714h-20zM163 766l194 139h32l-198 -139h-28z" />
    <glyph glyph-name="Icircumflex" unicode="&#xce;" horiz-adv-x="130" 
d="M55 0l152 714h20l-152 -714h-20zM47 766l195 139h32l135 -139h-32l-122 125l-176 -125h-32z" />
    <glyph glyph-name="Idieresis" unicode="&#xcf;" horiz-adv-x="130" 
d="M55 0l152 714h20l-152 -714h-20zM342 772h-20l24 109h20zM136 772h-20l24 109h20z" />
    <glyph glyph-name="Eth" unicode="&#xd0;" horiz-adv-x="741" 
d="M55 0l77 362h-76l4 20h76l71 332h348q116 0 177 -65q58 -63 58 -176q0 -54 -13 -116q-35 -164 -130 -258q-100 -99 -244 -99h-348zM152 362l-73 -342h328q144 0 238 104q81 88 112 233q12 58 12 110q0 103 -49 161q-56 66 -169 66h-328l-67 -312h331l-4 -20h-331z" />
    <glyph glyph-name="Ntilde" unicode="&#xd1;" horiz-adv-x="722" 
d="M55 0l152 714h26l418 -688h2l146 688h20l-152 -714h-26l-418 688h-2l-146 -688h-20zM387 800v0h-20q30 81 108 81q21 0 40 -11l67 -39q19 -11 37 -11q50 0 74 61h20q-28 -81 -100 -81q-21 0 -42 12l-66 38q-19 11 -38 11q-56 0 -80 -61z" />
    <glyph glyph-name="Ograve" unicode="&#xd2;" horiz-adv-x="796" 
d="M104 357q36 172 167 275q124 98 282 98q135 0 216 -73q85 -76 85 -207q0 -44 -10 -93q-37 -172 -167 -275q-124 -98 -282 -98q-135 0 -217 73q-85 76 -85 207q0 44 11 93zM124 357q-10 -46 -10 -89q0 -125 82 -196q78 -68 203 -68q147 0 264 91q126 97 161 262
q10 46 10 89q0 125 -83 196q-77 68 -202 68q-147 0 -264 -91q-126 -97 -161 -262zM598 766l-138 139h32l134 -139h-28z" />
    <glyph glyph-name="Oacute" unicode="&#xd3;" horiz-adv-x="796" 
d="M104 357q36 172 167 275q124 98 282 98q135 0 216 -73q85 -76 85 -207q0 -44 -10 -93q-37 -172 -167 -275q-124 -98 -282 -98q-135 0 -217 73q-85 76 -85 207q0 44 11 93zM124 357q-10 -46 -10 -89q0 -125 82 -196q78 -68 203 -68q147 0 264 91q126 97 161 262
q10 46 10 89q0 125 -83 196q-77 68 -202 68q-147 0 -264 -91q-126 -97 -161 -262zM496 766l194 139h32l-198 -139h-28z" />
    <glyph glyph-name="Ocircumflex" unicode="&#xd4;" horiz-adv-x="796" 
d="M104 357q36 172 167 275q124 98 282 98q135 0 216 -73q85 -76 85 -207q0 -44 -10 -93q-37 -172 -167 -275q-124 -98 -282 -98q-135 0 -217 73q-85 76 -85 207q0 44 11 93zM124 357q-10 -46 -10 -89q0 -125 82 -196q78 -68 203 -68q147 0 264 91q126 97 161 262
q10 46 10 89q0 125 -83 196q-77 68 -202 68q-147 0 -264 -91q-126 -97 -161 -262zM380 766l195 139h32l135 -139h-32l-122 125l-176 -125h-32z" />
    <glyph glyph-name="Otilde" unicode="&#xd5;" horiz-adv-x="796" 
d="M104 357q36 172 167 275q124 98 282 98q135 0 216 -73q85 -76 85 -207q0 -44 -10 -93q-37 -172 -167 -275q-124 -98 -282 -98q-135 0 -217 73q-85 76 -85 207q0 44 11 93zM124 357q-10 -46 -10 -89q0 -125 82 -196q78 -68 203 -68q147 0 264 91q126 97 161 262
q10 46 10 89q0 125 -83 196q-77 68 -202 68q-147 0 -264 -91q-126 -97 -161 -262zM424 800v0h-20q30 81 108 81q21 0 40 -11l67 -39q19 -11 37 -11q50 0 74 61h20q-28 -81 -100 -81q-21 0 -42 12l-66 38q-19 11 -38 11q-56 0 -80 -61z" />
    <glyph glyph-name="Odieresis" unicode="&#xd6;" horiz-adv-x="796" 
d="M104 357q36 172 167 275q124 98 282 98q135 0 216 -73q85 -76 85 -207q0 -44 -10 -93q-37 -172 -167 -275q-124 -98 -282 -98q-135 0 -217 73q-85 76 -85 207q0 44 11 93zM124 357q-10 -46 -10 -89q0 -125 82 -196q78 -68 203 -68q147 0 264 91q126 97 161 262
q10 46 10 89q0 125 -83 196q-77 68 -202 68q-147 0 -264 -91q-126 -97 -161 -262zM675 772h-20l24 109h20zM469 772h-20l24 109h20z" />
    <glyph glyph-name="multiply" unicode="&#xd7;" horiz-adv-x="600" 
d="M89 46l252 207l-164 207l17 14l163 -208l251 208l11 -14l-252 -207l164 -207l-17 -14l-163 208l-251 -208z" />
    <glyph glyph-name="Oslash" unicode="&#xd8;" horiz-adv-x="796" 
d="M163 109l613 509q-80 92 -227 92t-264 -91q-126 -97 -161 -262q-10 -47 -10 -89q0 -95 49 -159zM786 606l-612 -509q76 -93 225 -93q147 0 264 91q126 97 161 262q10 47 10 89q0 95 -48 160zM31 -2l114 96q-51 70 -51 170q0 44 10 93q36 172 167 275q124 98 282 98
q159 0 239 -98l116 96l9 -12l-114 -96q51 -70 51 -169q0 -45 -10 -94q-37 -172 -167 -275q-124 -98 -282 -98t-241 97l-114 -95z" />
    <glyph glyph-name="Ugrave" unicode="&#xd9;" horiz-adv-x="722" 
d="M105 261l97 453h20l-97 -455q-9 -41 -9 -75q0 -180 246 -180q291 0 345 255l97 455h20l-97 -453q-58 -277 -369 -277q-262 0 -262 196q0 37 9 81zM561 766l-138 139h32l134 -139h-28z" />
    <glyph glyph-name="Uacute" unicode="&#xda;" horiz-adv-x="722" 
d="M105 261l97 453h20l-97 -455q-9 -41 -9 -75q0 -180 246 -180q291 0 345 255l97 455h20l-97 -453q-58 -277 -369 -277q-262 0 -262 196q0 37 9 81zM459 766l194 139h32l-198 -139h-28z" />
    <glyph glyph-name="Ucircumflex" unicode="&#xdb;" horiz-adv-x="722" 
d="M105 261l97 453h20l-97 -455q-9 -41 -9 -75q0 -180 246 -180q291 0 345 255l97 455h20l-97 -453q-58 -277 -369 -277q-262 0 -262 196q0 37 9 81zM343 766l195 139h32l135 -139h-32l-122 125l-176 -125h-32z" />
    <glyph glyph-name="Udieresis" unicode="&#xdc;" horiz-adv-x="722" 
d="M105 261l97 453h20l-97 -455q-9 -41 -9 -75q0 -180 246 -180q291 0 345 255l97 455h20l-97 -453q-58 -277 -369 -277q-262 0 -262 196q0 37 9 81zM638 772h-20l24 109h20zM432 772h-20l24 109h20z" />
    <glyph glyph-name="Yacute" unicode="&#xdd;" horiz-adv-x="630" 
d="M305 0l64 301l-249 413h29l235 -391l401 391h29l-425 -413l-64 -301h-20zM413 766l194 139h32l-198 -139h-28z" />
    <glyph glyph-name="Thorn" unicode="&#xde;" 
d="M55 0l152 714h20l-30 -142h362q163 0 163 -134q0 -119 -75 -187t-199 -68h-334l-39 -183h-20zM192 552l-74 -349h339q99 0 160 46t78 128q7 30 7 55q0 120 -142 120h-368z" />
    <glyph glyph-name="germandbls" unicode="&#xdf;" horiz-adv-x="574" 
d="M55 0l111 524q24 112 97 161q65 43 186 43q190 0 190 -129q0 -20 -5 -42q-17 -79 -84 -121q-51 -32 -111 -34v-2q166 -1 166 -141q0 -25 -7 -55q-17 -83 -77 -139q-75 -71 -194 -71q-52 0 -83 12l5 20q37 -12 82 -12q108 0 180.5 67.5t72.5 172.5q0 136 -194 136h-48
l4 20h21q216 0 248 148q4 19 4 36q0 114 -175 114q-120 0 -178.5 -43.5t-79.5 -144.5l-111 -520h-20z" />
    <glyph glyph-name="agrave" unicode="&#xe0;" horiz-adv-x="564" 
d="M592 27l-5 -20q-18 -7 -48 -7q-45 0 -45 35q0 7 2 16l13 61h-2q-90 -128 -283 -128q-174 0 -174 119q0 17 4 36q29 138 197 144l170 6q82 3 107 16.5t35 60.5l6 28q3 13 3 25q0 89 -191 89q-109 0 -161.5 -34t-76.5 -117h-20q25 97 96 137q60 34 166 34q207 0 207 -103
q0 -14 -3 -30l-71 -332q-2 -13 -2 -21q0 -22 27 -22q23 0 49 7zM529 205l20 95h-2q-21 -26 -141 -31l-157 -6q-150 -6 -176 -125q-3 -15 -3 -29q0 -52 45 -79q41 -26 114 -26q125 0 207 60q74 54 93 141zM444 589l-138 139h32l134 -139h-28z" />
    <glyph glyph-name="aacute" unicode="&#xe1;" horiz-adv-x="564" 
d="M592 27l-5 -20q-18 -7 -48 -7q-45 0 -45 35q0 7 2 16l13 61h-2q-90 -128 -283 -128q-174 0 -174 119q0 17 4 36q29 138 197 144l170 6q82 3 107 16.5t35 60.5l6 28q3 13 3 25q0 89 -191 89q-109 0 -161.5 -34t-76.5 -117h-20q25 97 96 137q60 34 166 34q207 0 207 -103
q0 -14 -3 -30l-71 -332q-2 -13 -2 -21q0 -22 27 -22q23 0 49 7zM529 205l20 95h-2q-21 -26 -141 -31l-157 -6q-150 -6 -176 -125q-3 -15 -3 -29q0 -52 45 -79q41 -26 114 -26q125 0 207 60q74 54 93 141zM342 589l194 139h32l-198 -139h-28z" />
    <glyph glyph-name="acircumflex" unicode="&#xe2;" horiz-adv-x="564" 
d="M592 27l-5 -20q-18 -7 -48 -7q-45 0 -45 35q0 7 2 16l13 61h-2q-90 -128 -283 -128q-174 0 -174 119q0 17 4 36q29 138 197 144l170 6q82 3 107 16.5t35 60.5l6 28q3 13 3 25q0 89 -191 89q-109 0 -161.5 -34t-76.5 -117h-20q25 97 96 137q60 34 166 34q207 0 207 -103
q0 -14 -3 -30l-71 -332q-2 -13 -2 -21q0 -22 27 -22q23 0 49 7zM529 205l20 95h-2q-21 -26 -141 -31l-157 -6q-150 -6 -176 -125q-3 -15 -3 -29q0 -52 45 -79q41 -26 114 -26q125 0 207 60q74 54 93 141zM226 589l195 139h32l135 -139h-32l-122 125l-176 -125h-32z" />
    <glyph glyph-name="atilde" unicode="&#xe3;" horiz-adv-x="564" 
d="M592 27l-5 -20q-18 -7 -48 -7q-45 0 -45 35q0 7 2 16l13 61h-2q-90 -128 -283 -128q-174 0 -174 119q0 17 4 36q29 138 197 144l170 6q82 3 107 16.5t35 60.5l6 28q3 13 3 25q0 89 -191 89q-109 0 -161.5 -34t-76.5 -117h-20q25 97 96 137q60 34 166 34q207 0 207 -103
q0 -14 -3 -30l-71 -332q-2 -13 -2 -21q0 -22 27 -22q23 0 49 7zM529 205l20 95h-2q-21 -26 -141 -31l-157 -6q-150 -6 -176 -125q-3 -15 -3 -29q0 -52 45 -79q41 -26 114 -26q125 0 207 60q74 54 93 141zM270 623v0h-20q30 81 108 81q21 0 40 -11l67 -39q19 -11 37 -11
q50 0 74 61h20q-28 -81 -100 -81q-21 0 -42 12l-66 38q-19 11 -38 11q-56 0 -80 -61z" />
    <glyph glyph-name="adieresis" unicode="&#xe4;" horiz-adv-x="564" 
d="M592 27l-5 -20q-18 -7 -48 -7q-45 0 -45 35q0 7 2 16l13 61h-2q-90 -128 -283 -128q-174 0 -174 119q0 17 4 36q29 138 197 144l170 6q82 3 107 16.5t35 60.5l6 28q3 13 3 25q0 89 -191 89q-109 0 -161.5 -34t-76.5 -117h-20q25 97 96 137q60 34 166 34q207 0 207 -103
q0 -14 -3 -30l-71 -332q-2 -13 -2 -21q0 -22 27 -22q23 0 49 7zM529 205l20 95h-2q-21 -26 -141 -31l-157 -6q-150 -6 -176 -125q-3 -15 -3 -29q0 -52 45 -79q41 -26 114 -26q125 0 207 60q74 54 93 141zM521 595h-20l24 109h20zM315 595h-20l24 109h20z" />
    <glyph glyph-name="aring" unicode="&#xe5;" horiz-adv-x="564" 
d="M592 27l-5 -20q-18 -7 -48 -7q-45 0 -45 35q0 7 2 16l13 61h-2q-90 -128 -283 -128q-174 0 -174 119q0 17 4 36q29 138 197 144l170 6q82 3 107 16.5t35 60.5l6 28q3 13 3 25q0 89 -191 89q-109 0 -161.5 -34t-76.5 -117h-20q25 97 96 137q60 34 166 34q207 0 207 -103
q0 -14 -3 -30l-71 -332q-2 -13 -2 -21q0 -22 27 -22q23 0 49 7zM529 205l20 95h-2q-21 -26 -141 -31l-157 -6q-150 -6 -176 -125q-3 -15 -3 -29q0 -52 45 -79q41 -26 114 -26q125 0 207 60q74 54 93 141zM445 765q34 0 55.5 -21.5t21.5 -54.5q0 -45 -36.5 -80.5t-81.5 -35.5
q-35 0 -56.5 21.5t-21.5 54.5q0 45 36.5 80.5t82.5 35.5zM346 653q0 -26 17.5 -43t44.5 -17q36 0 65 28t29 64q0 26 -17 43t-45 17q-36 0 -65 -28t-29 -64z" />
    <glyph glyph-name="ae" unicode="&#xe6;" horiz-adv-x="1054" 
d="M564 276h515q3 19 3 38q0 84 -51 137q-56 57 -156 57q-118 0 -204 -69q-79 -63 -107 -163zM1094 256h-535q-7 -34 -7 -65q0 -86 53 -135q57 -52 163 -52q197 0 282 174h20q-33 -75 -93 -124q-86 -70 -213 -70q-197 0 -232 167q-44 -85 -132 -128q-79 -39 -176 -39
q-82 0 -128.5 30.5t-46.5 88.5q0 17 4 35q30 139 204 145l164 6q82 3 107 16.5t35 60.5l6 28q3 13 3 25q0 89 -191 89q-109 0 -161.5 -34t-76.5 -117h-20q25 97 96 137q60 34 166 34q207 0 207 -103q0 -14 -3 -30l-6 -29h2q44 75 121 118.5t173 43.5q99 0 161 -54.5
t62 -150.5q0 -32 -8 -67zM529 205l20 95h-2q-20 -25 -154 -31l-134 -6q-162 -7 -186 -127q-3 -14 -3 -27q0 -52 45 -79q41 -26 114 -26q125 0 207 60q74 54 93 141z" />
    <glyph glyph-name="ccedilla" unicode="&#xe7;" 
d="M617 174h20q-87 -190 -310 -190h-1l-52 -44l2 -2q34 8 52 8q70 0 70 -48q0 -6 -1 -13q-16 -75 -120 -75q-63 0 -112 21l12 19q44 -20 104 -20q84 0 95 54q9 42 -53 42q-48 0 -76 -14l-14 12l69 62q-98 6 -152.5 62t-54.5 144q0 31 7 64q26 119 119 195.5t221 76.5
q112 0 171.5 -46.5t57.5 -129.5h-20q-3 156 -213 156q-124 0 -212 -75q-81 -70 -104 -177q-6 -31 -6 -60q0 -85 53 -136q57 -56 162 -56q205 0 286 170z" />
    <glyph glyph-name="egrave" unicode="&#xe8;" horiz-adv-x="593" 
d="M633 256h-535q-6 -31 -6 -60q0 -85 53 -136q57 -56 162 -56q197 0 282 174h20q-33 -75 -93 -124q-86 -70 -213 -70q-110 0 -172 58q-60 55 -60 149q0 31 7 65q26 119 119 195.5t221 76.5q99 0 161 -54.5t62 -150.5q0 -32 -8 -67zM103 276h515q3 19 3 38q0 84 -51 137
q-56 57 -156 57q-118 0 -204 -69q-79 -63 -107 -163zM459 589l-138 139h32l134 -139h-28z" />
    <glyph glyph-name="eacute" unicode="&#xe9;" horiz-adv-x="593" 
d="M633 256h-535q-6 -31 -6 -60q0 -85 53 -136q57 -56 162 -56q197 0 282 174h20q-33 -75 -93 -124q-86 -70 -213 -70q-110 0 -172 58q-60 55 -60 149q0 31 7 65q26 119 119 195.5t221 76.5q99 0 161 -54.5t62 -150.5q0 -32 -8 -67zM103 276h515q3 19 3 38q0 84 -51 137
q-56 57 -156 57q-118 0 -204 -69q-79 -63 -107 -163zM357 589l194 139h32l-198 -139h-28z" />
    <glyph glyph-name="ecircumflex" unicode="&#xea;" horiz-adv-x="593" 
d="M633 256h-535q-6 -31 -6 -60q0 -85 53 -136q57 -56 162 -56q197 0 282 174h20q-33 -75 -93 -124q-86 -70 -213 -70q-110 0 -172 58q-60 55 -60 149q0 31 7 65q26 119 119 195.5t221 76.5q99 0 161 -54.5t62 -150.5q0 -32 -8 -67zM103 276h515q3 19 3 38q0 84 -51 137
q-56 57 -156 57q-118 0 -204 -69q-79 -63 -107 -163zM241 589l195 139h32l135 -139h-32l-122 125l-176 -125h-32z" />
    <glyph glyph-name="edieresis" unicode="&#xeb;" horiz-adv-x="593" 
d="M633 256h-535q-6 -31 -6 -60q0 -85 53 -136q57 -56 162 -56q197 0 282 174h20q-33 -75 -93 -124q-86 -70 -213 -70q-110 0 -172 58q-60 55 -60 149q0 31 7 65q26 119 119 195.5t221 76.5q99 0 161 -54.5t62 -150.5q0 -32 -8 -67zM103 276h515q3 19 3 38q0 84 -51 137
q-56 57 -156 57q-118 0 -204 -69q-79 -63 -107 -163zM536 595h-20l24 109h20zM330 595h-20l24 109h20z" />
    <glyph glyph-name="igrave" unicode="&#xec;" horiz-adv-x="130" 
d="M55 0l109 512h20l-109 -512h-20zM227 589l-138 139h32l134 -139h-28z" />
    <glyph glyph-name="iacute" unicode="&#xed;" horiz-adv-x="130" 
d="M55 0l109 512h20l-109 -512h-20zM125 589l194 139h32l-198 -139h-28z" />
    <glyph glyph-name="icircumflex" unicode="&#xee;" horiz-adv-x="130" 
d="M55 0l109 512h20l-109 -512h-20zM9 589l195 139h32l135 -139h-32l-122 125l-176 -125h-32z" />
    <glyph glyph-name="idieresis" unicode="&#xef;" horiz-adv-x="130" 
d="M55 0l109 512h20l-109 -512h-20zM304 595h-20l24 109h20zM98 595h-20l24 109h20z" />
    <glyph glyph-name="eth" unicode="&#xf0;" horiz-adv-x="612" 
d="M98 256q-6 -31 -6 -60q0 -85 53 -136q57 -56 162 -56q123 0 211 75q82 70 104 177q7 31 7 60q0 85 -53 136q-57 56 -162 56q-124 0 -212 -75q-81 -70 -104 -177zM356 606l-12 15l125 60q-59 33 -142 49l20 20q83 -19 149 -55l128 60l13 -15l-123 -59q145 -95 145 -286
q0 -60 -14 -129q-28 -129 -120 -205.5t-222 -76.5q-110 0 -172 58q-60 55 -60 149q0 31 7 65q26 119 119 195.5t221 76.5q184 0 219 -148l2 2q0 198 -151 287z" />
    <glyph glyph-name="ntilde" unicode="&#xf1;" horiz-adv-x="593" 
d="M55 0l109 512h20l-25 -115h2q86 131 259 131q194 0 194 -142q0 -29 -8 -64l-68 -322h-20l68 322q8 33 8 59q0 127 -178 127q-139 0 -215 -86q-48 -54 -65 -135l-61 -287h-20zM285 623v0h-20q30 81 108 81q21 0 40 -11l67 -39q19 -11 37 -11q50 0 74 61h20
q-28 -81 -100 -81q-21 0 -42 12l-66 38q-19 11 -38 11q-56 0 -80 -61z" />
    <glyph glyph-name="ograve" unicode="&#xf2;" horiz-adv-x="612" 
d="M78 256q26 119 119 195.5t221 76.5q110 0 171 -56.5t61 -150.5q0 -31 -8 -65q-25 -119 -117 -194q-94 -78 -222 -78q-110 0 -172 58q-60 55 -60 149q0 31 7 65zM98 256q-6 -31 -6 -60q0 -85 53 -136q57 -56 162 -56q123 0 211 75q82 70 104 177q7 31 7 60q0 85 -53 136
q-57 56 -162 56q-124 0 -212 -75q-81 -70 -104 -177zM468 589l-138 139h32l134 -139h-28z" />
    <glyph glyph-name="oacute" unicode="&#xf3;" horiz-adv-x="612" 
d="M78 256q26 119 119 195.5t221 76.5q110 0 171 -56.5t61 -150.5q0 -31 -8 -65q-25 -119 -117 -194q-94 -78 -222 -78q-110 0 -172 58q-60 55 -60 149q0 31 7 65zM98 256q-6 -31 -6 -60q0 -85 53 -136q57 -56 162 -56q123 0 211 75q82 70 104 177q7 31 7 60q0 85 -53 136
q-57 56 -162 56q-124 0 -212 -75q-81 -70 -104 -177zM366 589l194 139h32l-198 -139h-28z" />
    <glyph glyph-name="ocircumflex" unicode="&#xf4;" horiz-adv-x="612" 
d="M78 256q26 119 119 195.5t221 76.5q110 0 171 -56.5t61 -150.5q0 -31 -8 -65q-25 -119 -117 -194q-94 -78 -222 -78q-110 0 -172 58q-60 55 -60 149q0 31 7 65zM98 256q-6 -31 -6 -60q0 -85 53 -136q57 -56 162 -56q123 0 211 75q82 70 104 177q7 31 7 60q0 85 -53 136
q-57 56 -162 56q-124 0 -212 -75q-81 -70 -104 -177zM250 589l195 139h32l135 -139h-32l-122 125l-176 -125h-32z" />
    <glyph glyph-name="otilde" unicode="&#xf5;" horiz-adv-x="612" 
d="M78 256q26 119 119 195.5t221 76.5q110 0 171 -56.5t61 -150.5q0 -31 -8 -65q-25 -119 -117 -194q-94 -78 -222 -78q-110 0 -172 58q-60 55 -60 149q0 31 7 65zM98 256q-6 -31 -6 -60q0 -85 53 -136q57 -56 162 -56q123 0 211 75q82 70 104 177q7 31 7 60q0 85 -53 136
q-57 56 -162 56q-124 0 -212 -75q-81 -70 -104 -177zM294 623v0h-20q30 81 108 81q21 0 40 -11l67 -39q19 -11 37 -11q50 0 74 61h20q-28 -81 -100 -81q-21 0 -42 12l-66 38q-19 11 -38 11q-56 0 -80 -61z" />
    <glyph glyph-name="odieresis" unicode="&#xf6;" horiz-adv-x="612" 
d="M78 256q26 119 119 195.5t221 76.5q110 0 171 -56.5t61 -150.5q0 -31 -8 -65q-25 -119 -117 -194q-94 -78 -222 -78q-110 0 -172 58q-60 55 -60 149q0 31 7 65zM98 256q-6 -31 -6 -60q0 -85 53 -136q57 -56 162 -56q123 0 211 75q82 70 104 177q7 31 7 60q0 85 -53 136
q-57 56 -162 56q-124 0 -212 -75q-81 -70 -104 -177zM545 595h-20l24 109h20zM339 595h-20l24 109h20z" />
    <glyph glyph-name="divide" unicode="&#xf7;" horiz-adv-x="600" 
d="M605 243h-506l4 20h506zM360 466q4 16 18 28t31 12q16 0 25.5 -12t5.5 -28q-3 -17 -17.5 -28.5t-30.5 -11.5q-17 0 -26 11.5t-6 28.5zM270 40q3 16 17.5 28t30.5 12q17 0 26 -12t6 -28q-4 -16 -18 -28t-31 -12t-26 11.5t-5 28.5z" />
    <glyph glyph-name="oslash" unicode="&#xf8;" horiz-adv-x="612" 
d="M128 79l456 366q-58 63 -170 63q-124 0 -212 -75q-81 -70 -104 -177q-6 -31 -6 -59q0 -70 36 -118zM593 433l-456 -366q58 -63 170 -63q123 0 211 75q82 70 104 177q7 31 7 60q0 70 -36 117zM25 -3l86 69q-40 52 -40 126q0 31 7 64q26 119 119 195.5t221 76.5
q119 0 183 -69l85 68l9 -12l-85 -68q39 -53 39 -127q0 -31 -7 -64q-25 -119 -118 -195.5t-221 -76.5q-122 0 -183 69l-85 -68z" />
    <glyph glyph-name="ugrave" unicode="&#xf9;" horiz-adv-x="593" 
d="M647 512l-109 -512h-20l24 115l-2 -2q-84 -129 -258 -129q-194 0 -194 142q0 29 7 64l69 322h20l-69 -322q-7 -33 -7 -59q0 -127 178 -127q137 0 214 86q49 55 65 130l62 292h20zM459 589l-138 139h32l134 -139h-28z" />
    <glyph glyph-name="uacute" unicode="&#xfa;" horiz-adv-x="593" 
d="M647 512l-109 -512h-20l24 115l-2 -2q-84 -129 -258 -129q-194 0 -194 142q0 29 7 64l69 322h20l-69 -322q-7 -33 -7 -59q0 -127 178 -127q137 0 214 86q49 55 65 130l62 292h20zM357 589l194 139h32l-198 -139h-28z" />
    <glyph glyph-name="ucircumflex" unicode="&#xfb;" horiz-adv-x="593" 
d="M647 512l-109 -512h-20l24 115l-2 -2q-84 -129 -258 -129q-194 0 -194 142q0 29 7 64l69 322h20l-69 -322q-7 -33 -7 -59q0 -127 178 -127q137 0 214 86q49 55 65 130l62 292h20zM241 589l195 139h32l135 -139h-32l-122 125l-176 -125h-32z" />
    <glyph glyph-name="udieresis" unicode="&#xfc;" horiz-adv-x="593" 
d="M647 512l-109 -512h-20l24 115l-2 -2q-84 -129 -258 -129q-194 0 -194 142q0 29 7 64l69 322h20l-69 -322q-7 -33 -7 -59q0 -127 178 -127q137 0 214 86q49 55 65 130l62 292h20zM536 595h-20l24 109h20zM330 595h-20l24 109h20z" />
    <glyph glyph-name="yacute" unicode="&#xfd;" horiz-adv-x="500" 
d="M250 1l-154 511h26l145 -487l329 487h26l-395 -580q-45 -65 -77.5 -85t-89.5 -20h-40l4 20h46q44 0 71.5 16t58.5 64zM310 589l194 139h32l-198 -139h-28z" />
    <glyph glyph-name="thorn" unicode="&#xfe;" horiz-adv-x="612" 
d="M129 256q-7 -35 -7 -68q0 -82 46 -130q52 -54 154 -54q123 0 205 77q73 68 95 175q8 35 8 68q0 82 -46 130q-53 54 -155 54q-123 0 -205 -77q-72 -68 -95 -175zM12 -202l195 916h20l-73 -340h2q91 154 277 154q110 0 166 -58q51 -52 51 -142q0 -34 -8 -72
q-24 -117 -104 -190q-89 -82 -220 -82q-188 0 -211 155h-2l-73 -341h-20z" />
    <glyph glyph-name="ydieresis" unicode="&#xff;" horiz-adv-x="500" 
d="M250 1l-154 511h26l145 -487l329 487h26l-395 -580q-45 -65 -77.5 -85t-89.5 -20h-40l4 20h46q44 0 71.5 16t58.5 64zM489 595h-20l24 109h20zM283 595h-20l24 109h20z" />
    <glyph glyph-name="OE" unicode="&#x152;" horiz-adv-x="1167" 
d="M1197 362h-453l-73 -342h492l-4 -20h-512l15 71q-119 -87 -267 -87q-135 0 -217 73q-85 76 -85 207q0 44 11 93q36 172 167 275q124 98 282 98q147 0 231 -87l15 71h512l-4 -20h-492l-67 -312h453zM670 109l106 496q2 12 -11 25q-79 80 -216 80q-147 0 -264 -91
q-126 -97 -161 -262q-10 -46 -10 -89q0 -125 82 -196q78 -68 203 -68q133 0 254 82q14 9 17 23z" />
    <glyph glyph-name="oe" unicode="&#x153;" horiz-adv-x="1054" 
d="M601 276h478q5 28 5 55q0 177 -196 177q-97 0 -169 -53q-82 -60 -118 -179zM1094 256h-498q-8 -40 -8 -74q0 -93 60 -139q50 -39 134 -39q105 0 179 53q61 44 91 115h20q-37 -93 -121 -143q-75 -45 -170 -45t-150 44q-61 48 -62 141h-2q-47 -94 -132 -143
q-73 -42 -155 -42q-94 0 -151.5 54t-57.5 148q0 34 7 70q27 124 119 200q88 72 198 72q93 0 149.5 -52t57.5 -141h2q38 88 110 139q77 54 180 54q210 0 210 -189q0 -39 -10 -83zM98 256q-7 -34 -7 -65q0 -87 54 -137t139 -50q101 0 182 66q86 70 110 186q8 34 8 65
q0 88 -55 139q-53 48 -138 48q-101 0 -182 -66q-86 -70 -111 -186z" />
    <glyph glyph-name="Scaron" unicode="&#x160;" horiz-adv-x="667" 
d="M725 514h-20q3 21 3 40q0 156 -230 156q-249 0 -284 -165q-4 -19 -4 -34q0 -81 126 -110l229 -52q133 -30 133 -126q0 -18 -5 -38q-42 -201 -326 -201q-271 0 -271 183q0 30 7 68h20q-7 -33 -7 -61q0 -170 259 -170q118 0 201 47q101 57 101 166q0 86 -127 114l-215 48
q-145 32 -145 127q0 19 4 41q39 183 303 183q252 0 252 -168q0 -22 -4 -48zM480 766l-133 139h30l123 -125l177 125h30l-193 -139h-34z" />
    <glyph glyph-name="scaron" unicode="&#x161;" horiz-adv-x="500" 
d="M45 160h20q-2 -20 -2 -36q0 -61 39 -88q45 -32 158 -32q210 0 237 126q3 18 3 32q0 38 -29.5 56t-97.5 27l-151 19q-114 14 -114 95q0 15 4 32q29 137 252 137q94 0 137 -26q47 -28 47 -94q0 -21 -4 -46h-20q4 22 4 40q0 60 -44 84q-40 22 -130 22q-197 0 -222 -117
q-3 -15 -3 -27q0 -67 101 -80l151 -19q75 -9 107.5 -31.5t32.5 -66.5q0 -16 -5 -38q-30 -145 -260 -145q-124 0 -174 39q-40 31 -40 96q0 17 3 41zM358 589l-133 139h30l123 -125l177 125h30l-193 -139h-34z" />
    <glyph glyph-name="Ydieresis" unicode="&#x178;" horiz-adv-x="630" 
d="M305 0l64 301l-249 413h29l235 -391l401 391h29l-425 -413l-64 -301h-20zM592 772h-20l24 109h20zM386 772h-20l24 109h20z" />
    <glyph glyph-name="florin" unicode="&#x192;" 
d="M197 -45l196 459h-140l8 20h140l50 115q40 94 82 131q46 40 122 40q25 0 64 -6l-9 -20q-41 6 -57 6q-70 0 -108.5 -34t-79.5 -129l-44 -103h147l-8 -20h-147l-194 -457q-36 -84 -74 -118q-45 -41 -123 -41q-32 0 -64 5l7 20q24 -5 58 -5q68 0 104.5 29t69.5 108z" />
    <glyph glyph-name="circumflex" unicode="&#x2c6;" horiz-adv-x="130" 
d="M9 589l195 139h32l135 -139h-32l-122 125l-176 -125h-32z" />
    <glyph glyph-name="tilde" unicode="&#x2dc;" horiz-adv-x="130" 
d="M53 623v0h-20q30 81 108 81q21 0 40 -11l67 -39q19 -11 37 -11q50 0 74 61h20q-28 -81 -100 -81q-21 0 -42 12l-66 38q-19 11 -38 11q-56 0 -80 -61z" />
    <glyph glyph-name="endash" unicode="&#x2013;" horiz-adv-x="500" 
d="M554 256h-500l5 20h500z" />
    <glyph glyph-name="emdash" unicode="&#x2014;" horiz-adv-x="1000" 
d="M1054 256h-1000l5 20h1000z" />
    <glyph glyph-name="quoteleft" unicode="&#x2018;" horiz-adv-x="168" 
d="M180 498l20 95q20 92 74 121l-6 -26q-32 -18 -46 -88l-22 -102h-20z" />
    <glyph glyph-name="quoteright" unicode="&#x2019;" horiz-adv-x="168" 
d="M204 612v0l22 102h20l-20 -95q-20 -92 -74 -121l5 26q32 18 47 88z" />
    <glyph glyph-name="quotesinglbase" unicode="&#x201a;" horiz-adv-x="168" 
d="M73 -6v0l21 102h20l-20 -95q-19 -92 -74 -121l6 26q32 18 47 88z" />
    <glyph glyph-name="quotedblleft" unicode="&#x201c;" horiz-adv-x="296" 
d="M308 498l20 95q20 92 74 121l-6 -26q-32 -18 -46 -88l-22 -102h-20zM180 498l20 95q20 92 74 121l-6 -26q-32 -18 -46 -88l-22 -102h-20z" />
    <glyph glyph-name="quotedblright" unicode="&#x201d;" horiz-adv-x="296" 
d="M204 612v0l22 102h20l-20 -95q-20 -92 -74 -121l5 26q32 18 47 88zM332 612v0l22 102h20l-20 -95q-20 -92 -74 -121l5 26q32 18 47 88z" />
    <glyph glyph-name="quotedblbase" unicode="&#x201e;" horiz-adv-x="296" 
d="M73 -6v0l21 102h20l-20 -95q-19 -92 -74 -121l6 26q32 18 47 88zM201 -6v0l21 102h20l-20 -95q-19 -92 -74 -121l6 26q32 18 47 88z" />
    <glyph glyph-name="dagger" unicode="&#x2020;" 
d="M286 -134l124 584h-260l4 20h260l52 244h20l-52 -244h260l-4 -20h-260l-124 -584h-20z" />
    <glyph glyph-name="daggerdbl" unicode="&#x2021;" 
d="M332 83l88 414h-260l4 20h260l42 197h20l-42 -197h260l-4 -20h-260l-88 -414h260l-5 -20h-260l-41 -197h-20l41 197h-260l5 20h260z" />
    <glyph glyph-name="bullet" unicode="&#x2022;" horiz-adv-x="500" 
d="M148 356q15 73 78.5 125.5t137.5 52.5q63 0 103.5 -40t40.5 -101q0 -18 -4 -37q-16 -74 -79.5 -126t-136.5 -52q-64 0 -104 40t-40 101q0 18 4 37z" />
    <glyph glyph-name="ellipsis" unicode="&#x2026;" horiz-adv-x="1000" 
d="M157 0l20 96h20l-20 -96h-20zM490 0l20 96h20l-20 -96h-20zM823 0l20 96h20l-20 -96h-20z" />
    <glyph glyph-name="perthousand" unicode="&#x2030;" horiz-adv-x="1167" 
d="M118 531q21 98 86 148q54 41 124 41q58 0 94 -29q42 -35 42 -103q0 -26 -6 -57q-21 -98 -86 -148q-54 -41 -124 -41q-58 0 -94 29q-43 35 -43 103q0 26 7 57zM138 531q-6 -28 -6 -52q0 -117 120 -117q69 0 119 44t67 125q6 28 6 52q0 117 -120 117q-69 0 -119 -44
t-67 -125zM452 173q21 98 86 148q54 41 124 41q58 0 94 -29q42 -35 42 -103q0 -26 -6 -57q-21 -98 -86 -148q-54 -41 -124 -41q-58 0 -94 29q-43 35 -43 103q0 26 7 57zM472 173q-6 -28 -6 -52q0 -117 120 -117q69 0 119 44t67 125q6 28 6 52q0 117 -120 117q-69 0 -119 -44
t-67 -125zM859 173q21 98 86 148q54 41 124 41q58 0 94 -29q42 -35 42 -103q0 -26 -6 -57q-21 -98 -86 -148q-54 -41 -124 -41q-58 0 -94 29q-43 35 -43 103q0 26 7 57zM879 173q-6 -28 -6 -52q0 -117 120 -117q69 0 119 44t67 125q6 28 6 52q0 117 -120 117q-69 0 -119 -44
t-67 -125zM127 -22l635 748h20l-635 -748h-20z" />
    <glyph glyph-name="guilsinglleft" unicode="&#x2039;" horiz-adv-x="278" 
d="M130 275l148 138l-6 -25l-129 -122l78 -122l-6 -25l-88 138z" />
    <glyph glyph-name="guilsinglright" unicode="&#x203a;" horiz-adv-x="278" 
d="M176 413l88 -138l-3 -18l-148 -138l6 25l130 122l-79 122z" />
    <glyph glyph-name="trademark" unicode="&#x2122;" horiz-adv-x="990" 
d="M255 302l84 392h-149l4 20h318l-4 -20h-149l-84 -392h-20zM892 302l84 392h-2l-250 -392h-20l-82 392h-2l-84 -392h-20l88 412h33l83 -386l247 386h33l-88 -412h-20z" />
    <glyph glyph-name="FL0" unicode="&#xe000;" horiz-adv-x="500" 
d="M63 0v784h375v-784h-375zM125 63h250v659h-250v-659z" />
    <glyph glyph-name="FL1" unicode="&#xe001;" horiz-adv-x="0" 
 />
    <glyph glyph-name="FL2" unicode="&#xe002;" horiz-adv-x="324" 
 />
    <glyph glyph-name="FL4" unicode="&#xe003;" horiz-adv-x="324" 
 />
    <glyph glyph-name="fraction" unicode="&#xe004;" horiz-adv-x="168" 
d="M-170 -24l638 752h20l-638 -752h-20z" />
    <glyph glyph-name="fi" unicode="&#xe005;" horiz-adv-x="426" 
d="M351 0l109 512h20l-109 -512h-20zM480 605l23 109h20l-23 -109h-20zM123 0l105 492h-122l4 20h122l21 101q13 62 57 87q35 20 99 20q14 0 60 -2l-5 -20q-18 2 -56 2q-69 0 -99 -24q-27 -20 -38 -74l-19 -90h149l-4 -20h-149l-105 -492h-20z" />
    <glyph glyph-name="fl" unicode="&#xe006;" horiz-adv-x="426" 
d="M351 0l152 714h20l-152 -714h-20zM123 0l105 492h-122l4 20h122l21 101q13 62 57 87q35 20 99 20q14 0 60 -2l-5 -20q-18 2 -56 2q-69 0 -99 -24q-27 -20 -38 -74l-19 -90h149l-4 -20h-149l-105 -492h-20z" />
    <glyph glyph-name="Lslash" unicode="&#xe007;" horiz-adv-x="537" 
d="M55 0l60 281l-136 -78l4 20l136 78l88 413h20l-85 -400l318 183l-5 -20l-318 -183l-58 -274h481l-4 -20h-501z" />
    <glyph glyph-name="lslash" unicode="&#xe008;" horiz-adv-x="130" 
d="M55 0l68 321l-93 -64l4 20l93 64l80 373h20l-76 -357l93 64l-4 -20l-93 -64l-72 -337h-20z" />
    <glyph glyph-name="zcaron" unicode="&#xe009;" horiz-adv-x="481" 
d="M9 27l531 465h-405l4 20h431l-5 -24l-538 -468h455l-4 -20h-475zM349 589l-133 139h30l123 -125l177 125h30l-193 -139h-34z" />
    <glyph glyph-name="Zcaron" unicode="&#xe00a;" horiz-adv-x="574" 
d="M-19 0l6 29l717 665h-541l4 20h567l-5 -24l-724 -670h592l-4 -20h-612zM433 766l-133 139h30l123 -125l177 125h30l-193 -139h-34z" />
    <glyph glyph-name="hyphen" horiz-adv-x="370" 
d="M346 256h-214l5 20h214z" />
    </font>
</defs>
</svg>
