<?xml version="1.0" encoding="utf-8"?>
<!-- Generator: Adobe Illustrator 21.0.0, SVG Export Plug-In . SVG Version: 6.00 Build 0)  -->
<svg version="1.1" id="图层_2" xmlns="http://www.w3.org/2000/svg" xmlns:xlink="http://www.w3.org/1999/xlink" x="0px" y="0px"
	 viewBox="0 0 144 51" style="enable-background:new 0 0 144 51;" xml:space="preserve">
<style type="text/css">
	.st0{fill:none;stroke:#000000;stroke-miterlimit:10;}
</style>
<path class="st0" d="M44.5,15.5l5,8l-7,26h-8l7-25l-2-3h-4l-7,23h-9l7-23h-5l-9,28h-9l10-34H44.5z M71.5,15.5l-13,10l-8,24h28l2-6
	h-18l3-8h17l2-6h-18l1-4l4-4h16l2-6H71.5z M108.5,3.5l-11,5l-10,31l7,10h18l12-38l-11,5l-8,27h-7l-2-4L108.5,3.5z M131.5,15.5
	l-10,34h9l10-34H131.5z"/>
</svg>
