<?xml version="1.0" standalone="no"?>
<!DOCTYPE svg PUBLIC "-//W3C//DTD SVG 1.1//EN" "http://www.w3.org/Graphics/SVG/1.1/DTD/svg11.dtd" >
<svg>
<metadata>
Created by FontForge 20090914 at Tue Oct 11 16:17:52 2016
 By www-data
</metadata>
<defs>
<font id="FranklinGothic-Heavy" horiz-adv-x="0" >
  <font-face 
    font-family="FranklinGothic-Heavy"
    font-weight="500"
    font-stretch="normal"
    units-per-em="1000"
    panose-1="0 0 0 0 0 0 0 0 0 0"
    ascent="800"
    descent="-200"
    x-height="501"
    cap-height="669"
    bbox="-51.002 -196.001 907 746.999"
    underline-thickness="50"
    underline-position="-55"
    unicode-range="U+0020-U+F002"
  />
<missing-glyph 
 />
    <glyph glyph-name=".notdef" 
 />
    <glyph glyph-name="space" unicode=" " horiz-adv-x="470" 
 />
    <glyph glyph-name="space" unicode="&#xa0;" horiz-adv-x="470" 
 />
    <glyph glyph-name="exclam" unicode="!" horiz-adv-x="314" 
d="M50 2v183h192v-183h-192v0zM88 230l-54 446h231l-55 -446h-122v0z" />
    <glyph glyph-name="quotedbl" unicode="&#x22;" horiz-adv-x="524" 
d="M122 392l-46 132v152h153v-152l-39 -132h-68v0zM314 392l-38 132v152h153v-152l-46 -132h-69v0z" />
    <glyph glyph-name="numbersign" unicode="#" horiz-adv-x="585" 
d="M38 2l38 168h-91v108h114l23 107h-99v108h122l45 198h124l-45 -198h99l45 198h117l-46 -198h91v-108h-116l-23 -107h109v-108h-132l-38 -168h-114l38 168h-109l-38 -168h-114v0zM246 385l-25 -107h101l23 107h-99v0z" />
    <glyph glyph-name="dollar" unicode="$" horiz-adv-x="585" 
d="M238 25c-63.333 2.66699 -111.664 19.6689 -144.997 51.002s-56.333 65.333 -69 102c-2 6 -3.66699 12 -5 18l-4 18l175 34c3.33301 -24.667 13.166 -43.167 29.499 -55.5s34.166 -20.166 53.499 -23.499c3.33301 -0.666992 7 -1.16699 11 -1.5s7.66699 -0.5 11 -0.5
c19.333 0 36.333 3.16699 51 9.5s22 13.833 22 22.5c0 18.667 -9.5 32 -28.5 40s-42.167 15 -69.5 21l-31 6.5c-10.667 2.33301 -21.334 4.83301 -32.001 7.5c-40 10.667 -76.833 28.167 -110.5 52.5s-50.5 66.166 -50.5 125.499c0 62 18.5 109 55.5 141
s82.5 51.667 136.5 59v87h99v-86c12.667 -0.666992 27 -2.83398 43 -6.50098s32 -9.16699 48 -16.5c22.667 -11.333 44.5 -26.833 65.5 -46.5s38.167 -44.834 51.5 -75.501l-162 -55c-3.33301 18 -12 32 -26 42s-29 16.667 -45 20c-4 0.666992 -7.83301 1.16699 -11.5 1.5
s-7.16699 0.5 -10.5 0.5c-16.667 0 -31 -3 -43 -9s-18 -14.333 -18 -25c0 -16.667 9 -28.5 27 -35.5s40.333 -13.167 67 -18.5l35 -6.5l37 -7.5c39.333 -10 75.833 -26.667 109.5 -50s52.167 -62.666 55.5 -117.999v-17c0 -53.333 -18 -99.333 -54 -138
s-92.333 -61.334 -169 -68.001v-83h-99v84v0z" />
    <glyph glyph-name="percent" unicode="%" horiz-adv-x="711" 
d="M93 2l416 667h99l-416 -667h-99v0zM408 170c0 0.666992 -0.169922 1.6709 -0.50293 3.00391s-0.5 2.66602 -0.5 3.99902s-0.166992 2.83301 -0.5 4.5s-0.5 3.16699 -0.5 4.5c0 55.333 14.333 97 43 125s61.334 42 98.001 42h1.5h1.5c33.333 -0.666992 64 -16 92 -46
s42 -73.667 42 -131c-2 -56.667 -16.333 -99.334 -43 -128.001s-55.667 -44.334 -87 -47.001h-4.5h-4.5c-33.333 0 -64.166 14.167 -92.499 42.5s-43.166 70.166 -44.499 125.499v1zM546.997 278.004c-10 -0.666992 -18.166 -9.49902 -24.499 -26.499
s-10.5 -35.5 -12.5 -55.5c-0.666992 -3.33301 -1 -6.66602 -1 -9.99902v-10c0 -26.667 3.5 -49.834 10.5 -69.501s16.167 -29.5 27.5 -29.5s20.166 10.667 26.499 32s9.5 44.666 9.5 69.999v1.5v1.5v1.5v1.5c0 22.667 -3 43.667 -9 63s-15 29 -27 29v1zM24.998 493.005
c0 0.666992 -0.166992 1.83789 -0.5 3.50488s-0.5 3.16699 -0.5 4.5s-0.166992 2.66602 -0.5 3.99902s-0.5 2.66602 -0.5 3.99902c0 54.667 14.333 96 43 124s60.667 42 96 42h4h4c32.667 -2.66699 62.667 -18.834 90 -48.501s41 -71.834 41 -126.501
c-2 -58 -16.833 -101.833 -44.5 -131.5s-58.167 -44.834 -91.5 -45.501h-1.5h-1.5c-33.333 0 -64 14.5 -92 43.5s-43 70.833 -45 125.5v1zM161.998 600.009c-10 -0.666992 -18.332 -9.66504 -24.999 -26.998s-10.667 -36.333 -12 -57
c-0.666992 -2.66699 -1 -5.33398 -1 -8.00098v-8c0 -27.333 3.5 -51 10.5 -71s16.167 -30 27.5 -30s20.166 10.667 26.499 32s9.5 44.666 9.5 69.999v1.5v1.5v1.5v1.5c0 22.667 -3 43.667 -9 63s-15 29 -27 29v1z" />
    <glyph glyph-name="ampersand" unicode="&#x26;" horiz-adv-x="771" 
d="M509 286c15.333 14.667 25.833 30.1631 31.5 46.4961s10.167 35.833 13.5 58.5l185 -21c-8 -24.667 -16.667 -47.334 -26 -68.001s-20.666 -41 -33.999 -61c-7.33301 -11.333 -15.666 -23 -24.999 -35s-19.666 -24.333 -30.999 -37
c13.333 -6.66699 24.666 -11.334 33.999 -14.001s18.333 -4 27 -4c2.66699 0 5.66699 0.166992 9 0.5s7 0.5 11 0.5s8.16699 0.166992 12.5 0.5s8.83301 0.5 13.5 0.5v-143c-8.66699 -4.66699 -19.334 -8.5 -32.001 -11.5s-25.667 -4.83301 -39 -5.5
c-2.66699 -0.666992 -5.5 -1 -8.5 -1h-8.5c-4.66699 0 -9.5 0.166992 -14.5 0.5s-9.83301 0.833008 -14.5 1.5c-23.333 2.66699 -45.833 8.33398 -67.5 17.001s-39.167 20.667 -52.5 36c-17.333 -17.333 -42.5 -31 -75.5 -41s-67.833 -15.333 -104.5 -16h-4.5h-5.5h-14.5
c-5 0 -9.83301 0.333008 -14.5 1c-59.333 4 -114 21.333 -164 52s-76 77.667 -78 141c0 56.667 14.667 99.834 44 129.501s61.333 50.834 96 63.501l10 4c3.33301 1.33301 6.66602 2.33301 9.99902 3c-18 12 -32.333 28.833 -43 50.5s-17 44.5 -19 68.5v4.5v5.5v8
c0 2.66699 0.333008 5.33398 1 8.00098c3.33301 38.667 21.333 74 54 106s84 48 154 48l11 1c74.667 -0.666992 130 -17.667 166 -51s55 -70 57 -110v-3.5v-2.5c0 -3.33301 -0.166992 -6.66602 -0.5 -9.99902s-0.5 -6.33301 -0.5 -9c-4 -30.667 -17.333 -59.667 -40 -87
s-54 -46.666 -94 -57.999l71 -67v0zM392 169.996l-114.004 116.004c-14.667 -8.66699 -26.667 -18.334 -36 -29.001s-15.666 -22.334 -18.999 -35.001c0 -0.666992 -0.166992 -1.33398 -0.5 -2.00098s-0.5 -1.66699 -0.5 -3c-1.33301 -2 -2.16602 -4.16699 -2.49902 -6.5
s-0.5 -4.16602 -0.5 -5.49902c0 -6.66699 1.66699 -12.834 5 -18.501s7.33301 -10.5 12 -14.5c0 -0.666992 0.166992 -1.16699 0.5 -1.5l1.5 -1.5c8.66699 -10 19.334 -18.667 32.001 -26s26 -11 40 -11c6.66699 0 13.834 1 21.501 3s15.167 5 22.5 9
c6.66699 2.66699 13.167 6.16699 19.5 10.5s12.5 9.16602 18.5 14.499v1zM361.996 453c10 4 18.167 8.6709 24.5 14.0039s11.5 11 15.5 17c2.66699 4 4.66699 8 6 12s2 8 2 12c0 0.666992 -0.166992 1.66699 -0.5 3s-0.5 2.66602 -0.5 3.99902v0.5v0.5
c0 1.33301 -0.166992 2.66602 -0.5 3.99902s-0.5 2.33301 -0.5 3c-2.66699 7.33301 -6.66699 14.5 -12 21.5s-10.666 12.833 -15.999 17.5c-3.33301 2 -6.5 3.66699 -9.5 5s-5.83301 2 -8.5 2c-2.66699 -0.666992 -5.33398 -1.5 -8.00098 -2.5l-9 -3.5
c-8.66699 -4 -16.667 -9.83301 -24 -17.5s-11 -16.5 -11 -26.5c0 -8.66699 4.16699 -18.834 12.5 -30.501s21.5 -23.834 39.5 -36.501v1z" />
    <glyph glyph-name="quotesingle" unicode="'" horiz-adv-x="295" 
d="M124 516h-61v160h167v-145l-91 -154h-84l69 139v0z" />
    <glyph glyph-name="parenleft" unicode="(" horiz-adv-x="375" 
d="M179 -150c-48.667 67.333 -85.335 134.501 -110.002 201.501s-37 133.833 -37 200.5c0 12 0.333008 24 1 36s2 24 4 36c7.33301 59.333 24 118.666 50 177.999s59.333 117 100 173l139 1c-37.333 -62.667 -67.666 -129.834 -90.999 -201.501s-35 -145.834 -35 -222.501
c0 -46 5 -93.167 15 -141.5s26 -96.5 48 -144.5c8 -19.333 17.333 -38.666 28 -57.999s22.334 -38.666 35.001 -57.999h-147v0z" />
    <glyph glyph-name="parenright" unicode=")" horiz-adv-x="375" 
d="M27 -158c40 57.333 70.832 120.502 92.499 189.502s33.167 139.167 34.5 210.5v7.5v6.5c0 12 -0.333008 23.833 -1 35.5l-2 34.5c-6 61.333 -19.333 121.833 -40 181.5s-48.667 115.5 -84 167.5l129 1c50.667 -48 90.334 -109.5 119.001 -184.5s43 -153.5 43 -235.5
c0 -16 -0.5 -31.833 -1.5 -47.5s-2.83301 -31.5 -5.5 -47.5c-8.66699 -56.667 -25 -112.334 -49 -167.001s-56.667 -105.334 -98 -152.001h-137v0z" />
    <glyph glyph-name="asterisk" unicode="*" horiz-adv-x="585" 
d="M206 438l-145 38l38 109l147 -61l-25 152h131l-22 -152l144 68l40 -116l-154 -38l99 -107l-91 -68l-84 122l-78 -122l-99 68l99 107v0z" />
    <glyph glyph-name="plus" unicode="+" horiz-adv-x="585" 
d="M206 223h-176v147h176v177h154v-177h177v-147h-177v-183h-154v183v0z" />
    <glyph glyph-name="comma" unicode="," horiz-adv-x="295" 
d="M124 2h-76v183h192v-168l-109 -183h-83l76 168v0z" />
    <glyph glyph-name="hyphen" unicode="-" horiz-adv-x="253" 
d="M-11 185v154h253v-154h-253v0z" />
    <glyph glyph-name="period" unicode="." horiz-adv-x="295" 
d="M48 2v183h192v-183h-192v0z" />
    <glyph glyph-name="slash" unicode="/" horiz-adv-x="585" 
d="M-38 -166l474 827h139l-476 -827h-137v0z" />
    <glyph glyph-name="zero" unicode="0" horiz-adv-x="585" 
d="M15 324c0 106.667 23.3301 191.833 69.9971 255.5s110.334 95.5 191.001 95.5c87.333 0 154 -31.5 200 -94.5s69 -146.5 69 -250.5c0 -8.66699 -0.333008 -17.334 -1 -26.001l-2 -26c-9.33301 -73.333 -35.666 -140.166 -78.999 -200.499s-100.666 -90.5 -171.999 -90.5
h-15c-82.667 0 -146 30 -190 90s-67.667 142 -71 246v1zM205.997 338.999c0 -66 4.83301 -117.333 14.5 -154s28.167 -55 55.5 -55c30.667 0 51 19.167 61 57.5s15 88.5 15 150.5c0 77.333 -7.83301 130 -23.5 158s-33.167 42 -52.5 42c-23.333 0 -40.833 -18 -52.5 -54
s-17.5 -84.667 -17.5 -146v1z" />
    <glyph glyph-name="one" unicode="1" horiz-adv-x="585" 
d="M23 2v152h167v315c-11.333 -8.66699 -23 -16.167 -35 -22.5s-24.333 -12.166 -37 -17.499c-12.667 -4.66699 -25 -8.33398 -37 -11.001s-23.667 -4 -35 -4v156c42 6.66699 79.5 20.167 112.5 40.5s59.5 41.833 79.5 64.5l145 1v-522h162v-152h-522v0z" />
    <glyph glyph-name="two" unicode="2" horiz-adv-x="585" 
d="M291 162l260.999 -0.00390625l-7 -160h-515v152c3.33301 2 6.83301 4.33301 10.5 7l11.5 8l188.5 139.5c58.333 42.333 94.166 83.5 107.499 123.5c1.33301 4.66699 2.33301 9.33398 3 14.001s1 9.33398 1 14.001v9c-1.33301 14 -8.66602 27 -21.999 39
s-27.666 18.333 -42.999 19h-1.5h-1.5c-2.66699 0 -5.5 -0.166992 -8.5 -0.5s-6.16699 -1.16602 -9.5 -2.49902c-14 -4.66699 -27.333 -15.5 -40 -32.5s-22 -42.833 -28 -77.5l-168 32c8 77.333 38.667 134.666 92 171.999s111.333 56.333 174 57h1h2
c63.333 0 121 -17.667 173 -53s78.667 -86.666 80 -153.999v-11c0 -53.333 -17.167 -96.666 -51.5 -129.999s-71.833 -64.333 -112.5 -93l-6 -4l-6 -4l-44.5 -32c-14.333 -10.667 -27.833 -21.667 -40.5 -33v1z" />
    <glyph glyph-name="three" unicode="3" horiz-adv-x="585" 
d="M436 347c42 -6.66699 73.501 -24.835 94.501 -54.502s31.5 -62.834 31.5 -99.501c0 -6 -0.333008 -12.333 -1 -19s-1.66699 -13 -3 -19c-9.33301 -42 -34 -80.5 -74 -115.5s-96 -52.5 -168 -52.5h-9c-92.667 0 -160.834 20.167 -204.501 60.5s-75.167 90.833 -94.5 151.5
l175 24c3.33301 -28 13.333 -49.667 30 -65s35 -24.666 55 -27.999c2.66699 0 5.33398 -0.166992 8.00098 -0.5s5.33398 -0.5 8.00098 -0.5c19.333 0 36.833 5.66699 52.5 17s23.5 26.333 23.5 45c0 35.333 -6.83301 57.166 -20.5 65.499s-32.167 12.5 -55.5 12.5l-94 1v145
h101c21.333 -0.666992 36.5 3.5 45.5 12.5s13.5 19.167 13.5 30.5c0 2.66699 -0.166992 5.33398 -0.5 8.00098s-1.16602 5.33398 -2.49902 8.00098c-4 14 -12.5 26.833 -25.5 38.5s-27.5 17.5 -43.5 17.5c-6.66699 0 -13.334 -1.16699 -20.001 -3.5
s-13.334 -5.83301 -20.001 -10.5c-8.66699 -6.66699 -17 -15.167 -25 -25.5s-15.667 -23.166 -23 -38.499l-160 32c19.333 57.333 51 103.5 95 138.5s104.667 52.5 182 52.5c75.333 0 131.5 -17 168.5 -51s58.167 -71 63.5 -111c0.666992 -4 1.16699 -7.83301 1.5 -11.5
s0.5 -7.5 0.5 -11.5c0 -32.667 -9.33301 -63 -28 -91s-44.334 -45.667 -77.001 -53v1z" />
    <glyph glyph-name="four" unicode="4" horiz-adv-x="585" 
d="M276 2v137h-268v154l245 383h214v-383h93v-154h-93v-137h-191v0zM276 293v191l-124 -191h124v0z" />
    <glyph glyph-name="five" unicode="5" horiz-adv-x="585" 
d="M213 408c22 12.667 43.832 21.998 65.499 27.998s42.5 9 62.5 9c61.333 0 113.166 -22.333 155.499 -67s63.5 -94.334 63.5 -149.001c-5.33301 -83.333 -35.166 -144.166 -89.499 -182.499s-113.5 -57.5 -177.5 -57.5h-8h-8c-61.333 3.33301 -118 22.333 -170 57
s-82.667 83 -92 145l175 24c6.66699 -22.667 17.5 -40 32.5 -52s30.833 -19 47.5 -21h4h4h3.5h2.5c20 1.33301 38.5 9.33301 55.5 24s26.5 33.334 28.5 56.001c0 23.333 -8.83301 42.5 -26.5 57.5s-37.5 22.5 -59.5 22.5h-5.5c-1.66699 0 -3.16699 -0.333008 -4.5 -1
c-12 -1.33301 -23.667 -5.16602 -35 -11.499s-21.666 -15.5 -30.999 -27.5l-153 24l23 383h446l-15 -168h-286l-8 -93v0z" />
    <glyph glyph-name="six" unicode="6" horiz-adv-x="585" 
d="M213 362c9.33301 20.667 26.168 36.1699 50.501 46.5029s50.166 15.5 77.499 15.5c6 0 12.333 -0.333008 19 -1s13 -1.33398 19 -2.00098c43.333 -7.33301 83 -27.833 119 -61.5s54 -82.167 54 -145.5c0 -72.667 -26.167 -128.667 -78.5 -168s-111.166 -59 -176.499 -59
h-12c-4 0 -7.66699 0.333008 -11 1c-62 4.66699 -119.333 29.667 -172 75s-81.667 114 -87 206c0 3.33301 -0.166992 6.66602 -0.5 9.99902s-0.5 6.66602 -0.5 9.99902s-0.166992 6.66602 -0.5 9.99902s-0.5 6.66602 -0.5 9.99902c0 123.333 27.833 214.5 83.5 273.5
s118.167 89.833 187.5 92.5l17 1c66.667 -0.666992 120 -19.5 160 -56.5s65.333 -85.167 76 -144.5l-177 -22c0 0.666992 0.166992 1.66699 0.5 3s0.5 2.66602 0.5 3.99902s0.166992 2.83301 0.5 4.5s0.5 2.83398 0.5 3.50098v2.5v2.5c-2 14.667 -9.33301 28.334 -22 41.001
s-26.667 19.334 -42 20.001h-1.5h-1.5c-2 0 -3.83301 -0.166992 -5.5 -0.5s-3.16699 -0.5 -4.5 -0.5c-18 -4 -34.333 -18.833 -49 -44.5s-22.334 -68.167 -23.001 -127.5v1zM213.002 208.003c0 -30 7.5 -52.668 22.5 -68.001s31.833 -23.666 50.5 -24.999h2.5h2.5
c19.333 0 37 7.66699 53 23s24 38.333 24 69c0 24.667 -7.5 43 -22.5 55s-31.5 18.333 -49.5 19h-1.5h-1.5h-4.5c-1.66699 0 -3.5 -0.333008 -5.5 -1c-17.333 -2 -33.333 -9.33301 -48 -22s-22 -29.667 -22 -51v1z" />
    <glyph glyph-name="seven" unicode="7" horiz-adv-x="585" 
d="M145 2c0 98.667 19.168 188.002 57.501 268.002s88.166 156.667 149.499 230l-314 1l15 168h492v-130c-54.667 -66 -98.167 -143 -130.5 -231s-48.5 -180.333 -48.5 -277c0 -2 0.166992 -4.33301 0.5 -7s0.5 -5.33398 0.5 -8.00098s0.166992 -5.33398 0.5 -8.00098
s0.5 -5 0.5 -7l-223 1v0z" />
    <glyph glyph-name="eight" unicode="8" horiz-adv-x="585" 
d="M122 331c-30.667 14.667 -53.665 34.8311 -68.998 60.498s-23 52.834 -23 81.501c0 4.66699 0.166992 9.5 0.5 14.5s1.16602 9.83301 2.49902 14.5c7.33301 45.333 32 86.833 74 124.5s98.333 56.5 169 56.5l14 1c81.333 -0.666992 141.666 -16.834 180.999 -48.501
s62 -66.834 68 -105.501c0.666992 -3.33301 1.16699 -6.83301 1.5 -10.5s0.5 -7.5 0.5 -11.5c0 -29.333 -8 -57 -24 -83s-38 -44.667 -66 -56c34.667 -11.333 62.5 -33.166 83.5 -65.499s31.5 -67.166 31.5 -104.499c0 -3.33301 -0.166992 -6.83301 -0.5 -10.5
s-0.5 -7.16699 -0.5 -10.5c-5.33301 -45.333 -29.833 -86.833 -73.5 -124.5s-112.834 -57.5 -207.501 -59.5h-14c-82.667 0 -144.667 17.833 -186 53.5s-64.666 75.167 -69.999 118.5c0 2.66699 -0.166992 5.5 -0.5 8.5s-0.5 6.16699 -0.5 9.5
c0 31.333 9.5 60.833 28.5 88.5s45.833 46.834 80.5 57.501v1zM238.002 269.997c-11.333 -2.66699 -21.668 -10.501 -31.001 -23.501s-14.666 -27.167 -15.999 -42.5c-0.666992 -1.33301 -1 -2.83301 -1 -4.5v-4.5c0 -18 7.83301 -34.5 23.5 -49.5s41.5 -22.5 77.5 -22.5
c24 0 42.167 5.33301 54.5 16s18.5 22.334 18.5 35.001c0 2.66699 -0.333008 5.66699 -1 9s-1.66699 6.33301 -3 9c-2.66699 7.33301 -7.16699 14.333 -13.5 21s-14.5 12 -24.5 16l-84 41v0zM330 414.996c9.33301 4.66699 16.8311 10.6699 22.498 18.0029
s9.83398 15 12.501 23c1.33301 3.33301 2.16602 6.66602 2.49902 9.99902s0.5 6.33301 0.5 9v2v3c-1.33301 13.333 -6.83301 26.166 -16.5 38.499s-22.167 21.5 -37.5 27.5c-2 0.666992 -4.16699 1.16699 -6.5 1.5s-4.83301 0.833008 -7.5 1.5
c-3.33301 0.666992 -6.66602 1.16699 -9.99902 1.5s-6.66602 0.5 -9.99902 0.5c-16.667 0 -30.334 -5 -41.001 -15s-17.667 -21 -21 -33c0 -2 -0.166992 -3.83301 -0.5 -5.5s-0.5 -3.5 -0.5 -5.5c0 -6.66699 1.83301 -12.834 5.5 -18.501s8.83398 -10.167 15.501 -13.5
l92 -45v0z" />
    <glyph glyph-name="nine" unicode="9" horiz-adv-x="585" 
d="M352 301c-10.667 -20.667 -27.6689 -36.834 -51.002 -48.501s-48.666 -17.5 -75.999 -17.5c-7.33301 0 -15 0.5 -23 1.5s-15.667 2.16699 -23 3.5c-41.333 10 -79.333 32.333 -114 67s-52 82.334 -52 143.001c0 0.666992 0.166992 1.5 0.5 2.5s0.5 1.83301 0.5 2.5
c0 1.33301 0.166992 2.33301 0.5 3s0.5 1.33398 0.5 2.00098c1.33301 66.667 28.333 119.5 81 158.5s110.334 58.5 173.001 58.5h8h9c64.667 -4 124 -31.5 178 -82.5s81 -131.5 81 -241.5c0 -114.667 -25.833 -204.334 -77.5 -269.001s-123.167 -97 -214.5 -97
c-58 0 -107.667 17.833 -149 53.5s-66 78.5 -74 128.5l176 31c0 -17.333 6.66699 -32.333 20 -45s28 -19 44 -19h5c2 0 3.66699 0.333008 5 1c18 2.66699 34.5 15.167 49.5 37.5s22.5 58.5 22.5 108.5v18v0zM197.998 461c0 -30 7.49902 -52.5 22.499 -67.5
s31.833 -23.167 50.5 -24.5h2.5h2.5c19.333 0 36.833 7.5 52.5 22.5s23.5 37.833 23.5 68.5c0 24 -7.16699 42 -21.5 54s-30.166 18.667 -47.499 20h-2.5h-2.5h-4.5c-1.66699 0 -3.5 -0.333008 -5.5 -1c-17.333 -2 -33.333 -9.16699 -48 -21.5s-22 -29.5 -22 -51.5v1z" />
    <glyph glyph-name="colon" unicode=":" horiz-adv-x="295" 
d="M40 2v183h190v-183h-190v0zM40 316v185h190v-185h-190v0z" />
    <glyph glyph-name="semicolon" unicode=";" horiz-adv-x="295" 
d="M124 2h-76v183h192v-168l-109 -183h-83l76 168v0zM48 316v185h192v-185h-192v0z" />
    <glyph glyph-name="less" unicode="&#x3c;" horiz-adv-x="585" 
d="M30 208v154l500 185v-155l-292 -114l292 -101v-160l-500 191v0z" />
    <glyph glyph-name="equal" unicode="=" horiz-adv-x="585" 
d="M30 93v145h507v-145h-507v0zM30 324v145h507v-145h-507v0z" />
    <glyph glyph-name="greater" unicode="&#x3e;" horiz-adv-x="585" 
d="M322 286l-284 114v162l499 -192v-155l-499 -198v160l284 109v0z" />
    <glyph glyph-name="question" unicode="?" horiz-adv-x="585" 
d="M190 2v183h193v-183h-193v0zM206 215c0 2.66699 -0.166016 5.3291 -0.499023 7.99609s-0.833008 5.33398 -1.5 8.00098s-1.16699 5.33398 -1.5 8.00098s-0.5 5.33398 -0.5 8.00098c0 32.667 6.66699 58.667 20 78s28 36.333 44 51
c3.33301 2.66699 6.5 5.33398 9.5 8.00098s5.83301 5.33398 8.5 8.00098c12.667 12 23.5 24.167 32.5 36.5s13.5 27.833 13.5 46.5v9c0 16 -5.83301 30 -17.5 42s-24.167 19 -37.5 21c-1.33301 0.666992 -2.66602 1 -3.99902 1h-4h-1.5h-1.5
c-14.667 -0.666992 -28.334 -9.33398 -41.001 -26.001s-19 -43 -19 -79c0 -0.666992 0.166992 -1.66699 0.5 -3s0.5 -2.66602 0.5 -3.99902s0.166992 -2.5 0.5 -3.5s0.5 -2.16699 0.5 -3.5l-183 24c19.333 88 53.166 148.333 101.499 181s101.5 49 159.5 49l15 1
c62.667 -0.666992 111.167 -13.5 145.5 -38.5s58.833 -52.5 73.5 -82.5c6.66699 -14.667 11.5 -28.834 14.5 -42.501s4.5 -26.167 4.5 -37.5c0 -48 -8.83301 -84.333 -26.5 -109s-37.167 -45 -58.5 -61c-4 -3.33301 -8.16699 -6.5 -12.5 -9.5s-8.5 -6.16699 -12.5 -9.5
c-14.667 -10.667 -27.5 -22 -38.5 -34s-17.833 -27.333 -20.5 -46l-162 1v0z" />
    <glyph glyph-name="at" unicode="@" horiz-adv-x="771" 
d="M486 516l91.0029 0.00195312l-46 -278v-3v-2v-0.5v-0.5c-0.666992 -0.666992 -1 -1.5 -1 -2.5v-1.5c0 -8.66699 1.5 -15 4.5 -19s6.5 -6 10.5 -6s8.33301 1.33301 13 4s9.66699 6.66699 15 12c10 10 19.167 23.5 27.5 40.5s13.166 35.5 14.499 55.5
c0.666992 3.33301 1.16699 7 1.5 11s0.5 8 0.5 12c0.666992 4.66699 1.33398 9.66699 2.00098 15s1 10.666 1 15.999c0.666992 3.33301 1 6.5 1 9.5v9.5c0 5.33301 -0.166992 10.833 -0.5 16.5s-0.833008 11.5 -1.5 17.5c-4.66699 38.667 -22.167 74.667 -52.5 108
s-85.833 53.666 -166.5 60.999l-17 1c-12.667 -0.666992 -26 -2.16699 -40 -4.5s-28 -5.83301 -42 -10.5c-38 -14 -73.333 -39 -106 -75s-51.334 -88 -56.001 -156c0 -0.666992 -0.166992 -1.5 -0.5 -2.5s-0.5 -2.16699 -0.5 -3.5s-0.166992 -2.5 -0.5 -3.5
s-0.5 -1.83301 -0.5 -2.5c0 -81.333 25.5 -142.5 76.5 -183.5s107.167 -63.833 168.5 -68.5c4 -0.666992 8 -1 12 -1h12h10.5c3.66699 0 7.16699 0.333008 10.5 1c28 2 55.333 7.83301 82 17.5s49.334 22.5 68.001 38.5l92 1c-13.333 -19.333 -27.333 -36.166 -42 -50.499
s-29.667 -26.833 -45 -37.5c-40 -28.667 -77.667 -46.5 -113 -53.5s-58.333 -10.5 -69 -10.5c-92.667 0 -174.834 30.667 -246.501 92s-109.5 140 -113.5 236c0 19.333 2.16699 46.166 6.5 80.499s15.833 70.166 34.5 107.499c11.333 22.667 26 44.667 44 66
s40.333 41.333 67 60c23.333 15.333 48.166 27.5 74.499 36.5s53.166 14.833 80.499 17.5c6.66699 0.666992 13.334 1.16699 20.001 1.5s13.334 0.5 20.001 0.5c66.667 0 129 -16.833 187 -50.5s97 -81.167 117 -142.5c2.66699 -8.66699 5 -17.834 7 -27.501
s3.66699 -19.167 5 -28.5c0.666992 -6 1.16699 -12 1.5 -18s0.5 -11.667 0.5 -17c0 -48.667 -11.333 -95 -34 -139s-54 -77.667 -94 -101c-0.666992 -0.666992 -1.5 -1.16699 -2.5 -1.5s-2.16699 -0.833008 -3.5 -1.5c-8 -3.33301 -16.833 -6.5 -26.5 -9.5
s-19.5 -5.5 -29.5 -7.5c-7.33301 -1.33301 -14.333 -2.5 -21 -3.5s-13.334 -1.5 -20.001 -1.5c-14 0 -26 3.16699 -36 9.5s-15 16.5 -15 30.5c-7.33301 -11.333 -18.166 -20.166 -32.499 -26.499s-29.5 -9.5 -45.5 -9.5c-7.33301 0 -14.666 0.666992 -21.999 2
s-14.666 3 -21.999 5c-30 9.33301 -57.167 26.833 -81.5 52.5s-36.5 58.5 -36.5 98.5c0 0.666992 0.166992 1.5 0.5 2.5s0.5 1.83301 0.5 2.5c0 1.33301 0.166992 2.33301 0.5 3s0.5 1.33398 0.5 2.00098c0 8.66699 2.16699 22.667 6.5 42s11.5 40 21.5 62
c13.333 28 32.5 53.5 57.5 76.5s58.167 34.5 99.5 34.5c7.33301 0 15.666 -1 24.999 -3s18.666 -5 27.999 -9c9.33301 -4.66699 18.666 -10.5 27.999 -17.5s17.666 -15.5 24.999 -25.5l10 48v0zM438.003 309.002c0.666992 0.666992 1.16602 1.66309 1.49902 2.99609
s0.5 3 0.5 5c0.666992 2.66699 1.16699 5.16699 1.5 7.5s0.5 4.16602 0.5 5.49902c0 17.333 -5.66699 31.833 -17 43.5s-24.666 17.5 -39.999 17.5l-15 1c-1.33301 -0.666992 -2.5 -1 -3.5 -1h-2.5c-12.667 -1.33301 -24.5 -7.16602 -35.5 -17.499
s-17.5 -27.166 -19.5 -50.499c0 -0.666992 -0.166992 -1.66699 -0.5 -3s-0.5 -2.66602 -0.5 -3.99902v-0.5v-0.5c0 -1.33301 -0.166992 -2.66602 -0.5 -3.99902s-0.5 -2.33301 -0.5 -3c0 -19.333 6 -33.833 18 -43.5s25.667 -14.5 41 -14.5
c2.66699 0 5.16699 0.166992 7.5 0.5s4.83301 0.833008 7.5 1.5c13.333 2.66699 25.5 8.83398 36.5 18.501s17.833 22.167 20.5 37.5v1z" />
    <glyph glyph-name="A" unicode="A" horiz-adv-x="650" 
d="M10 2l198 667h222l208 -667h-208l-38 129h-177l-38 -129h-167v0zM354 278l-53 175l-46 -175h99v0z" />
    <glyph glyph-name="B" unicode="B" horiz-adv-x="650" 
d="M476 347c45.333 -5.33301 79.5 -24.6699 102.5 -58.0029s34.5 -69.666 34.5 -108.999v-4v-4c-2 -42.667 -18.5 -81.834 -49.5 -117.501s-77.833 -53.5 -140.5 -53.5l-375 1v667h352c61.333 -0.666992 107.666 -17.167 138.999 -49.5s49.333 -68.166 54 -107.499
c0 -3.33301 0.166992 -6.66602 0.5 -9.99902s0.5 -6.66602 0.5 -9.99902v-2v-1c-0.666992 -34 -11.167 -65.167 -31.5 -93.5s-49.166 -44.833 -86.499 -49.5v1zM238 262.996v-116.001h101c25.333 -0.666992 43.5 4.83301 54.5 16.5s16.5 24.834 16.5 39.501v4v3
c-2 13.333 -7.83301 25.333 -17.5 36s-22.5 16 -38.5 16l-116 1v0zM238 407.995l109 -0.000976562c15.333 -0.666992 27.333 4.83301 36 16.5s13 24.834 13 39.501v4v3c-2 13.333 -8.16699 25.333 -18.5 36s-25.833 16 -46.5 16l-93 1v-116v0z" />
    <glyph glyph-name="C" unicode="C" horiz-adv-x="650" 
d="M423 255l191.996 -16.998c0 -84.667 -29.167 -149.334 -87.5 -194.001s-123.166 -67 -194.499 -67h-10.5c-3.66699 0 -7.5 0.333008 -11.5 1c-73.333 4.66699 -140.666 35 -201.999 91s-92 140.667 -92 254c0 123.333 31.333 213.333 94 270s131.334 86 206.001 88h5h4
h1.5h1.5c71.333 -0.666992 136.833 -24.334 196.5 -71.001s89.5 -110.667 89.5 -192v-10l-192 -8c-0.666992 36 -9.16699 64.833 -25.5 86.5s-34.166 34.167 -53.499 37.5c-2 0.666992 -3.83301 1 -5.5 1h-5.5h-1.5h-1.5c-22.667 -1.33301 -43.667 -17.333 -63 -48
s-29 -79.667 -29 -147c2 -66 12 -113.833 30 -143.5s37.333 -46.167 58 -49.5c2 -0.666992 3.66699 -1 5 -1h4c22 0 42.167 10.5 60.5 31.5s27.5 46.833 27.5 77.5v10v0z" />
    <glyph glyph-name="D" unicode="D" horiz-adv-x="669" 
d="M42 2l-0.00195312 667h291c88.667 -0.666992 163.334 -31.667 224.001 -93s91 -138 91 -230c-4 -100 -32.667 -182.5 -86 -247.5s-139.666 -97.5 -258.999 -97.5l-261 1v0zM256.998 154c2 -0.666992 3.99609 -1.16602 5.99609 -1.49902s3.66699 -0.5 5 -0.5
c2 0 3.83301 -0.166992 5.5 -0.5s3.16699 -0.5 4.5 -0.5c46.667 0 82.334 17.167 107.001 51.5s38 72.166 40 113.499v5.5v5.5v20v5.5v6.5c-2.66699 42 -16.167 80.167 -40.5 114.5s-57.166 51.5 -98.499 51.5h-10c-4 0 -7.66699 -0.333008 -11 -1
c-1.33301 0 -2.66602 -0.166992 -3.99902 -0.5s-2.66602 -0.5 -3.99902 -0.5v-369v0z" />
    <glyph glyph-name="E" unicode="E" horiz-adv-x="585" 
d="M38 2v667h507v-145h-299v-101h238v-153h-238v-108h299v-160h-507v0z" />
    <glyph glyph-name="F" unicode="F" horiz-adv-x="543" 
d="M48 2v667h491v-145h-284v-109h214v-152h-214v-261h-207v0z" />
    <glyph glyph-name="G" unicode="G" horiz-adv-x="669" 
d="M503 70c-14.667 -25.333 -40.3311 -45.5039 -76.998 -60.5039s-75.667 -22.5 -117 -22.5c-7.33301 0 -14.5 0.166992 -21.5 0.5s-14.167 1.16602 -21.5 2.49902c-62 8 -118.667 38.5 -170 91.5s-77 138.5 -77 256.5c0 120 31.667 208.333 95 265
s133.333 86.334 210 89.001h5h6h3.5h2.5c68.667 -1.33301 132 -22.833 190 -64.5s89.333 -100.167 94 -175.5l-200 -14c0 26.667 -9.16699 49.834 -27.5 69.501s-38.5 30.5 -60.5 32.5h-3.5h-2.5c-2.66699 0 -5.33398 -0.166992 -8.00098 -0.5
s-5.33398 -0.833008 -8.00098 -1.5c-21.333 -5.33301 -40.833 -22.5 -58.5 -51.5s-26.5 -73.5 -26.5 -133.5c0 -0.666992 0.166992 -1.66699 0.5 -3s0.5 -2.66602 0.5 -3.99902c0 -2 0.166992 -3.5 0.5 -4.5s0.5 -2.16699 0.5 -3.5c2 -63.333 12.833 -110.166 32.5 -140.499
s41.167 -48.166 64.5 -53.499c3.33301 -0.666992 6.5 -1.16699 9.5 -1.5s5.83301 -0.5 8.5 -0.5c21.333 0 40.833 8.5 58.5 25.5s26.5 36.5 26.5 58.5v12h-106v147h299v-383h-107l-15 68v0z" />
    <glyph glyph-name="H" unicode="H" horiz-adv-x="669" 
d="M50 2v667h200v-239h160v239h207v-667h-207v261h-160v-261h-200v0z" />
    <glyph glyph-name="I" unicode="I" horiz-adv-x="314" 
d="M50 2v667h207v-667h-207v0z" />
    <glyph glyph-name="J" unicode="J" horiz-adv-x="417" 
d="M17 170c12.667 -4.66699 25.001 -8.33203 37.001 -10.999s22.667 -4 32 -4c26.667 0 48.5 6.5 65.5 19.5s25.5 28.833 25.5 47.5v447h200v-477c0 -80.667 -22.5 -133.834 -67.5 -159.501s-94.833 -38.5 -149.5 -38.5c-4.66699 0 -9.33398 0.166992 -14.001 0.5
s-9.33398 0.5 -14.001 0.5c-13.333 0.666992 -26.666 1.66699 -39.999 3s-26 3 -38 5c-6.66699 1.33301 -13 2.5 -19 3.5s-12 1.83301 -18 2.5v161v0z" />
    <glyph glyph-name="K" unicode="K" horiz-adv-x="650" 
d="M48 2v667h200v-269l182 269h200l-184 -254l207 -413h-230l-107 246l-68 -94v-152h-200v0z" />
    <glyph glyph-name="L" unicode="L" horiz-adv-x="543" 
d="M55 2v667h215v-499h254v-168h-469v0z" />
    <glyph glyph-name="M" unicode="M" horiz-adv-x="836" 
d="M42 2v667h276l92 -360l93 360h268v-667h-192v444l-124 -444h-129l-124 436v-436h-160v0z" />
    <glyph glyph-name="N" unicode="N" horiz-adv-x="688" 
d="M51 2v667h208l213 -368l-15 145v223h170v-667h-170l-246 413l8 -76v-337h-168v0z" />
    <glyph glyph-name="O" unicode="O" horiz-adv-x="688" 
d="M21 324c0 0.666992 -0.166992 1.50195 -0.5 2.50195s-0.5 2.5 -0.5 4.5c0 1.33301 -0.166992 2.66602 -0.5 3.99902s-0.5 2.33301 -0.5 3c0 113.333 33 197.833 99 253.5s138.333 83.5 217 83.5l14 1c2 -0.666992 4 -1 6 -1h5c76.667 -2.66699 146.667 -32 210 -88
s95 -136.333 95 -241c0 -116 -32.5 -203.333 -97.5 -262s-136.833 -89.334 -215.5 -92.001h-5h-6h-2.5h-3.5c-78 1.33301 -149.667 29.833 -215 85.5s-98.333 137.5 -99 245.5v1zM244 324.002c0 -62.667 9.83203 -109.334 29.499 -140.001s42.834 -46 69.501 -46l8 2
c2.66699 0.666992 5.33398 1.66699 8.00098 3c20.667 10 39.667 32.167 57 66.5s26 82.166 26 143.499c0 52.667 -9 93.834 -27 123.501s-38 47.167 -60 52.5c-2 0 -4 0.166992 -6 0.5s-4 0.5 -6 0.5c-24.667 0 -47.334 -16.667 -68.001 -50s-31 -85.666 -31 -156.999v1z
" />
    <glyph glyph-name="P" unicode="P" horiz-adv-x="650" 
d="M48 2v667.001h299c96 -4.66699 167.167 -23.834 213.5 -57.501s69.5 -89.167 69.5 -166.5c0 -56.667 -16.5 -101.167 -49.5 -133.5s-69.167 -54.166 -108.5 -65.499c-10.667 -2.66699 -21.5 -4.83398 -32.5 -6.50098s-21.5 -2.5 -31.5 -2.5l-145 1v-236h-215v0z
M263 385.001l99.002 -0.000976562c17.333 -0.666992 30.666 5.33301 39.999 18s14.333 26.334 15 41.001v1.5v1.5v4.5c0 1.66699 -0.333008 3.5 -1 5.5c-1.33301 14.667 -7.33301 28 -18 40s-25.334 18 -44.001 18l-91 1v-131v0z" />
    <glyph glyph-name="Q" unicode="Q" horiz-adv-x="688" 
d="M21 316l-0.501953 2.00098c-0.333008 1.33301 -0.5 2.66602 -0.5 3.99902v0.5v0.5c0 1.33301 -0.166992 2.66602 -0.5 3.99902s-0.5 2.33301 -0.5 3c0 115.333 32.667 201.333 98 258s137.333 85 216 85h6h5c78.667 -2.66699 150.5 -32.167 215.5 -88.5
s97.5 -138.5 97.5 -246.5c0 -88.667 -13 -152.334 -39 -191.001s-56 -69.667 -90 -93c6.66699 -9.33301 16.834 -16.666 30.501 -21.999s28.167 -8 43.5 -8c5.33301 0 10.666 0.333008 15.999 1s10.666 1.66699 15.999 3c0.666992 0 1.66699 0.166992 3 0.5
s2.33301 0.5 3 0.5c2 0.666992 3.83301 1.16699 5.5 1.5s3.16699 0.5 4.5 0.5v-151l-12 -2c-4 -0.666992 -7.66699 -1 -11 -1c-8 -1.33301 -15.833 -2.16602 -23.5 -2.49902s-15.167 -0.5 -22.5 -0.5c-51.333 0 -91.666 11 -120.999 33s-45.666 53.333 -48.999 94
l-21.5 -4.5c-7.66699 -1.66699 -15.167 -3.16699 -22.5 -4.5l-23 -2c-7.33301 -0.666992 -14.666 -1 -21.999 -1c-78.667 0 -148.5 30.167 -209.5 90.5s-91.5 138.833 -91.5 235.5v1zM243.998 331.001c3.33301 -70 9.83203 -119.666 19.499 -148.999s33.5 -44 71.5 -44
c34.667 0 59.834 14.667 75.501 44s23.5 78.666 23.5 147.999c0 61.333 -7.16699 108.833 -21.5 142.5s-36.833 50.5 -67.5 50.5l-10 1c-30.667 -0.666992 -53.5 -15 -68.5 -43s-22.5 -78.333 -22.5 -151v1z" />
    <glyph glyph-name="R" unicode="R" horiz-adv-x="669" 
d="M42 2l-0.000976562 667.001h360c82 -0.666992 142.167 -20.834 180.5 -60.501s58.833 -83.5 61.5 -131.5v-5.5v-5.5v-4v-3c-1.33301 -39.333 -13.166 -75.833 -35.499 -109.5s-52.5 -55.167 -90.5 -64.5l122 -283h-230l-100 253h-60v-253h-208v0zM249.999 392.001h99
c24 -0.666992 42.167 5.5 54.5 18.5s18.833 27.167 19.5 42.5v1.5v1.5v1.5v1.5c-0.666992 16 -7.16699 30.667 -19.5 44s-30.5 20 -54.5 20l-99 1v-132v0zM249.999 2.00098h-208h208v0z" />
    <glyph glyph-name="S" unicode="S" horiz-adv-x="650" 
d="M10 192l189.999 38.0029c3.33301 -26.667 14.666 -47 33.999 -61s40.333 -22.333 63 -25c3.33301 -0.666992 6.83301 -1.16699 10.5 -1.5s7.16699 -0.5 10.5 -0.5c21.333 0 40.333 4.16699 57 12.5s25 18.166 25 29.499v3c0 12.667 -8.16699 22.5 -24.5 29.5
s-36.833 13.5 -61.5 19.5l-45.5 10.5c-16.333 3.66699 -32.833 7.83398 -49.5 12.501c-45.333 13.333 -86.833 34.166 -124.5 62.499s-56.5 73.833 -56.5 136.5c0 1.33301 0.166992 3 0.5 5s0.5 4.33301 0.5 7v1.5v1.5c0.666992 2 1 3.83301 1 5.5v4.5
c4 58 35 105.167 93 141.5s121.667 54.5 191 54.5c5.33301 0 10.666 -0.166992 15.999 -0.5s10.333 -0.5 15 -0.5c48.667 -4.66699 94.834 -20 138.501 -46s76.5 -65 98.5 -117l-177 -54c-5.33301 17.333 -14.833 31.166 -28.5 41.499s-28.167 17.166 -43.5 20.499
c-5.33301 1.33301 -10.666 2.33301 -15.999 3s-10.333 1 -15 1c-16.667 0 -31.5 -3.16699 -44.5 -9.5s-19.5 -14.833 -19.5 -25.5l-2 -4c0 -16.667 9 -28.334 27 -35.001s40.667 -12.667 68 -18l42 -8c14.667 -2.66699 29.334 -5.66699 44.001 -9
c44.667 -11.333 85.667 -31.166 123 -59.499s56.666 -76.5 57.999 -144.5v-6c0 -72 -31 -126.833 -93 -164.5s-130.333 -56.5 -205 -56.5h-6.5h-7.5c-65.333 2.66699 -126.166 20.5 -182.499 53.5s-90.833 83.167 -103.5 150.5v1z" />
    <glyph glyph-name="T" unicode="T" horiz-adv-x="482" 
d="M141 2v514h-137v153h474v-153h-137v-514h-200v0z" />
    <glyph glyph-name="U" unicode="U" horiz-adv-x="650" 
d="M40 669l215 -0.00195312v-446c0 -27.333 9.16699 -47.666 27.5 -60.999s38.5 -20 60.5 -20s42 6.66699 60 20s27 33.333 27 60v447h170v-454c0 -65.333 -22.5 -119.666 -67.5 -162.999s-112.167 -65 -201.5 -65c-92 0 -163.5 18 -214.5 54s-76.5 101.333 -76.5 196v432v0
z" />
    <glyph glyph-name="V" unicode="V" horiz-adv-x="650" 
d="M230 2l-220 667h220l124 -414l122 414h177l-207 -667h-216v0z" />
    <glyph glyph-name="W" unicode="W" horiz-adv-x="897" 
d="M179 2l-175 667h190l94 -376l91 376h162l99 -368l93 368h160l-177 -667h-175l-93 368l-84 -368h-185v0z" />
    <glyph glyph-name="X" unicode="X" horiz-adv-x="688" 
d="M-10 2l221 352l-198 315h238l99 -160l100 160h192l-200 -307l230 -360h-238l-122 213l-131 -213h-191v0z" />
    <glyph glyph-name="Y" unicode="Y" horiz-adv-x="650" 
d="M223 2v291l-221 376h221l116 -208l114 208h185l-215 -376v-291h-200v0z" />
    <glyph glyph-name="Z" unicode="Z" horiz-adv-x="585" 
d="M0 2v122l299 392h-276v153h529v-122l-291 -385h299v-160h-560v0z" />
    <glyph glyph-name="bracketleft" unicode="[" horiz-adv-x="375" 
d="M57 -158v834h238v-76h-93v-674h93v-84h-238v0z" />
    <glyph glyph-name="backslash" unicode="\" horiz-adv-x="585" 
d="M429 2l-391 667h137l393 -667h-139v0z" />
    <glyph glyph-name="bracketright" unicode="]" horiz-adv-x="375" 
d="M65 -143v76h84v652h-84v84h238v-812h-238v0z" />
    <glyph glyph-name="asciicircum" unicode="^" horiz-adv-x="470" 
 />
    <glyph glyph-name="underscore" unicode="_" horiz-adv-x="482" 
d="M-4 -128v69h482v-69h-482v0z" />
    <glyph glyph-name="grave" unicode="`" horiz-adv-x="295" 
d="M55 377v147l92 137h83l-68 -122h61v-162h-168v0z" />
    <glyph glyph-name="a" unicode="a" horiz-adv-x="566" 
d="M358 70c-6 -22 -24.1689 -40.5059 -54.502 -55.5059s-63.166 -23.833 -98.499 -26.5c-2.66699 -0.666992 -5.5 -1 -8.5 -1h-9.5h-3h-3c-39.333 1.33301 -75.333 12.833 -108 34.5s-50 57.834 -52 108.501c0 0.666992 -0.166992 1.33398 -0.5 2.00098
s-0.5 1.33398 -0.5 2.00098s-0.166992 1.33398 -0.5 2.00098s-0.5 1.33398 -0.5 2.00098c0 56.667 21.333 97.5 64 122.5s89.667 41.833 141 50.5c20.667 4 41.334 6.83301 62.001 8.5s39.667 2.83398 57 3.50098v2v3c0 0.666992 0.166992 1.33398 0.5 2.00098
s0.5 1.33398 0.5 2.00098c0 2 0.166992 3.66699 0.5 5s0.5 2.33301 0.5 3c0 15.333 -5.66699 27 -17 35s-23.666 12.333 -36.999 13h-1.5h-1.5h-6c-2 0 -4 -0.333008 -6 -1c-16 -2 -30.667 -7.83301 -44 -17.5s-20.333 -22.834 -21 -39.501l-182 24
c16.667 51.333 48.167 89 94.5 113s95.833 37.333 148.5 40c4 0.666992 7.83301 1 11.5 1h11.5c61.333 0 116.666 -12 165.999 -36s74 -56 74 -96v-298c0 -13.333 1.5 -24.833 4.5 -34.5s6.16699 -18.167 9.5 -25.5c1.33301 -3.33301 2.83301 -6.33301 4.5 -9
s3.16699 -5.33398 4.5 -8.00098l-192 1c-2.66699 4 -4.5 9.83301 -5.5 17.5s-1.83301 15.5 -2.5 23.5v13.5v12.5v1zM342.998 229.994c-36.667 -6.66699 -64.668 -15.501 -84.001 -26.501s-31.666 -22.167 -36.999 -33.5c-2 -3.33301 -3.33301 -6.5 -4 -9.5
s-1 -6.16699 -1 -9.5c0 -6.66699 1.66699 -13 5 -19s7.33301 -11.667 12 -17c4 -3.33301 8.66699 -6.33301 14 -9s11 -4.66699 17 -6c2 -0.666992 4.16699 -1.16699 6.5 -1.5s4.5 -0.5 6.5 -0.5h1.5h1.5c15.333 0.666992 29.5 8.33398 42.5 23.001s19.5 38 19.5 70v39v0z
" />
    <glyph glyph-name="b" unicode="b" horiz-adv-x="566" 
d="M173 63c-4 -6.66699 -6.99707 -12.332 -8.99707 -16.999s-3.66699 -9.33398 -5 -14.001c-0.666992 -2 -1.16699 -3.66699 -1.5 -5s-0.833008 -2.66602 -1.5 -3.99902c-0.666992 -3.33301 -1.5 -6.83301 -2.5 -10.5s-2.16699 -7.5 -3.5 -11.5l-114 1v667h198v-231
c12 21.333 29.5 38.166 52.5 50.499s47.167 18.833 72.5 19.5h2.5h2.5c3.33301 0 6.66602 -0.166992 9.99902 -0.5s6.66602 -0.5 9.99902 -0.5c42 -5.33301 80.167 -27.5 114.5 -66.5s51.5 -98.5 51.5 -178.5c0 -92.667 -21.5 -162 -64.5 -208s-91.833 -69 -146.5 -69
c-6.66699 0 -13.334 0.333008 -20.001 1s-13.667 1.66699 -21 3c-22 4.66699 -43.667 13 -65 25s-41.333 28 -60 48v1zM234.003 331.002l-0.000976562 -153.998c0 -22.667 5.16699 -40.167 15.5 -52.5s21.833 -18.5 34.5 -18.5c2 0 4.16699 0.166992 6.5 0.5
s4.83301 0.833008 7.5 1.5c14.667 5.33301 28.334 18.666 41.001 39.999s19 51.666 19 90.999v16c-1.33301 37.333 -7.5 65.333 -18.5 84s-22.833 30.334 -35.5 35.001c-3.33301 1.33301 -6.5 2.33301 -9.5 3s-5.83301 1 -8.5 1c-13.333 0 -25.333 -4.83301 -36 -14.5
s-16 -20.834 -16 -33.501v1z" />
    <glyph glyph-name="c" unicode="c" horiz-adv-x="543" 
d="M347 208l169.002 -15.998c-8.66699 -66.667 -35.5 -115.834 -80.5 -147.501s-93.833 -47.834 -146.5 -48.501h-1h-2h-6.5h-7.5c-62 2.66699 -118.667 25.667 -170 69s-77 104 -77 182c2 84.667 27.667 149.667 77 195s103.666 70 162.999 74
c2.66699 0.666992 5.66699 1 9 1h10h5.5h4.5c51.333 -2 99.166 -20 143.499 -54s70.5 -83.333 78.5 -148l-177 -14v8c0 16.667 -5 31 -15 43s-21 19 -33 21c-0.666992 0.666992 -1.66699 1 -3 1h-4h-4c-1.33301 0 -2.66602 -0.333008 -3.99902 -1
c-13.333 -2.66699 -25.5 -13.167 -36.5 -31.5s-16.5 -47.5 -16.5 -87.5c0 -43.333 6.33301 -74.5 19 -93.5s26.667 -28.5 42 -28.5h4c1.33301 0 2.66602 0.333008 3.99902 1c13.333 2.66699 25.833 11.167 37.5 25.5s17.5 30.5 17.5 48.5v1z" />
    <glyph glyph-name="d" unicode="d" horiz-adv-x="566" 
d="M343 70c-8.66699 -27.333 -26.833 -48.334 -54.5 -63.001s-57.167 -22 -88.5 -22h-9.5c-3 0 -5.83301 0.333008 -8.5 1c-42.667 4 -81.5 24.833 -116.5 62.5s-52.5 97.834 -52.5 180.501c0 98 16.667 167.333 50 208s70 64 110 70c4 0 7.83301 0.166992 11.5 0.5
s7.5 0.5 11.5 0.5h2.5h2.5c26 -0.666992 50.833 -6.66699 74.5 -18s41.167 -24 52.5 -38v217h192v-667h-177v68v0zM328.001 323.999l0.000976562 3c0 1.33301 -0.333008 2.33301 -1 3c-2 11.333 -7.66699 22 -17 32s-19.666 16.333 -30.999 19
c-1.33301 0 -2.83301 0.166992 -4.5 0.5s-3.16699 0.5 -4.5 0.5h-4c-1.33301 0 -2.33301 -0.333008 -3 -1c-13.333 -2.66699 -25.333 -14.167 -36 -34.5s-16 -53.5 -16 -99.5c0 -43.333 5.83301 -75.333 17.5 -96s24.167 -32.334 37.5 -35.001
c1.33301 -0.666992 2.66602 -1 3.99902 -1h4c13.333 0 25.666 6.83301 36.999 20.5s17 29.834 17 48.501v140v0z" />
    <glyph glyph-name="e" unicode="e" horiz-adv-x="585" 
d="M213 215c0 -1.33301 -0.167969 -2.33008 -0.500977 -2.99707s-0.5 -1.33398 -0.5 -2.00098c0 -1.33301 -0.166992 -2.33301 -0.5 -3s-0.5 -1.33398 -0.5 -2.00098c0 -27.333 8 -47.833 24 -61.5s33.667 -21.167 53 -22.5h2.5h2.5h1.5h1.5
c18 0.666992 34.5 6.66699 49.5 18s22.5 26.333 22.5 45l184 -14c-12.667 -60.667 -43.667 -105.667 -93 -135s-102 -44.333 -158 -45h-2h-2h-6h-6c-65.333 2.66699 -125.666 23.5 -180.999 62.5s-85 95.5 -89 169.5c0 1.33301 -0.166992 2.5 -0.5 3.5
s-0.5 2.16699 -0.5 3.5c0 0.666992 -0.166992 1.66699 -0.5 3s-0.5 2.33301 -0.5 3c0 5.33301 0.166992 10.5 0.5 15.5s0.833008 10.167 1.5 15.5c6.66699 62 33.5 119 80.5 171s109.833 78 188.5 78c90.667 0 158 -27.833 202 -83.5s66 -121.834 66 -198.501v-18h-339v0z
M212.999 309.003l147 0.00390625c0 13.333 -2.83301 24.333 -8.5 33s-11.834 16.667 -18.501 24l-1.5 1.5l-1.5 1.5c-2.66699 4.66699 -6.66699 8.66699 -12 12s-10.666 5.66602 -15.999 6.99902c-3.33301 1.33301 -6.5 2.16602 -9.5 2.49902s-5.83301 0.5 -8.5 0.5
s-5.5 -0.333008 -8.5 -1s-6.16699 -1.33398 -9.5 -2.00098c-13.333 -4.66699 -25.5 -13.834 -36.5 -27.501s-16.5 -31.167 -16.5 -52.5v1z" />
    <glyph glyph-name="f" unicode="f" horiz-adv-x="398" 
d="M69 2l0.000976562 359.999h-77v122h77v25c0 52.667 14.667 94.5 44 125.5s80.666 46.5 153.999 46.5c19.333 0 40.833 -1 64.5 -3s48.5 -5.33301 74.5 -10v-129l-51 7c-15.333 2 -28.333 3 -39 3c-22 0 -36.667 -5.16699 -44 -15.5s-11 -27.166 -11 -50.499l129 1v-122
h-129v-360h-192v0z" />
    <glyph glyph-name="g" unicode="g" horiz-adv-x="566" 
d="M67 55c-12.667 8 -23.8301 18.5 -33.4971 31.5s-14.5 27.167 -14.5 42.5c0 8.66699 2.16699 18.167 6.5 28.5s11.166 20.833 20.499 31.5c7.33301 8 16.5 16.167 27.5 24.5s23.833 16.166 38.5 23.499c-22.667 6 -41.334 19.833 -56.001 41.5s-22 45.834 -22 72.501
c0 4.66699 0.166992 9.33398 0.5 14.001s1.16602 9 2.49902 13c7.33301 32.667 28.833 62.667 64.5 90s90.834 41 165.501 41c16 0 33.833 -0.666992 53.5 -2s39.834 -3.66602 60.501 -6.99902c6 55.333 23 87.833 51 97.5s59 14.834 93 15.501h2h2h22
c7.33301 0 14.666 0.333008 21.999 1l-7 -138c-24.667 -0.666992 -43.834 -1.5 -57.501 -2.5s-26.167 -4.16699 -37.5 -9.5c-0.666992 -0.666992 -1.5 -1.33398 -2.5 -2.00098s-2.16699 -1.33398 -3.5 -2.00098c10 -10 18.667 -20.667 26 -32s13.333 -22.666 18 -33.999
c3.33301 -9.33301 6 -18.5 8 -27.5s3 -17.833 3 -26.5c0 -36.667 -18.333 -70 -55 -100s-90.667 -45 -162 -45c-3.33301 0 -6.83301 0.166992 -10.5 0.5s-7.16699 0.833008 -10.5 1.5c-2 0 -4 0.166992 -6 0.5s-4 0.5 -6 0.5c-1.33301 0.666992 -3 1 -5 1h-6l-19 1
c-12.667 -0.666992 -22.667 -2.83398 -30 -6.50098s-12 -7.5 -14 -11.5c-0.666992 -1.33301 -1.16699 -2.5 -1.5 -3.5s-0.5 -1.83301 -0.5 -2.5c0 -1.33301 0.166992 -2.5 0.5 -3.5s0.833008 -2.16699 1.5 -3.5c1.33301 -2.66699 3.66602 -5.33398 6.99902 -8.00098
s6.66602 -4.66699 9.99902 -6c1.33301 -0.666992 2.5 -1.16699 3.5 -1.5s1.83301 -0.5 2.5 -0.5c7.33301 -2 16.5 -3.33301 27.5 -4s22.167 -1 33.5 -1l67 1c6.66699 -0.666992 13.5 -1 20.5 -1s13.833 -0.333008 20.5 -1c44.667 -2.66699 85.834 -13.667 123.501 -33
s58.167 -59.333 61.5 -120c0 -45.333 -18.167 -82.333 -54.5 -111s-110.166 -45 -221.499 -49h-44c-91.333 0 -157.166 12.667 -197.499 38s-60.5 53.333 -60.5 84c0 4.66699 0.5 9.5 1.5 14.5s2.16699 10.167 3.5 15.5c5.33301 12 13.666 24.167 24.999 36.5
s25.333 22.833 42 31.5v1zM211.004 10h-11.001c-13.333 -0.666992 -23.5 -3.33398 -30.5 -8.00098s-10.833 -10 -11.5 -16v-1.5v-1.5c0 -1.33301 0.166992 -2.66602 0.5 -3.99902s0.5 -3 0.5 -5c2.66699 -8 8.33398 -15.5 17.001 -22.5s18 -10.5 28 -10.5l124 -8
c17.333 0 31.666 3 42.999 9s19.333 12.667 24 20c0.666992 2 1.33398 3.83301 2.00098 5.5s1 3.5 1 5.5c0 8 -4.33301 14.667 -13 20s-22.667 8 -42 8l-132 9v0zM219.003 347c0 -19.333 6.33301 -34.332 19 -44.999s26.334 -16.334 41.001 -17.001h1.5h1.5h1.5h1.5
c14.667 0.666992 28 6.66699 40 18s18 28 18 50c0 15.333 -5.16699 27.833 -15.5 37.5s-21.833 15.5 -34.5 17.5c-2 0 -3.83301 0.166992 -5.5 0.5s-3.5 0.5 -5.5 0.5h-1.5h-1.5c-14.667 -0.666992 -28.334 -6.16699 -41.001 -16.5s-19 -25.833 -19 -46.5v1z" />
    <glyph glyph-name="h" unicode="h" horiz-adv-x="566" 
d="M29 2l0.000976562 666.998h198v-216c12 19.333 30 35.333 54 48s49.667 20.334 77 23.001c2.66699 0.666992 5.5 1 8.5 1h8.5h1.5h1.5c37.333 -0.666992 71.666 -14.167 102.999 -40.5s47 -70.166 47 -131.499v-351h-200v337c0 14 -4 24.333 -12 31s-17.333 10 -28 10
c-2 0 -4.33301 -0.166992 -7 -0.5s-5 -0.833008 -7 -1.5c-12 -3.33301 -22.833 -9.83301 -32.5 -19.5s-14.5 -21.5 -14.5 -35.5v-321h-198v0z" />
    <glyph glyph-name="i" unicode="i" horiz-adv-x="295" 
d="M40 2v499h190v-499h-190v0zM40 547v122h190v-122h-190v0z" />
    <glyph glyph-name="j" unicode="j" horiz-adv-x="295" 
d="M40 32l-0.000976562 469h190v-499c0 -53.333 -12.5 -95.5 -37.5 -126.5s-68.167 -46.5 -129.5 -46.5c-16.667 0 -34.334 0.833008 -53.001 2.5s-38.667 5.16699 -60 10.5l-1 145l9 -3.5c2.66699 -1 5.33398 -2.16699 8.00098 -3.5c5.33301 -1.33301 10.5 -2.5 15.5 -3.5
s9.5 -1.5 13.5 -1.5c14.667 0 25.834 5.33301 33.501 16s11.5 24 11.5 40v1zM39.999 547v122h190v-122h-190v0z" />
    <glyph glyph-name="k" unicode="k" horiz-adv-x="566" 
d="M36 2v667h191v-345l146 177h170l-139 -154l169 -345h-207l-92 198l-47 -53v-145h-191v0z" />
    <glyph glyph-name="l" unicode="l" horiz-adv-x="295" 
d="M40 2v667h190v-667h-190v0z" />
    <glyph glyph-name="m" unicode="m" horiz-adv-x="836" 
d="M34 2l0.00195312 499h176v-55c14 21.333 31.667 38.166 53 50.499s43.666 20.166 66.999 23.499c3.33301 0 7 0.166992 11 0.5s7.66699 0.5 11 0.5h2h2c28.667 -0.666992 55.5 -8.16699 80.5 -22.5s42.167 -34.833 51.5 -61.5c8 22 25.833 41 53.5 57
s57.5 25.333 89.5 28c2.66699 0.666992 5.5 1 8.5 1h8.5c37.333 0 71 -12.167 101 -36.5s45 -66.166 45 -125.499v-359h-192v329c0 13.333 -3.66699 23.833 -11 31.5s-15.333 12.167 -24 13.5h-2.5h-2.5h-2.5h-2.5c-12 -2 -22.833 -8.66699 -32.5 -20
s-14.5 -27.333 -14.5 -48v-306h-192v337c0 12.667 -4 22.334 -12 29.001s-17 10.667 -27 12h-2.5h-2.5h-3.5c-1 0 -2.16699 -0.333008 -3.5 -1c-10.667 -1.33301 -20.334 -6.33301 -29.001 -15s-13 -20 -13 -34v-328h-191v0z" />
    <glyph glyph-name="n" unicode="n" horiz-adv-x="566" 
d="M44 2v499h183v-55c12 18 30 33.333 54 46s49.667 20 77 22c2.66699 0.666992 5.5 1 8.5 1h8.5c40 0 76.667 -12.833 110 -38.5s50 -69.167 50 -130.5v-344h-200v337c0 12 -4 20.833 -12 26.5s-16.667 8.5 -26 8.5h-3.5c-1 0 -2.16699 -0.333008 -3.5 -1
c-11.333 -1.33301 -21.833 -6 -31.5 -14s-14.5 -17.667 -14.5 -29v-328h-200v0z" />
    <glyph glyph-name="o" unicode="o" horiz-adv-x="585" 
d="M8 263c0 82.667 27.334 145.667 82.001 189s116.667 67 186 71h3.5h2.5c67.333 -1.33301 129.5 -22 186.5 -62s87.5 -101.333 91.5 -184v-22c0 -86 -27.833 -151 -83.5 -195s-116.834 -67.333 -183.501 -70h-5h-6c-68.667 0 -131.5 22.5 -188.5 67.5
s-85.5 113.167 -85.5 204.5v1zM284.001 400c-21.333 -0.666992 -38 -14.333 -50 -41s-18.667 -55.667 -20 -87c-0.666992 -3.33301 -1 -6.5 -1 -9.5v-8.5c0 -38.667 6.16699 -72.667 18.5 -102s29.833 -44 52.5 -44c23.333 0 40.5 13.833 51.5 41.5s16.5 58.834 16.5 93.501
v10c0 3.33301 -0.333008 6.66602 -1 9.99902c-2 34 -8.83301 65.167 -20.5 93.5s-27.167 42.5 -46.5 42.5v1z" />
    <glyph glyph-name="p" unicode="p" horiz-adv-x="566" 
d="M36 -158l-0.000976562 658.999h183v-55c9.33301 22 26.833 40.333 52.5 55s53.834 22 84.501 22c4 0 8.16699 -0.166992 12.5 -0.5s8.5 -0.833008 12.5 -1.5c42 -6 80.667 -29 116 -69s53 -103.333 53 -190c0 -90.667 -19 -158.334 -57 -203.001s-80 -68.667 -126 -72
h-5.5h-5.5c-4 0 -7.83301 0.166992 -11.5 0.5s-7.5 0.833008 -11.5 1.5c-19.333 2.66699 -38.333 8.83398 -57 18.501s-35 22.834 -49 39.501v-205h-191v0zM226.999 346.999l-0.000976562 -155.001c0 -23.333 5 -42 15 -56s21.333 -21 34 -21
c2.66699 0 5.33398 0.333008 8.00098 1s5.66699 1.66699 9 3c14 6.66699 27 22.167 39 46.5s18 58.833 18 103.5c0 42 -6 72.333 -18 91s-25.333 29.334 -40 32.001c-2 0.666992 -3.83301 1 -5.5 1h-4.5c-14.667 0 -27.5 -4.83301 -38.5 -14.5s-16.5 -20.5 -16.5 -32.5v1z
" />
    <glyph glyph-name="q" unicode="q" horiz-adv-x="566" 
d="M328 63c-6.66699 -22.667 -22.1689 -40.5 -46.502 -53.5s-50.166 -19.5 -77.499 -19.5c-5.33301 0 -10.833 0.333008 -16.5 1s-11.5 1.66699 -17.5 3c-39.333 7.33301 -75.333 31 -108 71s-49 100.667 -49 182c0 92.667 19.167 160.5 57.5 203.5
s80.833 67.833 127.5 74.5c4.66699 0.666992 9.5 1.16699 14.5 1.5s9.83301 0.5 14.5 0.5h2h2c32.667 -0.666992 63.334 -8.5 92.001 -23.5s48 -34.5 58 -58.5l38 56h101v-659h-192v221v0zM327.998 339c0 17.333 -4.83301 32.168 -14.5 44.501s-20.5 19.5 -32.5 21.5h-2.5
h-2.5c-2 0 -4 -0.166992 -6 -0.5s-3.66699 -0.833008 -5 -1.5c-14 -4.66699 -26.5 -18.5 -37.5 -41.5s-16.5 -58.833 -16.5 -107.5c0 -46.667 5.16699 -80.834 15.5 -102.501s21.833 -34.5 34.5 -38.5c2 -0.666992 3.83301 -1.16699 5.5 -1.5s3.5 -0.5 5.5 -0.5h2.5h2.5
c10 1.33301 19.333 5.5 28 12.5s15 14.833 19 23.5c1.33301 2 2.33301 4.33301 3 7s1 5 1 7v178v0z" />
    <glyph glyph-name="r" unicode="r" horiz-adv-x="375" 
d="M27 2v499h167v-86c9.33301 37.333 25.833 64.666 49.5 81.999s52.834 26 87.501 26l25 1v-185c-2.66699 0 -5.66699 0.333008 -9 1l-10 2c-5.33301 0.666992 -10.333 1.16699 -15 1.5s-9 0.5 -13 0.5c-24.667 0 -44.834 -7.66699 -60.501 -23
s-23.5 -37.666 -23.5 -66.999v-252h-198v0z" />
    <glyph glyph-name="s" unicode="s" horiz-adv-x="543" 
d="M17 139l153.005 23.0029c4.66699 -18.667 16.167 -32.5 34.5 -41.5s37.833 -14.167 58.5 -15.5c2 -0.666992 4.33301 -1 7 -1h8c19.333 0 36.833 2.66699 52.5 8s23.5 11.333 23.5 18c0 15.333 -9.16699 25.833 -27.5 31.5s-40.5 10.167 -66.5 13.5
c-10 1.33301 -20.333 2.83301 -31 4.5s-21.334 3.5 -32.001 5.5c-39.333 7.33301 -75.333 21.166 -108 41.499s-49 57.5 -49 111.5c0 61.333 23.167 106.833 69.5 136.5s98.166 44.5 155.499 44.5h10c3.33301 0 7 -0.333008 11 -1
c46.667 -2.66699 91.167 -15.334 133.5 -38.001s72.166 -54.667 89.499 -96l-155 -30c-5.33301 12 -13.833 21.667 -25.5 29s-23.834 12.333 -36.501 15c-4.66699 1.33301 -9.33398 2.16602 -14.001 2.49902s-9 0.5 -13 0.5c-15.333 0 -28.666 -2.5 -39.999 -7.5
s-17 -10.833 -17 -17.5c0 -15.333 8.33301 -25.166 25 -29.499s37.667 -7.5 63 -9.5c11.333 -0.666992 23.166 -1.5 35.499 -2.5s24.5 -2.5 36.5 -4.5c34.667 -6 67 -19 97 -39s49.667 -55.667 59 -107c0.666992 -2 1 -4 1 -6v-7c0.666992 -4 1 -8 1 -12v-11
c0 -55.333 -25.833 -96.333 -77.5 -123s-108.5 -40 -170.5 -40h-4.5h-4.5c-60.667 1.33301 -116.667 15.166 -168 41.499s-79.333 63.5 -84 111.5v1z" />
    <glyph glyph-name="t" unicode="t" horiz-adv-x="398" 
d="M69 370l-69 -0.00195312v131h84l15 152l170 8v-160h99v-131h-99v-170c0 -23.333 1.5 -40.5 4.5 -51.5s12.167 -16.5 27.5 -16.5c5.33301 0 12.333 1 21 3l29 7c2.66699 0.666992 5.5 1.33398 8.5 2.00098s5.83301 1.33398 8.5 2.00098v-136
c-8 -2.66699 -16.167 -5 -24.5 -7s-16.833 -3.33301 -25.5 -4c-16 -3.33301 -31.5 -5.83301 -46.5 -7.5s-29.167 -2.5 -42.5 -2.5c-44.667 0 -82.5 12 -113.5 36s-46.5 69.333 -46.5 136v209v0z" />
    <glyph glyph-name="u" unicode="u" horiz-adv-x="585" 
d="M330 70c-9.33301 -21.333 -26.499 -39 -51.499 -53s-51.833 -22.667 -80.5 -26c-3.33301 0 -6.83301 -0.166992 -10.5 -0.5s-7.16699 -0.5 -10.5 -0.5c-36.667 0 -70.334 11.5 -101.001 34.5s-46 60.833 -46 113.5v363h191v-309c0 -19.333 4.5 -33.833 13.5 -43.5
s19.167 -14.5 30.5 -14.5c2 0 3.83301 0.166992 5.5 0.5s3.5 0.5 5.5 0.5c11.333 3.33301 21.833 10.5 31.5 21.5s14.5 25.167 14.5 42.5v302h192v-499h-184v68v0z" />
    <glyph glyph-name="v" unicode="v" horiz-adv-x="543" 
d="M192 2l-190 499h206l85 -246l84 246h147l-185 -499h-147v0z" />
    <glyph glyph-name="w" unicode="w" horiz-adv-x="771" 
d="M170 2l-160 499h198l62 -238l61 238h145l55 -231l69 231h147l-162 -499h-147l-61 268l-68 -268h-139v0z" />
    <glyph glyph-name="x" unicode="x" horiz-adv-x="566" 
d="M173 263l-160 238h231l61 -116l61 116h169l-146 -223l184 -276h-230l-84 152l-109 -152h-160l183 261v0z" />
    <glyph glyph-name="y" unicode="y" horiz-adv-x="543" 
d="M293 238l83.999 263h147l-200 -545c-18 -48.667 -43.833 -80.167 -77.5 -94.5s-77.834 -21.5 -132.501 -21.5c-6.66699 0 -13.5 0.166992 -20.5 0.5s-14.167 0.5 -21.5 0.5s-15 0.166992 -23 0.5s-16 0.5 -24 0.5v145c6.66699 -3.33301 13.834 -6 21.501 -8
s15.5 -3.66699 23.5 -5c6.66699 -1.33301 13.5 -2.33301 20.5 -3s13.5 -1 19.5 -1c18.667 0 34.834 3 48.501 9s20.5 16.333 20.5 31v5v6c-0.666992 2 -1 3.83301 -1 5.5s-0.333008 3.16699 -1 4.5l-183 470h214l85 -263v0z" />
    <glyph glyph-name="z" unicode="z" horiz-adv-x="482" 
d="M19 2v114l206 261h-191v124h421v-109l-213 -261h221v-129h-444v0z" />
    <glyph glyph-name="braceleft" unicode="{" horiz-adv-x="375" 
d="M11 309c2.66699 -0.666992 5.16895 -1.16602 7.50195 -1.49902s4.5 -0.5 6.5 -0.5c2.66699 0 5 -0.166992 7 -0.5s4 -0.5 6 -0.5c26.667 0 45.334 5.16699 56.001 15.5s16 23.5 16 39.5v193c0 24 11.167 46 33.5 66s47.166 34 74.499 42c6.66699 2 13.334 3.5 20.001 4.5
s13 1.5 19 1.5l99 1v-84h-30c-22.667 -0.666992 -39.834 -4.83398 -51.501 -12.501s-17.5 -19.167 -17.5 -34.5v-176c0 -31.333 -10.833 -55 -32.5 -71s-57.167 -25.667 -106.5 -29l15 1c0.666992 -0.666992 1.5 -1 2.5 -1h3.5c29.333 -1.33301 56.333 -9.5 81 -24.5
s37 -32.833 37 -53.5v-190c0 -30.667 5.5 -48.5 16.5 -53.5s25.833 -7.5 44.5 -7.5h38v-83h-99c-46.667 0 -82.834 12.333 -108.501 37s-38.5 65.334 -38.5 122.001v138c0 37.333 -8.83301 59.166 -26.5 65.499s-41.834 9.5 -72.501 9.5v87v0z" />
    <glyph glyph-name="bar" unicode="|" horiz-adv-x="295" 
d="M63 2v659h152v-659h-152v0z" />
    <glyph glyph-name="braceright" unicode="}" horiz-adv-x="375" 
d="M225 270c-34.667 -0.666992 -63.667 6.99902 -87 22.999s-35 41.333 -35 76v162c0 14.667 -2.83301 25.834 -8.5 33.501s-18.167 11.5 -37.5 11.5l-53 1v92h106c38.667 -0.666992 71.667 -12.5 99 -35.5s41 -49.833 41 -80.5v-199
c0 -13.333 4.16699 -23.166 12.5 -29.499s17.833 -10.833 28.5 -13.5c4.66699 -1.33301 9.33398 -2.16602 14.001 -2.49902s9 -0.5 13 -0.5l38 1v-86h-30c-30.667 -0.666992 -51 -6.66699 -61 -18s-15 -28.666 -15 -51.999v-197c0 -30.667 -14 -57.334 -42 -80.001
s-63 -34 -105 -34h-99v91c45.333 0 73.166 3.5 83.499 10.5s15.5 23.833 15.5 50.5v168c0 33.333 9.83301 58.666 29.5 75.999s50.5 27.666 92.5 30.999v1z" />
    <glyph glyph-name="asciitilde" unicode="~" horiz-adv-x="470" 
 />
    <glyph glyph-name="endash" unicode="&#xa1;" horiz-adv-x="470" 
 />
    <glyph glyph-name="cent" unicode="&#xa2;" horiz-adv-x="585" 
d="M190 293l161.997 0.000976562c0.666992 -3.33301 1.16699 -6.33301 1.5 -9s0.5 -5.33398 0.5 -8.00098c0.666992 -4 1.16699 -8.16699 1.5 -12.5s0.5 -8.16602 0.5 -11.499c0 -30 -6.66699 -54 -20 -72s-27.666 -34 -42.999 -48l-4 -4
c-1.33301 -1.33301 -2.66602 -2.33301 -3.99902 -3c-14.667 -13.333 -27.667 -27.5 -39 -42.5s-17 -34.5 -17 -58.5c0 -16 5.83301 -29.333 17.5 -40s24.834 -16 39.501 -16c2.66699 0 5.16699 0.166992 7.5 0.5s4.83301 0.833008 7.5 1.5c14 4 26.833 14.833 38.5 32.5
s18.5 45.167 20.5 82.5l177 -30c-12 -76.667 -42.167 -132.834 -90.5 -168.501s-100.5 -54.834 -156.5 -57.501h-6.5h-7.5h-3.5h-2.5c-59.333 1.33301 -114 18.833 -164 52.5s-77.667 78.5 -83 134.5c0 1.33301 -0.166992 2.83301 -0.5 4.5s-0.5 3.5 -0.5 5.5
c0 1.33301 -0.166992 2.83301 -0.5 4.5s-0.5 3.16699 -0.5 4.5c0 40 8.83301 72.667 26.5 98s37.167 46.666 58.5 63.999c12 10.667 23.833 20.334 35.5 29.001s21.5 17 29.5 25c6 6 10.667 11.833 14 17.5s5 11.834 5 18.501v6v0zM174.997 324.001v185h193v-185h-193v0z
" />
    <glyph glyph-name="sterling" unicode="&#xa3;" horiz-adv-x="417" 
d="M93 255l-53 145h76l84 -137l-76 -139h-84l53 131v0zM255 255l-55 145h78l84 -137l-76 -139h-86l55 131v0z" />
    <glyph glyph-name="Idieresis" unicode="&#xa4;" horiz-adv-x="524" 
d="M122 392l-46 132v152h153v-152l-39 -132h-68v0zM314 392l-38 132v152h153v-152l-46 -132h-69v0z" />
    <glyph glyph-name="ae" unicode="&#xa5;" horiz-adv-x="470" 
 />
    <glyph glyph-name="brokenbar" unicode="&#xa6;" 
 />
    <glyph glyph-name="section" unicode="&#xa7;" horiz-adv-x="470" 
 />
    <glyph glyph-name="dieresis" unicode="&#xa8;" 
 />
    <glyph glyph-name="copyright" unicode="&#xa9;" horiz-adv-x="585" 
d="M84 415l-46.002 45.9971l76 78l46 -46c13.333 8.66699 29 15.834 47 21.501s36.333 9.5 55 11.5c4.66699 0 9.33398 0.166992 14.001 0.5s9.33398 0.5 14.001 0.5h10c3.33301 0 6.33301 -0.333008 9 -1c20 -1.33301 39.167 -4.83301 57.5 -10.5s33.833 -13.5 46.5 -23.5
l46 47l78 -78l-46 -46c10.667 -19.333 19.5 -40.333 26.5 -63s10.5 -46.334 10.5 -71.001c0 -15.333 -1.66699 -31.666 -5 -48.999s-9.33301 -34.666 -18 -51.999c-2 -4.66699 -4.16699 -9.16699 -6.5 -13.5l-7.5 -13.5l46 -44l-78 -77l-46 46
c-14 -10 -30 -17.833 -48 -23.5s-36.333 -9.16699 -55 -10.5c-4 0 -8 -0.166992 -12 -0.5s-8 -0.5 -12 -0.5c-22.667 0 -45 2.83301 -67 8.5s-41.667 14.167 -59 25.5l-46 -45l-76 77l46 45c-13.333 22.667 -23.333 45.334 -30 68.001s-10 45 -10 67v9.5
c0 3 0.333008 5.83301 1 8.5c1.33301 18.667 5.33301 37.167 12 55.5s15.667 35.5 27 51.5v1zM283.998 399.997c-31.333 -0.666992 -56.167 -11 -74.5 -31s-29.166 -41.667 -32.499 -65c-0.666992 -3.33301 -1.16699 -6.5 -1.5 -9.5s-0.5 -6.16699 -0.5 -9.5
c0 -31.333 9.66699 -58.5 29 -81.5s48.333 -34.5 87 -34.5c37.333 0 65.166 11.5 83.499 34.5s27.5 48.167 27.5 75.5v7.5c0 2.33301 -0.333008 4.83301 -1 7.5c-3.33301 26 -15 50 -35 72s-47.333 33 -82 33v1z" />
    <glyph glyph-name="ellipsis" unicode="&#xaa;" horiz-adv-x="585" 
d="M107 48c-19.333 17.333 -35.6699 35.335 -49.0029 54.002s-23.666 37.667 -30.999 57c-5.33301 13.333 -9.33301 26.666 -12 39.999s-4 26.666 -4 39.999c0 42 10 82.167 30 120.5s42 69.166 66 92.499c18 19.333 41.833 34.333 71.5 45s63.5 16 101.5 16
c12.667 0 26.5 -0.833008 41.5 -2.5s30.167 -3.83398 45.5 -6.50098l11.5 -2l11.5 -2l39 62h93l-63 -101c31.333 -27.333 55.666 -58.5 72.999 -93.5s26.666 -70.833 27.999 -107.5v-5.5v-4.5c0 -6 -0.166992 -12 -0.5 -18s-1.16602 -12 -2.49902 -18
c-3.33301 -23.333 -10.5 -46.666 -21.5 -69.999s-25.833 -45.666 -44.5 -66.999c-19.333 -20.667 -41.166 -37.5 -65.499 -50.5s-49.166 -22.5 -74.499 -28.5c-11.333 -2.66699 -22.666 -4.66699 -33.999 -6s-22.333 -2 -33 -2c-18 0 -35.5 1.66699 -52.5 5
s-33.167 8 -48.5 14l-38 -60h-99l61 99v0zM245.996 131.002c4.66699 -5.33301 9.66699 -9.83301 15 -13.5s11 -6.16699 17 -7.5c1.33301 0 2.66602 -0.166992 3.99902 -0.5s2.66602 -0.5 3.99902 -0.5c2.66699 0 5.33398 0.333008 8.00098 1s5.33398 1.66699 8.00098 3
c4 2 7.66699 4.5 11 7.5s6.33301 6.16699 9 9.5c8.66699 9.33301 15 22.5 19 39.5s6 38.167 6 63.5v28c0 10 -0.666992 20.333 -2 31l-99 -161v0zM220.996 208.002l101.001 162.003c-0.666992 0 -1.33398 0.166992 -2.00098 0.5s-1.66699 0.5 -3 0.5v0v0
c-6.66699 3.33301 -13 6.33301 -19 9s-10.667 4 -14 4h-2h-3c-5.33301 -0.666992 -10.833 -2.16699 -16.5 -4.5s-10.167 -5.16602 -13.5 -8.49902c-0.666992 0 -1.16699 -0.166992 -1.5 -0.5l-1.5 -1.5c-0.666992 -0.666992 -1.16699 -1.5 -1.5 -2.5
s-0.833008 -1.83301 -1.5 -2.5c-6.66699 -12.667 -12.667 -28.834 -18 -48.501s-8 -42.5 -8 -68.5c0 -2.66699 0.166992 -5.66699 0.5 -9s0.833008 -7 1.5 -11v-2c0 -0.666992 0.333008 -1.33398 1 -2.00098c0 -2.66699 0.166992 -5.33398 0.5 -8.00098
s0.5 -5.33398 0.5 -8.00098v1z" />
    <glyph glyph-name="ydieresis" unicode="&#xab;" horiz-adv-x="650" 
d="M48 -59l0.00292969 375.003h-31v114h31c3.33301 88.667 32.5 151.667 87.5 189s115.167 56 180.5 56l27 1c63.333 -0.666992 113.666 -13.334 150.999 -38.001s57.333 -58 60 -100v-18c0 -34 -12.5 -60.833 -37.5 -80.5s-52.5 -33.167 -82.5 -40.5
c-10 -2.66699 -19.833 -4.66699 -29.5 -6s-18.834 -2 -27.501 -2c12 -4.66699 28.833 -10.834 50.5 -18.501s44.5 -17.834 68.5 -30.501c33.333 -16.667 64 -38.167 92 -64.5s42 -58.166 42 -95.499v-12c-5.33301 -59.333 -29.166 -105 -71.499 -137s-96.5 -48 -162.5 -48
c-18.667 0 -38.834 1.33301 -60.501 4s-43.5 6.66699 -65.5 12l46 130c6.66699 -4.66699 13.834 -8.5 21.501 -11.5s15.5 -5.5 23.5 -7.5c4.66699 -1.33301 9.5 -2.33301 14.5 -3s9.83301 -1 14.5 -1h3.5h3.5c12 0.666992 23.5 3.66699 34.5 9s18.167 12.333 21.5 21
c0 1.33301 0.166992 2.33301 0.5 3s0.5 1.66699 0.5 3c0 0.666992 0.166992 1.5 0.5 2.5s0.5 1.83301 0.5 2.5c0 9.33301 -4.33301 17.666 -13 24.999s-19.334 14.666 -32.001 21.999c-7.33301 4 -15.166 7.83301 -23.499 11.5s-16.833 7.83398 -25.5 12.501
c-14 7.33301 -27.833 15.5 -41.5 24.5s-24.834 19.833 -33.501 32.5c-5.33301 7.33301 -9.83301 14.833 -13.5 22.5s-6.5 15.5 -8.5 23.5c-1.33301 3.33301 -2.16602 7 -2.49902 11s-0.5 8 -0.5 12c0 18 4.66699 37.333 14 58s23 42 41 64
c0.666992 0 1.5 -0.166992 2.5 -0.5s1.83301 -0.5 2.5 -0.5h1.5h1.5c0.666992 -0.666992 1.33398 -1 2.00098 -1h2c2 0 4.16699 0.166992 6.5 0.5s4.5 0.833008 6.5 1.5c9.33301 2.66699 17.666 8 24.999 16s11 18.333 11 31c0 13.333 -6.33301 23.5 -19 30.5
s-26.334 10.833 -41.001 11.5h-1.5h-1.5h-4.5c-1.66699 0 -3.5 -0.333008 -5.5 -1c-16.667 -1.33301 -31.834 -7.33301 -45.501 -18s-20.5 -26 -20.5 -46v-551h-190v0z" />
    <glyph glyph-name="emdash" unicode="&#xac;" 
 />
    <glyph glyph-name="uni00AD" unicode="&#xad;" 
 />
    <glyph glyph-name="registered" unicode="&#xae;" horiz-adv-x="295" 
d="M124 516h-61v160h167v-145l-91 -154h-84l69 139v0z" />
    <glyph glyph-name="glyph263" unicode="&#xaf;" 
 />
    <glyph glyph-name="glyph264" unicode="&#xb0;" 
 />
    <glyph glyph-name="mu" unicode="&#xb1;" 
 />
    <glyph glyph-name="uni00B2" unicode="&#xb2;" 
 />
    <glyph glyph-name="uni00B3" unicode="&#xb3;" 
 />
    <glyph glyph-name="acute" unicode="&#xb4;" 
 />
    <glyph glyph-name="oslash" unicode="&#xb5;" 
 />
    <glyph glyph-name="paragraph" unicode="&#xb6;" 
 />
    <glyph glyph-name="glyph265" unicode="&#xb7;" 
 />
    <glyph glyph-name="bullet" unicode="&#xb8;" 
 />
    <glyph glyph-name="uni00B9" unicode="&#xb9;" 
 />
    <glyph glyph-name="Agrave" unicode="&#xba;" horiz-adv-x="470" 
 />
    <glyph glyph-name="Ydieresis" unicode="&#xbb;" 
 />
    <glyph glyph-name="onequarter" unicode="&#xbc;" 
 />
    <glyph glyph-name="glyph243" unicode="&#xbd;" 
 />
    <glyph glyph-name="threequarters" unicode="&#xbe;" 
 />
    <glyph glyph-name="oe" unicode="&#xbf;" horiz-adv-x="470" 
 />
    <glyph glyph-name="currency" unicode="&#xc0;" horiz-adv-x="314" 
d="M27 -173l53 443h130l62 -443h-245v0zM50 309v184h192v-184h-192v0z" />
    <glyph glyph-name="breve" unicode="&#xc1;" 
 />
    <glyph glyph-name="tilde" unicode="&#xc2;" horiz-adv-x="585" 
d="M246 116c-60.667 3.33301 -108.334 29.1689 -143.001 77.502s-52 100.833 -52 157.5v9.5c0 3 0.333008 5.83301 1 8.5c3.33301 50.667 21 98.167 53 142.5s79 73.5 141 87.5v100h99v-99c49.333 -12 91.166 -34.167 125.499 -66.5s51.5 -72.166 51.5 -119.499l-170 -14v8
c0 19.333 -5.5 35 -16.5 47s-23.167 18 -36.5 18h-4c-1.33301 0 -2.66602 -0.333008 -3.99902 -1c-13.333 -2.66699 -25.5 -13.334 -36.5 -32.001s-16.5 -47.667 -16.5 -87c0 -40 6.33301 -69 19 -87s26.334 -27.667 41.001 -29h1.5h1.5h1.5h1.5
c14 1.33301 26.833 8.66602 38.5 21.999s17.5 29.666 17.5 48.999l162 -15c-2.66699 -37.333 -15 -69.5 -37 -96.5s-46 -47.5 -72 -61.5c-12 -6.66699 -23.833 -11.667 -35.5 -15s-22.5 -5 -32.5 -5v-128h-99v129v0z" />
    <glyph glyph-name="guilsinglleft" unicode="&#xc3;" horiz-adv-x="939" 
d="M-6 2l299 682h614v-160h-307v-101h246v-145h-246v-108h307v-168h-515v137h-162l-60 -137h-176v0zM293 286h99v230l-99 -230v0z" />
    <glyph glyph-name="Adieresis" unicode="&#xc4;" 
 />
    <glyph glyph-name="Aring" unicode="&#xc5;" horiz-adv-x="470" 
 />
    <glyph glyph-name="Oslash" unicode="&#xc6;" 
 />
    <glyph glyph-name="Ccedilla" unicode="&#xc7;" horiz-adv-x="585" 
d="M122 331c0 60.667 17.5 105.333 52.5 134s73.833 43 116.5 43c42 0 80.5 -15 115.5 -45s52.5 -71.667 52.5 -125c0 -54.667 -16.333 -96.667 -49 -126s-69 -45.333 -109 -48c-2 -0.666992 -4.16699 -1 -6.5 -1h-6.5h-2.5h-3.5c-40 1.33301 -76.667 16 -110 44
s-50 69 -50 123v1z" />
    <glyph glyph-name="ring" unicode="&#xc8;" horiz-adv-x="585" 
d="M8 2l0.000976562 144.998c2 -0.666992 4 -1.16699 6 -1.5s4 -0.5 6 -0.5s4 -0.166992 6 -0.5s4 -0.5 6 -0.5c30.667 0 54 6.5 70 19.5s24 35.5 24 67.5v20c0 7.33301 -0.666992 15 -2 23c0 3.33301 -0.166992 6.5 -0.5 9.5s-0.833008 5.83301 -1.5 8.5l-92 1v115h69
c-1.33301 5.33301 -2.5 11.333 -3.5 18s-2.16699 13.667 -3.5 21c0 4 -0.166992 8 -0.5 12s-0.5 8 -0.5 12c0 7.33301 0.333008 14.5 1 21.5s1.66699 14.167 3 21.5c5.33301 25.333 16.5 49.833 33.5 73.5s42.833 42.834 77.5 57.501c23.333 9.33301 46 16 68 20s43 6 63 6
c56.667 0 104.667 -13.833 144 -41.5s65.666 -58.167 78.999 -91.5l-154 -45c-5.33301 10 -12.166 19 -20.499 27s-16.833 14 -25.5 18c-3.33301 1.33301 -6.5 2.33301 -9.5 3s-6.16699 1 -9.5 1c-2 0 -4.16699 -0.166992 -6.5 -0.5s-4.5 -1.16602 -6.5 -2.49902
c-4 -1.33301 -7.83301 -3.33301 -11.5 -6s-6.83398 -6 -9.50098 -10c-3.33301 -4 -6 -8.5 -8 -13.5s-3.33301 -10.167 -4 -15.5c-0.666992 -2.66699 -1.16699 -5.5 -1.5 -8.5s-0.5 -5.83301 -0.5 -8.5c0 -5.33301 0.333008 -10.833 1 -16.5l2 -17.5
c0.666992 -3.33301 1.16699 -6.83301 1.5 -10.5s0.5 -7.5 0.5 -11.5c0.666992 -2 1 -4.16699 1 -6.5v-7.5l107 1v-115h-92v-26v-5v-4c-1.33301 -22.667 -7.5 -44.667 -18.5 -66s-30.167 -39.333 -57.5 -54l69 1c30.667 -0.666992 56 5 76 17s30 31.333 30 58l162 -22
c-7.33301 -53.333 -31 -98.5 -71 -135.5s-90.667 -55.5 -152 -55.5l-344 1v0z" />
    <glyph glyph-name="Eacute" unicode="&#xc9;" 
 />
    <glyph glyph-name="macron" unicode="&#xca;" horiz-adv-x="470" 
 />
    <glyph glyph-name="dotaccent" unicode="&#xcb;" horiz-adv-x="585" 
d="M206 2v206h-160v101h152l-23 45h-122l-7 99h76l-122 216h198l116 -239l107 239h154l-116 -216h86v-99h-132l-23 -45h155v-101h-162v-206h-177v0z" />
    <glyph glyph-name="caron" unicode="&#xcc;" 
 />
    <glyph glyph-name="cedilla" unicode="&#xcd;" 
 />
    <glyph glyph-name="hungarumlaut" unicode="&#xce;" horiz-adv-x="470" 
 />
    <glyph glyph-name="ogonek" unicode="&#xcf;" horiz-adv-x="585" 
d="M444 162c26.667 -12 47.1699 -29.834 61.5029 -53.501s21.833 -48.5 22.5 -74.5v-2.5v-2.5c0 -4 -0.166992 -8.16699 -0.5 -12.5s-0.833008 -8.83301 -1.5 -13.5c-6.66699 -38.667 -28.834 -74.667 -66.501 -108s-91.167 -51 -160.5 -53c-73.333 0 -129 13 -167 39
s-66.667 63.667 -86 113l137 23c8 -14.667 19.5 -27.334 34.5 -38.001s30.5 -18.334 46.5 -23.001c6.66699 -2 13.334 -3.5 20.001 -4.5s13 -1.5 19 -1.5c17.333 0 32.5 4.33301 45.5 13s19.5 21 19.5 37v10c-2.66699 10.667 -10.667 20.334 -24 29.001s-30 17 -50 25
l-40 15l-43 17c-38.667 16 -74.167 36.5 -106.5 61.5s-49.5 59.833 -51.5 104.5c0 11.333 1.16699 23.166 3.5 35.499s6.16602 24.833 11.499 37.5c5.33301 12 12.333 24.167 21 36.5s19.667 24.166 33 35.499c-18 10.667 -32.333 25.167 -43 43.5s-16 37.833 -16 58.5
c0 4.66699 0.166992 9.33398 0.5 14.001s1.16602 9.33398 2.49902 14.001c7.33301 34.667 29.333 66.334 66 95.001s89.667 43 159 43c49.333 0 92.666 -8.83301 129.999 -26.5s66 -49.5 86 -95.5l-124 -29c-5.33301 11.333 -14.5 20.833 -27.5 28.5
s-26.5 12.834 -40.5 15.501c-5.33301 1.33301 -10.666 2.33301 -15.999 3s-10.333 1 -15 1c-14.667 0 -27.5 -2.83301 -38.5 -8.5s-16.5 -14.167 -16.5 -25.5l-2 -3c0 -8.66699 4.33301 -16 13 -22s20 -12 34 -18c12.667 -6 27.167 -11.833 43.5 -17.5
s32.833 -11.834 49.5 -18.501c33.333 -14 64.166 -32 92.499 -54s44.166 -52 47.499 -90c0 -30.667 -2.66699 -58.167 -8 -82.5s-23.666 -48.166 -54.999 -71.499v1zM229.003 353.999c-4 -3.33301 -7.49902 -6.66895 -10.499 -10.002s-5.5 -6.66602 -7.5 -9.99902
c-4 -5.33301 -6.83301 -10.333 -8.5 -15s-2.5 -9 -2.5 -13c0 -9.33301 3.66699 -18.166 11 -26.499s16.333 -14.166 27 -17.499l107 -47c4.66699 3.33301 8.5 7.33301 11.5 12s5.16699 9.33398 6.5 14.001c1.33301 3.33301 2.16602 6.66602 2.49902 9.99902
s0.5 6.33301 0.5 9v3.5v2.5c-1.33301 9.33301 -4.5 18.166 -9.5 26.499s-11.5 13.5 -19.5 15.5l-108 46v0z" />
    <glyph glyph-name="glyph232" unicode="&#xd0;" 
 />
    <glyph glyph-name="Ntilde" unicode="&#xd1;" horiz-adv-x="543" 
d="M208 -150v398.001c-61.333 -0.666992 -109 20.666 -143 63.999s-51.333 91 -52 143v1.5v1.5v4v5c2 52 21.5 99.667 58.5 143s92.5 65 166.5 65l293 1v-76h-62v-750h-92v750h-76v-750h-93v0z" />
    <glyph glyph-name="scaron" unicode="&#xd2;" horiz-adv-x="470" 
 />
    <glyph glyph-name="Lslash" unicode="&#xd3;" 
 />
    <glyph glyph-name="lslash" unicode="&#xd4;" 
 />
    <glyph glyph-name="guilsinglright" unicode="&#xd5;" horiz-adv-x="688" 
d="M128 63c-32.667 24 -59.3311 60.833 -79.998 110.5s-31 102.5 -31 158.5c0 9.33301 0.333008 18.5 1 27.5s1.66699 18.167 3 27.5c4.66699 38.667 15.167 76.5 31.5 113.5s38.833 69.833 67.5 98.5c19.333 19.333 41.5 35 66.5 47s50.833 20.667 77.5 26
c13.333 3.33301 26.666 5.66602 39.999 6.99902s26.333 2 39 2c27.333 0 53 -2.83301 77 -8.5s41.333 -12.5 52 -20.5l56 95h106l-84 -147c31.333 -21.333 57.333 -56.666 78 -105.999s31 -102.666 31 -159.999c0 -12.667 -0.666992 -25.667 -2 -39s-3 -27 -5 -41
c-6 -31.333 -16 -62.333 -30 -93s-32.667 -58.667 -56 -84c-20 -22.667 -44.333 -40.5 -73 -53.5s-58.334 -21.5 -89.001 -25.5c-12 -2 -23.667 -3.5 -35 -4.5s-22.666 -1.5 -33.999 -1.5c-26.667 0 -51.834 2.16699 -75.501 6.5s-42.167 10.166 -55.5 17.499l-46 -83h-107
l77 130v0zM290.003 162c1.33301 -7.33301 6.16699 -13.501 14.5 -18.501s17.833 -7.5 28.5 -7.5c4 0 8.16699 0.5 12.5 1.5s8.83301 2.16699 13.5 3.5l11.5 5.5c3.66699 1.66699 7.16699 3.83398 10.5 6.50098c14.667 11.333 27.167 29.333 37.5 54s15.5 57 15.5 97
c0 10 -0.5 20.667 -1.5 32s-2.16699 23.333 -3.5 36c-0.666992 3.33301 -1.16699 6.5 -1.5 9.5s-0.5 6.16699 -0.5 9.5l-137 -229v0zM251.004 269.999l138 239.002c-0.666992 0 -1.5 0.166992 -2.5 0.5s-1.83301 0.5 -2.5 0.5c-7.33301 3.33301 -14.833 6.33301 -22.5 9
s-16.5 4 -26.5 4h-12.5c-4.33301 0 -8.83301 -0.666992 -13.5 -2c-5.33301 -0.666992 -10.166 -2 -14.499 -4s-8.5 -5 -12.5 -9c-10.667 -11.333 -20.334 -28.333 -29.001 -51s-13 -51.667 -13 -87c0 -12 1 -25 3 -39s4 -29.333 6 -46
c0 -2.66699 0.166992 -5.33398 0.5 -8.00098s0.833008 -5.33398 1.5 -8.00098v1z" />
    <glyph glyph-name="Odieresis" unicode="&#xd6;" 
 />
    <glyph glyph-name="multiply" unicode="&#xd7;" 
 />
    <glyph glyph-name="plusminus" unicode="&#xd8;" 
 />
    <glyph glyph-name="Thorn" unicode="&#xd9;" horiz-adv-x="470" 
 />
    <glyph glyph-name="Eth" unicode="&#xda;" 
 />
    <glyph glyph-name="eth" unicode="&#xdb;" horiz-adv-x="470" 
 />
    <glyph glyph-name="Udieresis" unicode="&#xdc;" 
 />
    <glyph glyph-name="Yacute" unicode="&#xdd;" 
 />
    <glyph glyph-name="glyph236" unicode="&#xde;" 
 />
    <glyph glyph-name="germandbls" unicode="&#xdf;" 
 />
    <glyph glyph-name="agrave" unicode="&#xe0;" horiz-adv-x="459" 
d="M229 653c0 17.333 5.83398 30.168 17.501 38.501s24.834 13.166 39.501 14.499h2.5h2.5l12 1c1.33301 -0.666992 2.66602 -1 3.99902 -1s2.33301 -0.333008 3 -1c12.667 -1.33301 24.167 -6.66602 34.5 -15.999s15.5 -21.666 15.5 -36.999
c0 -20.667 -6.33301 -37.334 -19 -50.001s-26.667 -20 -42 -22h-4h-4h-2.5h-2.5c-14.667 1.33301 -27.834 8.16602 -39.501 20.499s-17.5 29.5 -17.5 51.5v1zM53.001 653.002c0 18 6.00098 32.332 18.001 42.999s25.333 16.334 40 17.001h1.5h1.5
c19.333 0 35.666 -5.33301 48.999 -16s20 -25.667 20 -45c0 -22 -6.5 -38.667 -19.5 -50s-27.167 -17.333 -42.5 -18h-1.5h-1.5h-1.5h-1.5c-15.333 0.666992 -29.5 6.66699 -42.5 18s-19.5 28 -19.5 50v1z" />
    <glyph glyph-name="aacute" unicode="&#xe1;" horiz-adv-x="470" 
 />
    <glyph glyph-name="acircumflex" unicode="&#xe2;" 
 />
    <glyph glyph-name="atilde" unicode="&#xe3;" 
 />
    <glyph glyph-name="adieresis" unicode="&#xe4;" 
 />
    <glyph glyph-name="aring" unicode="&#xe5;" 
 />
    <glyph glyph-name="Otilde" unicode="&#xe6;" 
 />
    <glyph glyph-name="ccedilla" unicode="&#xe7;" 
 />
    <glyph glyph-name="egrave" unicode="&#xe8;" 
 />
    <glyph glyph-name="eacute" unicode="&#xe9;" horiz-adv-x="470" 
 />
    <glyph glyph-name="ecircumflex" unicode="&#xea;" horiz-adv-x="470" 
 />
    <glyph glyph-name="edieresis" unicode="&#xeb;" horiz-adv-x="470" 
 />
    <glyph glyph-name="igrave" unicode="&#xec;" 
 />
    <glyph glyph-name="iacute" unicode="&#xed;" 
 />
    <glyph glyph-name="icircumflex" unicode="&#xee;" 
 />
    <glyph glyph-name="idieresis" unicode="&#xef;" 
 />
    <glyph glyph-name="glyph233" unicode="&#xf0;" 
 />
    <glyph glyph-name="ntilde" unicode="&#xf1;" horiz-adv-x="470" 
 />
    <glyph glyph-name="ograve" unicode="&#xf2;" horiz-adv-x="470" 
 />
    <glyph glyph-name="oacute" unicode="&#xf3;" horiz-adv-x="470" 
 />
    <glyph glyph-name="ocircumflex" unicode="&#xf4;" horiz-adv-x="398" 
d="M91 547l-30 68l230 92l31 -92l-231 -68v0z" />
    <glyph glyph-name="otilde" unicode="&#xf5;" horiz-adv-x="470" 
 />
    <glyph glyph-name="odieresis" unicode="&#xf6;" horiz-adv-x="470" 
 />
    <glyph glyph-name="Aacute" unicode="&#xf7;" 
 />
    <glyph glyph-name="OE" unicode="&#xf8;" 
 />
    <glyph glyph-name="ugrave" unicode="&#xf9;" horiz-adv-x="337" 
d="M130 2l60.002 -0.000976562l-15 -46h2.5h2.5c1.33301 0.666992 2.33301 1 3 1h2c1.33301 0 2.66602 0.166992 3.99902 0.5s2.33301 0.5 3 0.5c23.333 0 41 -6.83301 53 -20.5s18 -29.5 18 -47.5c0 -2 -0.166992 -4.16699 -0.5 -6.5s-0.5 -4.83301 -0.5 -7.5
c-4 -18 -14.667 -34.5 -32 -49.5s-40.666 -22.5 -69.999 -22.5c-14.667 0 -30.834 2.33301 -48.501 7s-37.167 12.334 -58.5 23.001l23 46c0.666992 -0.666992 1.5 -1.16699 2.5 -1.5s1.83301 -0.833008 2.5 -1.5l15 -6.5c5.33301 -2.33301 10.666 -4.5 15.999 -6.5
c6 -2 12 -3.66699 18 -5s11.667 -2 17 -2c8.66699 0 16.667 2 24 6s11.333 9.66699 12 17v2.5c0 1 -0.333008 1.83301 -1 2.5c-1.33301 8.66699 -7.5 16.667 -18.5 24s-24.167 11 -39.5 11c-0.666992 0 -1.83398 -0.166992 -3.50098 -0.5s-3.16699 -0.5 -4.5 -0.5h-0.5h-0.5
c-1.33301 -0.666992 -2.66602 -1 -3.99902 -1h-4l23 84v0z" />
    <glyph glyph-name="uacute" unicode="&#xfa;" horiz-adv-x="470" 
 />
    <glyph glyph-name="ucircumflex" unicode="&#xfb;" horiz-adv-x="470" 
 />
    <glyph glyph-name="udieresis" unicode="&#xfc;" horiz-adv-x="470" 
 />
    <glyph glyph-name="yacute" unicode="&#xfd;" 
 />
    <glyph glyph-name="glyph237" unicode="&#xfe;" 
 />
    <glyph glyph-name="Egrave" unicode="&#xff;" 
 />
    <glyph glyph-name="Abreve" unicode="&#x102;" 
 />
    <glyph glyph-name="abreve" unicode="&#x103;" 
 />
    <glyph glyph-name="Aogonek" unicode="&#x104;" 
 />
    <glyph glyph-name="aogonek" unicode="&#x105;" 
 />
    <glyph glyph-name="Cacute" unicode="&#x106;" 
 />
    <glyph glyph-name="cacute" unicode="&#x107;" 
 />
    <glyph glyph-name="Ccaron" unicode="&#x10c;" 
 />
    <glyph glyph-name="ccaron" unicode="&#x10d;" 
 />
    <glyph glyph-name="Dcaron" unicode="&#x10e;" 
 />
    <glyph glyph-name="dcaron" unicode="&#x10f;" 
 />
    <glyph glyph-name="Dcroat" unicode="&#x110;" 
 />
    <glyph glyph-name="dcroat" unicode="&#x111;" 
 />
    <glyph glyph-name="Eogonek" unicode="&#x118;" 
 />
    <glyph glyph-name="eogonek" unicode="&#x119;" 
 />
    <glyph glyph-name="Ecaron" unicode="&#x11a;" 
 />
    <glyph glyph-name="ecaron" unicode="&#x11b;" 
 />
    <glyph glyph-name="Gbreve" unicode="&#x11e;" 
 />
    <glyph glyph-name="gbreve" unicode="&#x11f;" 
 />
    <glyph glyph-name="Idotaccent" unicode="&#x130;" 
 />
    <glyph glyph-name="thorn" unicode="&#x131;" 
 />
    <glyph glyph-name="Lacute" unicode="&#x139;" 
 />
    <glyph glyph-name="lacute" unicode="&#x13a;" 
 />
    <glyph glyph-name="Lcaron" unicode="&#x13d;" 
 />
    <glyph glyph-name="lcaron" unicode="&#x13e;" 
 />
    <glyph glyph-name="Ldot" unicode="&#x13f;" 
 />
    <glyph glyph-name="ldot" unicode="&#x140;" 
 />
    <glyph glyph-name="glyph225" unicode="&#x141;" 
 />
    <glyph glyph-name="glyph226" unicode="&#x142;" 
 />
    <glyph glyph-name="Nacute" unicode="&#x143;" 
 />
    <glyph glyph-name="nacute" unicode="&#x144;" 
 />
    <glyph glyph-name="Ncaron" unicode="&#x147;" 
 />
    <glyph glyph-name="ncaron" unicode="&#x148;" 
 />
    <glyph glyph-name="Ohungarumlaut" unicode="&#x150;" 
 />
    <glyph glyph-name="ohungarumlaut" unicode="&#x151;" 
 />
    <glyph glyph-name="fi" unicode="&#x152;" 
 />
    <glyph glyph-name="fl" unicode="&#x153;" horiz-adv-x="813" 
d="M474 230c0 -0.666992 -0.167969 -1.49707 -0.500977 -2.49707s-0.5 -1.83301 -0.5 -2.5v-0.5v-0.5c0 -0.666992 -0.166992 -1.33398 -0.5 -2.00098s-0.5 -1.33398 -0.5 -2.00098c0 -26.667 6.66699 -47.667 20 -63s28 -25 44 -29c2.66699 0 5.16699 -0.166992 7.5 -0.5
s4.5 -0.5 6.5 -0.5c15.333 0 29.5 5.5 42.5 16.5s19.833 26.833 20.5 47.5l170 -14c-11.333 -58 -39.833 -103.167 -85.5 -135.5s-94.5 -48.833 -146.5 -49.5h-2h-2c-4.66699 0 -9.16699 0.166992 -13.5 0.5s-8.5 0.5 -12.5 0.5c-29.333 3.33301 -58 12 -86 26
s-53 33.333 -75 58c-14.667 -22 -34.167 -39.833 -58.5 -53.5s-49.833 -22.5 -76.5 -26.5c-6 -0.666992 -12.333 -1.33398 -19 -2.00098s-13 -1 -19 -1c-42 0 -79.833 11.833 -113.5 35.5s-50.5 59.834 -50.5 108.501c0 58 22 104 66 138s121.667 54.667 233 62v9
c0 16.667 -5 30.334 -15 41.001s-21 16.667 -33 18c-0.666992 0.666992 -1.66699 1 -3 1h-4h-4c-1.33301 0 -2.66602 -0.333008 -3.99902 -1c-11.333 -1.33301 -22 -6.5 -32 -15.5s-17 -21.5 -21 -37.5l-168 17c8 46 31.333 82 70 108s80.334 42 125.001 48
c6.66699 1.33301 13.5 2.16602 20.5 2.49902s13.833 0.5 20.5 0.5c25.333 0 49.5 -3 72.5 -9s42.833 -15.333 59.5 -28c9.33301 5.33301 19 10.166 29 14.499s20 7.83301 30 10.5c13.333 4 26.5 7 39.5 9s25.833 3 38.5 3c65.333 0 121.666 -24.167 168.999 -72.5
s71 -112.5 71 -192.5v-34h-309v0zM321.999 248.003c-17.333 -5.33301 -32.167 -10.832 -44.5 -16.499s-22.833 -11.167 -31.5 -16.5c-12 -8 -20.5 -16 -25.5 -24s-7.5 -15.333 -7.5 -22c0 -0.666992 -0.166992 -1.33398 -0.5 -2.00098s-0.5 -1.66699 -0.5 -3
c0 -0.666992 -0.166992 -1.5 -0.5 -2.5s-0.5 -1.83301 -0.5 -2.5c0 -16 4.5 -28 13.5 -36s19.167 -12 30.5 -12c2 0 4 0.166992 6 0.5s3.66699 0.5 5 0.5c14 3.33301 26.833 11.333 38.5 24s17.5 28.667 17.5 48v64v0zM473.998 324.004l131.999 -0.000976562
c-4 14.667 -8.33301 27.334 -13 38.001s-10.667 18 -18 22c-3.33301 6.66699 -8 12 -14 16s-12.333 6.33301 -19 7h-3h-2h-4c-1.33301 0 -2.66602 -0.333008 -3.99902 -1c-13.333 -2 -25.833 -10.333 -37.5 -25s-17.5 -34 -17.5 -58v1z" />
    <glyph glyph-name="Racute" unicode="&#x154;" 
 />
    <glyph glyph-name="racute" unicode="&#x155;" 
 />
    <glyph glyph-name="Rcaron" unicode="&#x158;" 
 />
    <glyph glyph-name="rcaron" unicode="&#x159;" 
 />
    <glyph glyph-name="Sacute" unicode="&#x15a;" 
 />
    <glyph glyph-name="sacute" unicode="&#x15b;" 
 />
    <glyph glyph-name="Scedilla" unicode="&#x15e;" 
 />
    <glyph glyph-name="scedilla" unicode="&#x15f;" 
 />
    <glyph glyph-name="glyph227" unicode="&#x160;" horiz-adv-x="375" 
d="M4 263v91h360v-91h-360v0zM4 539c0 45.333 16.333 79.8311 49 103.498s68.667 36.834 108 39.501c2.66699 0.666992 5.66699 1 9 1h9c46.667 0 88.167 -11.5 124.5 -34.5s56.5 -57.167 60.5 -102.5v-15c0 -50.667 -17.5 -89.667 -52.5 -117s-73.833 -42 -116.5 -44h-4h-4
h-4h-4c-44 2 -84.167 17.333 -120.5 46s-54.5 69.334 -54.5 122.001v1zM187 614.998c-14 -0.666992 -25.834 -8.33398 -35.501 -23.001s-15.5 -30.667 -17.5 -48c-0.666992 -2.66699 -1 -5.16699 -1 -7.5v-6.5c0 -23.333 4.33301 -43.333 13 -60s22.334 -25 41.001 -25
c13.333 0 23.333 8.83301 30 26.5s10 36.834 10 57.501v4v4c-0.666992 19.333 -4.5 37 -11.5 53s-16.5 24 -28.5 24v1z" />
    <glyph glyph-name="glyph228" unicode="&#x161;" 
 />
    <glyph glyph-name="Tcommaaccent" unicode="&#x162;" 
 />
    <glyph glyph-name="tcommaaccent" unicode="&#x163;" 
 />
    <glyph glyph-name="Tcaron" unicode="&#x164;" 
 />
    <glyph glyph-name="tcaron" unicode="&#x165;" 
 />
    <glyph glyph-name="Uring" unicode="&#x16e;" 
 />
    <glyph glyph-name="uring" unicode="&#x16f;" 
 />
    <glyph glyph-name="Uhungarumlaut" unicode="&#x170;" 
 />
    <glyph glyph-name="uhungarumlaut" unicode="&#x171;" 
 />
    <glyph glyph-name="Iacute" unicode="&#x178;" 
 />
    <glyph glyph-name="Zacute" unicode="&#x179;" 
 />
    <glyph glyph-name="zacute" unicode="&#x17a;" 
 />
    <glyph glyph-name="Zdotaccent" unicode="&#x17b;" 
 />
    <glyph glyph-name="zdotaccent" unicode="&#x17c;" 
 />
    <glyph glyph-name="Zcaron" unicode="&#x17d;" 
 />
    <glyph glyph-name="zcaron" unicode="&#x17e;" 
 />
    <glyph glyph-name="quotedblright" unicode="&#x192;" 
 />
    <glyph glyph-name="uni02BA" unicode="&#x2ba;" 
 />
    <glyph glyph-name="arrowright" unicode="&#x2c6;" 
 />
    <glyph glyph-name="glyph224" unicode="&#x2c7;" 
 />
    <glyph glyph-name="house" unicode="&#x2c9;" 
 />
    <glyph glyph-name="endash" unicode="&#x2d8;" 
 />
    <glyph glyph-name="sfthyphen" unicode="&#x2d9;" 
 />
    <glyph glyph-name="filledbox" unicode="&#x2da;" 
 />
    <glyph glyph-name="glyph223" unicode="&#x2db;" 
 />
    <glyph glyph-name="onehalf" unicode="&#x2dc;" 
 />
    <glyph glyph-name="Gamma" unicode="&#x393;" 
 />
    <glyph glyph-name="Theta" unicode="&#x398;" 
 />
    <glyph glyph-name="exclamdown" unicode="&#x3a3;" 
 />
    <glyph glyph-name="Phi" unicode="&#x3a6;" 
 />
    <glyph glyph-name="Atilde" unicode="&#x3a9;" 
 />
    <glyph glyph-name="alpha" unicode="&#x3b1;" 
 />
    <glyph glyph-name="delta" unicode="&#x3b4;" 
 />
    <glyph glyph-name="epsilon" unicode="&#x3b5;" 
 />
    <glyph glyph-name="guillemotleft" unicode="&#x3c0;" 
 />
    <glyph glyph-name="sigma" unicode="&#x3c3;" 
 />
    <glyph glyph-name="tau" unicode="&#x3c4;" 
 />
    <glyph glyph-name="phi" unicode="&#x3c6;" 
 />
    <glyph glyph-name="glyph259" unicode="&#x2013;" 
 />
    <glyph glyph-name="periodcentered" unicode="&#x2014;" horiz-adv-x="470" 
 />
    <glyph glyph-name="underscoredbl" unicode="&#x2017;" 
 />
    <glyph glyph-name="Acircumflex" unicode="&#x2018;" 
 />
    <glyph glyph-name="Ecircumflex" unicode="&#x2019;" 
 />
    <glyph glyph-name="Ugrave" unicode="&#x201a;" 
 />
    <glyph glyph-name="quotedblbase" unicode="&#x201c;" horiz-adv-x="470" 
 />
    <glyph glyph-name="perthousand" unicode="&#x201d;" horiz-adv-x="470" 
 />
    <glyph glyph-name="dotlessi" unicode="&#x201e;" 
 />
    <glyph glyph-name="dagger" unicode="&#x2020;" 
 />
    <glyph glyph-name="Uacute" unicode="&#x2021;" 
 />
    <glyph glyph-name="glyph262" unicode="&#x2022;" 
 />
    <glyph glyph-name="fraction" unicode="&#x2026;" 
 />
    <glyph glyph-name="circumflex" unicode="&#x2030;" 
 />
    <glyph glyph-name="Igrave" unicode="&#x2039;" horiz-adv-x="417" 
d="M48 263l83 137h84l-61 -137l54 -139h-77l-83 139v0zM200 263l86 137h84l-61 -137l53 -139h-76l-86 139v0z" />
    <glyph glyph-name="Oacute" unicode="&#x203a;" horiz-adv-x="470" 
 />
    <glyph glyph-name="exclamdbl" unicode="&#x203c;" 
 />
    <glyph glyph-name="uni207F" unicode="&#x207f;" 
 />
    <glyph glyph-name="franc" unicode="&#x20a3;" 
 />
    <glyph glyph-name="peseta" unicode="&#x20a7;" 
 />
    <glyph glyph-name="trademark" unicode="&#x2122;" horiz-adv-x="524" 
d="M122 392l-46 132v152h153v-152l-39 -132h-68v0zM314 392l-38 132v152h153v-152l-46 -132h-69v0z" />
    <glyph glyph-name="arrowleft" unicode="&#x2190;" 
 />
    <glyph glyph-name="arrowup" unicode="&#x2191;" 
 />
    <glyph glyph-name="glyph257" unicode="&#x2192;" horiz-adv-x="375" 
d="M4 263v84h352v-84h-352v0zM225 585c0 10.667 -4.5 19.835 -13.5 27.502s-19.167 11.5 -30.5 11.5c-2.66699 0 -5.5 -0.333008 -8.5 -1s-5.83301 -1.33398 -8.5 -2.00098c-7.33301 -3.33301 -14.333 -8 -21 -14s-12.334 -13.667 -17.001 -23l-107 16l-2 2
c0 26 16.167 47.167 48.5 63.5s67.833 25.5 106.5 27.5c2.66699 0.666992 5.66699 1 9 1h9h1.5h1.5c38.667 -0.666992 74.334 -9 107.001 -25s49 -42 49 -78v-161c0 -11.333 0.333008 -21.333 1 -30s2.66699 -16.667 6 -24l-131 1v38c-10 -12 -21.833 -21.5 -35.5 -28.5
s-27.5 -12.167 -41.5 -15.5c-4.66699 -0.666992 -9.16699 -1.16699 -13.5 -1.5s-8.5 -0.5 -12.5 -0.5c-30.667 0 -58 8.83301 -82 26.5s-36 39.167 -36 64.5c0 46.667 20.667 77.167 62 91.5s94.333 25.166 159 32.499v1zM225 524.001
c-8 -2.66699 -15.333 -4.99902 -22 -6.99902s-12.667 -3.66699 -18 -5c-6 -2 -11.333 -4 -16 -6s-9 -4 -13 -6c-7.33301 -4 -11.666 -8.5 -12.999 -13.5s-2 -11.167 -2 -18.5c0 -8 3.16699 -14.5 9.5 -19.5s13.166 -7.5 20.499 -7.5c2.66699 0 5.16699 0.166992 7.5 0.5
s4.83301 1.16602 7.5 2.49902c10 4 19 12.333 27 25s12 30.667 12 54v1z" />
    <glyph glyph-name="arrowdown" unicode="&#x2193;" 
 />
    <glyph glyph-name="arrowboth" unicode="&#x2194;" 
 />
    <glyph glyph-name="arrowupdn" unicode="&#x2195;" 
 />
    <glyph glyph-name="arrowupdnbse" unicode="&#x21a8;" 
 />
    <glyph glyph-name="questiondown" unicode="&#x2202;" 
 />
    <glyph glyph-name="quoteright" unicode="&#x2206;" 
 />
    <glyph glyph-name="florin" unicode="&#x220f;" 
 />
    <glyph glyph-name="minus" unicode="&#x2212;" 
 />
    <glyph glyph-name="Icircumflex" unicode="&#x2215;" 
 />
    <glyph glyph-name="Ucircumflex" unicode="&#x2219;" 
 />
    <glyph glyph-name="quotedblleft" unicode="&#x221a;" 
 />
    <glyph glyph-name="yen" unicode="&#x221e;" 
 />
    <glyph glyph-name="orthogonal" unicode="&#x221f;" 
 />
    <glyph glyph-name="intersection" unicode="&#x2229;" 
 />
    <glyph glyph-name="guillemotright" unicode="&#x222b;" 
 />
    <glyph glyph-name="quoteleft" unicode="&#x2248;" 
 />
    <glyph glyph-name="AE" unicode="&#x2260;" 
 />
    <glyph glyph-name="equivalence" unicode="&#x2261;" 
 />
    <glyph glyph-name="ordfeminine" unicode="&#x2264;" 
 />
    <glyph glyph-name="ordmasculine" unicode="&#x2265;" 
 />
    <glyph glyph-name="glyph258" unicode="&#x2302;" 
 />
    <glyph glyph-name="revlogicalnot" unicode="&#x2310;" 
 />
    <glyph glyph-name="integraltp" unicode="&#x2320;" 
 />
    <glyph glyph-name="integralbt" unicode="&#x2321;" 
 />
    <glyph glyph-name="SF100000" unicode="&#x2500;" 
 />
    <glyph glyph-name="SF110000" unicode="&#x2502;" 
 />
    <glyph glyph-name="SF010000" unicode="&#x250c;" 
 />
    <glyph glyph-name="SF030000" unicode="&#x2510;" 
 />
    <glyph glyph-name="SF020000" unicode="&#x2514;" 
 />
    <glyph glyph-name="SF040000" unicode="&#x2518;" 
 />
    <glyph glyph-name="SF080000" unicode="&#x251c;" 
 />
    <glyph glyph-name="SF090000" unicode="&#x2524;" 
 />
    <glyph glyph-name="SF060000" unicode="&#x252c;" 
 />
    <glyph glyph-name="SF070000" unicode="&#x2534;" 
 />
    <glyph glyph-name="SF050000" unicode="&#x253c;" 
 />
    <glyph glyph-name="SF430000" unicode="&#x2550;" 
 />
    <glyph glyph-name="SF240000" unicode="&#x2551;" 
 />
    <glyph glyph-name="SF510000" unicode="&#x2552;" 
 />
    <glyph glyph-name="SF520000" unicode="&#x2553;" 
 />
    <glyph glyph-name="SF390000" unicode="&#x2554;" 
 />
    <glyph glyph-name="SF220000" unicode="&#x2555;" 
 />
    <glyph glyph-name="SF210000" unicode="&#x2556;" 
 />
    <glyph glyph-name="SF250000" unicode="&#x2557;" 
 />
    <glyph glyph-name="SF500000" unicode="&#x2558;" 
 />
    <glyph glyph-name="SF490000" unicode="&#x2559;" 
 />
    <glyph glyph-name="SF380000" unicode="&#x255a;" 
 />
    <glyph glyph-name="SF280000" unicode="&#x255b;" 
 />
    <glyph glyph-name="SF270000" unicode="&#x255c;" 
 />
    <glyph glyph-name="SF260000" unicode="&#x255d;" 
 />
    <glyph glyph-name="SF360000" unicode="&#x255e;" 
 />
    <glyph glyph-name="SF370000" unicode="&#x255f;" 
 />
    <glyph glyph-name="SF420000" unicode="&#x2560;" 
 />
    <glyph glyph-name="SF190000" unicode="&#x2561;" 
 />
    <glyph glyph-name="SF200000" unicode="&#x2562;" 
 />
    <glyph glyph-name="SF230000" unicode="&#x2563;" 
 />
    <glyph glyph-name="SF470000" unicode="&#x2564;" 
 />
    <glyph glyph-name="SF480000" unicode="&#x2565;" 
 />
    <glyph glyph-name="SF410000" unicode="&#x2566;" 
 />
    <glyph glyph-name="SF450000" unicode="&#x2567;" 
 />
    <glyph glyph-name="SF460000" unicode="&#x2568;" 
 />
    <glyph glyph-name="SF400000" unicode="&#x2569;" 
 />
    <glyph glyph-name="SF540000" unicode="&#x256a;" 
 />
    <glyph glyph-name="SF530000" unicode="&#x256b;" 
 />
    <glyph glyph-name="SF440000" unicode="&#x256c;" 
 />
    <glyph glyph-name="upblock" unicode="&#x2580;" 
 />
    <glyph glyph-name="dnblock" unicode="&#x2584;" 
 />
    <glyph glyph-name="block" unicode="&#x2588;" 
 />
    <glyph glyph-name="lfblock" unicode="&#x258c;" 
 />
    <glyph glyph-name="rtblock" unicode="&#x2590;" 
 />
    <glyph glyph-name="ltshade" unicode="&#x2591;" 
 />
    <glyph glyph-name="shade" unicode="&#x2592;" 
 />
    <glyph glyph-name="dkshade" unicode="&#x2593;" 
 />
    <glyph glyph-name="glyph261" unicode="&#x25a0;" horiz-adv-x="470" 
 />
    <glyph glyph-name="filledrect" unicode="&#x25ac;" 
 />
    <glyph glyph-name="triagup" unicode="&#x25b2;" 
 />
    <glyph glyph-name="triagrt" unicode="&#x25ba;" 
 />
    <glyph glyph-name="triagdn" unicode="&#x25bc;" 
 />
    <glyph glyph-name="triaglf" unicode="&#x25c4;" 
 />
    <glyph glyph-name="Edieresis" unicode="&#x25ca;" 
 />
    <glyph glyph-name="circle" unicode="&#x25cb;" 
 />
    <glyph glyph-name="invbullet" unicode="&#x25d8;" 
 />
    <glyph glyph-name="invcircle" unicode="&#x25d9;" 
 />
    <glyph glyph-name="smileface" unicode="&#x263a;" 
 />
    <glyph glyph-name="invsmileface" unicode="&#x263b;" 
 />
    <glyph glyph-name="sun" unicode="&#x263c;" 
 />
    <glyph glyph-name="female" unicode="&#x2640;" 
 />
    <glyph glyph-name="male" unicode="&#x2642;" 
 />
    <glyph glyph-name="spade" unicode="&#x2660;" 
 />
    <glyph glyph-name="club" unicode="&#x2663;" 
 />
    <glyph glyph-name="heart" unicode="&#x2665;" 
 />
    <glyph glyph-name="diamond" unicode="&#x2666;" 
 />
    <glyph glyph-name="musicalnote" unicode="&#x266a;" 
 />
    <glyph glyph-name="musicalnotedbl" unicode="&#x266b;" 
 />
    <glyph glyph-name="Scaron" unicode="&#xf000;" 
 />
    <glyph glyph-name="Ocircumflex" unicode="&#xf001;" 
 />
    <glyph glyph-name="Ograve" unicode="&#xf002;" 
 />
    <glyph glyph-name="glyph1" 
 />
    <glyph glyph-name="glyph2" horiz-adv-x="470" 
 />
    <glyph glyph-name="degree" horiz-adv-x="470" 
 />
    <glyph glyph-name="bullet" 
 />
    <glyph glyph-name="daggerdbl" 
 />
    </font>
</defs>
</svg>
